<svg xmlns="http://www.w3.org/2000/svg" width="14.193" height="11.613" viewBox="0 0 14.193 11.613"><defs><style>.a{fill:#353639;}</style></defs><g transform="translate(-6 -14)"><g transform="translate(6 14)"><path class="a" d="M6.292,966.362a.323.323,0,0,0-.292.323v1.935a.323.323,0,0,0,.323.323h.806v8.709a.323.323,0,0,0,.323.323h11.29a.323.323,0,0,0,.323-.323v-8.709h.806a.323.323,0,0,0,.323-.323v-1.935a.323.323,0,0,0-.323-.323H6.292Zm.353.645h12.9v1.29H6.645v-1.29Zm1.129,1.935H18.419v8.387H7.774Zm4.163,3.871a.323.323,0,1,0,.03.645h2.258a.323.323,0,1,0,0-.645H11.937Z" transform="translate(-6 -966.362)"/></g></g></svg>