<svg xmlns="http://www.w3.org/2000/svg" width="12.047" height="15.851" viewBox="0 0 12.047 15.851"><defs><style>.a{fill:#fff;stroke:#fff;stroke-linecap:round;stroke-width:0.4px;}</style></defs><g transform="translate(-15.128 -5.668)"><g transform="translate(15.328 5.868)"><path class="a" d="M24.9,21.319H15.678a.35.35,0,0,1-.35-.35V6.218a.35.35,0,0,1,.35-.35H26.624a.35.35,0,0,1,.35.35V19.182c0,.083,0,.154,0,.171a.174.174,0,0,1-.038.116c-.055.068-.084.068-.311.069l-1.369,0v1.429c0,.231,0,.3-.122.342l-.02.005A1.387,1.387,0,0,1,24.9,21.319Zm-9.225-15.1V20.969h9.228V19.54a.351.351,0,0,1,.349-.35l1.369,0V6.218Z" transform="translate(-15.328 -5.868)"/><path class="a" d="M70.465,84.194a.175.175,0,0,1-.127-.3l1.678-1.765a.175.175,0,0,1,.253.241l-1.678,1.765A.175.175,0,0,1,70.465,84.194Z" transform="translate(-60.677 -68.749)"/><g transform="translate(1.691 3.583)"><path class="a" d="M26.759,52.587a.819.819,0,0,1-.581-.24l-.943-.943a.823.823,0,0,1,0-1.162l1.811-1.81c.331-.331.741-.422.953-.21l.248.248a.175.175,0,0,1-.247.247l-.248-.248c-.032-.032-.239-.009-.458.21l-1.811,1.81a.473.473,0,0,0,0,.667l.943.943a.472.472,0,0,0,.667,0l1.81-1.811c.2-.2.25-.4.227-.441l-.227-.227a.175.175,0,0,1,.247-.247l.229.229c.2.2.1.6-.229.934l-1.81,1.811A.819.819,0,0,1,26.759,52.587Z" transform="translate(-24.994 -44.302)"/><path class="a" d="M48.4,30.844a.373.373,0,0,1-.272-.1l-.229-.229a.175.175,0,1,1,.247-.247l.229.229c.04.022.239-.029.439-.229l1.811-1.811a.472.472,0,0,0,0-.667l-.943-.943a.473.473,0,0,0-.667,0l-1.81,1.81c-.219.219-.242.426-.21.458l.248.248a.175.175,0,0,1-.247.247l-.248-.248c-.212-.212-.122-.621.21-.953l1.81-1.81a.823.823,0,0,1,1.162,0l.943.943a.823.823,0,0,1,0,1.162l-1.811,1.81A1.006,1.006,0,0,1,48.4,30.844Z" transform="translate(-42.851 -26.355)"/><path class="a" d="M40.715,45.37a.175.175,0,0,1-.124-.3L43,42.661a.175.175,0,0,1,.247.247l-2.411,2.411A.174.174,0,0,1,40.715,45.37Z" transform="translate(-37.821 -39.767)"/></g></g></g></svg>