<svg xmlns="http://www.w3.org/2000/svg" width="19" height="22" viewBox="0 0 19 22"><defs><style>.a{fill:#fff;}</style></defs><g transform="translate(-11.999 -6)"><g transform="translate(11.998 6)"><path class="a" d="M21.444,958.365a.5.5,0,0,0-.445.508V960.4a7.24,7.24,0,0,0-6.75,7.223v5.5a1.114,1.114,0,0,1-.227.757,2.1,2.1,0,0,1-.6.453,4.222,4.222,0,0,0-.859.57A1.819,1.819,0,0,0,12,976.075c0,.013,0,.026,0,.039v1a.5.5,0,0,0,.5.5h6.453v.156a2.574,2.574,0,0,0,2.539,2.593H21.5a2.579,2.579,0,0,0,2.547-2.593v-.156H30.5a.5.5,0,0,0,.5-.5v-1c0-.013,0-.026,0-.039a1.82,1.82,0,0,0-.562-1.179,4.223,4.223,0,0,0-.859-.57,2.1,2.1,0,0,1-.6-.453,1.115,1.115,0,0,1-.227-.757v-5.5A7.24,7.24,0,0,0,22,960.4v-1.523a.5.5,0,0,0-.555-.508Zm.055,3.006a6.22,6.22,0,0,1,6.25,6.247v5.5a2.2,2.2,0,0,0,.445,1.382,2.953,2.953,0,0,0,.891.695,3.964,3.964,0,0,1,.672.437.677.677,0,0,1,.242.523v.461H13v-.461a.677.677,0,0,1,.242-.523,3.968,3.968,0,0,1,.672-.437,2.952,2.952,0,0,0,.891-.7,2.2,2.2,0,0,0,.445-1.382v-5.5a6.22,6.22,0,0,1,6.25-6.247Zm.2,1a.5.5,0,1,0,.047,1,3.674,3.674,0,0,1,2.961,1.5,4.833,4.833,0,0,1,1.039,2.749.5.5,0,0,0,1,0,5.667,5.667,0,0,0-1.25-3.373,4.736,4.736,0,0,0-3.75-1.874H21.7Zm-1.75,15.243h3.094v.156a1.565,1.565,0,0,1-1.547,1.593h-.008a1.558,1.558,0,0,1-1.539-1.593v-.156Z" transform="translate(-11.998 -958.362)"/></g></g></svg>