<svg xmlns="http://www.w3.org/2000/svg" width="35.899" height="33.461" viewBox="0 0 35.899 33.461"><defs><style>.a{fill:#e29342;}</style></defs><g transform="translate(0)"><path class="a" d="M8.618,14.54A10.98,10.98,0,0,1,18.7,4.8a10.9,10.9,0,0,1,7.14,19.711v1.768a.925.925,0,1,1-1.85,0v-1.9a1.628,1.628,0,0,1,.7-1.321,9.054,9.054,0,1,0-10.455,0,1.635,1.635,0,0,1,.7,1.324v1.894a.925.925,0,1,1-1.85,0V24.51a10.95,10.95,0,0,1-4.469-9.97Zm5.394,14.395H24.906a.925.925,0,0,1,.925.925V32.29a3.7,3.7,0,0,1-2.32,3.4v.37a2.175,2.175,0,0,1-2.172,2.172H17.593a2.175,2.175,0,0,1-2.172-2.172v-.37a3.7,3.7,0,0,1-2.327-3.4V29.86a.925.925,0,0,1,.917-.925Zm.925,3.355a1.813,1.813,0,0,0,1.546,1.791.925.925,0,0,1,.788.914v1.077a.322.322,0,0,0,.322.322h3.736a.322.322,0,0,0,.322-.322V34.987a.925.925,0,0,1,.792-.906A1.813,1.813,0,0,0,23.981,32.3V30.785H14.936ZM5.384,16.612a.925.925,0,1,0,0-1.85H2.425a.925.925,0,0,0,0,1.85ZM4.337,8.436,7.1,10.249A.925.925,0,0,0,8.115,8.7L5.351,6.89A.925.925,0,1,0,4.337,8.436Zm.507,16.2a.921.921,0,0,0,.507-.152l2.763-1.813A.925.925,0,1,0,7.1,21.133L4.337,22.945a.925.925,0,0,0,.507,1.7ZM32.59,15.687a.925.925,0,0,0,.925.925h2.96a.925.925,0,0,0,0-1.85H33.5a.925.925,0,0,0-.925.925ZM31.28,10.4a.921.921,0,0,0,.507-.152L34.551,8.44a.925.925,0,0,0-1.014-1.546L30.774,8.706a.925.925,0,0,0,.507,1.7Zm2.257,14.084a.925.925,0,0,0,1.014-1.546l-2.767-1.809a.925.925,0,0,0-1.014,1.546ZM19.479,10.922a.925.925,0,0,0-1.191.544l-1.65,4.439a.925.925,0,0,0,.866,1.247h2.59l-1.188,3.189a.925.925,0,1,0,1.735.644l1.65-4.439a.925.925,0,0,0-.866-1.247h-2.59l1.188-3.189a.925.925,0,0,0-.544-1.188Z" transform="translate(-1.5 -4.77)"/></g></svg>