<svg xmlns="http://www.w3.org/2000/svg" width="24.545" height="27" viewBox="0 0 24.545 27"><defs><style>.a{fill:#958f8f;}</style></defs><path class="a" d="M18.349,15.7h.7a.351.351,0,0,0,0-.7h-.7A2.349,2.349,0,0,0,16,17.349V37.2a2.349,2.349,0,0,0,2.349,2.349H38.2A2.349,2.349,0,0,0,40.545,37.2V17.349A2.349,2.349,0,0,0,38.2,15H37.39a.351.351,0,0,0,0,.7H38.2a1.646,1.646,0,0,1,1.648,1.648v4.313H16.7V17.349A1.646,1.646,0,0,1,18.349,15.7Zm21.495,6.662V37.2A1.646,1.646,0,0,1,38.2,38.844H18.349A1.646,1.646,0,0,1,16.7,37.2V22.364Z" transform="translate(-16 -12.545)"/><path class="a" d="M38.3,15.351a.331.331,0,0,0,.351.351h8.17a.351.351,0,0,0,0-.7h-8.17A.351.351,0,0,0,38.3,15.351Z" transform="translate(-30.481 -12.545)"/><path class="a" d="M27.052,47.857h1.753a1.033,1.033,0,0,0,1.052-1.052V45.052A1.033,1.033,0,0,0,28.805,44H27.052A1.033,1.033,0,0,0,26,45.052v1.753A1.033,1.033,0,0,0,27.052,47.857ZM26.7,45.052a.331.331,0,0,1,.351-.351h1.753a.331.331,0,0,1,.351.351v1.753a.331.331,0,0,1-.351.351H27.052a.331.331,0,0,1-.351-.351Z" transform="translate(-22.494 -31.377)"/><path class="a" d="M46.052,47.857h1.753a1.033,1.033,0,0,0,1.052-1.052V45.052A1.033,1.033,0,0,0,47.805,44H46.052A1.033,1.033,0,0,0,45,45.052v1.753A1.033,1.033,0,0,0,46.052,47.857ZM45.7,45.052a.331.331,0,0,1,.351-.351h1.753a.331.331,0,0,1,.351.351v1.753a.331.331,0,0,1-.351.351H46.052a.331.331,0,0,1-.351-.351Z" transform="translate(-34.831 -31.377)"/><path class="a" d="M65.052,47.857h1.753a1.033,1.033,0,0,0,1.052-1.052V45.052A1.033,1.033,0,0,0,66.805,44H65.052A1.033,1.033,0,0,0,64,45.052v1.753A1.033,1.033,0,0,0,65.052,47.857ZM64.7,45.052a.331.331,0,0,1,.351-.351h1.753a.331.331,0,0,1,.351.351v1.753a.331.331,0,0,1-.351.351H65.052a.331.331,0,0,1-.351-.351Z" transform="translate(-47.169 -31.377)"/><path class="a" d="M27.052,66.857h1.753a1.033,1.033,0,0,0,1.052-1.052V64.052A1.033,1.033,0,0,0,28.805,63H27.052A1.033,1.033,0,0,0,26,64.052v1.753A1.033,1.033,0,0,0,27.052,66.857ZM26.7,64.052a.331.331,0,0,1,.351-.351h1.753a.331.331,0,0,1,.351.351v1.753a.331.331,0,0,1-.351.351H27.052a.331.331,0,0,1-.351-.351Z" transform="translate(-22.494 -43.714)"/><path class="a" d="M46.052,66.857h1.753a1.033,1.033,0,0,0,1.052-1.052V64.052A1.033,1.033,0,0,0,47.805,63H46.052A1.033,1.033,0,0,0,45,64.052v1.753A1.033,1.033,0,0,0,46.052,66.857ZM45.7,64.052a.331.331,0,0,1,.351-.351h1.753a.331.331,0,0,1,.351.351v1.753a.331.331,0,0,1-.351.351H46.052a.331.331,0,0,1-.351-.351Z" transform="translate(-34.831 -43.714)"/><path class="a" d="M65.052,66.857h1.753a1.033,1.033,0,0,0,1.052-1.052V64.052A1.033,1.033,0,0,0,66.805,63H65.052A1.033,1.033,0,0,0,64,64.052v1.753A1.033,1.033,0,0,0,65.052,66.857ZM64.7,64.052a.331.331,0,0,1,.351-.351h1.753a.331.331,0,0,1,.351.351v1.753a.331.331,0,0,1-.351.351H65.052a.331.331,0,0,1-.351-.351Z" transform="translate(-47.169 -43.714)"/><path class="a" d="M66,9.052v3.506a1.033,1.033,0,0,0,1.052,1.052h.7a1.033,1.033,0,0,0,1.052-1.052V9.052A1.033,1.033,0,0,0,67.753,8h-.7A1.033,1.033,0,0,0,66,9.052Zm2.1,0v3.506a.331.331,0,0,1-.351.351h-.7a.331.331,0,0,1-.351-.351V9.052a.331.331,0,0,1,.351-.351h.7A.331.331,0,0,1,68.1,9.052Z" transform="translate(-48.468 -8)"/><path class="a" d="M29.753,13.61a1.033,1.033,0,0,0,1.052-1.052V9.052A1.033,1.033,0,0,0,29.753,8h-.7A1.033,1.033,0,0,0,28,9.052v3.506a1.033,1.033,0,0,0,1.052,1.052ZM28.7,12.558V9.052a.331.331,0,0,1,.351-.351h.7a.331.331,0,0,1,.351.351v3.506a.331.331,0,0,1-.351.351h-.7A.331.331,0,0,1,28.7,12.558Z" transform="translate(-23.792 -8)"/></svg>