<svg xmlns="http://www.w3.org/2000/svg" width="53.267" height="53.267" viewBox="0 0 53.267 53.267">
  <g id="noun_Caution_1960012" transform="translate(51.267 51.267) rotate(180)">
    <g id="Layer_14" data-name="Layer 14" transform="translate(1 1)">
      <g id="Path_3304" data-name="Path 3304" transform="translate(-1 -1)" fill="rgba(240,159,19,0.6)">
        <path d="M 24.63330841064453 49.76660919189453 C 21.24099922180176 49.76660919189453 17.9493579864502 49.10187911987305 14.84983825683594 47.79088973999023 C 11.85679817199707 46.52495193481445 9.169098854064941 44.71295166015625 6.861378192901611 42.40523910522461 C 4.55366849899292 40.09751892089844 2.741668462753296 37.40982055664063 1.475728392601013 34.41678237915039 C 0.1647384166717529 31.31725120544434 -0.4999915957450867 28.02562141418457 -0.4999915957450867 24.63330078125 C -0.4999915957450867 21.24099159240723 0.1647384166717529 17.94935035705566 1.475728392601013 14.84983062744141 C 2.741668462753296 11.85679054260254 4.55366849899292 9.16909122467041 6.861378192901611 6.86137056350708 C 9.169098854064941 4.553660869598389 11.85679817199707 2.741660833358765 14.84982872009277 1.475720763206482 C 17.94934844970703 0.1647307872772217 21.24098777770996 -0.4999992251396179 24.63329887390137 -0.4999992251396179 C 28.0256175994873 -0.4999992251396179 31.3172492980957 0.1647307872772217 34.41677856445313 1.475720763206482 C 37.40981674194336 2.741660833358765 40.09751892089844 4.553660869598389 42.40523910522461 6.86137056350708 C 44.71295928955078 9.16909122467041 46.52494812011719 11.85679054260254 47.79089736938477 14.84983062744141 C 49.10188674926758 17.94935035705566 49.76661682128906 21.24099159240723 49.76661682128906 24.63330078125 C 49.76661682128906 28.02562141418457 49.10188674926758 31.31725120544434 47.79089736938477 34.41678237915039 C 46.52495956420898 37.40982055664063 44.71295928955078 40.09751892089844 42.40524673461914 42.40523910522461 C 40.09752655029297 44.71295166015625 37.40982818603516 46.52495193481445 34.41679000854492 47.79088973999023 C 31.31725883483887 49.10187911987305 28.0256290435791 49.76660919189453 24.63330841064453 49.76660919189453 Z M 24.63329887390137 15.70314121246338 C 24.59163856506348 15.70314121246338 24.55774879455566 15.73703098297119 24.55774879455566 15.77869033813477 L 24.55774879455566 40.38883972167969 C 24.55774879455566 40.43050003051758 24.59163856506348 40.46438980102539 24.63329887390137 40.46438980102539 C 24.67495918273926 40.46438980102539 24.70885848999023 40.43050003051758 24.70885848999023 40.38883972167969 L 24.70885848999023 15.77869033813477 C 24.70885848999023 15.73703098297119 24.67495918273926 15.70314121246338 24.63329887390137 15.70314121246338 Z M 24.63400840759277 7.258090972900391 C 24.23197746276855 7.258090972900391 23.85371780395508 7.414120674133301 23.56889915466309 7.697440624237061 C 23.13395881652832 8.130110740661621 23.0041389465332 8.776130676269531 23.23816871643066 9.343260765075684 C 23.47220802307129 9.910350799560547 24.01982879638672 10.27679061889648 24.63329887390137 10.27679061889648 C 25.46122932434082 10.27679061889648 26.13829803466797 9.60326099395752 26.14262771606445 8.775381088256836 C 26.14583778381348 8.161890983581543 25.78227806091309 7.612340927124023 25.21639823913574 7.375340938568115 C 25.0306282043457 7.297540664672852 24.83468818664551 7.258090972900391 24.63400840759277 7.258090972900391 Z" stroke="none"/>
        <path d="M 24.63329887390137 1 C 11.58098983764648 1 1 11.58098983764648 1 24.63330078125 C 1 37.68561172485352 11.58098983764648 48.2666015625 24.63330841064453 48.2666015625 C 37.68561935424805 48.2666015625 48.26660919189453 37.68561172485352 48.26660919189453 24.63330078125 C 48.26660919189453 11.58098983764648 37.68561935424805 0.9999923706054688 24.63330841064453 1 L 24.63329887390137 1 M 24.63334465026855 11.77679061889648 C 24.63324356079102 11.77679061889648 24.63340950012207 11.77679061889648 24.63330841064453 11.77679061889648 L 24.63329887390137 11.77679061889648 C 23.41475868225098 11.77679061889648 22.31645774841309 11.04188919067383 21.85159873962402 9.915462493896484 C 21.38673782348633 8.788982391357422 21.64710807800293 7.493400573730469 22.51102828979492 6.634002685546875 C 23.08631324768066 6.061733245849609 23.85364532470703 5.758087158203125 24.63401031494141 5.758087158203125 C 25.02555274963379 5.758087158203125 25.42033958435059 5.834510803222656 25.79586791992188 5.991790771484375 C 26.91984748840332 6.462539672851563 27.64898872375488 7.564670562744141 27.64260864257813 8.783229827880859 C 27.63393974304199 10.43896865844727 26.28906631469727 11.77679061889648 24.63334465026855 11.77679061889648 M 24.63329887390137 41.96438980102539 C 23.76314926147461 41.96438980102539 23.05774879455566 41.25899124145508 23.05774879455566 40.38883972167969 L 23.05774879455566 15.77869033813477 C 23.05774879455566 14.90854263305664 23.76314926147461 14.20314025878906 24.63329887390137 14.20314025878906 C 25.50345802307129 14.20314025878906 26.20885848999023 14.90854263305664 26.20885848999023 15.77869033813477 L 26.20885848999023 40.38883972167969 C 26.20885848999023 41.25899124145508 25.50345802307129 41.96438980102539 24.63329887390137 41.96438980102539 M 24.63329887390137 -2 C 28.22744750976563 -2 31.71568870544434 -1.29541015625 35.00110626220703 0.09420013427734375 C 38.17293930053711 1.435779571533203 41.02090835571289 3.355720520019531 43.46589660644531 5.800712585449219 C 45.9108772277832 8.245700836181641 47.83082962036133 11.09366226196289 49.17239761352539 14.26549911499023 C 50.56201934814453 17.5509204864502 51.26660919189453 21.03915023803711 51.26660919189453 24.63330078125 C 51.26660919189453 28.22745132446289 50.56201934814453 31.7156810760498 49.17239761352539 35.0010986328125 C 47.83082962036133 38.17293167114258 45.9108772277832 41.02090072631836 43.46589660644531 43.46588897705078 C 41.02090835571289 45.91086959838867 38.17293930053711 47.8308219909668 35.00110626220703 49.17238998413086 C 31.71568870544434 50.56201171875 28.22745895385742 51.2666015625 24.63330841064453 51.2666015625 C 21.03915786743164 51.2666015625 17.55091857910156 50.56201171875 14.26549911499023 49.17238998413086 C 11.09366989135742 47.8308219909668 8.245697021484375 45.91086959838867 5.800708770751953 43.46588897705078 C 3.355728149414063 41.02090072631836 1.435779571533203 38.17293167114258 0.094207763671875 35.0010986328125 C -1.29541015625 31.7156810760498 -2 28.22745132446289 -2 24.63330078125 C -2 21.03915023803711 -1.29541015625 17.5509204864502 0.094207763671875 14.26549911499023 C 1.435779571533203 11.09366989135742 3.355728149414063 8.245700836181641 5.800708770751953 5.800712585449219 C 8.245697021484375 3.355731964111328 11.09366989135742 1.435779571533203 14.26549911499023 0.09421157836914063 C 17.55091857910156 -1.29541015625 21.03914833068848 -2 24.63329887390137 -2 Z" stroke="none" fill="#f09f13"/>
      </g>
    </g>
  </g>
</svg>
