<svg xmlns="http://www.w3.org/2000/svg" xmlns:xlink="http://www.w3.org/1999/xlink" width="255.66" height="294.156" viewBox="0 0 255.66 294.156"><defs><style>.a{fill:none;}.b,.c{fill:#b0affd;}.b,.ba{opacity:0.4;}.d{opacity:0.7;}.e{fill:#9797ef;}.f{fill:#7777db;}.g{fill:#8888e9;}.h{fill:#fd9f00;}.i{clip-path:url(#a);}.j{fill:#e38601;}.k{fill:#fac61b;}.l{clip-path:url(#b);}.m{clip-path:url(#c);}.n{clip-path:url(#d);}.o{clip-path:url(#e);}.p{clip-path:url(#f);}.q{clip-path:url(#g);}.r{clip-path:url(#h);}.s{clip-path:url(#i);}.t{clip-path:url(#j);}.u{opacity:0.2;}.v{clip-path:url(#k);}.w{clip-path:url(#l);}.x{clip-path:url(#m);}.y{clip-path:url(#n);}.z{clip-path:url(#o);}.aa{clip-path:url(#p);}.ab{clip-path:url(#q);}.ac,.aw{fill:#ffb127;}.ad{clip-path:url(#r);}.ae{clip-path:url(#s);}.af{clip-path:url(#t);}.ag{clip-path:url(#u);}.ah{clip-path:url(#v);}.ai{clip-path:url(#w);}.aj{clip-path:url(#x);}.ak{fill:#b5905c;}.ak,.aw,.ax{opacity:0.5;}.al{clip-path:url(#y);}.am{fill:#ffd454;}.an{fill:#fde571;}.ao{fill:#ffe1bd;}.ap{fill:#ed9c80;}.aq{fill:#3a3a3a;}.ar{fill:#3d38a0;}.as{fill:#7762ef;}.at{fill:#2c1e56;}.au{fill:#5f52dd;}.av{fill:#f9d04e;}.ay{fill:#edbf5a;}.az{fill:#f8bd36;}.bb{fill:#201d93;}.bc{fill:#2d24a3;}.bd{fill:#ffc064;}.be{fill:#f4aa4a;}</style><clipPath id="a"><path class="a" d="M421.167,356.38v3.812c0,1.326-7.063,2.394-15.773,2.394s-15.764-1.068-15.764-2.394V356.38Z" transform="translate(-389.63 -356.38)"/></clipPath><clipPath id="b"><path class="a" d="M423.647,351.7v3.812c0,1.326-7.063,2.394-15.773,2.394s-15.764-1.068-15.764-2.394V351.7Z" transform="translate(-392.11 -351.7)"/></clipPath><clipPath id="c"><path class="a" d="M420.858,347v3.812c0,1.326-7.053,2.394-15.764,2.394s-15.764-1.068-15.764-2.394V347Z" transform="translate(-389.33 -347)"/></clipPath><clipPath id="d"><path class="a" d="M554.608,350.33v3.821c0,1.317-7.063,2.394-15.764,2.394s-15.764-1.077-15.764-2.394V350.33Z" transform="translate(-523.08 -350.33)"/></clipPath><clipPath id="e"><path class="a" d="M557.088,345.66v3.812c0,1.317-7.063,2.394-15.764,2.394s-15.773-1.077-15.773-2.394V345.66Z" transform="translate(-525.55 -345.66)"/></clipPath><clipPath id="f"><path class="a" d="M554.287,341v3.812c0,1.326-7.062,2.394-15.773,2.394s-15.764-1.068-15.764-2.394V341Z" transform="translate(-522.75 -341)"/></clipPath><clipPath id="g"><path class="a" d="M553.1,336.18v3.812c0,1.326-7.053,2.394-15.764,2.394s-15.764-1.068-15.764-2.394V336.18Z" transform="translate(-521.57 -336.18)"/></clipPath><clipPath id="h"><path class="a" d="M557.187,331.47v3.812c0,1.326-7.062,2.394-15.764,2.394s-15.773-1.068-15.773-2.394V331.47Z" transform="translate(-525.65 -331.47)"/></clipPath><clipPath id="i"><path class="a" d="M553.878,326.76v3.821c0,1.317-7.053,2.385-15.764,2.385s-15.764-1.068-15.764-2.385V326.76Z" transform="translate(-522.35 -326.76)"/></clipPath><clipPath id="j"><path class="a" d="M556.848,322.06v3.812c0,1.317-7.062,2.394-15.764,2.394s-15.764-1.077-15.764-2.394V322.06Z" transform="translate(-525.32 -322.06)"/></clipPath><clipPath id="k"><path d="M554.608,350.33v3.821c0,1.317-7.063,2.394-15.764,2.394s-15.764-1.077-15.764-2.394V350.33Z" transform="translate(-523.08 -350.33)"/></clipPath><clipPath id="l"><path d="M557.088,345.66v3.812c0,1.317-7.063,2.394-15.764,2.394s-15.773-1.077-15.773-2.394V345.66Z" transform="translate(-525.55 -345.66)"/></clipPath><clipPath id="m"><path d="M554.287,341v3.812c0,1.326-7.062,2.394-15.773,2.394s-15.764-1.068-15.764-2.394V341Z" transform="translate(-522.75 -341)"/></clipPath><clipPath id="n"><path d="M553.1,336.18v3.812c0,1.326-7.053,2.394-15.764,2.394s-15.764-1.068-15.764-2.394V336.18Z" transform="translate(-521.57 -336.18)"/></clipPath><clipPath id="o"><path d="M557.187,331.47v3.812c0,1.326-7.062,2.394-15.764,2.394s-15.773-1.068-15.773-2.394V331.47Z" transform="translate(-525.65 -331.47)"/></clipPath><clipPath id="p"><path d="M553.878,326.76v3.821c0,1.317-7.053,2.385-15.764,2.385s-15.764-1.068-15.764-2.385V326.76Z" transform="translate(-522.35 -326.76)"/></clipPath><clipPath id="q"><path d="M556.848,322.06v3.812c0,1.317-7.062,2.394-15.764,2.394s-15.764-1.077-15.764-2.394V322.06Z" transform="translate(-525.32 -322.06)"/></clipPath><clipPath id="r"><path class="a" d="M542.55,352.6v3.812c0,1.326,7.063,2.394,15.764,2.394s15.773-1.068,15.773-2.394V352.6Z" transform="translate(-542.55 -352.6)"/></clipPath><clipPath id="s"><path class="a" d="M540.07,347.92v3.821c0,1.317,7.063,2.385,15.764,2.385s15.773-1.068,15.773-2.385V347.92Z" transform="translate(-540.07 -347.92)"/></clipPath><clipPath id="t"><path class="a" d="M542.85,343.22v3.812c0,1.317,7.063,2.394,15.773,2.394s15.764-1.077,15.764-2.394V343.22Z" transform="translate(-542.85 -343.22)"/></clipPath><clipPath id="u"><path class="a" d="M544.06,338.45v3.812c0,1.317,7.053,2.394,15.764,2.394s15.764-1.077,15.764-2.394V338.45Z" transform="translate(-544.06 -338.45)"/></clipPath><clipPath id="v"><path class="a" d="M540,333.74v3.812c0,1.326,7.063,2.394,15.764,2.394s15.773-1.068,15.773-2.394V333.74Z" transform="translate(-540 -333.74)"/></clipPath><clipPath id="w"><path class="a" d="M543.28,329v3.812c0,1.326,7.053,2.394,15.764,2.394s15.764-1.068,15.764-2.394V329Z" transform="translate(-543.28 -329)"/></clipPath><clipPath id="x"><path class="a" d="M540.31,324.32v3.812c0,1.326,7.063,2.394,15.764,2.394s15.773-1.068,15.773-2.394V324.32Z" transform="translate(-540.31 -324.32)"/></clipPath><clipPath id="y"><path class="a" d="M565.244,328.37l3.057-.7,7.716,33.582-3.048.727c-8.112,1.842-16.427-4.144-18.563-13.425S557.123,330.239,565.244,328.37Z" transform="translate(-553.903 -327.67)"/></clipPath></defs><path class="b" d="M595.795,361.363c0,3.1-50.359,5.212-112.42,4.715-26.943-.221-51.666-.921-71.021-1.842-15.746-1.28-21.666-1.28-29.466-2.072-1.842-.166,1.584.175,0,0-7.615-.82-11.9-1.7-11.888-2.606,0-3.1,50.359-5.212,112.411-4.715S595.823,358.269,595.795,361.363Z" transform="translate(-356.515 -78.13)"/><path class="c" d="M461.145,333.55c-.046.055-.212-4.687-7.366-8.886-7.256-4.475-22.3-2.9-24.475-7.551-2.284-4.981,7.237-4.365,11.114-8.37s5.193-5.939-.562-6.74-9.162-.985-9.42-5.672-9.447-1.906-14.318-5.092c-5.018-3.186-2.661-7.992,6.446-8.287,8.978-.055,9.208-1.547,6.547-2.762s-10.6-3.122-7.422-5.746,8.37-.783,5.525-3.683-9.208-4.751-6.335-8.287,10.709-3.683,15.654,4.788S443.023,278.1,447.4,278.8s7.983-4.051,13.278-2.477,4.6,6.621,1.694,10.074-7.818,10.285-4.457,13,6.7-1.842,11.132-2.845c4.926-1.169,10.838,2.762,6.565,9.843-4.466,7.007-11.63,12.744-10.865,28.278C463.612,334.287,462.379,333.909,461.145,333.55Z" transform="translate(-359.884 -70.639)"/><g class="d" transform="translate(65.064 191.547)"><path class="e" d="M464.235,334.606a.267.267,0,0,1-.3-.184c-15.294-53-37.7-71.408-37.928-71.592a.267.267,0,0,1,0-.368.258.258,0,0,1,.368-.046c.23.184,22.771,18.7,38.112,71.822a.267.267,0,0,1-.184.332Z" transform="translate(-425.93 -262.358)"/></g><g class="d" transform="translate(63.442 188.062)"><path class="e" d="M439.667,280.31a.294.294,0,0,1-.175,0,29.621,29.621,0,0,0-15.037-3.389.268.268,0,1,1-.037-.534,30.239,30.239,0,0,1,15.331,3.453.267.267,0,0,1,.1.368A.239.239,0,0,1,439.667,280.31Z" transform="translate(-424.168 -276.362)"/></g><g class="d" transform="translate(87.41 193.795)"><path class="e" d="M450.513,295.669a.331.331,0,0,1-.2-.046.276.276,0,0,1-.065-.378,106.137,106.137,0,0,1,13.582-14.981.267.267,0,1,1,.359.4,105.35,105.35,0,0,0-13.526,14.9.294.294,0,0,1-.147.11Z" transform="translate(-450.198 -280.195)"/></g><g class="d" transform="translate(58.728 202.756)"><path class="e" d="M446.278,293.073h-.12c-12.845-3.683-26.7-2.523-26.814-2.5a.285.285,0,0,1-.295-.239.267.267,0,0,1,.249-.295c.138,0,14.07-1.2,27.007,2.523a.267.267,0,0,1,.184.331A.258.258,0,0,1,446.278,293.073Z" transform="translate(-419.048 -289.851)"/></g><g class="d" transform="translate(74.235 235.289)"><path class="e" d="M459.619,322.48a.24.24,0,0,1-.138,0c-8.858-3.1-23.167-2.284-23.315-2.274a.258.258,0,0,1-.276-.249.267.267,0,0,1,.249-.285c.147,0,14.567-.829,23.517,2.311a.267.267,0,0,1,.166.341A.277.277,0,0,1,459.619,322.48Z" transform="translate(-435.889 -319.573)"/></g><g class="d" transform="translate(98.948 221.181)"><path class="e" d="M463.043,324.918h-.12a.267.267,0,0,1-.184-.331c2.891-10.939,12.32-20.258,12.422-20.313a.267.267,0,0,1,.368.387c-.092.092-9.42,9.263-12.274,20.064a.267.267,0,0,1-.212.193Z" transform="translate(-462.728 -304.2)"/></g><path class="f" d="M448.429,328.352s.479-19.263-14.733-21.04-9.659,20.147-3.158,27.329c0,0-8.425-9.926-14.042-3.223S426.625,345.8,426.625,345.8s-12.624-4.272-16.114-1.381c-4.5,3.739,2.127,8.287,2.127,8.287s-11.731-4.512-8.876,5.175l64.889-.184Z" transform="translate(-359.074 -74.363)"/><path class="c" d="M538.1,323.242a.821.821,0,0,1,.11.3,2.331,2.331,0,0,0-.12-.709,51.243,51.243,0,0,1,.212-5.829,8.538,8.538,0,0,1,.138-1.179c.727-.552,2.643-1.354,3.112-1.685a11.352,11.352,0,0,0,2.873-2.5c.276-.414.856-1.713.23-2.09s-2.219,1.354-2.588,1.842a32.312,32.312,0,0,1-2.367,2.983,10.492,10.492,0,0,0-1.234,1.243,44.365,44.365,0,0,1,.995-5.156c.7-.562,2.67-1.372,3.149-1.713a11.42,11.42,0,0,0,2.882-2.5c.276-.414.847-1.713.221-2.09s-2.219,1.344-2.588,1.8a33.686,33.686,0,0,1-2.366,2.983,11.814,11.814,0,0,0-1.225,1.225,39.842,39.842,0,0,1,1.777-5.239,37.9,37.9,0,0,1,1.667-3.453c.985-.249,2.348-.442,2.762-.6a11.736,11.736,0,0,0,3.453-1.657c.368-.331,1.271-1.427.755-1.961s-2.5.727-2.965,1.059a34.677,34.677,0,0,1-3.076,2.256l-.617.313a37.758,37.758,0,0,1,2.864-4.254,7.733,7.733,0,0,0,1.28-.212,27.633,27.633,0,0,1,3.269-.157c.5,0,2.5-.184,2.541-.921s-1.151-.865-1.575-.921a9.805,9.805,0,0,0-3.186.746c-.35.12-1.271.654-2.026,1.022.5-.626,1.022-1.243,1.565-1.842a37.673,37.673,0,0,1,2.762-2.68,7.808,7.808,0,0,0,1.593-.221,29.8,29.8,0,0,1,3.278-.166c.488,0,2.486-.175,2.542-.921s-1.16-.866-1.584-.921a9.807,9.807,0,0,0-3.186.746c-.405.138-1.575.838-2.376,1.179a34.144,34.144,0,0,1,4.116-3.039,13.785,13.785,0,0,0,1.372-.249,29.519,29.519,0,0,1,3.269-.221c.488,0,2.477-.23,2.523-.921s-1.179-.847-1.6-.856a9.98,9.98,0,0,0-3.167.81,4.925,4.925,0,0,0-.571.276c-.81.341-1.611.728-2.394,1.142h0a28.463,28.463,0,0,0-3.075,1.9c.23-.359.387-.783.589-1.169a27.627,27.627,0,0,1,1.842-2.689c.267-.414,1.344-2.09.81-2.569s-1.381.387-1.648.718a9.622,9.622,0,0,0-1.308,2.983c-.147.46-.3,2.182-.571,2.947a30.637,30.637,0,0,0-2.633,2.136,7.771,7.771,0,0,0,.516-1.473,28.576,28.576,0,0,1,1.39-2.947c.2-.442.995-2.274.4-2.661s-1.3.589-1.51.921a9.537,9.537,0,0,0-.829,3.158c-.083.506,0,2.431-.138,3.14-.341.313-.672.626-.994.921a32.943,32.943,0,0,0-3.683,4.411c0-.313-.074-.626-.1-.921a32.11,32.11,0,0,1,.138-3.26c0-.5,0-2.5-.654-2.624s-.976,1.05-1.022,1.473a10,10,0,0,0,.451,3.241c.1.405.681,1.611.921,2.44a34.788,34.788,0,0,0-2.762,4.844v-1.087a24.28,24.28,0,0,1,.24-2.569,14.365,14.365,0,0,1,1.1-3.858.709.709,0,0,0-1-.921l-.065.046c-.921.635-1.1,1.888-1.206,3-.074.847-.516,5.442.433,6.446a36.742,36.742,0,0,0-1.934,6.077c-.074-1.059.1-2.109.129-3.168,0-.488,0-2.486-.654-2.615s-.976,1.05-1.022,1.473a9.766,9.766,0,0,0,.46,3.241c.083.368.562,1.372.856,2.173a37.218,37.218,0,0,0-.654,5.046c-.083-.2-.156-.4-.23-.6a28.66,28.66,0,0,1-.681-3.2c-.11-.479-.589-2.431-1.3-2.376s-.672,1.261-.617,1.685a10,10,0,0,0,1.307,3.269c.2.378,1.059,1.4,1.538,2.136a36.655,36.655,0,0,0,0,3.9c-.341-.921-.516-1.842-.81-2.762-.147-.47-.774-2.376-1.473-2.274s-.571,1.317-.488,1.731a10.01,10.01,0,0,0,1.492,2.928c.184.286.829.967,1.353,1.584.175,2.44-1.436,5.258-.838,7.615C536.346,327.929,538.15,325.406,538.1,323.242Z" transform="translate(-369.468 -72.495)"/><path class="c" d="M513.674,333.223c.065.046-1.538-4.42,3.518-10.967,5.074-6.851,19.622-10.976,19.926-16.1.267-5.47-8.352-1.363-13.434-3.637s-7.026-3.591-1.98-6.446,8.14-4.309,6.639-8.766,8.066-5.267,11.409-10.046-.5-8.407-9.07-5.276c-8.361,3.278-9.143,1.98-7.118-.147s8.683-6.832,4.761-8.094-8.066,2.385-6.51-1.344,6.768-7.827,2.818-10.037-11.326.525-12.8,10.276-2,12.468-5.8,14.733-8.913-.792-13.25,2.634-1.786,7.836,2.164,9.981,11.05,6.648,8.969,10.414-6.888.82-11.4,1.492c-5,.746-9.033,6.584-2.431,11.574,6.74,4.853,15.525,7.523,20.58,22.228Q512.086,334.42,513.674,333.223Z" transform="translate(-365.673 -69.962)"/><g class="d" transform="translate(144.732 183.64)"><path class="e" d="M514.043,335.012a.258.258,0,0,0,.212-.285c-5.479-54.889,8.5-80.3,8.637-80.552a.267.267,0,0,0-.1-.368.258.258,0,0,0-.359.1c-.147.258-14.2,25.782-8.711,80.865a.267.267,0,0,0,.295.239Z" transform="translate(-512.45 -253.771)"/></g><g class="d" transform="translate(148.109 177.476)"><path class="e" d="M516.442,275.466a.258.258,0,0,0,.157-.092,29.466,29.466,0,0,1,12.7-8.72.276.276,0,0,0,.175-.341.267.267,0,0,0-.341-.175,30.266,30.266,0,0,0-12.956,8.9.267.267,0,0,0,.046.378A.276.276,0,0,0,516.442,275.466Z" transform="translate(-516.117 -266.125)"/></g><g class="d" transform="translate(127.387 198.055)"><path class="e" d="M512.1,294.193a.267.267,0,0,0,.166-.12.258.258,0,0,0-.083-.368,105.162,105.162,0,0,0-18.213-8.876.276.276,0,0,0-.341.166.267.267,0,0,0,.157.341,104.593,104.593,0,0,1,18.112,8.858A.314.314,0,0,0,512.1,294.193Z" transform="translate(-493.613 -284.816)"/></g><g class="d" transform="translate(145.943 189.834)"><path class="e" d="M514.083,289.784a.193.193,0,0,0,.12-.046c10.552-8.2,23.83-12.237,23.941-12.283a.258.258,0,0,0,.175-.332.249.249,0,0,0-.331-.175c-.138,0-13.508,4.116-24.143,12.366a.267.267,0,0,0,0,.377A.239.239,0,0,0,514.083,289.784Z" transform="translate(-513.765 -276.932)"/></g><g class="d" transform="translate(144.857 226.818)"><path class="e" d="M512.884,322.023a.25.25,0,0,0,.129-.065c7.072-6.169,20.663-10.727,20.8-10.764a.271.271,0,0,0-.166-.516c-.138.046-13.812,4.6-20.985,10.884a.257.257,0,0,0,0,.368A.248.248,0,0,0,512.884,322.023Z" transform="translate(-512.586 -310.668)"/></g><g class="d" transform="translate(126.029 228.015)"><path class="e" d="M511.421,325.956a.288.288,0,0,0,.111-.046.267.267,0,0,0,.055-.368c-6.749-9.088-18.959-14.208-19.079-14.254a.269.269,0,1,0-.2.5c.12.046,12.191,5.1,18.849,14.07A.276.276,0,0,0,511.421,325.956Z" transform="translate(-492.138 -311.268)"/></g><path class="g" d="M515.834,323.231s-.479-19.263,14.733-21.04,9.7,20.147,3.2,27.32c0,0,8.425-9.926,14.042-3.223s-10.129,14.383-10.129,14.383,12.615-4.272,16.114-1.372c4.5,3.738-4.042,9.208-4.042,9.208s13.646-5.433,10.792,4.245l-64.889-.184Z" transform="translate(-366.388 -73.958)"/><path class="h" d="M421.167,356.38v3.812c0,1.326-7.063,2.394-15.773,2.394s-15.764-1.068-15.764-2.394V356.38Z" transform="translate(-357.991 -78.257)"/><g class="i" transform="translate(31.639 278.123)"><rect class="j" width="0.746" height="8.738" transform="translate(30.442 -1.584)"/><rect class="j" width="0.746" height="8.738" transform="translate(28.508 -1.584)"/><rect class="j" width="0.746" height="8.738" transform="translate(26.298 -1.584)"/><rect class="j" width="0.746" height="8.738" transform="translate(23.545 -1.584)"/><rect class="j" width="0.746" height="8.738" transform="translate(20.506 -1.584)"/><rect class="j" width="0.746" height="8.738" transform="translate(17.21 -1.584)"/><rect class="j" width="0.746" height="8.738" transform="translate(0.35 -1.584)"/><rect class="j" width="0.746" height="8.738" transform="translate(2.284 -1.584)"/><rect class="j" width="0.746" height="8.738" transform="translate(4.494 -1.584)"/><rect class="j" width="0.746" height="8.738" transform="translate(7.247 -1.584)"/><rect class="j" width="0.746" height="8.738" transform="translate(10.276 -1.584)"/><rect class="j" width="0.746" height="8.738" transform="translate(13.582 -1.584)"/></g><path class="k" d="M389.63,356.094c0,1.326,7.063,2.394,15.764,2.394s15.773-1.068,15.773-2.394S414.1,353.7,405.394,353.7,389.63,354.777,389.63,356.094Z" transform="translate(-357.991 -78.045)"/><path class="h" d="M393.14,355.9c0,.608,5.617,1.105,12.532,1.105s12.541-.5,12.541-1.105-5.617-1.114-12.541-1.114S393.14,355.315,393.14,355.9Z" transform="translate(-358.269 -78.131)"/><path class="j" d="M417.674,356.256c-1.565-.46-6.344-.792-11.97-.792s-10.433.332-11.97.792c-.35-.1-.543-.212-.543-.322,0-.617,5.617-1.114,12.532-1.114s12.541.5,12.541,1.114C418.217,356.045,418.024,356.155,417.674,356.256Z" transform="translate(-358.273 -78.134)"/><path class="h" d="M423.647,351.7v3.812c0,1.326-7.063,2.394-15.773,2.394s-15.764-1.068-15.764-2.394V351.7Z" transform="translate(-358.187 -77.887)"/><g class="l" transform="translate(33.923 273.813)"><rect class="j" width="0.746" height="8.738" transform="translate(30.442 -1.584)"/><rect class="j" width="0.746" height="8.738" transform="translate(28.508 -1.584)"/><rect class="j" width="0.746" height="8.738" transform="translate(26.298 -1.584)"/><rect class="j" width="0.746" height="8.738" transform="translate(23.536 -1.584)"/><rect class="j" width="0.746" height="8.738" transform="translate(20.506 -1.584)"/><rect class="j" width="0.746" height="8.738" transform="translate(17.201 -1.584)"/><rect class="j" width="0.746" height="8.738" transform="translate(0.35 -1.584)"/><rect class="j" width="0.746" height="8.738" transform="translate(2.284 -1.584)"/><rect class="j" width="0.746" height="8.738" transform="translate(4.494 -1.584)"/><rect class="j" width="0.746" height="8.738" transform="translate(7.247 -1.584)"/><rect class="j" width="0.746" height="8.738" transform="translate(10.276 -1.584)"/><rect class="j" width="0.746" height="8.738" transform="translate(13.582 -1.584)"/></g><path class="k" d="M392.11,351.414c0,1.326,7.063,2.394,15.764,2.394s15.773-1.068,15.773-2.394-7.063-2.394-15.773-2.394S392.11,350.1,392.11,351.414Z" transform="translate(-358.187 -77.675)"/><path class="h" d="M395.62,351.254c0,.617,5.617,1.114,12.532,1.114s12.541-.5,12.541-1.114-5.617-1.114-12.541-1.114S395.62,350.637,395.62,351.254Z" transform="translate(-358.465 -77.763)"/><path class="j" d="M420.154,351.576c-1.565-.451-6.344-.792-11.971-.792s-10.433.341-11.97.792c-.35-.1-.543-.212-.543-.322,0-.617,5.617-1.114,12.532-1.114s12.541.5,12.541,1.114C420.7,351.365,420.5,351.475,420.154,351.576Z" transform="translate(-358.469 -77.763)"/><path class="h" d="M420.858,347v3.812c0,1.326-7.053,2.394-15.764,2.394s-15.764-1.068-15.764-2.394V347Z" transform="translate(-357.967 -77.515)"/><g class="m" transform="translate(31.363 269.485)"><rect class="j" width="0.746" height="8.738" transform="translate(30.442 -1.593)"/><rect class="j" width="0.746" height="8.738" transform="translate(28.508 -1.593)"/><rect class="j" width="0.746" height="8.738" transform="translate(26.298 -1.593)"/><rect class="j" width="0.746" height="8.738" transform="translate(23.536 -1.593)"/><rect class="j" width="0.746" height="8.738" transform="translate(20.506 -1.593)"/><rect class="j" width="0.746" height="8.738" transform="translate(17.201 -1.593)"/><rect class="j" width="0.746" height="8.738" transform="translate(0.341 -1.593)"/><rect class="j" width="0.746" height="8.738" transform="translate(2.284 -1.593)"/><rect class="j" width="0.746" height="8.738" transform="translate(4.493 -1.593)"/><rect class="j" width="0.746" height="8.738" transform="translate(7.247 -1.593)"/><rect class="j" width="0.746" height="8.738" transform="translate(10.276 -1.593)"/><rect class="j" width="0.746" height="8.738" transform="translate(13.582 -1.593)"/></g><path class="k" d="M389.33,346.7c0,1.326,7.063,2.394,15.764,2.394s15.764-1.068,15.764-2.394-7.053-2.394-15.764-2.394S389.33,345.387,389.33,346.7Z" transform="translate(-357.967 -77.301)"/><path class="h" d="M392.84,346.544c0,.617,5.608,1.114,12.532,1.114s12.532-.5,12.532-1.114-5.608-1.114-12.532-1.114S392.84,345.955,392.84,346.544Z" transform="translate(-358.245 -77.39)"/><path class="j" d="M417.374,346.876c-1.565-.451-6.344-.783-11.97-.783s-10.433.331-11.97.783c-.35-.1-.543-.212-.543-.322,0-.617,5.608-1.114,12.532-1.114s12.532.5,12.532,1.114C417.908,346.656,417.724,346.766,417.374,346.876Z" transform="translate(-358.249 -77.391)"/><path class="h" d="M554.608,350.33v3.821c0,1.317-7.063,2.394-15.764,2.394s-15.764-1.077-15.764-2.394V350.33Z" transform="translate(-368.56 -77.778)"/><g class="n" transform="translate(154.52 272.552)"><rect class="j" width="0.746" height="8.738" transform="translate(30.432 -1.584)"/><rect class="j" width="0.746" height="8.738" transform="translate(28.499 -1.584)"/><rect class="j" width="0.746" height="8.738" transform="translate(26.289 -1.584)"/><rect class="j" width="0.746" height="8.738" transform="translate(23.536 -1.584)"/><rect class="j" width="0.746" height="8.738" transform="translate(20.506 -1.584)"/><rect class="j" width="0.746" height="8.738" transform="translate(17.201 -1.584)"/><rect class="j" width="0.746" height="8.738" transform="translate(0.341 -1.584)"/><rect class="j" width="0.746" height="8.738" transform="translate(2.274 -1.584)"/><rect class="j" width="0.746" height="8.738" transform="translate(4.484 -1.584)"/><rect class="j" width="0.746" height="8.738" transform="translate(7.237 -1.584)"/><rect class="j" width="0.746" height="8.738" transform="translate(10.276 -1.584)"/><rect class="j" width="0.746" height="8.738" transform="translate(13.582 -1.584)"/></g><path class="k" d="M523.08,350.054c0,1.317,7.053,2.394,15.764,2.394s15.764-1.077,15.764-2.394-7.063-2.394-15.764-2.394S523.08,348.728,523.08,350.054Z" transform="translate(-368.56 -77.567)"/><ellipse class="h" cx="12.532" cy="1.114" rx="12.532" ry="1.114" transform="translate(157.752 271.115)"/><path class="j" d="M551.115,350.207c-1.556-.451-6.335-.783-11.97-.783s-10.433.331-11.97.783c-.35-.1-.534-.2-.534-.322,0-.608,5.608-1.1,12.532-1.1s12.532.5,12.532,1.1C551.658,350,551.465,350.106,551.115,350.207Z" transform="translate(-368.842 -77.656)"/><path class="h" d="M557.088,345.66v3.812c0,1.317-7.063,2.394-15.764,2.394s-15.773-1.077-15.773-2.394V345.66Z" transform="translate(-368.756 -77.408)"/><g class="o" transform="translate(156.794 268.252)"><rect class="j" width="0.746" height="8.738" transform="translate(30.442 -1.584)"/><rect class="j" width="0.746" height="8.738" transform="translate(28.508 -1.584)"/><rect class="j" width="0.746" height="8.738" transform="translate(26.298 -1.584)"/><rect class="j" width="0.746" height="8.738" transform="translate(23.545 -1.584)"/><rect class="j" width="0.746" height="8.738" transform="translate(20.515 -1.584)"/><rect class="j" width="0.746" height="8.738" transform="translate(17.21 -1.584)"/><rect class="j" width="0.746" height="8.738" transform="translate(0.35 -1.584)"/><rect class="j" width="0.746" height="8.738" transform="translate(2.284 -1.584)"/><rect class="j" width="0.746" height="8.738" transform="translate(4.494 -1.584)"/><rect class="j" width="0.746" height="8.738" transform="translate(7.247 -1.584)"/><rect class="j" width="0.746" height="8.738" transform="translate(10.285 -1.584)"/><rect class="j" width="0.746" height="8.738" transform="translate(13.591 -1.584)"/></g><path class="k" d="M525.55,345.374c0,1.326,7.063,2.394,15.773,2.394s15.764-1.068,15.764-2.394-7.063-2.394-15.764-2.394S525.55,344.048,525.55,345.374Z" transform="translate(-368.756 -77.196)"/><path class="h" d="M529.07,345.214c0,.608,5.608,1.1,12.532,1.1s12.532-.5,12.532-1.1S548.517,344.1,541.6,344.1,529.07,344.6,529.07,345.214Z" transform="translate(-369.034 -77.285)"/><path class="j" d="M553.595,345.536c-1.556-.46-6.335-.792-11.97-.792s-10.433.332-11.97.792c-.35-.1-.534-.212-.534-.322,0-.617,5.608-1.114,12.532-1.114s12.532.5,12.532,1.114C554.138,345.325,553.945,345.435,553.595,345.536Z" transform="translate(-369.038 -77.285)"/><path class="h" d="M554.287,341v3.812c0,1.326-7.062,2.394-15.773,2.394s-15.764-1.068-15.764-2.394V341Z" transform="translate(-368.534 -77.039)"/><g class="p" transform="translate(154.216 263.961)"><rect class="j" width="0.746" height="8.738" transform="translate(30.46 -1.63)"/><rect class="j" width="0.746" height="8.738" transform="translate(28.526 -1.63)"/><rect class="j" width="0.746" height="8.738" transform="translate(26.316 -1.63)"/><rect class="j" width="0.746" height="8.738" transform="translate(23.563 -1.63)"/><rect class="j" width="0.746" height="8.738" transform="translate(20.525 -1.63)"/><rect class="j" width="0.746" height="8.738" transform="translate(17.228 -1.63)"/><rect class="j" width="0.746" height="8.738" transform="translate(0.368 -1.63)"/><rect class="j" width="0.746" height="8.738" transform="translate(2.302 -1.63)"/><rect class="j" width="0.746" height="8.738" transform="translate(4.512 -1.63)"/><rect class="j" width="0.746" height="8.738" transform="translate(7.265 -1.63)"/><rect class="j" width="0.746" height="8.738" transform="translate(10.295 -1.63)"/><rect class="j" width="0.746" height="8.738" transform="translate(13.6 -1.63)"/></g><path class="k" d="M522.77,340.664c0,1.326,7.062,2.394,15.764,2.394s15.773-1.068,15.773-2.394-7.062-2.394-15.773-2.394S522.77,339.347,522.77,340.664Z" transform="translate(-368.535 -76.823)"/><path class="h" d="M526.28,340.5c0,.608,5.617,1.1,12.532,1.1s12.541-.5,12.541-1.1-5.617-1.114-12.541-1.114S526.28,339.887,526.28,340.5Z" transform="translate(-368.813 -76.912)"/><path class="j" d="M550.814,340.876c-1.565-.46-6.335-.792-11.97-.792s-10.424.331-11.97.792c-.35-.1-.543-.212-.543-.322,0-.617,5.617-1.114,12.532-1.114s12.541.5,12.541,1.114A1.824,1.824,0,0,1,550.814,340.876Z" transform="translate(-368.817 -76.916)"/><path class="h" d="M553.1,336.18v3.812c0,1.326-7.053,2.394-15.764,2.394s-15.764-1.068-15.764-2.394V336.18Z" transform="translate(-368.44 -76.658)"/><g class="q" transform="translate(153.13 259.522)"><rect class="j" width="0.746" height="8.738" transform="translate(30.442 -1.584)"/><rect class="j" width="0.746" height="8.738" transform="translate(28.499 -1.584)"/><rect class="j" width="0.746" height="8.738" transform="translate(26.298 -1.584)"/><rect class="j" width="0.746" height="8.738" transform="translate(23.536 -1.584)"/><rect class="j" width="0.746" height="8.738" transform="translate(20.506 -1.584)"/><rect class="j" width="0.746" height="8.738" transform="translate(17.201 -1.584)"/><rect class="j" width="0.746" height="8.738" transform="translate(0.341 -1.584)"/><rect class="j" width="0.746" height="8.738" transform="translate(2.274 -1.584)"/><rect class="j" width="0.746" height="8.738" transform="translate(4.484 -1.584)"/><rect class="j" width="0.746" height="8.738" transform="translate(7.247 -1.584)"/><rect class="j" width="0.746" height="8.738" transform="translate(10.276 -1.584)"/><rect class="j" width="0.746" height="8.738" transform="translate(13.582 -1.584)"/></g><path class="k" d="M521.57,335.894c0,1.326,7.053,2.394,15.764,2.394s15.764-1.068,15.764-2.394-7.053-2.394-15.764-2.394S521.57,334.577,521.57,335.894Z" transform="translate(-368.44 -76.445)"/><path class="h" d="M525.08,335.734c0,.617,5.607,1.114,12.532,1.114s12.532-.5,12.532-1.114-5.608-1.114-12.532-1.114S525.08,335.117,525.08,335.734Z" transform="translate(-368.719 -76.534)"/><path class="j" d="M549.614,336.056c-1.565-.46-6.344-.792-11.97-.792s-10.433.331-11.971.792c-.359-.1-.543-.212-.543-.322,0-.617,5.608-1.114,12.532-1.114s12.532.5,12.532,1.114C550.148,335.891,549.964,335.955,549.614,336.056Z" transform="translate(-368.722 -76.534)"/><path class="h" d="M557.187,331.47v3.812c0,1.326-7.062,2.394-15.764,2.394s-15.773-1.068-15.773-2.394V331.47Z" transform="translate(-368.764 -76.285)"/><g class="r" transform="translate(156.887 255.185)"><rect class="j" width="0.746" height="8.738" transform="translate(30.442 -1.584)"/><rect class="j" width="0.746" height="8.738" transform="translate(28.508 -1.584)"/><rect class="j" width="0.746" height="8.738" transform="translate(26.298 -1.584)"/><rect class="j" width="0.746" height="8.738" transform="translate(23.545 -1.584)"/><rect class="j" width="0.746" height="8.738" transform="translate(20.515 -1.584)"/><rect class="j" width="0.746" height="8.738" transform="translate(17.21 -1.584)"/><rect class="j" width="0.746" height="8.738" transform="translate(0.35 -1.584)"/><rect class="j" width="0.746" height="8.738" transform="translate(2.284 -1.584)"/><rect class="j" width="0.746" height="8.738" transform="translate(4.493 -1.584)"/><rect class="j" width="0.746" height="8.738" transform="translate(7.247 -1.584)"/><rect class="j" width="0.746" height="8.738" transform="translate(10.285 -1.584)"/><rect class="j" width="0.746" height="8.738" transform="translate(13.582 -1.584)"/></g><path class="k" d="M525.65,331.194c0,1.317,7.063,2.385,15.773,2.385s15.764-1.068,15.764-2.385-7.062-2.394-15.764-2.394S525.65,329.9,525.65,331.194Z" transform="translate(-368.764 -76.073)"/><path class="h" d="M529.16,331.025c0,.617,5.617,1.114,12.541,1.114s12.532-.5,12.532-1.114-5.617-1.1-12.532-1.1S529.16,330.417,529.16,331.025Z" transform="translate(-369.042 -76.162)"/><path class="j" d="M553.694,331.347c-1.556-.451-6.335-.783-11.97-.783s-10.433.332-11.97.783c-.35-.1-.543-.212-.543-.322,0-.608,5.617-1.1,12.541-1.1s12.532.5,12.532,1.1C554.237,331.135,554.044,331.246,553.694,331.347Z" transform="translate(-369.046 -76.162)"/><path class="h" d="M553.878,326.76v3.821c0,1.317-7.053,2.385-15.764,2.385s-15.764-1.068-15.764-2.385V326.76Z" transform="translate(-368.502 -75.911)"/><g class="s" transform="translate(153.848 250.848)"><rect class="j" width="0.746" height="8.738" transform="translate(30.442 -1.584)"/><rect class="j" width="0.746" height="8.738" transform="translate(28.508 -1.584)"/><rect class="j" width="0.746" height="8.738" transform="translate(26.298 -1.584)"/><rect class="j" width="0.746" height="8.738" transform="translate(23.536 -1.584)"/><rect class="j" width="0.746" height="8.738" transform="translate(20.506 -1.584)"/><rect class="j" width="0.746" height="8.738" transform="translate(17.201 -1.584)"/><rect class="j" width="0.746" height="8.738" transform="translate(0.341 -1.584)"/><rect class="j" width="0.746" height="8.738" transform="translate(2.284 -1.584)"/><rect class="j" width="0.746" height="8.738" transform="translate(4.493 -1.584)"/><rect class="j" width="0.746" height="8.738" transform="translate(7.247 -1.584)"/><rect class="j" width="0.746" height="8.738" transform="translate(10.276 -1.584)"/><rect class="j" width="0.746" height="8.738" transform="translate(13.582 -1.584)"/></g><path class="k" d="M522.35,326.484c0,1.317,7.062,2.394,15.764,2.394s15.764-1.077,15.764-2.394-7.053-2.394-15.764-2.394S522.35,325.158,522.35,326.484Z" transform="translate(-368.502 -75.7)"/><ellipse class="h" cx="12.532" cy="1.114" rx="12.532" ry="1.114" transform="translate(157.08 249.412)"/><path class="j" d="M550.394,326.637c-1.565-.451-6.344-.783-11.97-.783s-10.433.331-11.97.783c-.35-.1-.543-.2-.543-.322,0-.608,5.608-1.1,12.532-1.1s12.532.5,12.532,1.1C550.928,326.435,550.744,326.536,550.394,326.637Z" transform="translate(-368.784 -75.789)"/><path class="h" d="M556.848,322.06v3.812c0,1.317-7.062,2.394-15.764,2.394s-15.764-1.077-15.764-2.394V322.06Z" transform="translate(-368.737 -75.539)"/><g class="t" transform="translate(156.583 246.521)"><rect class="j" width="0.746" height="8.738" transform="translate(30.432 -1.593)"/><rect class="j" width="0.746" height="8.738" transform="translate(28.499 -1.593)"/><rect class="j" width="0.746" height="8.738" transform="translate(26.289 -1.593)"/><rect class="j" width="0.746" height="8.738" transform="translate(23.536 -1.593)"/><rect class="j" width="0.746" height="8.738" transform="translate(20.506 -1.593)"/><rect class="j" width="0.746" height="8.738" transform="translate(17.201 -1.593)"/><rect class="j" width="0.746" height="8.738" transform="translate(0.341 -1.593)"/><rect class="j" width="0.746" height="8.738" transform="translate(2.274 -1.593)"/><rect class="j" width="0.746" height="8.738" transform="translate(4.484 -1.593)"/><rect class="j" width="0.746" height="8.738" transform="translate(7.247 -1.593)"/><rect class="j" width="0.746" height="8.738" transform="translate(10.276 -1.593)"/><rect class="j" width="0.746" height="8.738" transform="translate(13.582 -1.593)"/></g><path class="k" d="M525.32,321.794c0,1.317,7.053,2.394,15.764,2.394s15.764-1.077,15.764-2.394-7.062-2.394-15.764-2.394S525.32,320.45,525.32,321.794Z" transform="translate(-368.737 -84.01)"/><path class="h" d="M528.83,321.6c0,.617,5.608,1.114,12.532,1.114s12.532-.5,12.532-1.114-5.608-1.105-12.532-1.105S528.83,320.96,528.83,321.6Z" transform="translate(-369.015 -75.416)"/><path class="j" d="M553.355,321.936c-1.556-.46-6.335-.792-11.97-.792s-10.433.331-11.97.792c-.35-.111-.534-.212-.534-.331,0-.608,5.608-1.105,12.532-1.105s12.532.5,12.532,1.105C553.9,321.725,553.7,321.826,553.355,321.936Z" transform="translate(-369.019 -75.416)"/><g class="u" transform="translate(153.13 244.071)"><path d="M554.608,350.33v3.821c0,1.317-7.063,2.394-15.764,2.394s-15.764-1.077-15.764-2.394V350.33Z" transform="translate(-521.69 -321.85)"/><path d="M554.608,350.33v3.821c0,1.317-7.063,2.394-15.764,2.394s-15.764-1.077-15.764-2.394V350.33Z" transform="translate(-521.69 -321.85)"/><g class="v" transform="translate(1.39 28.48)"><rect width="0.746" height="8.738" transform="translate(30.432 -1.584)"/><rect width="0.746" height="8.738" transform="translate(28.499 -1.584)"/><rect width="0.746" height="8.738" transform="translate(26.289 -1.584)"/><rect width="0.746" height="8.738" transform="translate(23.536 -1.584)"/><rect width="0.746" height="8.738" transform="translate(20.506 -1.584)"/><rect width="0.746" height="8.738" transform="translate(17.201 -1.584)"/><rect width="0.746" height="8.738" transform="translate(0.341 -1.584)"/><rect width="0.746" height="8.738" transform="translate(2.274 -1.584)"/><rect width="0.746" height="8.738" transform="translate(4.484 -1.584)"/><rect width="0.746" height="8.738" transform="translate(7.237 -1.584)"/><rect width="0.746" height="8.738" transform="translate(10.276 -1.584)"/><rect width="0.746" height="8.738" transform="translate(13.582 -1.584)"/></g><path d="M523.08,350.054c0,1.317,7.053,2.394,15.764,2.394s15.764-1.077,15.764-2.394-7.063-2.394-15.764-2.394S523.08,348.728,523.08,350.054Z" transform="translate(-521.69 -321.638)"/><ellipse cx="12.532" cy="1.114" rx="12.532" ry="1.114" transform="translate(4.622 27.044)"/><path d="M551.115,350.207c-1.556-.451-6.335-.783-11.97-.783s-10.433.331-11.97.783c-.35-.1-.534-.2-.534-.322,0-.608,5.608-1.1,12.532-1.1s12.532.5,12.532,1.1C551.658,350,551.465,350.106,551.115,350.207Z" transform="translate(-521.972 -321.727)"/><path d="M557.088,345.66v3.812c0,1.317-7.063,2.394-15.764,2.394s-15.773-1.077-15.773-2.394V345.66Z" transform="translate(-521.885 -321.48)"/><path d="M557.088,345.66v3.812c0,1.317-7.063,2.394-15.764,2.394s-15.773-1.077-15.773-2.394V345.66Z" transform="translate(-521.885 -321.48)"/><g class="w" transform="translate(3.665 24.18)"><rect width="0.746" height="8.738" transform="translate(30.442 -1.584)"/><rect width="0.746" height="8.738" transform="translate(28.508 -1.584)"/><rect width="0.746" height="8.738" transform="translate(26.298 -1.584)"/><rect width="0.746" height="8.738" transform="translate(23.545 -1.584)"/><rect width="0.746" height="8.738" transform="translate(20.515 -1.584)"/><rect width="0.746" height="8.738" transform="translate(17.21 -1.584)"/><rect width="0.746" height="8.738" transform="translate(0.35 -1.584)"/><rect width="0.746" height="8.738" transform="translate(2.284 -1.584)"/><rect width="0.746" height="8.738" transform="translate(4.494 -1.584)"/><rect width="0.746" height="8.738" transform="translate(7.247 -1.584)"/><rect width="0.746" height="8.738" transform="translate(10.285 -1.584)"/><rect width="0.746" height="8.738" transform="translate(13.591 -1.584)"/></g><path d="M525.55,345.374c0,1.326,7.063,2.394,15.773,2.394s15.764-1.068,15.764-2.394-7.063-2.394-15.764-2.394S525.55,344.048,525.55,345.374Z" transform="translate(-521.885 -321.268)"/><path d="M529.07,345.214c0,.608,5.608,1.1,12.532,1.1s12.532-.5,12.532-1.1S548.517,344.1,541.6,344.1,529.07,344.6,529.07,345.214Z" transform="translate(-522.164 -321.356)"/><path d="M553.595,345.536c-1.556-.46-6.335-.792-11.97-.792s-10.433.332-11.97.792c-.35-.1-.534-.212-.534-.322,0-.617,5.608-1.114,12.532-1.114s12.532.5,12.532,1.114C554.138,345.325,553.945,345.435,553.595,345.536Z" transform="translate(-522.168 -321.356)"/><path d="M554.287,341v3.812c0,1.326-7.062,2.394-15.773,2.394s-15.764-1.068-15.764-2.394V341Z" transform="translate(-521.663 -321.111)"/><path d="M554.287,341v3.812c0,1.326-7.062,2.394-15.773,2.394s-15.764-1.068-15.764-2.394V341Z" transform="translate(-521.663 -321.111)"/><g class="x" transform="translate(1.087 19.889)"><rect width="0.746" height="8.738" transform="translate(30.46 -1.63)"/><rect width="0.746" height="8.738" transform="translate(28.526 -1.63)"/><rect width="0.746" height="8.738" transform="translate(26.316 -1.63)"/><rect width="0.746" height="8.738" transform="translate(23.563 -1.63)"/><rect width="0.746" height="8.738" transform="translate(20.525 -1.63)"/><rect width="0.746" height="8.738" transform="translate(17.228 -1.63)"/><rect width="0.746" height="8.738" transform="translate(0.368 -1.63)"/><rect width="0.746" height="8.738" transform="translate(2.302 -1.63)"/><rect width="0.746" height="8.738" transform="translate(4.512 -1.63)"/><rect width="0.746" height="8.738" transform="translate(7.265 -1.63)"/><rect width="0.746" height="8.738" transform="translate(10.295 -1.63)"/><rect width="0.746" height="8.738" transform="translate(13.6 -1.63)"/></g><path d="M522.77,340.664c0,1.326,7.062,2.394,15.764,2.394s15.773-1.068,15.773-2.394-7.062-2.394-15.773-2.394S522.77,339.347,522.77,340.664Z" transform="translate(-521.665 -320.895)"/><path d="M526.28,340.5c0,.608,5.617,1.1,12.532,1.1s12.541-.5,12.541-1.1-5.617-1.114-12.541-1.114S526.28,339.887,526.28,340.5Z" transform="translate(-521.943 -320.983)"/><path d="M550.814,340.876c-1.565-.46-6.335-.792-11.97-.792s-10.424.331-11.97.792c-.35-.1-.543-.212-.543-.322,0-.617,5.617-1.114,12.532-1.114s12.541.5,12.541,1.114A1.824,1.824,0,0,1,550.814,340.876Z" transform="translate(-521.947 -320.987)"/><path d="M553.1,336.18v3.812c0,1.326-7.053,2.394-15.764,2.394s-15.764-1.068-15.764-2.394V336.18Z" transform="translate(-521.57 -320.729)"/><path d="M553.1,336.18v3.812c0,1.326-7.053,2.394-15.764,2.394s-15.764-1.068-15.764-2.394V336.18Z" transform="translate(-521.57 -320.729)"/><g class="y" transform="translate(0 15.451)"><rect width="0.746" height="8.738" transform="translate(30.442 -1.584)"/><rect width="0.746" height="8.738" transform="translate(28.499 -1.584)"/><rect width="0.746" height="8.738" transform="translate(26.298 -1.584)"/><rect width="0.746" height="8.738" transform="translate(23.536 -1.584)"/><rect width="0.746" height="8.738" transform="translate(20.506 -1.584)"/><rect width="0.746" height="8.738" transform="translate(17.201 -1.584)"/><rect width="0.746" height="8.738" transform="translate(0.341 -1.584)"/><rect width="0.746" height="8.738" transform="translate(2.274 -1.584)"/><rect width="0.746" height="8.738" transform="translate(4.484 -1.584)"/><rect width="0.746" height="8.738" transform="translate(7.247 -1.584)"/><rect width="0.746" height="8.738" transform="translate(10.276 -1.584)"/><rect width="0.746" height="8.738" transform="translate(13.582 -1.584)"/></g><path d="M521.57,335.894c0,1.326,7.053,2.394,15.764,2.394s15.764-1.068,15.764-2.394-7.053-2.394-15.764-2.394S521.57,334.577,521.57,335.894Z" transform="translate(-521.57 -320.517)"/><path d="M525.08,335.734c0,.617,5.607,1.114,12.532,1.114s12.532-.5,12.532-1.114-5.608-1.114-12.532-1.114S525.08,335.117,525.08,335.734Z" transform="translate(-521.848 -320.605)"/><path d="M549.614,336.056c-1.565-.46-6.344-.792-11.97-.792s-10.433.331-11.971.792c-.359-.1-.543-.212-.543-.322,0-.617,5.608-1.114,12.532-1.114s12.532.5,12.532,1.114C550.148,335.891,549.964,335.955,549.614,336.056Z" transform="translate(-521.852 -320.605)"/><path d="M557.187,331.47v3.812c0,1.326-7.062,2.394-15.764,2.394s-15.773-1.068-15.773-2.394V331.47Z" transform="translate(-521.893 -320.356)"/><path d="M557.187,331.47v3.812c0,1.326-7.062,2.394-15.764,2.394s-15.773-1.068-15.773-2.394V331.47Z" transform="translate(-521.893 -320.356)"/><g class="z" transform="translate(3.757 11.114)"><rect width="0.746" height="8.738" transform="translate(30.442 -1.584)"/><rect width="0.746" height="8.738" transform="translate(28.508 -1.584)"/><rect width="0.746" height="8.738" transform="translate(26.298 -1.584)"/><rect width="0.746" height="8.738" transform="translate(23.545 -1.584)"/><rect width="0.746" height="8.738" transform="translate(20.515 -1.584)"/><rect width="0.746" height="8.738" transform="translate(17.21 -1.584)"/><rect width="0.746" height="8.738" transform="translate(0.35 -1.584)"/><rect width="0.746" height="8.738" transform="translate(2.284 -1.584)"/><rect width="0.746" height="8.738" transform="translate(4.493 -1.584)"/><rect width="0.746" height="8.738" transform="translate(7.247 -1.584)"/><rect width="0.746" height="8.738" transform="translate(10.285 -1.584)"/><rect width="0.746" height="8.738" transform="translate(13.582 -1.584)"/></g><path d="M525.65,331.194c0,1.317,7.063,2.385,15.773,2.385s15.764-1.068,15.764-2.385-7.062-2.394-15.764-2.394S525.65,329.9,525.65,331.194Z" transform="translate(-521.893 -320.144)"/><path d="M529.16,331.025c0,.617,5.617,1.114,12.541,1.114s12.532-.5,12.532-1.114-5.617-1.1-12.532-1.1S529.16,330.417,529.16,331.025Z" transform="translate(-522.171 -320.233)"/><path d="M553.694,331.347c-1.556-.451-6.335-.783-11.97-.783s-10.433.332-11.97.783c-.35-.1-.543-.212-.543-.322,0-.608,5.617-1.1,12.541-1.1s12.532.5,12.532,1.1C554.237,331.135,554.044,331.246,553.694,331.347Z" transform="translate(-522.175 -320.233)"/><path d="M553.878,326.76v3.821c0,1.317-7.053,2.385-15.764,2.385s-15.764-1.068-15.764-2.385V326.76Z" transform="translate(-521.632 -319.983)"/><path d="M553.878,326.76v3.821c0,1.317-7.053,2.385-15.764,2.385s-15.764-1.068-15.764-2.385V326.76Z" transform="translate(-521.632 -319.983)"/><g class="aa" transform="translate(0.718 6.777)"><rect width="0.746" height="8.738" transform="translate(30.442 -1.584)"/><rect width="0.746" height="8.738" transform="translate(28.508 -1.584)"/><rect width="0.746" height="8.738" transform="translate(26.298 -1.584)"/><rect width="0.746" height="8.738" transform="translate(23.536 -1.584)"/><rect width="0.746" height="8.738" transform="translate(20.506 -1.584)"/><rect width="0.746" height="8.738" transform="translate(17.201 -1.584)"/><rect width="0.746" height="8.738" transform="translate(0.341 -1.584)"/><rect width="0.746" height="8.738" transform="translate(2.284 -1.584)"/><rect width="0.746" height="8.738" transform="translate(4.493 -1.584)"/><rect width="0.746" height="8.738" transform="translate(7.247 -1.584)"/><rect width="0.746" height="8.738" transform="translate(10.276 -1.584)"/><rect width="0.746" height="8.738" transform="translate(13.582 -1.584)"/></g><path d="M522.35,326.484c0,1.317,7.062,2.394,15.764,2.394s15.764-1.077,15.764-2.394-7.053-2.394-15.764-2.394S522.35,325.158,522.35,326.484Z" transform="translate(-521.632 -319.771)"/><ellipse cx="12.532" cy="1.114" rx="12.532" ry="1.114" transform="translate(3.95 5.341)"/><path d="M550.394,326.637c-1.565-.451-6.344-.783-11.97-.783s-10.433.331-11.97.783c-.35-.1-.543-.2-.543-.322,0-.608,5.608-1.1,12.532-1.1s12.532.5,12.532,1.1C550.928,326.435,550.744,326.536,550.394,326.637Z" transform="translate(-521.914 -319.86)"/><path d="M556.848,322.06v3.812c0,1.317-7.062,2.394-15.764,2.394s-15.764-1.077-15.764-2.394V322.06Z" transform="translate(-521.867 -319.611)"/><path d="M556.848,322.06v3.812c0,1.317-7.062,2.394-15.764,2.394s-15.764-1.077-15.764-2.394V322.06Z" transform="translate(-521.867 -319.611)"/><g class="ab" transform="translate(3.453 2.449)"><rect width="0.746" height="8.738" transform="translate(30.432 -1.593)"/><rect width="0.746" height="8.738" transform="translate(28.499 -1.593)"/><rect width="0.746" height="8.738" transform="translate(26.289 -1.593)"/><rect width="0.746" height="8.738" transform="translate(23.536 -1.593)"/><rect width="0.746" height="8.738" transform="translate(20.506 -1.593)"/><rect width="0.746" height="8.738" transform="translate(17.201 -1.593)"/><rect width="0.746" height="8.738" transform="translate(0.341 -1.593)"/><rect width="0.746" height="8.738" transform="translate(2.274 -1.593)"/><rect width="0.746" height="8.738" transform="translate(4.484 -1.593)"/><rect width="0.746" height="8.738" transform="translate(7.247 -1.593)"/><rect width="0.746" height="8.738" transform="translate(10.276 -1.593)"/><rect width="0.746" height="8.738" transform="translate(13.582 -1.593)"/></g><path d="M525.32,321.794c0,1.317,7.053,2.394,15.764,2.394s15.764-1.077,15.764-2.394-7.062-2.394-15.764-2.394S525.32,320.45,525.32,321.794Z" transform="translate(-521.867 -319.4)"/><path d="M528.83,321.6c0,.617,5.608,1.114,12.532,1.114s12.532-.5,12.532-1.114-5.608-1.105-12.532-1.105S528.83,320.96,528.83,321.6Z" transform="translate(-522.145 -319.487)"/><path d="M553.355,321.936c-1.556-.46-6.335-.792-11.97-.792s-10.433.331-11.97.792c-.35-.111-.534-.212-.534-.331,0-.608,5.608-1.105,12.532-1.105s12.532.5,12.532,1.105C553.9,321.725,553.7,321.826,553.355,321.936Z" transform="translate(-522.149 -319.487)"/></g><path class="ac" d="M542.55,352.6v3.812c0,1.326,7.063,2.394,15.764,2.394s15.773-1.068,15.773-2.394V352.6Z" transform="translate(-370.102 -77.958)"/><g class="ad" transform="translate(172.448 274.642)"><rect class="j" width="0.746" height="8.738" transform="translate(0.35 -1.584)"/><rect class="j" width="0.746" height="8.738" transform="translate(2.284 -1.584)"/><rect class="j" width="0.746" height="8.738" transform="translate(4.494 -1.584)"/><rect class="j" width="0.746" height="8.738" transform="translate(7.247 -1.584)"/><rect class="j" width="0.746" height="8.738" transform="translate(10.276 -1.584)"/><rect class="j" width="0.746" height="8.738" transform="translate(13.582 -1.584)"/><rect class="j" width="0.746" height="8.738" transform="translate(30.442 -1.584)"/><rect class="j" width="0.746" height="8.738" transform="translate(28.508 -1.584)"/><rect class="j" width="0.746" height="8.738" transform="translate(26.298 -1.584)"/><rect class="j" width="0.746" height="8.738" transform="translate(23.545 -1.584)"/><rect class="j" width="0.746" height="8.738" transform="translate(20.506 -1.584)"/><rect class="j" width="0.746" height="8.738" transform="translate(17.21 -1.584)"/></g><path class="k" d="M574.087,352.314c0,1.326-7.063,2.394-15.773,2.394s-15.764-1.068-15.764-2.394,7.063-2.394,15.764-2.394S574.087,351,574.087,352.314Z" transform="translate(-370.102 -77.746)"/><ellipse class="h" cx="12.532" cy="1.114" rx="12.532" ry="1.114" transform="translate(175.68 273.206)"/><path class="j" d="M546.6,352.476c1.556-.451,6.335-.783,11.97-.783s10.433.332,11.97.783c.35-.1.543-.212.543-.322,0-.617-5.617-1.114-12.542-1.114s-12.532.5-12.532,1.114C546.056,352.265,546.249,352.375,546.6,352.476Z" transform="translate(-370.376 -77.834)"/><path class="ac" d="M540.07,347.92v3.821c0,1.317,7.063,2.385,15.764,2.385s15.773-1.068,15.773-2.385V347.92Z" transform="translate(-369.905 -77.587)"/><g class="ae" transform="translate(170.164 270.333)"><rect class="j" width="0.746" height="8.738" transform="translate(0.35 -1.584)"/><rect class="j" width="0.746" height="8.738" transform="translate(2.284 -1.584)"/><rect class="j" width="0.746" height="8.738" transform="translate(4.494 -1.584)"/><rect class="j" width="0.746" height="8.738" transform="translate(7.247 -1.584)"/><rect class="j" width="0.746" height="8.738" transform="translate(10.276 -1.584)"/><rect class="j" width="0.746" height="8.738" transform="translate(13.582 -1.584)"/><rect class="j" width="0.746" height="8.738" transform="translate(30.442 -1.584)"/><rect class="j" width="0.746" height="8.738" transform="translate(28.508 -1.584)"/><rect class="j" width="0.746" height="8.738" transform="translate(26.298 -1.584)"/><rect class="j" width="0.746" height="8.738" transform="translate(23.545 -1.584)"/><rect class="j" width="0.746" height="8.738" transform="translate(20.506 -1.584)"/><rect class="j" width="0.746" height="8.738" transform="translate(17.21 -1.584)"/></g><path class="k" d="M571.607,347.644c0,1.317-7.062,2.394-15.773,2.394s-15.764-1.077-15.764-2.394,7.063-2.394,15.764-2.394S571.607,346.318,571.607,347.644Z" transform="translate(-369.905 -77.376)"/><path class="h" d="M568.653,347.475c0,.617-5.617,1.114-12.542,1.114s-12.532-.5-12.532-1.114,5.617-1.105,12.532-1.105S568.653,346.867,568.653,347.475Z" transform="translate(-370.183 -77.465)"/><path class="j" d="M544.119,347.8c1.556-.451,6.335-.783,11.971-.783s10.433.331,11.97.783c.35-.1.543-.2.543-.322,0-.608-5.617-1.105-12.541-1.105s-12.532.5-12.532,1.105C543.576,347.595,543.769,347.7,544.119,347.8Z" transform="translate(-370.18 -77.465)"/><path class="ac" d="M542.85,343.22v3.812c0,1.317,7.063,2.394,15.773,2.394s15.764-1.077,15.764-2.394V343.22Z" transform="translate(-370.126 -77.215)"/><g class="af" transform="translate(172.724 266.005)"><rect class="j" width="0.746" height="8.738" transform="translate(0.35 -1.584)"/><rect class="j" width="0.746" height="8.738" transform="translate(2.284 -1.584)"/><rect class="j" width="0.746" height="8.738" transform="translate(4.494 -1.584)"/><rect class="j" width="0.746" height="8.738" transform="translate(7.247 -1.584)"/><rect class="j" width="0.746" height="8.738" transform="translate(10.285 -1.584)"/><rect class="j" width="0.746" height="8.738" transform="translate(13.582 -1.584)"/><rect class="j" width="0.746" height="8.738" transform="translate(30.442 -1.584)"/><rect class="j" width="0.746" height="8.738" transform="translate(28.508 -1.584)"/><rect class="j" width="0.746" height="8.738" transform="translate(26.298 -1.584)"/><rect class="j" width="0.746" height="8.738" transform="translate(23.545 -1.584)"/><rect class="j" width="0.746" height="8.738" transform="translate(20.515 -1.584)"/><rect class="j" width="0.746" height="8.738" transform="translate(17.21 -1.584)"/></g><path class="k" d="M574.387,342.934c0,1.317-7.062,2.394-15.764,2.394s-15.773-1.077-15.773-2.394,7.063-2.394,15.773-2.394S574.387,341.608,574.387,342.934Z" transform="translate(-370.126 -77.003)"/><path class="h" d="M571.433,342.765c0,.617-5.617,1.114-12.532,1.114s-12.541-.5-12.541-1.114,5.617-1.1,12.541-1.1S571.433,342.157,571.433,342.765Z" transform="translate(-370.404 -77.092)"/><path class="j" d="M546.949,343.1c1.565-.46,6.344-.792,11.97-.792s10.433.331,11.97.792c.35-.11.543-.212.543-.331,0-.608-5.617-1.1-12.532-1.1s-12.541.5-12.541,1.1C546.36,342.894,546.553,342.986,546.949,343.1Z" transform="translate(-370.404 -77.092)"/><path class="ac" d="M544.06,338.45v3.812c0,1.317,7.053,2.394,15.764,2.394s15.764-1.077,15.764-2.394V338.45Z" transform="translate(-370.222 -76.837)"/><g class="ag" transform="translate(173.838 261.613)"><rect class="j" width="0.746" height="8.738" transform="translate(0.341 -1.584)"/><rect class="j" width="0.746" height="8.738" transform="translate(2.284 -1.584)"/><rect class="j" width="0.746" height="8.738" transform="translate(4.494 -1.584)"/><rect class="j" width="0.746" height="8.738" transform="translate(7.247 -1.584)"/><rect class="j" width="0.746" height="8.738" transform="translate(10.276 -1.584)"/><rect class="j" width="0.746" height="8.738" transform="translate(13.582 -1.584)"/><rect class="j" width="0.746" height="8.738" transform="translate(30.442 -1.584)"/><rect class="j" width="0.746" height="8.738" transform="translate(28.508 -1.584)"/><rect class="j" width="0.746" height="8.738" transform="translate(26.298 -1.584)"/><rect class="j" width="0.746" height="8.738" transform="translate(23.536 -1.584)"/><rect class="j" width="0.746" height="8.738" transform="translate(20.506 -1.584)"/><rect class="j" width="0.746" height="8.738" transform="translate(17.201 -1.584)"/></g><path class="k" d="M575.588,338.164c0,1.317-7.053,2.394-15.764,2.394s-15.764-1.077-15.764-2.394,7.053-2.394,15.764-2.394S575.588,336.838,575.588,338.164Z" transform="translate(-370.222 -76.625)"/><path class="h" d="M572.634,338c0,.608-5.608,1.105-12.532,1.105s-12.532-.5-12.532-1.105,5.608-1.114,12.532-1.114S572.634,337.387,572.634,338Z" transform="translate(-370.5 -76.714)"/><path class="j" d="M548.109,338.327c1.556-.461,6.335-.792,11.97-.792s10.433.331,11.97.792c.35-.1.534-.212.534-.322,0-.617-5.608-1.114-12.532-1.114s-12.532.5-12.532,1.114C547.566,338.115,547.759,338.225,548.109,338.327Z" transform="translate(-370.495 -76.714)"/><path class="ac" d="M540,333.74v3.812c0,1.326,7.063,2.394,15.764,2.394s15.773-1.068,15.773-2.394V333.74Z" transform="translate(-369.9 -76.464)"/><g class="ah" transform="translate(170.1 257.276)"><rect class="j" width="0.746" height="8.738" transform="translate(0.322 -1.584)"/><rect class="j" width="0.746" height="8.738" transform="translate(2.256 -1.584)"/><rect class="j" width="0.746" height="8.738" transform="translate(4.466 -1.584)"/><rect class="j" width="0.746" height="8.738" transform="translate(7.219 -1.584)"/><rect class="j" width="0.746" height="8.738" transform="translate(10.249 -1.584)"/><rect class="j" width="0.746" height="8.738" transform="translate(13.554 -1.584)"/><rect class="j" width="0.746" height="8.738" transform="translate(30.414 -1.584)"/><rect class="j" width="0.746" height="8.738" transform="translate(28.48 -1.584)"/><rect class="j" width="0.746" height="8.738" transform="translate(26.27 -1.584)"/><rect class="j" width="0.746" height="8.738" transform="translate(23.517 -1.584)"/><rect class="j" width="0.746" height="8.738" transform="translate(20.479 -1.584)"/><rect class="j" width="0.746" height="8.738" transform="translate(17.182 -1.584)"/></g><path class="k" d="M571.51,333.454c0,1.326-7.062,2.394-15.773,2.394S540,334.78,540,333.454s7.063-2.394,15.764-2.394S571.51,332.137,571.51,333.454Z" transform="translate(-369.9 -76.252)"/><path class="h" d="M568.553,333.294c0,.617-5.617,1.114-12.542,1.114s-12.532-.5-12.532-1.114,5.617-1.114,12.532-1.114S568.553,332.677,568.553,333.294Z" transform="translate(-370.176 -76.341)"/><path class="j" d="M544.019,333.616c1.565-.46,6.335-.792,11.97-.792s10.433.332,11.971.792c.35-.1.543-.212.543-.322,0-.617-5.617-1.114-12.541-1.114s-12.532.5-12.532,1.114C543.476,333.4,543.669,333.515,544.019,333.616Z" transform="translate(-370.172 -76.341)"/><path class="ac" d="M543.28,329v3.812c0,1.326,7.053,2.394,15.764,2.394s15.764-1.068,15.764-2.394V329Z" transform="translate(-370.16 -76.089)"/><g class="ai" transform="translate(173.12 252.911)"><rect class="j" width="0.746" height="8.738" transform="translate(0.341 -1.556)"/><rect class="j" width="0.746" height="8.738" transform="translate(2.274 -1.556)"/><rect class="j" width="0.746" height="8.738" transform="translate(4.484 -1.556)"/><rect class="j" width="0.746" height="8.738" transform="translate(7.247 -1.556)"/><rect class="j" width="0.746" height="8.738" transform="translate(10.276 -1.556)"/><rect class="j" width="0.746" height="8.738" transform="translate(13.582 -1.556)"/><rect class="j" width="0.746" height="8.738" transform="translate(30.442 -1.556)"/><rect class="j" width="0.746" height="8.738" transform="translate(28.499 -1.556)"/><rect class="j" width="0.746" height="8.738" transform="translate(26.289 -1.556)"/><rect class="j" width="0.746" height="8.738" transform="translate(23.536 -1.556)"/><rect class="j" width="0.746" height="8.738" transform="translate(20.506 -1.556)"/><rect class="j" width="0.746" height="8.738" transform="translate(17.201 -1.556)"/></g><path class="k" d="M574.808,328.794c0,1.326-7.053,2.394-15.764,2.394s-15.764-1.068-15.764-2.394,7.053-2.394,15.764-2.394S574.808,327.431,574.808,328.794Z" transform="translate(-370.16 -75.883)"/><ellipse class="h" cx="12.532" cy="1.114" rx="12.532" ry="1.114" transform="translate(176.352 251.502)"/><path class="j" d="M547.32,328.876c1.565-.451,6.344-.792,11.97-.792s10.433.341,11.97.792c.35-.1.543-.212.543-.322,0-.617-5.608-1.114-12.532-1.114s-12.532.5-12.532,1.114C546.786,328.692,546.979,328.8,547.32,328.876Z" transform="translate(-370.434 -75.965)"/><path class="ac" d="M540.31,324.32v3.812c0,1.326,7.063,2.394,15.764,2.394s15.773-1.068,15.773-2.394V324.32Z" transform="translate(-369.924 -75.718)"/><g class="aj" transform="translate(170.385 248.602)"><rect class="j" width="0.746" height="8.738" transform="translate(0.35 -1.584)"/><rect class="j" width="0.746" height="8.738" transform="translate(2.284 -1.584)"/><rect class="j" width="0.746" height="8.738" transform="translate(4.494 -1.584)"/><rect class="j" width="0.746" height="8.738" transform="translate(7.247 -1.584)"/><rect class="j" width="0.746" height="8.738" transform="translate(10.276 -1.584)"/><rect class="j" width="0.746" height="8.738" transform="translate(13.582 -1.584)"/><rect class="j" width="0.746" height="8.738" transform="translate(30.442 -1.584)"/><rect class="j" width="0.746" height="8.738" transform="translate(28.508 -1.584)"/><rect class="j" width="0.746" height="8.738" transform="translate(26.298 -1.584)"/><rect class="j" width="0.746" height="8.738" transform="translate(23.536 -1.584)"/><rect class="j" width="0.746" height="8.738" transform="translate(20.506 -1.584)"/><rect class="j" width="0.746" height="8.738" transform="translate(17.201 -1.584)"/></g><path class="k" d="M571.847,324.035c0,1.326-7.062,2.394-15.773,2.394s-15.764-1.068-15.764-2.394,7.063-2.385,15.764-2.385S571.847,322.718,571.847,324.035Z" transform="translate(-369.924 -75.507)"/><path class="ac" d="M568.844,323.9c0,.617-5.607,1.114-12.532,1.114s-12.532-.5-12.532-1.114,5.617-1.114,12.532-1.114S568.844,323.26,568.844,323.9Z" transform="translate(-370.199 -75.597)"/><path class="j" d="M544.359,324.2c1.556-.451,6.335-.783,11.97-.783s10.433.332,11.97.783c.35-.1.534-.212.534-.322,0-.617-5.608-1.114-12.532-1.114s-12.532.5-12.532,1.114C543.816,323.985,543.982,324.1,544.359,324.2Z" transform="translate(-370.199 -75.595)"/><path class="ak" d="M552.215,356.669c-1.51-2.035-2.468-5.939-2.587-8.711-.442-10.184,4.429-16.979,12.55-18.849l3.048-.7,6.335,27.514c-2.873.589-3.361,6.446-5.377,6S552.215,356.669,552.215,356.669Z" transform="translate(-370.66 -76.042)"/><path class="h" d="M565.244,328.37l3.057-.7,7.716,33.582-3.048.727c-8.112,1.842-16.427-4.144-18.563-13.425S557.123,330.239,565.244,328.37Z" transform="translate(-371.001 -75.984)"/><g class="al" transform="translate(182.902 251.686)"><rect class="j" width="20.515" height="0.856" transform="matrix(0.975, -0.224, 0.224, 0.975, 1.717, 37.879)"/><rect class="j" width="20.515" height="0.856" transform="matrix(0.975, -0.224, 0.224, 0.975, 1.217, 35.725)"/><rect class="j" width="20.515" height="0.856" transform="matrix(0.975, -0.224, 0.224, 0.975, 0.659, 33.235)"/><rect class="j" width="20.515" height="0.856" transform="matrix(0.975, -0.224, 0.224, 0.975, -0.049, 30.175)"/><rect class="j" width="20.515" height="0.856" transform="matrix(0.975, -0.224, 0.224, 0.975, -0.825, 26.772)"/><rect class="j" width="20.515" height="0.856" transform="matrix(0.975, -0.224, 0.224, 0.975, -1.677, 23.096)"/><rect class="j" width="20.515" height="0.856" transform="matrix(0.975, -0.224, 0.224, 0.975, -6.021, 4.253)"/><rect class="j" width="20.515" height="0.856" transform="matrix(0.975, -0.224, 0.224, 0.975, -5.521, 6.416)"/><rect class="j" width="20.515" height="0.856" transform="matrix(0.975, -0.224, 0.224, 0.975, -4.955, 8.878)"/><rect class="j" width="20.515" height="0.856" transform="matrix(0.975, -0.224, 0.224, 0.975, -4.245, 11.964)"/><rect class="j" width="20.515" height="0.856" transform="matrix(0.975, -0.224, 0.224, 0.975, -3.45, 15.331)"/><rect class="j" width="20.515" height="0.856" transform="matrix(0.975, -0.224, 0.224, 0.975, -2.607, 19.034)"/></g><ellipse class="am" cx="15.083" cy="17.237" rx="15.083" ry="17.237" transform="matrix(0.975, -0.224, 0.224, 0.975, 183.254, 254.928)"/><path class="an" d="M587.619,341.57c-2.136-9.272-10.451-15.285-18.563-13.416a13.866,13.866,0,0,0-8.186,5.571,13.978,13.978,0,0,1,8.637-6.243c8.122-1.842,16.427,4.144,18.563,13.416a18.139,18.139,0,0,1-2.661,14.6A18.286,18.286,0,0,0,587.619,341.57Z" transform="translate(-371.553 -75.942)"/><path class="an" d="M576.4,358.081c6.04-1.39,9.613-8.388,7.956-15.589s-7.919-11.97-13.968-10.543-9.622,8.379-7.965,15.589S570.353,359.471,576.4,358.081Z" transform="translate(-371.644 -76.302)"/><path class="ac" d="M576.473,357.67c6.05-1.39,9.622-8.379,7.965-15.589s-7.928-11.971-13.978-10.543-9.613,8.388-7.965,15.589S570.423,359.07,576.473,357.67Z" transform="translate(-371.65 -76.27)"/><path class="j" d="M575.884,357.282c6.049-1.39,9.622-8.388,7.965-15.589a14.043,14.043,0,0,0-8.167-10.083c4.4,1.077,8.287,5.092,9.493,10.5,1.657,7.21-1.915,14.2-7.965,15.589a9.779,9.779,0,0,1-5.81-.461A9.7,9.7,0,0,0,575.884,357.282Z" transform="translate(-372.387 -76.296)"/><path class="j" d="M573.53,338.134a6.282,6.282,0,0,1,1.574.111,5.819,5.819,0,0,1,1.317.46,4.032,4.032,0,0,1,.985.709,2.162,2.162,0,0,1,.561.847.358.358,0,0,1,0,.3.35.35,0,0,1-.212.184l-2.256.691a1.032,1.032,0,0,1-.414.055,1.261,1.261,0,0,1-.359-.12,1.44,1.44,0,0,1-.221-.12,1.487,1.487,0,0,0-.4-.147,1.841,1.841,0,0,0-.58-.064,2.761,2.761,0,0,0-.792.138,6.09,6.09,0,0,0-.617.23,2.764,2.764,0,0,0-.488.3.92.92,0,0,0-.294.387.636.636,0,0,0,0,.47.627.627,0,0,0,.295.378,1.449,1.449,0,0,0,.654.156,8.023,8.023,0,0,0,1.114,0l1.676-.166a10.033,10.033,0,0,1,1.842,0,4.274,4.274,0,0,1,1.409.368,2.966,2.966,0,0,1,1.022.82,4.023,4.023,0,0,1,.663,1.335,3.221,3.221,0,0,1,.129,1.409,3.389,3.389,0,0,1-.442,1.307,4.466,4.466,0,0,1-.967,1.142,6.5,6.5,0,0,1-1.418.921l.378,1.215a.431.431,0,0,1-.285.608l-2.256.7a.469.469,0,0,1-.368,0,.46.46,0,0,1-.239-.285l-.387-1.28a6.106,6.106,0,0,1-1.658-.083,5.4,5.4,0,0,1-1.381-.451,3.5,3.5,0,0,1-1.031-.746,2.622,2.622,0,0,1-.608-.976.4.4,0,0,1,0-.3.35.35,0,0,1,.212-.184l2.256-.691a.828.828,0,0,1,.4-.055,1,1,0,0,1,.331.092l.276.156a2.515,2.515,0,0,0,.47.212,2.751,2.751,0,0,0,.672.1,3,3,0,0,0,.921-.147,5,5,0,0,0,1.455-.663.783.783,0,0,0,.4-.921.571.571,0,0,0-.359-.368,2.649,2.649,0,0,0-.764-.11,10.736,10.736,0,0,0-1.234.064l-1.75.166a5.038,5.038,0,0,1-2.983-.47,3.545,3.545,0,0,1-1.344-4.6,4.355,4.355,0,0,1,.783-1.123,5.642,5.642,0,0,1,1.215-.921l-.387-1.28a.469.469,0,0,1,0-.368.489.489,0,0,1,.286-.239l2.256-.691a.47.47,0,0,1,.368,0,.46.46,0,0,1,.239.285Z" transform="translate(-372.122 -76.688)"/><path class="am" d="M573.89,337.8a6.285,6.285,0,0,1,1.574.11,5.411,5.411,0,0,1,1.317.47,3.785,3.785,0,0,1,.985.7,2.166,2.166,0,0,1,.562.847.36.36,0,0,1,0,.3.378.378,0,0,1-.212.184l-2.256.691a.92.92,0,0,1-.414.055,1.84,1.84,0,0,1-.368-.11l-.212-.129a1.489,1.489,0,0,0-.4-.147,2.22,2.22,0,0,0-.589-.064,2.759,2.759,0,0,0-.783.138,5.36,5.36,0,0,0-.617.23,2.468,2.468,0,0,0-.488.3.921.921,0,0,0-.295.387.654.654,0,0,0,0,.479.644.644,0,0,0,.295.378,1.558,1.558,0,0,0,.654.147,7.871,7.871,0,0,0,1.1,0l1.685-.166a9.194,9.194,0,0,1,1.842,0,3.866,3.866,0,0,1,1.409.368,2.835,2.835,0,0,1,1.022.81,4.024,4.024,0,0,1,.663,1.335,3.224,3.224,0,0,1,.129,1.409,3.392,3.392,0,0,1-.442,1.308,4.469,4.469,0,0,1-.967,1.142,6.505,6.505,0,0,1-1.418.921l.377,1.225a.469.469,0,0,1,0,.368.489.489,0,0,1-.285.239l-2.256.691a.469.469,0,0,1-.368,0,.46.46,0,0,1-.239-.285l-.387-1.271a6.443,6.443,0,0,1-1.657-.092,5.239,5.239,0,0,1-1.39-.451,3.57,3.57,0,0,1-1.022-.746,2.628,2.628,0,0,1-.608-.976.4.4,0,0,1,0-.3.35.35,0,0,1,.212-.184l2.256-.69a.82.82,0,0,1,.4-.055,1,1,0,0,1,.332.092,3.007,3.007,0,0,1,.276.166,2.309,2.309,0,0,0,.47.2,2.6,2.6,0,0,0,1.584-.046,5.119,5.119,0,0,0,1.455-.663.783.783,0,0,0,.4-.921.571.571,0,0,0-.359-.368,2.647,2.647,0,0,0-.764-.11,11.038,11.038,0,0,0-1.234.074l-1.75.157a5.038,5.038,0,0,1-2.983-.47,3.517,3.517,0,0,1-1.547-2.118,3.266,3.266,0,0,1-.138-1.234,3.629,3.629,0,0,1,.331-1.215,4.278,4.278,0,0,1,.792-1.133,5.644,5.644,0,0,1,1.215-.921l-.387-1.28a.433.433,0,0,1,0-.368.451.451,0,0,1,.285-.23l2.256-.7a.47.47,0,0,1,.368,0,.461.461,0,0,1,.24.285Z" transform="translate(-372.152 -76.662)"/><path class="ao" d="M631.22,293.842c.286-.12,0-.46-.24-.488h-.23a9.328,9.328,0,0,0,1-.248c.276-.111.064-.433-.193-.488l.414-.12c.35-.138.083-.479-.24-.5l-.534.064.276-.083c.295-.12.11-.442-.166-.46a3.2,3.2,0,0,0-.608.064,5.845,5.845,0,0,0-.976.1c-.313.055-1.667.092-1.989-.516-.488-.921,1.4-.792,1.584-1.593.064-.249-1.335-.1-2.09.092a9.452,9.452,0,0,0-1.556.5,10.552,10.552,0,0,1-1.252.654,6.452,6.452,0,0,1-1.077-.046l-.267,2.541a8.211,8.211,0,0,1,1.952.276,5.987,5.987,0,0,0,3.085.847,11.514,11.514,0,0,0,2.1-.286Z" transform="translate(-376.48 -86.897)"/><path class="ap" d="M588.74,352.631A28.643,28.643,0,0,0,591,355.457c.709.654,3-1.381,2.919-1.989s-2.965-3.969-2.965-3.969" transform="translate(-373.76 -77.713)"/><path class="aq" d="M594.932,353.841c.691.737,1.841,2.219,1.841,2.219l-1.906,2.5-.626-.175a5.168,5.168,0,0,1-.782,1.842,11.769,11.769,0,0,1-2.072,1.989c-2.081,1.409-3.941,1.842-4.245,1.6-1.261-1.022,1.482-2.919,1.98-3.379a4.373,4.373,0,0,0,1.224-4.309c-.249-.746-.479-.783-.092-.921a.994.994,0,0,1,.8,0,1.842,1.842,0,0,0,2.035-.525,2.166,2.166,0,0,0,.479-1.234A1.289,1.289,0,0,1,594.932,353.841Z" transform="translate(-373.608 -78.02)"/><path class="ap" d="M546.834,355.076a30.14,30.14,0,0,0-.764,3.536c-.055.967,2.974,1.446,3.4.994s1.142-4.807,1.142-4.807" transform="translate(-370.381 -78.132)"/><path class="aq" d="M549.422,360.805c-.138.995-.543,2.845-.543,2.845l-3.112.074-.267-.6a5.241,5.241,0,0,1-1.952.589,11.4,11.4,0,0,1-2.845-.341c-2.413-.718-3.923-1.842-3.932-2.265,0-1.621,3.2-.709,3.867-.617a4.383,4.383,0,0,0,4.107-1.786c.424-.663.3-.866.681-.681a1.032,1.032,0,0,1,.534.6,1.786,1.786,0,0,0,1.694,1.243,2.09,2.09,0,0,0,1.262-.414A1.3,1.3,0,0,1,549.422,360.805Z" transform="translate(-369.644 -78.382)"/><path class="ar" d="M560.542,295.47s-8.794,22.412-9.88,27.228-5.212,29.079-5.212,29.079,3.858,1.1,5.276.608c.976-3.987,10.93-34.779,17.422-43.047S560.542,295.47,560.542,295.47Z" transform="translate(-370.332 -73.433)"/><path class="ar" d="M568.528,308.059a34.171,34.171,0,0,0,4.705,21.933,178.117,178.117,0,0,0,13.582,19.337s2.9-1.418,3.987-2.974c-2.044-2.762-11.188-18.609-11.188-24.8S582,300.711,582,300.711L571.87,298.28Z" transform="translate(-372.139 -73.656)"/><path class="ap" d="M618.373,289.193s-11.593.552-17.541-1.114-16.142-8.932-16.142-8.932l-11.97-9.208c-3.075-3.858-6.97-14.733-7.587-16.74s-2.762-15.58-2.762-15.58l2.541-.249s2.956,9.622,4.466,15.073c1.418,5.092,9.208,12.063,11.142,13.812h0l.313.267c1.188,1,.239,2.937.239,2.937l2.044.773s2.2-1.133,3.573.083a5.448,5.448,0,0,1,.451.46c1.842,2.035,6.446,9.291,15.773,12.983a116.549,116.549,0,0,0,16.077,2.91C618.52,288.456,618.373,289.193,618.373,289.193Z" transform="translate(-371.672 -86.361)"/><path class="ap" d="M588.548,273.193a4.807,4.807,0,0,1-4.981,1.482c-4.2-1.915-1.842-5.755-1.639-6l.313.267c1.188,1,2.053-1.409,2.053-1.409l4.236,2.33s-1.841,1.658-.433,2.873A5.467,5.467,0,0,1,588.548,273.193Z" transform="translate(-373.154 -88.746)"/><path class="as" d="M587.29,285.787a118.257,118.257,0,0,0-5.212,14.539c-10.442,2.523-17.274-2.311-20.387-5.4a15.6,15.6,0,0,1-1.961-2.247s2.818-5.1,4.493-8.886,4.245-8.729,6.105-12.081c.1-.534-1.6-3.149-3.333-6.878,2.357-.921,6.114-4.779,6.114-4.779l7.118,8.02s-2.155,3.527.617,5.4,4.6.239,6-.875c1.123,1.538,7.081,6.888,10.718,9.392l-4.687,7.854S588.763,287.482,587.29,285.787Z" transform="translate(-371.463 -84.988)"/><path class="at" d="M587.3,255.718a1.842,1.842,0,0,0-2.081,2.32.994.994,0,0,0-1.307.543,2.458,2.458,0,0,0-.055,1.565,2.32,2.32,0,0,0,.829,1.593,1.75,1.75,0,0,0,1.28.184,2.135,2.135,0,0,0,.921-.35,3.972,3.972,0,0,0,.727-.792l2.274-3.03a.921.921,0,0,0,.267-.7" transform="translate(-373.366 -90.044)"/><path class="ap" d="M592.906,267.228a18.36,18.36,0,0,1-1.924,1.667,2.818,2.818,0,0,1-3.2.331A18.415,18.415,0,0,1,584,266.952a2.615,2.615,0,0,1-.736-3.545c.414-.921.81-1.842,1.243-2.762a45.718,45.718,0,0,1,3.085-5.626c.276-.414.6-1.031,1.188-.773a33.14,33.14,0,0,1,5.4,2.919,6.95,6.95,0,0,1,2.9,3.112,7.7,7.7,0,0,1-.111,4.3c-.055.23-.156.506-.386.516" transform="translate(-373.295 -89.151)"/><path class="at" d="M592.975,264.032c.35-.35,1.013,0,1.114.506a2.146,2.146,0,0,1-.414,1.409,3.269,3.269,0,0,1-1.464,1.188c-.553.267-1.123.267-1.28-.332a1.621,1.621,0,0,0,.23,2.127,1.483,1.483,0,0,0,1.768-.083c1.786,2.311,4.6-.589,5.819-2.182a8.149,8.149,0,0,0,1.473-4.678,3.334,3.334,0,0,0-.921-2.32,3.2,3.2,0,0,0-.175-2.91,8.291,8.291,0,0,0-1.759-2.2,3.367,3.367,0,0,0-2.7-.571c-.626-1.188-1.842-1.188-2.689-1.584s-2.164-.221-2.284.7a2.219,2.219,0,0,0-3.6.921,2.422,2.422,0,0,0,2.578,2.845,2.762,2.762,0,0,0,1.363,2.615,5.4,5.4,0,0,0,2.993.691,2.173,2.173,0,0,0-1.1,1.547c-.092.681-.138,1.2.746,1.528,0,0-.838,1.179-.488,1.234S592.975,264.032,592.975,264.032Z" transform="translate(-373.548 -89.111)"/><path class="ap" d="M560.581,229.443c.083-.3.451-.1.525.175v.221a4.981,4.981,0,0,1,.1-1.031c.074-.285.424-.12.516.129l.055-.433c.092-.368.47-.157.525.175v.525a2.267,2.267,0,0,1,0-.276c.074-.3.424-.175.488.092a4.163,4.163,0,0,1,0,.617v.976c0,.322.147,1.667.792,1.9.985.359.58-1.492,1.354-1.842.24-.092.295,1.307.2,2.081a8.491,8.491,0,0,1-.276,1.611,13.448,13.448,0,0,0-.47,1.344,7.213,7.213,0,0,0,.2,1.059l-2.477.617a8.289,8.289,0,0,0-.552-1.9,5.949,5.949,0,0,1-1.271-2.928,10.864,10.864,0,0,1,0-2.118S560.553,229.544,560.581,229.443Z" transform="translate(-371.503 -92.481)"/><path class="au" d="M582.246,302.446c-10.442,2.523-17.274-2.311-20.386-5.4,10.875,8.287,18.1,4.521,19.254,4.273.322-2.551,5.313-14.5,5.313-14.5a7.517,7.517,0,0,0,1.022,1.068,118.3,118.3,0,0,0-5.2,14.558Z" transform="translate(-371.631 -85.577)"/><path class="at" d="M572.692,308.9s-.221,2.449-.276,4.033c-.571.994-.985,1.74-.985,1.74A26.467,26.467,0,0,1,572.692,308.9Z" transform="translate(-372.389 -84.885)"/><path class="av" d="M444.5,104.88a5.691,5.691,0,0,0,3.223,2.385c-1.087.829-1.068,1.381-1.133,2.6a6.63,6.63,0,0,1-2.974-2.394A2.109,2.109,0,0,1,444.5,104.88Z" transform="translate(-362.255 -104.88)"/><path class="av" d="M531.911,106.47a5.691,5.691,0,0,0,3.223,2.385c-1.086.829-1.068,1.381-1.132,2.6a6.575,6.575,0,0,1-2.974-2.394,2.109,2.109,0,0,1,.884-2.587Z" transform="translate(-369.178 -105.006)"/><path class="c" d="M386.962,129.24a5.681,5.681,0,0,0,3.9.994c-.7,1.179-.479,1.685-.083,2.845a6.667,6.667,0,0,1-3.683-1.1A2.127,2.127,0,0,1,386.962,129.24Z" transform="translate(-357.745 -106.809)"/><path class="av" d="M413.4,151.856a5.681,5.681,0,0,0,2.762-2.956c.709,1.169,1.262,1.215,2.468,1.409a6.62,6.62,0,0,1-2.7,2.7A2.127,2.127,0,0,1,413.4,151.856Z" transform="translate(-359.873 -108.366)"/><path class="c" d="M456.823,135.208a5.672,5.672,0,0,0,3.978-.488c-.212,1.344.175,1.74.976,2.67a6.676,6.676,0,0,1-3.812.3A2.109,2.109,0,0,1,456.823,135.208Z" transform="translate(-363.306 -107.243)"/><path class="c" d="M529.223,135.65a5.635,5.635,0,0,0,3.094,2.551c-1.124.773-1.142,1.326-1.271,2.541a6.63,6.63,0,0,1-2.836-2.551,2.108,2.108,0,0,1,1.013-2.541Z" transform="translate(-368.957 -107.317)"/><path class="c" d="M614.023,187.38a5.671,5.671,0,0,0,3.1,2.551c-1.132.773-1.151,1.326-1.28,2.541a6.629,6.629,0,0,1-2.836-2.551,2.108,2.108,0,0,1,1.013-2.541Z" transform="translate(-375.674 -96.836)"/><path class="av" d="M601.133,157.39a5.635,5.635,0,0,0,3.094,2.551c-1.133.773-1.142,1.326-1.271,2.541a6.649,6.649,0,0,1-2.846-2.551A2.127,2.127,0,0,1,601.133,157.39Z" transform="translate(-374.652 -99.76)"/><path class="av" d="M569.3,159.251a5.635,5.635,0,0,0,3.913-.921c-.083,1.363.341,1.713,1.225,2.56a6.593,6.593,0,0,1-3.757.681A2.109,2.109,0,0,1,569.3,159.251Z" transform="translate(-372.218 -99.738)"/><path class="av" d="M550.42,220.449a5.674,5.674,0,0,0,3.2-2.449c.488,1.28,1.022,1.418,2.173,1.842a6.6,6.6,0,0,1-3.14,2.173A2.118,2.118,0,0,1,550.42,220.449Z" transform="translate(-370.725 -93.938)"/><path class="c" d="M575.224,117.69a5.672,5.672,0,0,0,4.015.166c-.442,1.3-.12,1.75.516,2.762a6.713,6.713,0,0,1-3.812-.322A2.127,2.127,0,0,1,575.224,117.69Z" transform="translate(-372.675 -105.895)"/><path class="av" d="M490.524,117.68a5.626,5.626,0,0,0,4.015.184c-.442,1.3-.129,1.75.5,2.762a6.537,6.537,0,0,1-3.8-.341A2.118,2.118,0,0,1,490.524,117.68Z" transform="translate(-365.966 -105.894)"/><path class="av" d="M355.463,195.41a5.662,5.662,0,0,0,4.005.184c-.442,1.3-.12,1.75.506,2.762a6.612,6.612,0,0,1-3.8-.341A2.1,2.1,0,0,1,355.463,195.41Z" transform="translate(-355.269 -96.184)"/><path class="av" d="M386.173,235.19a5.717,5.717,0,0,0,1.6,3.683c-1.354.175-1.621.654-2.284,1.685a6.621,6.621,0,0,1-1.372-3.564A2.109,2.109,0,0,1,386.173,235.19Z" transform="translate(-357.554 -92.148)"/><path class="c" d="M378.23,174.242a5.617,5.617,0,0,0,2.937-2.762c.617,1.225,1.16,1.307,2.348,1.6a6.548,6.548,0,0,1-2.91,2.468A2.1,2.1,0,0,1,378.23,174.242Z" transform="translate(-357.088 -98.433)"/><path class="c" d="M590.81,229.353a5.709,5.709,0,0,0,3.518-1.943c.294,1.335.8,1.556,1.841,2.127a6.611,6.611,0,0,1-3.416,1.694A2.109,2.109,0,0,1,590.81,229.353Z" transform="translate(-373.924 -93.045)"/><path class="ac" d="M381.7,287.343c-.921,1.915-2.284,3.278-3.029,3.048s-.6-1.98.331-3.9,2.284-3.278,3.029-3.048S382.665,285.428,381.7,287.343Z" transform="translate(-357.085 -87.222)"/><path class="aw" d="M381.7,287.343c-.921,1.915-2.284,3.278-3.029,3.048s-.6-1.98.331-3.9,2.284-3.278,3.029-3.048S382.665,285.428,381.7,287.343Z" transform="translate(-357.085 -87.222)"/><path class="aw" d="M381.7,287.343c-.921,1.915-2.284,3.278-3.029,3.048s-.6-1.98.331-3.9,2.284-3.278,3.029-3.048S382.665,285.428,381.7,287.343Z" transform="translate(-357.085 -87.222)"/><path class="ac" d="M491.843,285.309l.313-55.754-12.449-.064-.286,50.644h0v4.374c-.276,7.219-2.081,20.847-11.722,20.792l35.635.2C493.989,305.465,492.138,292.685,491.843,285.309Z" transform="translate(-364.174 -83.629)"/><path class="ac" d="M425.918,167.247a24.5,24.5,0,0,1,7.274,5.9c5.221,6.307,6.206,14.263,2.6,21.3a12.265,12.265,0,0,1-10.635,6.713,13.68,13.68,0,0,1-11.878-6.1,9.926,9.926,0,0,1,.092-10.295,4.627,4.627,0,0,1,8,4.65c-.322.562-.23.718-.138.921a4.5,4.5,0,0,0,3.628,1.565,2.864,2.864,0,0,0,2.689-1.685,1.837,1.837,0,0,0,.156-.332,9.493,9.493,0,0,0-1.077-10.074c-.2-.267-.378-.516-.571-.727-3.757-4.54-10.249-6.694-15.414-5.166-5.967,1.786-9.9,8.287-11.05,18.37-2.191,19.383,11.455,32.578,19.788,38.674,9.052,6.639,18.048,10.074,24.143,11.326,3.49.746,6,.773,7.053.313a4.6,4.6,0,0,1,6.077,2.385,4.539,4.539,0,0,1-.221,4.19,4.392,4.392,0,0,1-2.136,1.9,11.373,11.373,0,0,1-3.729.921c-9.107.995-24.355-4.457-36.685-13.573-17.145-12.624-25.488-29.373-23.508-47.173,2.136-18.876,11.924-24.549,17.56-26.2A23.756,23.756,0,0,1,425.918,167.247Z" transform="translate(-358.027 -93.662)"/><g class="ax" transform="translate(85.488 158.602)"><path class="ay" d="M461.241,251.757a4.54,4.54,0,0,1-.221,4.19,4.392,4.392,0,0,1-2.136,1.9,11.372,11.372,0,0,1-3.729.921,61.693,61.693,0,0,1-7.044-9.77c3.49.746,6,.773,7.053.313a4.6,4.6,0,0,1,6.077,2.449Z" transform="translate(-448.11 -248.928)"/></g><g class="ax" transform="translate(67.891 70.181)"><path class="ay" d="M429,167.51a24.5,24.5,0,0,1,7.274,5.9c5.221,6.307,6.206,14.263,2.6,21.3a11.97,11.97,0,0,1-6.519,5.893c-.6-3.591-1.123-7.109-1.565-10.47a9.494,9.494,0,0,0-1.077-10.074C429.239,175.07,429.055,170.779,429,167.51Z" transform="translate(-429 -167.51)"/></g><path class="ac" d="M541.3,167.207a24.423,24.423,0,0,0-7.458,5.681c-5.4,6.151-6.63,14.07-3.223,21.178a12.293,12.293,0,0,0,10.423,7.026c4.816.267,9.669-2.035,12.053-5.746a9.936,9.936,0,0,0,.221-10.295,4.627,4.627,0,0,0-8.14,4.4c.3.571.212.727.11.921a4.493,4.493,0,0,1-3.683,1.455,2.891,2.891,0,0,1-2.633-1.759,1.228,1.228,0,0,1-.147-.341,9.531,9.531,0,0,1,1.381-10.037c.212-.249.4-.5.6-.709,3.9-4.42,10.442-6.381,15.561-4.7,5.9,1.971,9.641,8.619,10.46,18.692,1.6,19.447-12.431,32.228-20.939,38.093a64.718,64.718,0,0,1-24.475,10.6c-3.518.635-6.031.589-7.063.1a4.6,4.6,0,0,0-6.059,6.39,4.485,4.485,0,0,0,2.081,1.961,11.206,11.206,0,0,0,3.683,1.013c9.07,1.271,24.466-3.683,37.071-12.468,17.5-12.1,26.353-28.591,24.908-46.436-1.565-18.941-11.178-24.862-16.759-26.7A23.776,23.776,0,0,0,541.3,167.207Z" transform="translate(-367.341 -93.711)"/><g class="ax" transform="translate(140.396 157.532)"><path class="ay" d="M508.2,250.612a4.6,4.6,0,0,0,.092,4.19,4.484,4.484,0,0,0,2.081,1.961,11.205,11.205,0,0,0,3.683,1.013,63.018,63.018,0,0,0,7.367-9.466c-3.518.635-6.031.589-7.063.1a4.6,4.6,0,0,0-6.16,2.2Z" transform="translate(-507.741 -247.959)"/></g><g class="ax" transform="translate(161.374 70.094)"><path class="ay" d="M543.108,167.44a24.419,24.419,0,0,0-7.458,5.681c-5.405,6.151-6.63,14.07-3.223,21.178a11.869,11.869,0,0,0,6.335,6.077c.7-3.573,1.335-7.072,1.842-10.414a9.53,9.53,0,0,1,1.409-10.037C542.583,174.981,542.933,170.718,543.108,167.44Z" transform="translate(-530.524 -167.44)"/></g><path class="am" d="M530.013,159.556s0,3.333-.258,8.8c-1.1,21.657-7.072,77.016-38.812,92.743l-1.547,1.317a10.377,10.377,0,0,1-7.035,2.413l-1.575-.055a10.312,10.312,0,0,1-6.1-2.284l-1.842-1.482c-31.16-15.9-36.74-70.119-37.707-92.365-.258-5.967-.193-9.641-.193-9.641,0-5.331,6.28-6.7,6.28-6.7l82.513.5S530.04,154.224,530.013,159.556Z" transform="translate(-361.649 -93.648)"/><path class="az" d="M524.752,166.164l-85.4-.488a9.521,9.521,0,0,1-9.447-9.549h0a9.53,9.53,0,0,1,9.558-9.447l85.4.488a9.53,9.53,0,0,1,9.457,9.558h0A9.53,9.53,0,0,1,524.752,166.164Z" transform="translate(-361.18 -100.338)"/><g class="ba" transform="translate(73.39 52.514)"><path class="am" d="M530.015,159.557s0,3.333-.258,8.8A9.134,9.134,0,0,1,524.463,170l-85.4-.479a9.6,9.6,0,0,1-3.886-.866c-.258-5.967-.193-9.641-.193-9.641,0-5.331,6.28-6.7,6.28-6.7l82.513.5S530.043,154.225,530.015,159.557Z" transform="translate(-434.972 -152.31)"/></g><path class="ac" d="M524.752,166.164l-85.4-.488a9.521,9.521,0,0,1-9.447-9.549h0a9.53,9.53,0,0,1,9.558-9.447l85.4.488a9.53,9.53,0,0,1,9.457,9.558h0A9.53,9.53,0,0,1,524.752,166.164Z" transform="translate(-361.18 -100.338)"/><path class="ac" d="M524.752,166.164l-85.4-.488a9.521,9.521,0,0,1-9.447-9.549h0a9.53,9.53,0,0,1,9.558-9.447l85.4.488a9.53,9.53,0,0,1,9.457,9.558h0A9.53,9.53,0,0,1,524.752,166.164Z" transform="translate(-361.18 -100.338)"/><path class="ac" d="M523.148,359.808l-79.668-.451.2-36.27A6.123,6.123,0,0,1,449.833,317l67.439.387a6.123,6.123,0,0,1,6.086,6.151Z" transform="translate(-362.256 -75.139)"/><rect class="ac" width="6.814" height="90.404" rx="1.06" transform="matrix(0.006, -1, 1, 0.006, 75.889, 284.207)"/><rect class="aw" width="6.814" height="90.404" rx="1.06" transform="matrix(0.006, -1, 1, 0.006, 75.889, 284.207)"/><rect class="am" width="20.35" height="49.788" rx="3.16" transform="matrix(0.006, -1, 1, 0.006, 96.256, 271.458)"/><rect class="ac" width="4.88" height="39.861" rx="0.76" transform="matrix(0.006, -1, 1, 0.006, 101.366, 231.987)"/><rect class="aw" width="4.88" height="39.861" rx="0.76" transform="matrix(0.006, -1, 1, 0.006, 101.366, 231.987)"/><g class="ax" transform="translate(79.171 80.346)"><path class="am" d="M456.139,180.484c-1.409,16.574-1.842,53.452,18.416,77.117a1.326,1.326,0,0,1-1.842,1.9c-11.169-8.959-26.252-26.4-30.589-57.154a133.739,133.739,0,0,1-.645-23.121,7.366,7.366,0,0,1,6.86-6.7h0a7.366,7.366,0,0,1,7.8,7.965Z" transform="translate(-441.25 -172.504)"/></g><g class="ba" transform="translate(122.071 79.869)"><path class="am" d="M510.639,179.809c.534,16.574-.976,53.471-22.468,76.04a1.326,1.326,0,0,0,1.731,1.98c11.63-8.342,27.624-24.963,33.582-55.451a134.141,134.141,0,0,0,1.842-23.02,7.366,7.366,0,0,0-6.446-7.062h0a7.366,7.366,0,0,0-8.241,7.514Z" transform="translate(-487.84 -172.243)"/></g><path class="ac" d="M400.4,247.911l3.877.7-2.919,2.643.534,3.9-3.416-1.952-3.545,1.7.8-3.849-2.726-2.845,3.913-.424,1.869-3.471Z" transform="translate(-291.961 11.648)"/><path class="ac" d="M416.144,247.911l3.877.7-2.919,2.643.534,3.9-3.416-1.952-3.545,1.7.8-3.849-2.726-2.845,3.913-.424,1.869-3.471Z" transform="translate(-293.207 11.648)"/><path class="ac" d="M428.8,254.056l10.51,1.9-7.914,7.165,1.448,10.585-9.262-5.292-9.611,4.618,2.172-10.435-7.39-7.714,10.61-1.148,5.068-9.412Z" transform="translate(-303.457 -152.668)"/><path class="ac" d="M431.884,247.911l3.877.7-2.91,2.643.525,3.9-3.416-1.952-3.545,1.7.8-3.849-2.726-2.845,3.913-.424,1.869-3.471Z" transform="translate(-294.454 11.648)"/><path class="b" d="M440.668,371.951c0,.921-12.274,1.6-27.4,1.556s-27.394-.829-27.385-1.731,12.265-1.6,27.394-1.556S440.668,371.048,440.668,371.951Z" transform="translate(-357.694 -79.353)"/><path class="at" d="M411.192,263.686s.58-4.6,2.477-6.234c2.486-2.164,7.8-1.584,9.88.479a9.341,9.341,0,0,1,1.529,10.359c3.729,2.182,3.527,7.007.4,7.458l1.1,5.8a6.879,6.879,0,0,1-5.718,7.854l-6.961,1.4s-11.888-1.114-12.8-6.989,4.5-8.6,4.5-8.6-2.6-4.936.138-8.407S411.192,263.686,411.192,263.686Z" transform="translate(-358.89 -86.418)"/><path class="ap" d="M430.48,281.5s10.718,1.694,13.628,1.565c2.274.129,6.022-12.329,6.354-13.094A4.282,4.282,0,0,0,452.7,266.4c0-.866-2.348-1.584-2.569-1.16.387-1.142.47-1.492.571-1.842.221-.81-.4-1.427-1.289,1.63a34.945,34.945,0,0,0-1,3.582c-1.436,2.763-5.129,9.208-5.387,10.129-4.788-.11-12.891-1.98-12.891-1.98Z" transform="translate(-361.198 -87.618)"/><path class="ap" d="M410.248,282.8s-8.361,6.832-10.783,8.287c-1.75,1.354-12.689-6.878-13.444-7.32-2.2.083-3.112-.7-3.683-1.4s.865-2.56,1.326-2.339a18.406,18.406,0,0,1-1.676-1.206c-.7-.534-.6-1.372,2.09.608s2.256,1.593,3.112,2.33c2.928,1.436,10.046,4.6,10.875,5.221,3.784-2.716,9.116-8.665,9.116-8.665Z" transform="translate(-357.356 -86.942)"/><path class="ap" d="M426.57,363.8a16.92,16.92,0,0,1,.442,3.591c-.221,1.1,0,1.427,0,1.427l4.539-.359s-2.007-.921-1.842-5.23S426.57,363.8,426.57,363.8Z" transform="translate(-360.916 -78.659)"/><path class="at" d="M426.924,368.269a7.689,7.689,0,0,0,3.923.166,19.549,19.549,0,0,0,5.994,1.6c2.081.249,1.713,1.842-1.842,1.611a48.165,48.165,0,0,0-6.842,0c-.792.074-2.063.175-2.109-.341S426.271,368.1,426.924,368.269Z" transform="translate(-360.875 -79.198)"/><path class="bb" d="M427.71,303.389s2.919,26.261,3.094,29.677a41.809,41.809,0,0,1,0,6.694c-.175,2.081,1.326,19.613,1.326,19.613s-6.8,1.519-8.536.166c0,0,.285-19.116-.58-22.385s-4.254-19.843-4.254-19.843l3.9-16.952Z" transform="translate(-360.298 -73.821)"/><path class="bc" d="M412.507,328.853s-.534,5.571-1.639,6.611c-.7,1.676-.7,1.676.387,2.339,1.657,1.013,5,2.974,5.829,2.145,3.112-3.094,3.232-4.18,3.969-8.177.249-.921,4.6-27.385,4.6-27.385s-13.812-1.924-13.858,1.842S413.2,324.443,412.507,328.853Z" transform="translate(-359.634 -74.101)"/><path class="ap" d="M393.871,356.626a19.585,19.585,0,0,1-2.827,2.5c-1.087.516-1.234.921-1.234.921l3.066,3.112s-.433-2.026,3.37-4.54S393.871,356.626,393.871,356.626Z" transform="translate(-358.005 -78.273)"/><path class="at" d="M390.519,359.508a6.5,6.5,0,0,0,2.238,2.974A16.261,16.261,0,0,0,395,367.851c1.059,1.676-.525,2.367-2.5-.378a41.239,41.239,0,0,0-4.153-5.009c-.543-.543-1.4-1.409-.985-1.759S390.27,358.938,390.519,359.508Z" transform="translate(-357.802 -78.495)"/><path class="bc" d="M409.824,337.188c-6.031,7.514-16.224,13.167-19.107,17.6-.516,1.4,6.169,4.954,6.169,4.954s13.886-12.578,16.731-15.341a27.63,27.63,0,0,0,3.066-3.075C414,340.438,411.509,335.079,409.824,337.188Z" transform="translate(-358.075 -76.699)"/><path class="bd" d="M424.3,285.868c-.414.921,2.689,14.134,3.214,17.173h-.193c-1.344-.2-9.595-1.289-16.252,1.492l-.608-18.665v-.691s0-.7.064-1.786h0c.147-2.21.608-5.948,2.035-8.352a4.07,4.07,0,0,1,3.048-2.265c4.143-.414,4.116,1.289,7.965,2.238l6.243,1.547s-.7,4.843,0,6.28h-4.337S424.7,284.892,424.3,285.868Z" transform="translate(-359.641 -84.842)"/><path class="ap" d="M423.644,260s2.624,6.1.635,8.877a5.6,5.6,0,0,1-4.107,2.145v3a1.4,1.4,0,0,1-.82.295c-.921.046-3.333-1.409-3.333-1.409V261.04Z" transform="translate(-360.081 -88.671)"/><path class="be" d="M413.508,282.909c-1.427,1.418-2.4,2.44-3.048,3.131v-.691s0-6.565,2.1-10.129a2.817,2.817,0,0,1,.976-.111C416.823,275.34,416.629,279.806,413.508,282.909Z" transform="translate(-359.641 -87.539)"/><path class="be" d="M430.887,283.289s-2.928-.11-3.269-.663-1.482-3.039-3.278-3.886c0,0,2.514,2.44,2.21,4.549Z" transform="translate(-360.74 -87.996)"/><path class="be" d="M427.32,303.9c-1.344-.2-9.595-1.289-16.252,1.492l-.608-18.609V286.1s0-.7.064-1.786l1.584.488s.055,16.317.856,17.329,7.937.249,9.779.543a36.058,36.058,0,0,1,4.576,1.234Z" transform="translate(-359.641 -85.146)"/><path class="bd" d="M404.37,281.022s5.341-6.952,8.655-6.713,3.122,4.714,0,7.827-4.153,4.319-4.153,4.319S405.061,284.7,404.37,281.022Z" transform="translate(-359.158 -87.463)"/><path class="at" d="M423.246,259.19s-1.243,5.46-4.1,6.9-.7,4.972-3.425,7.615a2.974,2.974,0,0,1-2.928.378,3.794,3.794,0,0,0-3.757.838,2.313,2.313,0,0,0-.23.295c-3.573-2.339,5.414-15.276,5.414-15.276Z" transform="translate(-359.443 -88.547)"/></svg>