<svg height="512" viewBox="0 0 64 64" width="512" xmlns="http://www.w3.org/2000/svg"><g id="Delete_credit_card" data-name="Delete credit card"><path d="m11 28h6a3 3 0 0 0 3-3v-4a3 3 0 0 0 -3-3h-6a3 3 0 0 0 -3 3v4a3 3 0 0 0 3 3zm6-2h-1v-2h2v1a1 1 0 0 1 -1 1zm1-5v1h-2v-2h1a1 1 0 0 1 1 1zm-8 0a1 1 0 0 1 1-1h3v6h-3a1 1 0 0 1 -1-1z"/><path d="m36 20h2v4h-2z"/><path d="m40 20h2v4h-2z"/><path d="m44 20h2v4h-2z"/><path d="m19 36a4.988 4.988 0 0 0 -3.011 1.016 4.955 4.955 0 0 0 -2.989-1.016 5 5 0 0 0 0 10 4.955 4.955 0 0 0 2.989-1.016 5 5 0 1 0 3.011-8.984zm-6 8a3 3 0 1 1 3-3 3 3 0 0 1 -3 3zm6 0a2.98 2.98 0 0 1 -1.68-.53 4.826 4.826 0 0 0 0-4.94 2.995 2.995 0 1 1 1.68 5.47z"/><path d="m26 30h4v2h-4z"/><path d="m34 30h4v2h-4z"/><path d="m42 30h4v2h-4z"/><path d="m50 30h4v2h-4z"/><path d="m60 44.7v-27.7a5.006 5.006 0 0 0 -5-5h-48a5.006 5.006 0 0 0 -5 5v30a5.006 5.006 0 0 0 5 5h33.051a11 11 0 1 0 19.949-7.3zm-56 2.3v-30a3 3 0 0 1 3-3h48a3 3 0 0 1 3 3v25.521a10.99 10.99 0 0 0 -17.949 7.479h-33.051a3 3 0 0 1 -3-3zm47 13a9 9 0 1 1 9-9 9.011 9.011 0 0 1 -9 9z"/><path d="m54.536 47.464a1 1 0 0 0 -1.414 0l-2.122 2.122-2.122-2.122a1 1 0 0 0 -1.414 1.414l2.122 2.122-2.122 2.122a1 1 0 1 0 1.414 1.414l2.122-2.122 2.122 2.122a1 1 0 0 0 1.414-1.414l-2.122-2.122 2.122-2.122a1 1 0 0 0 0-1.414z"/><path d="m48 20h2v4h-2z"/><path d="m52 20h2v4h-2z"/><path d="m39 38h-10a1 1 0 0 0 -1 1v4a1 1 0 0 0 1 1h10a1 1 0 0 0 1-1v-4a1 1 0 0 0 -1-1zm-1 4h-8v-2h8z"/><path d="m32 20h2v4h-2z"/></g></svg>