<svg xmlns="http://www.w3.org/2000/svg" width="23" height="23" viewBox="0 0 23 23"><defs><style>.a{fill:#f03813;}.b{fill:#fff;}</style></defs><g transform="translate(0 0.316)"><circle class="a" cx="11.5" cy="11.5" r="11.5" transform="translate(0 -0.316)"/><g transform="translate(6.168 6)"><g transform="translate(0 0)"><path class="b" d="M27.162,29.313a.426.426,0,0,0-.423.423v6.8a.616.616,0,0,1-.609.609H20.956a.616.616,0,0,1-.609-.609V29.723a.423.423,0,0,0-.847,0v6.8a1.446,1.446,0,0,0,1.442,1.442h5.174a1.446,1.446,0,0,0,1.442-1.442v-6.8A.393.393,0,0,0,27.162,29.313Z" transform="translate(-18.587 -26.084)"/><path class="b" d="M47.794,40.349V34.923a.413.413,0,0,0-.4-.423.4.4,0,0,0-.4.423v5.425a.413.413,0,0,0,.4.423A.4.4,0,0,0,47.794,40.349Z" transform="translate(-42.448 -30.596)"/><path class="b" d="M34.794,40.349V34.923a.413.413,0,0,0-.4-.423.4.4,0,0,0-.4.423v5.425a.413.413,0,0,0,.4.423A.4.4,0,0,0,34.794,40.349Z" transform="translate(-31.168 -30.596)"/><path class="b" d="M60.794,40.349V34.923a.413.413,0,0,0-.4-.423.4.4,0,0,0-.4.423v5.425a.413.413,0,0,0,.4.423A.4.4,0,0,0,60.794,40.349Z" transform="translate(-53.728 -30.596)"/><path class="b" d="M22.075,17H13.023a.413.413,0,0,0-.423.4.4.4,0,0,0,.423.4h9.038a.413.413,0,0,0,.423-.4A.4.4,0,0,0,22.075,17Z" transform="translate(-12.6 -15.412)"/><path class="b" d="M38.123,5.794h2.408a.413.413,0,0,0,.423-.4.4.4,0,0,0-.423-.4H38.123a.413.413,0,0,0-.423.4A.4.4,0,0,0,38.123,5.794Z" transform="translate(-34.379 -5)"/></g></g></g></svg>