<svg xmlns="http://www.w3.org/2000/svg" width="20.797" height="25" viewBox="0 0 20.797 25"><defs><style>.a{fill:#de2020;}</style></defs><g transform="translate(-7.599 -5)"><g transform="translate(7.6 5)"><g transform="translate(0 0)"><path class="a" d="M35.619,29.328a.9.9,0,0,0-.891.891v14.31a1.3,1.3,0,0,1-1.281,1.281H22.562a1.3,1.3,0,0,1-1.281-1.281V30.191a.891.891,0,0,0-1.782,0V44.5a3.042,3.042,0,0,0,3.035,3.035H33.42A3.042,3.042,0,0,0,36.454,44.5V30.191A.827.827,0,0,0,35.619,29.328Z" transform="translate(-17.579 -22.535)"/><path class="a" d="M48.67,46.805V35.391a.868.868,0,0,0-.835-.891.851.851,0,0,0-.835.891V46.805a.868.868,0,0,0,.835.891A.851.851,0,0,0,48.67,46.805Z" transform="translate(-37.423 -26.287)"/><path class="a" d="M35.67,46.805V35.391a.868.868,0,0,0-.835-.891.851.851,0,0,0-.835.891V46.805a.868.868,0,0,0,.835.891A.851.851,0,0,0,35.67,46.805Z" transform="translate(-28.042 -26.287)"/><path class="a" d="M61.67,46.805V35.391a.868.868,0,0,0-.835-.891.851.851,0,0,0-.835.891V46.805a.868.868,0,0,0,.835.891A.851.851,0,0,0,61.67,46.805Z" transform="translate(-46.804 -26.287)"/><path class="a" d="M32.533,17H13.491a.868.868,0,0,0-.891.835.851.851,0,0,0,.891.835H32.505a.868.868,0,0,0,.891-.835A.844.844,0,0,0,32.533,17Z" transform="translate(-12.6 -13.659)"/><path class="a" d="M38.591,6.67h5.067a.868.868,0,0,0,.891-.835A.851.851,0,0,0,43.658,5H38.591a.868.868,0,0,0-.891.835A.851.851,0,0,0,38.591,6.67Z" transform="translate(-30.712 -5)"/></g></g></g></svg>