<svg xmlns="http://www.w3.org/2000/svg" width="23" height="23" viewBox="0 0 23 23"><defs><style>.a{fill:#9997b1;}.b{fill:#fff;}</style></defs><g transform="translate(0 0.316)"><circle class="a" cx="11.5" cy="11.5" r="11.5" transform="translate(0 -0.316)"/><g transform="translate(6.514 7.251)"><path class="b" d="M60.911,6.237l.558-.558a1.365,1.365,0,0,0,.419-.947.913.913,0,0,0-.258-.653L60.48,2.927a1.18,1.18,0,0,0-1.6.161l-.558.558Z" transform="translate(-52.652 -2.682)"/><path class="b" d="M16.986,15,12.624,19.36a2.7,2.7,0,0,0,2.59,2.59l4.364-4.363Z" transform="translate(-11.606 -13.743)"/><path class="b" d="M3.293,61.876l-.672,2.951a.2.2,0,0,0,.2.249.185.185,0,0,0,.045-.005L5.818,64.4A3.576,3.576,0,0,1,3.293,61.876Z" transform="translate(-2.616 -55.852)"/></g></g></svg>