<svg xmlns="http://www.w3.org/2000/svg" width="58" height="58.939" viewBox="0 0 58 58.939"><defs><style>.a,.b{fill:#4291e2;}.a{opacity:0.15;}</style></defs><g transform="translate(-101 46.75)"><path class="a" d="M116.333-16.418l1.051-28h36.355l.841,26.478L136.717-3.859Z" transform="translate(-5.667 -0.862)"/><path class="a" d="M104.645-7.417,130.7,10.866,157.812-7.417V22.424l-2.942,2.522H105.486l-2.1-4.413L102.333-7.417Z" transform="translate(-0.493 -14.536)"/><path class="b" d="M9.56,62.189H56.44A5.567,5.567,0,0,0,62,56.623V26.853a1.576,1.576,0,0,0-.561-1.2l-7.761-6.557V7.663A4.413,4.413,0,0,0,49.265,3.25H17.044a4.413,4.413,0,0,0-4.413,4.413v11.19l-8.07,6.8A1.576,1.576,0,0,0,4,26.853V56.623a5.567,5.567,0,0,0,5.56,5.567Zm46.873-3.152H9.56a2.415,2.415,0,0,1-2.408-2.415V29.861L25.12,42.57,12.366,52.329a1.576,1.576,0,1,0,1.891,2.522L27.818,44.474l4.413,3.152a1.576,1.576,0,0,0,1.822,0l4.413-3.152L52.033,54.832a1.576,1.576,0,0,0,1.891-2.522L41.2,42.57,58.848,30.088V56.629a2.415,2.415,0,0,1-2.408,2.408Zm1.532-32.19L53.678,29.88V23.216ZM17.044,6.408H49.272a1.261,1.261,0,0,1,1.261,1.261V32.092l-17.375,12.3-17.368-12.3V7.663A1.261,1.261,0,0,1,17.044,6.408ZM12.631,29.88,8.167,26.727l4.463-3.783ZM33,36.3h.4a1.576,1.576,0,0,0,0-3.152H33A10.049,10.049,0,1,1,43.049,23.1v2.692a1.759,1.759,0,0,1-3.512,0V23.1a6.557,6.557,0,1,0-2.522,5.125A4.9,4.9,0,0,0,46.2,25.788V23.1A13.2,13.2,0,1,0,33,36.3Zm0-9.816A3.385,3.385,0,1,1,36.385,23.1,3.385,3.385,0,0,1,33,26.482Z" transform="translate(97 -50)"/></g></svg>