<svg xmlns="http://www.w3.org/2000/svg" width="26" height="16.281" viewBox="0 0 26 16.281"><defs><style>.a{fill:#4291E2;}</style></defs><g transform="translate(-0.05 -0.25)"><path class="a" d="M31.918,7.721l2.1-2.1a4.995,4.995,0,0,1-4.34,7.458,4.927,4.927,0,0,1-2.469-.65l2.053-2.053c.1,0,.182.026.286.026a2.385,2.385,0,0,0,2.391-2.391A1.066,1.066,0,0,0,31.918,7.721Zm.026.286A2.385,2.385,0,0,1,29.553,10.4a1.066,1.066,0,0,1-.286-.026l-2.053,2.053a4.995,4.995,0,0,0,7.458-4.34,4.927,4.927,0,0,0-.65-2.469l-2.1,2.1A1.066,1.066,0,0,1,31.944,8.007Zm10.733.052v-.1h0a.854.854,0,0,0-.182-.416.2.2,0,0,0-.1-.1,20.8,20.8,0,0,0-2.807-2.651l-.624-.468a.359.359,0,0,0-.1-.078c-.208-.156-.416-.312-.65-.468a.025.025,0,0,1-.026-.026c-.468-.312-.936-.624-1.4-.884L34.023,5.642a4.995,4.995,0,0,1-4.34,7.458,4.927,4.927,0,0,1-2.469-.65l-2.131,2.131c.312.13.65.234.988.338H26.1c.156.052.312.078.468.13.026,0,.052.026.078.026.182.052.338.078.52.13a12.588,12.588,0,0,0,3.56.234,10.06,10.06,0,0,0,1.2-.156,12.748,12.748,0,0,0,2.625-.78c.52-.208,1.013-.442,1.507-.676A19.11,19.11,0,0,0,38.259,12.5c.468-.338.936-.676,1.377-1.039.676-.546,1.3-1.117,1.923-1.715a7.325,7.325,0,0,0,.858-.936,1.428,1.428,0,0,0,.182-.234.931.931,0,0,0,.1-.286h0V8.137C42.7,8.111,42.677,8.085,42.677,8.059ZM31.944,8.007a1.066,1.066,0,0,0-.026-.286l-2.651,2.651c.1,0,.182.026.286.026A2.385,2.385,0,0,0,31.944,8.007Zm-2.677,2.365,2.651-2.651,2.1-2.1L36.8,2.836,38.727.913a.377.377,0,0,0,0-.546.377.377,0,0,0-.546,0L22.667,15.881a.377.377,0,0,0,0,.546.445.445,0,0,0,.572,0l1.871-1.871,2.131-2.131Z" transform="translate(-16.653 0)"/><path class="a" d="M17.656,3.142a14.692,14.692,0,0,0-2.079-.624,12.209,12.209,0,0,0-4.756-.078A15.648,15.648,0,0,0,6.69,3.9,22.294,22.294,0,0,0,1.18,7.976a7.325,7.325,0,0,0-.858.936,1,1,0,0,0,0,1.377,20.8,20.8,0,0,0,2.807,2.651,23.282,23.282,0,0,0,2.807,1.923Z" transform="translate(0 -1.476)"/></g></svg>