<svg xmlns="http://www.w3.org/2000/svg" width="26" height="16.714" viewBox="0 0 26 16.714"><defs><style>.a{fill:#473155;fill-rule:evenodd;}</style></defs><g transform="translate(-1 -3)"><g transform="translate(1 3)"><path class="a" d="M14,16.133a4.776,4.776,0,1,1,4.727-4.775A4.751,4.751,0,0,1,14,16.133M14,3C6.493,3,1,11.357,1,11.357s5.493,8.357,13,8.357,13-8.357,13-8.357S21.507,3,14,3Zm0,5.969a2.388,2.388,0,1,0,2.364,2.388A2.376,2.376,0,0,0,14,8.969Z" transform="translate(-1 -3)"/></g></g></svg>