<svg xmlns="http://www.w3.org/2000/svg" width="19.247" height="19" viewBox="0 0 19.247 19"><defs><style>.a{fill:#fff;}</style></defs><g transform="translate(-5.763 -6)"><path class="a" d="M11.192,20.065a2.713,2.713,0,0,0-1.974-2.607V6.739a.739.739,0,0,0-1.478,0V17.458a2.708,2.708,0,0,0,0,5.214v1.583a.739.739,0,1,0,1.478,0V22.673A2.713,2.713,0,0,0,11.192,20.065ZM8.48,21.306a1.235,1.235,0,1,1,1.235-1.235A1.235,1.235,0,0,1,8.48,21.306Z"/><path class="a" d="M37.372,20.065A2.713,2.713,0,0,0,35.4,17.458V6.739a.739.739,0,1,0-1.478,0V17.458a2.708,2.708,0,0,0,0,5.214v1.583a.739.739,0,0,0,1.478,0V22.673A2.713,2.713,0,0,0,37.372,20.065Zm-2.713,1.24a1.235,1.235,0,1,1,1.235-1.235A1.235,1.235,0,0,1,34.66,21.306Z" transform="translate(-12.363 0)"/><path class="a" d="M18.86,10.939a2.713,2.713,0,0,0,1.974,2.607V24.266a.739.739,0,1,0,1.478,0V13.547a2.707,2.707,0,0,0,0-5.214V6.749a.739.739,0,0,0-1.478,0V8.332A2.713,2.713,0,0,0,18.86,10.939ZM21.573,9.7a1.235,1.235,0,1,1-1.235,1.235A1.235,1.235,0,0,1,21.573,9.7Z" transform="translate(-6.185 -0.005)"/></g></svg>