<svg xmlns="http://www.w3.org/2000/svg" width="26.063" height="26.063" viewBox="0 0 26.063 26.063"><defs><style>.a{fill:#e3411f;}.b{fill:#fff;}</style></defs><g transform="translate(0)"><circle class="a" cx="13.031" cy="13.031" r="13.031"/><g transform="translate(3.765 3.451)"><path class="b" d="M22.12,22.822c-.551-.394-1.575-1.338-1.575-1.811,0-.63.157-.945,1.1-1.732a4.037,4.037,0,0,0,1.653-3.07,3.618,3.618,0,0,0-1.89-3.464H23.3l1.338-.945h-5.9c-2.677,0-5.2,2.047-5.2,4.33a4.307,4.307,0,0,0,4.488,4.33h.551a2.563,2.563,0,0,0-.315,1.1,2.721,2.721,0,0,0,.787,1.653H18.026c-3.307,0-5.826,2.126-5.826,4.251s2.756,3.464,6.062,3.464c3.779,0,5.826-2.126,5.826-4.251A3.945,3.945,0,0,0,22.12,22.822Zm-3.228-2.913c-1.5-.079-2.992-1.732-3.228-3.7-.236-2.047.787-3.543,2.283-3.464s2.992,1.653,3.228,3.7C21.49,18.335,20.467,19.909,18.892,19.909Zm-.551,10.156c-2.283,0-3.937-1.417-3.937-3.149s2.047-3.149,4.33-3.07a4.584,4.584,0,0,1,1.5.236c1.26.866,2.126,1.338,2.362,2.362a1.733,1.733,0,0,1,.079.63C22.671,28.648,21.49,30.065,18.341,30.065Z" transform="translate(-12.2 -11.8)"/><path class="b" d="M31.673,21.683V19.4h-1.89v2.283H27.5v1.811h2.283v2.362h1.89V23.494h2.283V21.683Z" transform="translate(-15.454 -13.416)"/></g></g></svg>