<svg xmlns="http://www.w3.org/2000/svg" width="94.101" height="80.36" viewBox="0 0 94.101 80.36"><defs><style>.a{fill:#4393e3;}.a,.b,.d,.e,.f,.g{fill-rule:evenodd;}.b{fill:#6cadee;}.c{fill:none;stroke:#2a76c2;stroke-linecap:round;stroke-width:5px;}.d{fill:#80bfff;}.e{fill:#e7e0ff;}.f{fill:#2a76c2;}.g{fill:#fff;}</style></defs><path class="a" d="M19.31,36.68V73.688L55.648,96.04l-.355-39.373Z" transform="translate(-8.254 -15.68)"/><path class="b" d="M82.429,96.04,118.774,76.23V36.68L81.96,56.661Z" transform="translate(-35.036 -15.68)"/><path class="c" d="M94.9,118.51l3.784-2.17" transform="translate(-40.567 -49.732)"/><path class="a" d="M19.31,21.161,55.047,0,91.992,21.161,55.179,41.188Z" transform="translate(-8.254)"/><path class="d" d="M11.056,36.68,0,51.085,35.2,71.69,46.793,56.867Z" transform="translate(0 -15.68)"/><path class="d" d="M118.714,36.68l10.363,15.035L93.414,71.69,81.82,56.867Z" transform="translate(-34.976 -15.68)"/><path class="e" d="M111.881,21.815,99.6,28.829A3.137,3.137,0,0,1,94.9,26.1V15.082a6.3,6.3,0,0,1,3.206-5.473L110.37,2.7a3.137,3.137,0,0,1,4.678,2.737V16.359A6.3,6.3,0,0,1,111.881,21.815Z" transform="translate(-40.567 -0.981)"/><path class="a" d="M111.684,18.716l-.469.269a1.025,1.025,0,0,1-1.4-.378,1.059,1.059,0,0,1-.137-.51,3.034,3.034,0,0,1,1.54-2.639l.458-.258a1.019,1.019,0,0,1,1.523.887,3.023,3.023,0,0,1-1.517,2.628Z" transform="translate(-46.885 -6.441)"/><path class="a" d="M111.687,29.172l-2.725,1.609a2.027,2.027,0,0,1-3.052-1.718,6.149,6.149,0,0,1,3.057-5.313l2.72-1.6a2.01,2.01,0,0,1,3.029,1.718,6.12,6.12,0,0,1-3.029,5.3Z" transform="translate(-45.274 -9.351)"/><path class="f" d="M19.32,21.169,55.04.02V41.19Z" transform="translate(-8.259 -0.009)"/><path class="g" d="M49.29,38.649l8.76,5.01A2.244,2.244,0,0,0,61.4,41.712V33.84a4.489,4.489,0,0,0-2.29-3.916L50.355,25A2.244,2.244,0,0,0,47,26.958v7.792a4.5,4.5,0,0,0,2.29,3.9Z" transform="translate(-20.091 -10.561)"/><g transform="translate(30.51 19.371)"><path class="f" d="M58.292,36.437l.338.189A.733.733,0,0,0,59.723,36a2.176,2.176,0,0,0-1.1-1.889l-.326-.177a.733.733,0,0,0-1,.275.784.784,0,0,0-.092.361A2.176,2.176,0,0,0,58.292,36.437Z" transform="translate(-54.966 -33.835)"/><path class="f" d="M55.448,43.885l1.947,1.145a1.448,1.448,0,0,0,1.975-.515,1.426,1.426,0,0,0,.2-.733A4.38,4.38,0,0,0,57.389,40l-1.935-1.145a1.437,1.437,0,0,0-2.164,1.242A4.368,4.368,0,0,0,55.448,43.885Z" transform="translate(-53.29 -35.895)"/></g></svg>