<svg xmlns="http://www.w3.org/2000/svg" width="35" height="35" viewBox="0 0 35 35"><defs><style>.a{fill:#fff;}.b{fill:#fbbb00;}.c{fill:#518ef8;}.d{fill:#28b446;}.e{fill:#f14336;}</style></defs><g transform="translate(-0.333)"><circle class="a" cx="17.5" cy="17.5" r="17.5" transform="translate(0.333)"/><g transform="translate(10.333 10)"><path class="b" d="M3.25,143.17l-.511,1.906-1.866.039a7.346,7.346,0,0,1-.054-6.848h0l1.661.3.728,1.651a4.377,4.377,0,0,0,.041,2.947Z" transform="translate(0 -134.307)"/><path class="c" d="M268.672,208.176a7.331,7.331,0,0,1-2.614,7.089h0l-2.092-.107-.3-1.849a4.371,4.371,0,0,0,1.88-2.232h-3.921v-2.9h7.044Z" transform="translate(-254.133 -202.213)"/><path class="d" d="M41.559,313.6h0a7.336,7.336,0,0,1-11.05-2.243l2.376-1.945a4.361,4.361,0,0,0,6.285,2.233Z" transform="translate(-29.635 -300.546)"/><path class="e" d="M39.818,1.688,37.443,3.633a4.361,4.361,0,0,0-6.429,2.283L28.624,3.961h0A7.335,7.335,0,0,1,39.818,1.688Z" transform="translate(-27.804)"/></g></g></svg>