<svg xmlns="http://www.w3.org/2000/svg" xmlns:xlink="http://www.w3.org/1999/xlink" width="26.06" height="26.06" viewBox="0 0 26.06 26.06"><defs><style>.a{fill:url(#a);}.b{fill:#fff;}</style><linearGradient id="a" x1="0.5" y1="0.002" x2="0.5" y2="1.148" gradientUnits="objectBoundingBox"><stop offset="0.097" stop-color="#ffd879"/><stop offset="0.154" stop-color="#fccb76"/><stop offset="0.258" stop-color="#f5aa6c"/><stop offset="0.398" stop-color="#e9755e"/><stop offset="0.449" stop-color="#e45f58"/><stop offset="0.679" stop-color="#d22a9c"/><stop offset="1" stop-color="#6968df"/></linearGradient></defs><g transform="translate(-8.656 -8.656)"><g transform="translate(8.656 8.656)"><circle class="a" cx="13.03" cy="13.03" r="13.03"/><g transform="translate(9.314 9.315)"><path class="b" d="M24,27.715A3.715,3.715,0,1,1,27.715,24,3.72,3.72,0,0,1,24,27.715Zm0-6.431A2.715,2.715,0,1,0,26.715,24,2.719,2.719,0,0,0,24,21.285Z" transform="translate(-20.284 -20.285)"/></g><circle class="b" cx="0.462" cy="0.462" r="0.462" transform="translate(16.155 9.098)"/><g transform="translate(5.765 5.765)"><path class="b" d="M27.2,31.265H20.8A4.071,4.071,0,0,1,16.735,27.2V20.8A4.071,4.071,0,0,1,20.8,16.735h6.4A4.071,4.071,0,0,1,31.265,20.8v6.4A4.071,4.071,0,0,1,27.2,31.265ZM20.8,17.736A3.07,3.07,0,0,0,17.735,20.8v6.4A3.07,3.07,0,0,0,20.8,30.265h6.4A3.071,3.071,0,0,0,30.265,27.2V20.8A3.071,3.071,0,0,0,27.2,17.736Z" transform="translate(-16.735 -16.735)"/></g></g></g></svg>