<svg xmlns="http://www.w3.org/2000/svg" xmlns:xlink="http://www.w3.org/1999/xlink" width="150.86" height="173.576" viewBox="0 0 150.86 173.576"><defs><style>.a{fill:none;}.b,.c{fill:#b0affd;}.b,.ba{opacity:0.4;}.d{opacity:0.7;}.e{fill:#9797ef;}.f{fill:#7777db;}.g{fill:#8888e9;}.h{fill:#fd9f00;}.i{clip-path:url(#a);}.j{fill:#e38601;}.k{fill:#fac61b;}.l{clip-path:url(#b);}.m{clip-path:url(#c);}.n{clip-path:url(#d);}.o{clip-path:url(#e);}.p{clip-path:url(#f);}.q{clip-path:url(#g);}.r{clip-path:url(#h);}.s{clip-path:url(#i);}.t{clip-path:url(#j);}.u{opacity:0.2;}.v{clip-path:url(#k);}.w{clip-path:url(#l);}.x{clip-path:url(#m);}.y{clip-path:url(#n);}.z{clip-path:url(#o);}.aa{clip-path:url(#p);}.ab{clip-path:url(#q);}.ac,.aw{fill:#ffb127;}.ad{clip-path:url(#r);}.ae{clip-path:url(#s);}.af{clip-path:url(#t);}.ag{clip-path:url(#u);}.ah{clip-path:url(#v);}.ai{clip-path:url(#w);}.aj{clip-path:url(#x);}.ak{fill:#b5905c;}.ak,.aw,.ax{opacity:0.5;}.al{clip-path:url(#y);}.am{fill:#ffd454;}.an{fill:#fde571;}.ao{fill:#ffe1bd;}.ap{fill:#ed9c80;}.aq{fill:#3a3a3a;}.ar{fill:#3d38a0;}.as{fill:#7762ef;}.at{fill:#2c1e56;}.au{fill:#5f52dd;}.av{fill:#f9d04e;}.ay{fill:#edbf5a;}.az{fill:#f8bd36;}.bb{fill:#fff;font-size:26px;font-family:SegoeUI-Bold, Segoe UI;font-weight:700;}.bc{fill:#201d93;}.bd{fill:#2d24a3;}.be{fill:#ffc064;}.bf{fill:#f4aa4a;}</style><clipPath id="a"><path class="a" d="M408.24,356.38v2.25c0,.782-4.168,1.413-9.308,1.413s-9.3-.63-9.3-1.413v-2.25Z" transform="translate(-389.63 -356.38)"/></clipPath><clipPath id="b"><path class="a" d="M410.72,351.7v2.25c0,.782-4.168,1.413-9.308,1.413s-9.3-.63-9.3-1.413V351.7Z" transform="translate(-392.11 -351.7)"/></clipPath><clipPath id="c"><path class="a" d="M407.934,347v2.249c0,.782-4.162,1.413-9.3,1.413s-9.3-.63-9.3-1.413V347Z" transform="translate(-389.33 -347)"/></clipPath><clipPath id="d"><path class="a" d="M541.684,350.33v2.255c0,.777-4.167,1.413-9.3,1.413s-9.3-.636-9.3-1.413V350.33Z" transform="translate(-523.08 -350.33)"/></clipPath><clipPath id="e"><path class="a" d="M544.16,345.66v2.249c0,.777-4.168,1.413-9.3,1.413s-9.308-.636-9.308-1.413V345.66Z" transform="translate(-525.55 -345.66)"/></clipPath><clipPath id="f"><path class="a" d="M541.36,341v2.249c0,.782-4.167,1.413-9.308,1.413s-9.3-.63-9.3-1.413V341Z" transform="translate(-522.75 -341)"/></clipPath><clipPath id="g"><path class="a" d="M540.174,336.18v2.249c0,.782-4.162,1.413-9.3,1.413s-9.3-.63-9.3-1.413V336.18Z" transform="translate(-521.57 -336.18)"/></clipPath><clipPath id="h"><path class="a" d="M544.26,331.47v2.249c0,.782-4.167,1.413-9.3,1.413s-9.308-.63-9.308-1.413V331.47Z" transform="translate(-525.65 -331.47)"/></clipPath><clipPath id="i"><path class="a" d="M540.954,326.76v2.255c0,.777-4.162,1.407-9.3,1.407s-9.3-.63-9.3-1.407V326.76Z" transform="translate(-522.35 -326.76)"/></clipPath><clipPath id="j"><path class="a" d="M543.924,322.06v2.249c0,.777-4.167,1.413-9.3,1.413s-9.3-.636-9.3-1.413V322.06Z" transform="translate(-525.32 -322.06)"/></clipPath><clipPath id="k"><path d="M541.684,350.33v2.255c0,.777-4.167,1.413-9.3,1.413s-9.3-.636-9.3-1.413V350.33Z" transform="translate(-523.08 -350.33)"/></clipPath><clipPath id="l"><path d="M544.16,345.66v2.249c0,.777-4.168,1.413-9.3,1.413s-9.308-.636-9.308-1.413V345.66Z" transform="translate(-525.55 -345.66)"/></clipPath><clipPath id="m"><path d="M541.36,341v2.249c0,.782-4.167,1.413-9.308,1.413s-9.3-.63-9.3-1.413V341Z" transform="translate(-522.75 -341)"/></clipPath><clipPath id="n"><path d="M540.174,336.18v2.249c0,.782-4.162,1.413-9.3,1.413s-9.3-.63-9.3-1.413V336.18Z" transform="translate(-521.57 -336.18)"/></clipPath><clipPath id="o"><path d="M544.26,331.47v2.249c0,.782-4.167,1.413-9.3,1.413s-9.308-.63-9.308-1.413V331.47Z" transform="translate(-525.65 -331.47)"/></clipPath><clipPath id="p"><path d="M540.954,326.76v2.255c0,.777-4.162,1.407-9.3,1.407s-9.3-.63-9.3-1.407V326.76Z" transform="translate(-522.35 -326.76)"/></clipPath><clipPath id="q"><path d="M543.924,322.06v2.249c0,.777-4.167,1.413-9.3,1.413s-9.3-.636-9.3-1.413V322.06Z" transform="translate(-525.32 -322.06)"/></clipPath><clipPath id="r"><path class="a" d="M542.55,352.6v2.249c0,.782,4.167,1.413,9.3,1.413s9.308-.63,9.308-1.413V352.6Z" transform="translate(-542.55 -352.6)"/></clipPath><clipPath id="s"><path class="a" d="M540.07,347.92v2.255c0,.777,4.167,1.407,9.3,1.407s9.307-.63,9.307-1.407V347.92Z" transform="translate(-540.07 -347.92)"/></clipPath><clipPath id="t"><path class="a" d="M542.85,343.22v2.249c0,.777,4.167,1.413,9.308,1.413s9.3-.636,9.3-1.413V343.22Z" transform="translate(-542.85 -343.22)"/></clipPath><clipPath id="u"><path class="a" d="M544.06,338.45v2.25c0,.777,4.162,1.413,9.3,1.413s9.3-.636,9.3-1.413v-2.25Z" transform="translate(-544.06 -338.45)"/></clipPath><clipPath id="v"><path class="a" d="M540,333.74v2.249c0,.782,4.168,1.413,9.3,1.413s9.308-.63,9.308-1.413V333.74Z" transform="translate(-540 -333.74)"/></clipPath><clipPath id="w"><path class="a" d="M543.28,329v2.249c0,.782,4.162,1.413,9.3,1.413s9.3-.63,9.3-1.413V329Z" transform="translate(-543.28 -329)"/></clipPath><clipPath id="x"><path class="a" d="M540.31,324.32v2.249c0,.782,4.168,1.413,9.3,1.413s9.307-.63,9.307-1.413V324.32Z" transform="translate(-540.31 -324.32)"/></clipPath><clipPath id="y"><path class="a" d="M560.6,328.083l1.8-.413,4.553,19.816-1.8.429c-4.787,1.087-9.693-2.445-10.954-7.922S555.8,329.186,560.6,328.083Z" transform="translate(-553.903 -327.67)"/></clipPath></defs><path class="b" d="M503.648,358.661c0,1.831-29.716,3.075-66.337,2.782-15.9-.13-30.487-.543-41.908-1.087-9.291-.755-12.785-.755-17.387-1.223-1.087-.1.935.1,0,0-4.493-.484-7.02-1.005-7.015-1.538,0-1.831,29.716-3.075,66.332-2.782S503.664,356.835,503.648,358.661Z" transform="translate(-362.453 -191.53)"/><path class="c" d="M441.627,303.479c-.027.033-.125-2.766-4.347-5.243-4.282-2.641-13.16-1.712-14.442-4.455-1.348-2.939,4.271-2.575,6.558-4.939s3.064-3.5-.331-3.977-5.406-.581-5.559-3.347-5.575-1.125-8.449-3c-2.961-1.88-1.57-4.716,3.8-4.89,5.3-.033,5.433-.913,3.863-1.63s-6.254-1.842-4.379-3.391,4.939-.462,3.26-2.173-5.434-2.8-3.738-4.89,6.319-2.173,9.237,2.825,3.831,6.4,6.411,6.808,4.711-2.391,7.835-1.462,2.717,3.907,1,5.944-4.613,6.069-2.63,7.672,3.956-1.087,6.569-1.679c2.907-.69,6.4,1.63,3.874,5.808-2.635,4.135-6.862,7.52-6.412,16.686C443.083,303.914,442.355,303.691,441.627,303.479Z" transform="translate(-381.875 -148.34)"/><g class="d" transform="translate(38.393 113.029)"><path class="e" d="M448.533,304.99a.158.158,0,0,1-.179-.109c-9.025-31.275-22.245-42.137-22.38-42.245a.157.157,0,0,1,0-.217.152.152,0,0,1,.217-.027c.136.109,13.437,11.035,22.489,42.381a.158.158,0,0,1-.109.2Z" transform="translate(-425.93 -262.358)"/></g><g class="d" transform="translate(37.436 110.972)"><path class="e" d="M433.314,278.692a.173.173,0,0,1-.1,0,17.479,17.479,0,0,0-8.873-2,.158.158,0,1,1-.022-.315,17.843,17.843,0,0,1,9.047,2.038.158.158,0,0,1,.06.217A.141.141,0,0,1,433.314,278.692Z" transform="translate(-424.168 -276.362)"/></g><g class="d" transform="translate(51.579 114.355)"><path class="e" d="M450.384,289.326a.2.2,0,0,1-.12-.027.163.163,0,0,1-.038-.223,62.626,62.626,0,0,1,8.014-8.84.158.158,0,1,1,.212.234,62.165,62.165,0,0,0-7.982,8.791.174.174,0,0,1-.087.065Z" transform="translate(-450.198 -280.195)"/></g><g class="d" transform="translate(34.654 119.643)"><path class="e" d="M435.116,291.752h-.071a49.889,49.889,0,0,0-15.822-1.478.168.168,0,0,1-.174-.141.158.158,0,0,1,.147-.174,50.4,50.4,0,0,1,15.936,1.489.158.158,0,0,1,.109.2A.152.152,0,0,1,435.116,291.752Z" transform="translate(-419.048 -289.851)"/></g><g class="d" transform="translate(43.805 138.84)"><path class="e" d="M449.892,321.288a.141.141,0,0,1-.081,0c-5.227-1.831-13.671-1.347-13.758-1.342a.152.152,0,0,1-.163-.147.158.158,0,0,1,.147-.168c.087,0,8.6-.489,13.877,1.364a.158.158,0,0,1,.1.2.163.163,0,0,1-.12.092Z" transform="translate(-435.889 -319.573)"/></g><g class="d" transform="translate(58.388 130.515)"><path class="e" d="M462.914,316.425h-.071a.157.157,0,0,1-.109-.2c1.706-6.455,7.27-11.954,7.33-11.986a.158.158,0,0,1,.217.228c-.054.054-5.558,5.466-7.243,11.84a.158.158,0,0,1-.125.114Z" transform="translate(-462.728 -304.2)"/></g><path class="f" d="M429.936,319.685s.283-11.367-8.694-12.415-5.7,11.888-1.864,16.127c0,0-4.972-5.857-8.286-1.9s5.977,8.487,5.977,8.487-7.449-2.521-9.509-.815c-2.657,2.206,1.255,4.89,1.255,4.89s-6.922-2.662-5.238,3.054l38.29-.109Z" transform="translate(-377.209 -169.811)"/><path class="c" d="M536.642,307a.486.486,0,0,1,.065.179,1.378,1.378,0,0,0-.071-.418,30.247,30.247,0,0,1,.125-3.439,5.046,5.046,0,0,1,.081-.7c.429-.326,1.559-.8,1.837-.994a6.7,6.7,0,0,0,1.7-1.478c.163-.245.505-1.011.136-1.233s-1.31.8-1.527,1.087a19.067,19.067,0,0,1-1.4,1.76,6.192,6.192,0,0,0-.728.733,26.174,26.174,0,0,1,.587-3.043c.413-.331,1.576-.81,1.858-1.011a6.739,6.739,0,0,0,1.7-1.478c.163-.245.5-1.011.13-1.233s-1.309.793-1.527,1.06a19.875,19.875,0,0,1-1.4,1.76,6.973,6.973,0,0,0-.723.723,23.513,23.513,0,0,1,1.049-3.092,22.374,22.374,0,0,1,.983-2.038c.581-.147,1.385-.261,1.63-.353a6.925,6.925,0,0,0,2.038-.978c.217-.2.75-.842.445-1.157s-1.473.429-1.75.625a20.458,20.458,0,0,1-1.815,1.331l-.364.185a22.269,22.269,0,0,1,1.69-2.51,4.565,4.565,0,0,0,.755-.125,16.3,16.3,0,0,1,1.929-.092c.293,0,1.472-.109,1.5-.543s-.679-.511-.929-.543a5.786,5.786,0,0,0-1.88.44c-.207.071-.75.386-1.2.6.293-.369.6-.734.924-1.087a22.22,22.22,0,0,1,1.63-1.581,4.607,4.607,0,0,0,.94-.13,17.6,17.6,0,0,1,1.934-.1c.288,0,1.467-.1,1.5-.543s-.685-.511-.935-.543a5.786,5.786,0,0,0-1.88.44c-.239.082-.929.494-1.4.7a20.144,20.144,0,0,1,2.429-1.793,8.141,8.141,0,0,0,.81-.147,17.42,17.42,0,0,1,1.929-.13c.288,0,1.462-.136,1.489-.543s-.7-.5-.945-.505a5.89,5.89,0,0,0-1.869.478,2.911,2.911,0,0,0-.337.163c-.478.2-.951.429-1.413.674h0a16.791,16.791,0,0,0-1.815,1.119c.136-.212.228-.462.348-.69A16.308,16.308,0,0,1,546,285.226c.157-.245.793-1.233.478-1.516s-.815.228-.973.424a5.678,5.678,0,0,0-.772,1.76c-.087.272-.179,1.288-.337,1.739a18.079,18.079,0,0,0-1.554,1.261,4.584,4.584,0,0,0,.3-.869,16.865,16.865,0,0,1,.82-1.739c.12-.261.587-1.342.234-1.57s-.766.348-.891.543a5.627,5.627,0,0,0-.489,1.864c-.049.3,0,1.434-.081,1.853-.2.185-.4.369-.587.543a19.439,19.439,0,0,0-2.173,2.6c0-.185-.044-.369-.06-.543a18.966,18.966,0,0,1,.082-1.923c0-.293,0-1.472-.386-1.549s-.576.619-.6.869a5.9,5.9,0,0,0,.266,1.913c.06.239.4.951.543,1.44a20.526,20.526,0,0,0-1.63,2.858v-.641a14.318,14.318,0,0,1,.141-1.516,8.474,8.474,0,0,1,.652-2.277.418.418,0,0,0-.592-.543l-.038.027a2.3,2.3,0,0,0-.712,1.771c-.044.5-.3,3.211.255,3.8a21.675,21.675,0,0,0-1.141,3.586c-.044-.625.06-1.244.076-1.869,0-.288,0-1.467-.386-1.543s-.576.619-.6.869a5.762,5.762,0,0,0,.272,1.913c.049.217.331.81.505,1.282a21.959,21.959,0,0,0-.386,2.978c-.049-.12-.092-.234-.136-.353a16.916,16.916,0,0,1-.4-1.891c-.065-.283-.348-1.434-.766-1.4s-.4.744-.364.994a5.9,5.9,0,0,0,.772,1.929c.12.223.625.826.907,1.261a21.642,21.642,0,0,0,0,2.3c-.2-.543-.3-1.087-.478-1.63-.087-.277-.456-1.4-.869-1.342s-.337.777-.288,1.021a5.907,5.907,0,0,0,.88,1.728c.109.168.489.571.8.935.1,1.44-.848,3.1-.494,4.493C535.61,309.769,536.675,308.28,536.642,307Z" transform="translate(-437.139 -159.042)"/><path class="c" d="M502.589,299.78c.038.027-.907-2.608,2.076-6.471,2.994-4.042,11.579-6.477,11.758-9.5.158-3.228-4.928-.8-7.927-2.146s-4.146-2.119-1.168-3.8,4.8-2.543,3.917-5.173,4.76-3.108,6.732-5.928-.293-4.961-5.352-3.113c-4.934,1.934-5.4,1.168-4.2-.087s5.124-4.032,2.809-4.776-4.76,1.407-3.841-.793,3.994-4.618,1.663-5.922-6.683.31-7.552,6.064-1.179,7.357-3.423,8.694-5.26-.467-7.819,1.554-1.054,4.624,1.277,5.89,6.52,3.923,5.292,6.145-4.064.484-6.727.88c-2.95.44-5.33,3.885-1.434,6.83,3.977,2.863,9.161,4.439,12.144,13.116Q501.652,300.487,502.589,299.78Z" transform="translate(-415.257 -144.435)"/><g class="d" transform="translate(85.404 108.363)"><path class="e" d="M513.39,301.71a.152.152,0,0,0,.125-.168c-3.233-32.389,5.015-47.385,5.1-47.532a.158.158,0,0,0-.06-.217.152.152,0,0,0-.212.06c-.087.152-8.378,15.214-5.14,47.717a.158.158,0,0,0,.174.141Z" transform="translate(-512.45 -253.771)"/></g><g class="d" transform="translate(87.396 104.726)"><path class="e" d="M516.309,271.637a.152.152,0,0,0,.092-.054,17.387,17.387,0,0,1,7.493-5.145.163.163,0,0,0,.1-.2.158.158,0,0,0-.2-.1,17.859,17.859,0,0,0-7.645,5.254.158.158,0,0,0,.027.223A.163.163,0,0,0,516.309,271.637Z" transform="translate(-516.117 -266.125)"/></g><g class="d" transform="translate(75.169 116.869)"><path class="e" d="M504.522,290.35a.158.158,0,0,0,.1-.071.152.152,0,0,0-.049-.217,62.055,62.055,0,0,0-10.747-5.238.163.163,0,0,0-.2.1.158.158,0,0,0,.092.2A61.717,61.717,0,0,1,504.4,290.35.185.185,0,0,0,504.522,290.35Z" transform="translate(-493.613 -284.816)"/></g><g class="d" transform="translate(86.118 112.018)"><path class="e" d="M513.953,284.516a.114.114,0,0,0,.071-.027,50.155,50.155,0,0,1,14.127-7.248.152.152,0,0,0,.1-.2.147.147,0,0,0-.2-.1,49.527,49.527,0,0,0-14.247,7.3.157.157,0,0,0,0,.223A.141.141,0,0,0,513.953,284.516Z" transform="translate(-513.765 -276.932)"/></g><g class="d" transform="translate(85.478 133.841)"><path class="e" d="M512.762,317.368a.147.147,0,0,0,.076-.038c4.173-3.64,12.193-6.33,12.274-6.352a.16.16,0,0,0-.1-.3c-.082.027-8.15,2.717-12.383,6.422a.152.152,0,0,0,0,.217A.147.147,0,0,0,512.762,317.368Z" transform="translate(-512.586 -310.668)"/></g><g class="d" transform="translate(74.367 134.548)"><path class="e" d="M503.517,319.935a.169.169,0,0,0,.065-.027.158.158,0,0,0,.033-.217c-3.983-5.363-11.188-8.384-11.258-8.411a.158.158,0,1,0-.12.293c.071.027,7.194,3.01,11.122,8.3A.163.163,0,0,0,503.517,319.935Z" transform="translate(-492.138 -311.268)"/></g><path class="g" d="M507.56,314.565s-.283-11.367,8.694-12.415,5.721,11.888,1.885,16.121c0,0,4.972-5.857,8.286-1.9s-5.977,8.487-5.977,8.487,7.444-2.521,9.509-.81c2.657,2.206-2.385,5.433-2.385,5.433s8.052-3.206,6.368,2.5l-38.29-.109Z" transform="translate(-419.374 -167.473)"/><path class="h" d="M408.24,356.38v2.25c0,.782-4.168,1.413-9.308,1.413s-9.3-.63-9.3-1.413v-2.25Z" transform="translate(-370.96 -192.265)"/><g class="i" transform="translate(18.67 164.115)"><rect class="j" width="0.44" height="5.156" transform="translate(17.963 -0.935)"/><rect class="j" width="0.44" height="5.156" transform="translate(16.822 -0.935)"/><rect class="j" width="0.44" height="5.156" transform="translate(15.518 -0.935)"/><rect class="j" width="0.44" height="5.156" transform="translate(13.893 -0.935)"/><rect class="j" width="0.44" height="5.156" transform="translate(12.1 -0.935)"/><rect class="j" width="0.44" height="5.156" transform="translate(10.155 -0.935)"/><rect class="j" width="0.44" height="5.156" transform="translate(0.206 -0.935)"/><rect class="j" width="0.44" height="5.156" transform="translate(1.347 -0.935)"/><rect class="j" width="0.44" height="5.156" transform="translate(2.652 -0.935)"/><rect class="j" width="0.44" height="5.156" transform="translate(4.276 -0.935)"/><rect class="j" width="0.44" height="5.156" transform="translate(6.064 -0.935)"/><rect class="j" width="0.44" height="5.156" transform="translate(8.014 -0.935)"/></g><path class="k" d="M389.63,355.113c0,.782,4.168,1.413,9.3,1.413s9.308-.63,9.308-1.413-4.168-1.413-9.308-1.413S389.63,354.336,389.63,355.113Z" transform="translate(-370.96 -191.041)"/><path class="h" d="M393.14,355.447c0,.359,3.314.652,7.395.652s7.4-.293,7.4-.652-3.314-.657-7.4-.657S393.14,355.1,393.14,355.447Z" transform="translate(-372.563 -191.539)"/><path class="j" d="M407.638,355.668a53.624,53.624,0,0,0-14.127,0c-.206-.06-.321-.125-.321-.19,0-.364,3.314-.657,7.395-.657s7.4.293,7.4.657C407.958,355.543,407.844,355.608,407.638,355.668Z" transform="translate(-372.586 -191.552)"/><path class="h" d="M410.72,351.7v2.25c0,.782-4.168,1.413-9.308,1.413s-9.3-.63-9.3-1.413V351.7Z" transform="translate(-372.093 -190.128)"/><g class="l" transform="translate(20.017 161.572)"><rect class="j" width="0.44" height="5.156" transform="translate(17.963 -0.935)"/><rect class="j" width="0.44" height="5.156" transform="translate(16.822 -0.935)"/><rect class="j" width="0.44" height="5.156" transform="translate(15.518 -0.935)"/><rect class="j" width="0.44" height="5.156" transform="translate(13.888 -0.935)"/><rect class="j" width="0.44" height="5.156" transform="translate(12.1 -0.935)"/><rect class="j" width="0.44" height="5.156" transform="translate(10.15 -0.935)"/><rect class="j" width="0.44" height="5.156" transform="translate(0.206 -0.935)"/><rect class="j" width="0.44" height="5.156" transform="translate(1.348 -0.935)"/><rect class="j" width="0.44" height="5.156" transform="translate(2.652 -0.935)"/><rect class="j" width="0.44" height="5.156" transform="translate(4.276 -0.935)"/><rect class="j" width="0.44" height="5.156" transform="translate(6.064 -0.935)"/><rect class="j" width="0.44" height="5.156" transform="translate(8.014 -0.935)"/></g><path class="k" d="M392.11,350.433c0,.782,4.168,1.413,9.3,1.413s9.308-.63,9.308-1.413-4.168-1.413-9.308-1.413S392.11,349.656,392.11,350.433Z" transform="translate(-372.093 -188.904)"/><path class="h" d="M395.62,350.8c0,.364,3.314.657,7.395.657s7.4-.293,7.4-.657-3.314-.657-7.4-.657S395.62,350.433,395.62,350.8Z" transform="translate(-373.696 -189.415)"/><path class="j" d="M410.118,350.988a53.62,53.62,0,0,0-14.127,0c-.207-.06-.321-.125-.321-.19,0-.364,3.314-.657,7.395-.657s7.4.293,7.4.657C410.438,350.863,410.324,350.928,410.118,350.988Z" transform="translate(-373.718 -189.415)"/><path class="h" d="M407.934,347v2.249c0,.782-4.162,1.413-9.3,1.413s-9.3-.63-9.3-1.413V347Z" transform="translate(-370.823 -187.981)"/><g class="m" transform="translate(18.507 159.019)"><rect class="j" width="0.44" height="5.156" transform="translate(17.963 -0.94)"/><rect class="j" width="0.44" height="5.156" transform="translate(16.822 -0.94)"/><rect class="j" width="0.44" height="5.156" transform="translate(15.518 -0.94)"/><rect class="j" width="0.44" height="5.156" transform="translate(13.888 -0.94)"/><rect class="j" width="0.44" height="5.156" transform="translate(12.1 -0.94)"/><rect class="j" width="0.44" height="5.156" transform="translate(10.15 -0.94)"/><rect class="j" width="0.44" height="5.156" transform="translate(0.201 -0.94)"/><rect class="j" width="0.44" height="5.156" transform="translate(1.347 -0.94)"/><rect class="j" width="0.44" height="5.156" transform="translate(2.652 -0.94)"/><rect class="j" width="0.44" height="5.156" transform="translate(4.276 -0.94)"/><rect class="j" width="0.44" height="5.156" transform="translate(6.064 -0.94)"/><rect class="j" width="0.44" height="5.156" transform="translate(8.014 -0.94)"/></g><path class="k" d="M389.33,345.723c0,.782,4.167,1.413,9.3,1.413s9.3-.63,9.3-1.413-4.162-1.413-9.3-1.413S389.33,344.946,389.33,345.723Z" transform="translate(-370.823 -186.753)"/><path class="h" d="M392.84,346.087c0,.364,3.309.657,7.395.657s7.395-.293,7.395-.657-3.309-.657-7.395-.657S392.84,345.74,392.84,346.087Z" transform="translate(-372.426 -187.264)"/><path class="j" d="M407.338,346.288a54.245,54.245,0,0,0-14.127,0c-.207-.06-.321-.125-.321-.19,0-.364,3.309-.657,7.395-.657s7.395.293,7.395.657C407.653,346.157,407.544,346.222,407.338,346.288Z" transform="translate(-372.449 -187.269)"/><path class="h" d="M541.684,350.33v2.255c0,.777-4.167,1.413-9.3,1.413s-9.3-.636-9.3-1.413V350.33Z" transform="translate(-431.9 -189.502)"/><g class="n" transform="translate(91.18 160.828)"><rect class="j" width="0.44" height="5.156" transform="translate(17.958 -0.935)"/><rect class="j" width="0.44" height="5.156" transform="translate(16.817 -0.935)"/><rect class="j" width="0.44" height="5.156" transform="translate(15.513 -0.935)"/><rect class="j" width="0.44" height="5.156" transform="translate(13.888 -0.935)"/><rect class="j" width="0.44" height="5.156" transform="translate(12.1 -0.935)"/><rect class="j" width="0.44" height="5.156" transform="translate(10.15 -0.935)"/><rect class="j" width="0.44" height="5.156" transform="translate(0.201 -0.935)"/><rect class="j" width="0.44" height="5.156" transform="translate(1.342 -0.935)"/><rect class="j" width="0.44" height="5.156" transform="translate(2.646 -0.935)"/><rect class="j" width="0.44" height="5.156" transform="translate(4.271 -0.935)"/><rect class="j" width="0.44" height="5.156" transform="translate(6.064 -0.935)"/><rect class="j" width="0.44" height="5.156" transform="translate(8.014 -0.935)"/></g><path class="k" d="M523.08,349.073c0,.777,4.162,1.413,9.3,1.413s9.3-.636,9.3-1.413-4.167-1.413-9.3-1.413S523.08,348.29,523.08,349.073Z" transform="translate(-431.9 -188.283)"/><ellipse class="h" cx="7.395" cy="0.657" rx="7.395" ry="0.657" transform="translate(93.087 159.98)"/><path class="j" d="M541.082,349.622a54.245,54.245,0,0,0-14.127,0c-.206-.06-.315-.12-.315-.19,0-.359,3.309-.652,7.395-.652s7.4.293,7.4.652C541.4,349.5,541.289,349.562,541.082,349.622Z" transform="translate(-433.526 -188.794)"/><path class="h" d="M544.16,345.66v2.249c0,.777-4.168,1.413-9.3,1.413s-9.308-.636-9.308-1.413V345.66Z" transform="translate(-433.028 -187.369)"/><g class="o" transform="translate(92.522 158.291)"><rect class="j" width="0.44" height="5.156" transform="translate(17.963 -0.935)"/><rect class="j" width="0.44" height="5.156" transform="translate(16.822 -0.935)"/><rect class="j" width="0.44" height="5.156" transform="translate(15.518 -0.935)"/><rect class="j" width="0.44" height="5.156" transform="translate(13.893 -0.935)"/><rect class="j" width="0.44" height="5.156" transform="translate(12.106 -0.935)"/><rect class="j" width="0.44" height="5.156" transform="translate(10.155 -0.935)"/><rect class="j" width="0.44" height="5.156" transform="translate(0.206 -0.935)"/><rect class="j" width="0.44" height="5.156" transform="translate(1.348 -0.935)"/><rect class="j" width="0.44" height="5.156" transform="translate(2.652 -0.935)"/><rect class="j" width="0.44" height="5.156" transform="translate(4.276 -0.935)"/><rect class="j" width="0.44" height="5.156" transform="translate(6.069 -0.935)"/><rect class="j" width="0.44" height="5.156" transform="translate(8.02 -0.935)"/></g><path class="k" d="M525.55,344.393c0,.782,4.167,1.413,9.308,1.413s9.3-.63,9.3-1.413-4.168-1.413-9.3-1.413S525.55,343.61,525.55,344.393Z" transform="translate(-433.028 -186.146)"/><path class="h" d="M529.07,344.757c0,.359,3.309.652,7.395.652s7.4-.293,7.4-.652-3.314-.657-7.4-.657S529.07,344.393,529.07,344.757Z" transform="translate(-434.636 -186.657)"/><path class="j" d="M543.562,344.948a53.619,53.619,0,0,0-14.127,0c-.207-.06-.315-.125-.315-.19,0-.364,3.309-.657,7.395-.657s7.395.293,7.395.657C543.883,344.823,543.769,344.888,543.562,344.948Z" transform="translate(-434.659 -186.657)"/><path class="h" d="M541.36,341v2.249c0,.782-4.167,1.413-9.308,1.413s-9.3-.63-9.3-1.413V341Z" transform="translate(-431.75 -185.241)"/><g class="p" transform="translate(91 155.759)"><rect class="j" width="0.44" height="5.156" transform="translate(17.974 -0.962)"/><rect class="j" width="0.44" height="5.156" transform="translate(16.833 -0.962)"/><rect class="j" width="0.44" height="5.156" transform="translate(15.529 -0.962)"/><rect class="j" width="0.44" height="5.156" transform="translate(13.904 -0.962)"/><rect class="j" width="0.44" height="5.156" transform="translate(12.111 -0.962)"/><rect class="j" width="0.44" height="5.156" transform="translate(10.166 -0.962)"/><rect class="j" width="0.44" height="5.156" transform="translate(0.217 -0.962)"/><rect class="j" width="0.44" height="5.156" transform="translate(1.358 -0.962)"/><rect class="j" width="0.44" height="5.156" transform="translate(2.662 -0.962)"/><rect class="j" width="0.44" height="5.156" transform="translate(4.287 -0.962)"/><rect class="j" width="0.44" height="5.156" transform="translate(6.075 -0.962)"/><rect class="j" width="0.44" height="5.156" transform="translate(8.025 -0.962)"/></g><path class="k" d="M522.77,339.683c0,.782,4.167,1.413,9.3,1.413s9.308-.63,9.308-1.413-4.167-1.413-9.308-1.413S522.77,338.906,522.77,339.683Z" transform="translate(-431.759 -183.995)"/><path class="h" d="M526.28,340.047c0,.359,3.314.652,7.395.652s7.4-.293,7.4-.652-3.314-.657-7.4-.657S526.28,339.683,526.28,340.047Z" transform="translate(-433.362 -184.506)"/><path class="j" d="M540.778,340.288a53.627,53.627,0,0,0-14.127,0c-.206-.06-.321-.125-.321-.19,0-.364,3.314-.657,7.4-.657s7.4.293,7.4.657A1.077,1.077,0,0,1,540.778,340.288Z" transform="translate(-433.384 -184.529)"/><path class="h" d="M540.174,336.18v2.249c0,.782-4.162,1.413-9.3,1.413s-9.3-.63-9.3-1.413V336.18Z" transform="translate(-431.211 -183.04)"/><g class="q" transform="translate(90.359 153.14)"><rect class="j" width="0.44" height="5.156" transform="translate(17.963 -0.935)"/><rect class="j" width="0.44" height="5.156" transform="translate(16.817 -0.935)"/><rect class="j" width="0.44" height="5.156" transform="translate(15.518 -0.935)"/><rect class="j" width="0.44" height="5.156" transform="translate(13.888 -0.935)"/><rect class="j" width="0.44" height="5.156" transform="translate(12.1 -0.935)"/><rect class="j" width="0.44" height="5.156" transform="translate(10.15 -0.935)"/><rect class="j" width="0.44" height="5.156" transform="translate(0.201 -0.935)"/><rect class="j" width="0.44" height="5.156" transform="translate(1.342 -0.935)"/><rect class="j" width="0.44" height="5.156" transform="translate(2.646 -0.935)"/><rect class="j" width="0.44" height="5.156" transform="translate(4.276 -0.935)"/><rect class="j" width="0.44" height="5.156" transform="translate(6.064 -0.935)"/><rect class="j" width="0.44" height="5.156" transform="translate(8.014 -0.935)"/></g><path class="k" d="M521.57,334.913c0,.782,4.162,1.413,9.3,1.413s9.3-.63,9.3-1.413-4.162-1.413-9.3-1.413S521.57,334.136,521.57,334.913Z" transform="translate(-431.211 -181.817)"/><path class="h" d="M525.08,335.277c0,.364,3.309.657,7.395.657s7.395-.293,7.395-.657-3.309-.657-7.395-.657S525.08,334.913,525.08,335.277Z" transform="translate(-432.814 -182.328)"/><path class="j" d="M539.578,335.468a53.621,53.621,0,0,0-14.127,0c-.212-.06-.321-.125-.321-.19,0-.364,3.309-.657,7.4-.657s7.395.293,7.395.657C539.893,335.37,539.784,335.408,539.578,335.468Z" transform="translate(-432.837 -182.328)"/><path class="h" d="M544.26,331.47v2.249c0,.782-4.167,1.413-9.3,1.413s-9.308-.63-9.308-1.413V331.47Z" transform="translate(-433.074 -180.89)"/><g class="r" transform="translate(92.576 150.58)"><rect class="j" width="0.44" height="5.156" transform="translate(17.963 -0.935)"/><rect class="j" width="0.44" height="5.156" transform="translate(16.822 -0.935)"/><rect class="j" width="0.44" height="5.156" transform="translate(15.518 -0.935)"/><rect class="j" width="0.44" height="5.156" transform="translate(13.893 -0.935)"/><rect class="j" width="0.44" height="5.156" transform="translate(12.106 -0.935)"/><rect class="j" width="0.44" height="5.156" transform="translate(10.155 -0.935)"/><rect class="j" width="0.44" height="5.156" transform="translate(0.206 -0.935)"/><rect class="j" width="0.44" height="5.156" transform="translate(1.347 -0.935)"/><rect class="j" width="0.44" height="5.156" transform="translate(2.652 -0.935)"/><rect class="j" width="0.44" height="5.156" transform="translate(4.276 -0.935)"/><rect class="j" width="0.44" height="5.156" transform="translate(6.069 -0.935)"/><rect class="j" width="0.44" height="5.156" transform="translate(8.014 -0.935)"/></g><path class="k" d="M525.65,330.213c0,.777,4.167,1.407,9.308,1.407s9.3-.63,9.3-1.407-4.167-1.413-9.3-1.413S525.65,329.452,525.65,330.213Z" transform="translate(-433.074 -179.67)"/><path class="h" d="M529.16,330.572c0,.364,3.314.657,7.4.657s7.4-.293,7.4-.657-3.314-.652-7.4-.652S529.16,330.213,529.16,330.572Z" transform="translate(-434.677 -180.182)"/><path class="j" d="M543.658,330.762a54.241,54.241,0,0,0-14.127,0c-.207-.06-.321-.125-.321-.19,0-.359,3.314-.652,7.4-.652s7.395.293,7.395.652C543.978,330.637,543.864,330.7,543.658,330.762Z" transform="translate(-434.7 -180.182)"/><path class="h" d="M540.954,326.76v2.255c0,.777-4.162,1.407-9.3,1.407s-9.3-.63-9.3-1.407V326.76Z" transform="translate(-431.567 -178.739)"/><g class="s" transform="translate(90.783 148.021)"><rect class="j" width="0.44" height="5.156" transform="translate(17.963 -0.935)"/><rect class="j" width="0.44" height="5.156" transform="translate(16.822 -0.935)"/><rect class="j" width="0.44" height="5.156" transform="translate(15.518 -0.935)"/><rect class="j" width="0.44" height="5.156" transform="translate(13.888 -0.935)"/><rect class="j" width="0.44" height="5.156" transform="translate(12.1 -0.935)"/><rect class="j" width="0.44" height="5.156" transform="translate(10.15 -0.935)"/><rect class="j" width="0.44" height="5.156" transform="translate(0.201 -0.935)"/><rect class="j" width="0.44" height="5.156" transform="translate(1.347 -0.935)"/><rect class="j" width="0.44" height="5.156" transform="translate(2.652 -0.935)"/><rect class="j" width="0.44" height="5.156" transform="translate(4.276 -0.935)"/><rect class="j" width="0.44" height="5.156" transform="translate(6.064 -0.935)"/><rect class="j" width="0.44" height="5.156" transform="translate(8.014 -0.935)"/></g><path class="k" d="M522.35,325.5c0,.777,4.167,1.413,9.3,1.413s9.3-.636,9.3-1.413-4.162-1.413-9.3-1.413S522.35,324.72,522.35,325.5Z" transform="translate(-431.567 -177.519)"/><ellipse class="h" cx="7.395" cy="0.657" rx="7.395" ry="0.657" transform="translate(92.69 147.174)"/><path class="j" d="M540.358,326.052a54.249,54.249,0,0,0-14.127,0c-.206-.06-.321-.12-.321-.19,0-.359,3.309-.652,7.395-.652s7.4.293,7.4.652C540.673,325.933,540.564,325.992,540.358,326.052Z" transform="translate(-433.193 -178.031)"/><path class="h" d="M543.924,322.06v2.249c0,.777-4.167,1.413-9.3,1.413s-9.3-.636-9.3-1.413V322.06Z" transform="translate(-432.923 -176.592)"/><g class="t" transform="translate(92.397 145.468)"><rect class="j" width="0.44" height="5.156" transform="translate(17.958 -0.94)"/><rect class="j" width="0.44" height="5.156" transform="translate(16.817 -0.94)"/><rect class="j" width="0.44" height="5.156" transform="translate(15.513 -0.94)"/><rect class="j" width="0.44" height="5.156" transform="translate(13.888 -0.94)"/><rect class="j" width="0.44" height="5.156" transform="translate(12.1 -0.94)"/><rect class="j" width="0.44" height="5.156" transform="translate(10.15 -0.94)"/><rect class="j" width="0.44" height="5.156" transform="translate(0.201 -0.94)"/><rect class="j" width="0.44" height="5.156" transform="translate(1.342 -0.94)"/><rect class="j" width="0.44" height="5.156" transform="translate(2.646 -0.94)"/><rect class="j" width="0.44" height="5.156" transform="translate(4.276 -0.94)"/><rect class="j" width="0.44" height="5.156" transform="translate(6.064 -0.94)"/><rect class="j" width="0.44" height="5.156" transform="translate(8.014 -0.94)"/></g><path class="k" d="M525.32,320.813c0,.777,4.162,1.413,9.3,1.413s9.3-.636,9.3-1.413-4.167-1.413-9.3-1.413S525.32,320.019,525.32,320.813Z" transform="translate(-432.923 -180.501)"/><path class="h" d="M528.83,321.152c0,.364,3.309.657,7.395.657s7.4-.293,7.4-.657-3.309-.652-7.4-.652S528.83,320.772,528.83,321.152Z" transform="translate(-434.526 -175.88)"/><path class="j" d="M543.322,321.348a53.62,53.62,0,0,0-14.127,0c-.207-.065-.315-.125-.315-.2,0-.359,3.309-.652,7.395-.652s7.4.293,7.4.652C543.643,321.223,543.529,321.282,543.322,321.348Z" transform="translate(-434.549 -175.88)"/><g class="u" transform="translate(90.359 144.022)"><path d="M541.684,350.33v2.255c0,.777-4.167,1.413-9.3,1.413s-9.3-.636-9.3-1.413V350.33Z" transform="translate(-522.26 -333.524)"/><path d="M541.684,350.33v2.255c0,.777-4.167,1.413-9.3,1.413s-9.3-.636-9.3-1.413V350.33Z" transform="translate(-522.26 -333.524)"/><g class="v" transform="translate(0.82 16.806)"><rect width="0.44" height="5.156" transform="translate(17.958 -0.935)"/><rect width="0.44" height="5.156" transform="translate(16.817 -0.935)"/><rect width="0.44" height="5.156" transform="translate(15.513 -0.935)"/><rect width="0.44" height="5.156" transform="translate(13.888 -0.935)"/><rect width="0.44" height="5.156" transform="translate(12.1 -0.935)"/><rect width="0.44" height="5.156" transform="translate(10.15 -0.935)"/><rect width="0.44" height="5.156" transform="translate(0.201 -0.935)"/><rect width="0.44" height="5.156" transform="translate(1.342 -0.935)"/><rect width="0.44" height="5.156" transform="translate(2.646 -0.935)"/><rect width="0.44" height="5.156" transform="translate(4.271 -0.935)"/><rect width="0.44" height="5.156" transform="translate(6.064 -0.935)"/><rect width="0.44" height="5.156" transform="translate(8.014 -0.935)"/></g><path d="M523.08,349.073c0,.777,4.162,1.413,9.3,1.413s9.3-.636,9.3-1.413-4.167-1.413-9.3-1.413S523.08,348.29,523.08,349.073Z" transform="translate(-522.26 -332.305)"/><ellipse cx="7.395" cy="0.657" rx="7.395" ry="0.657" transform="translate(2.728 15.958)"/><path d="M541.082,349.622a54.245,54.245,0,0,0-14.127,0c-.206-.06-.315-.12-.315-.19,0-.359,3.309-.652,7.395-.652s7.4.293,7.4.652C541.4,349.5,541.289,349.562,541.082,349.622Z" transform="translate(-523.885 -332.816)"/><path d="M544.16,345.66v2.249c0,.777-4.168,1.413-9.3,1.413s-9.308-.636-9.308-1.413V345.66Z" transform="translate(-523.387 -331.392)"/><path d="M544.16,345.66v2.249c0,.777-4.168,1.413-9.3,1.413s-9.308-.636-9.308-1.413V345.66Z" transform="translate(-523.387 -331.392)"/><g class="w" transform="translate(2.163 14.268)"><rect width="0.44" height="5.156" transform="translate(17.963 -0.935)"/><rect width="0.44" height="5.156" transform="translate(16.822 -0.935)"/><rect width="0.44" height="5.156" transform="translate(15.518 -0.935)"/><rect width="0.44" height="5.156" transform="translate(13.893 -0.935)"/><rect width="0.44" height="5.156" transform="translate(12.106 -0.935)"/><rect width="0.44" height="5.156" transform="translate(10.155 -0.935)"/><rect width="0.44" height="5.156" transform="translate(0.206 -0.935)"/><rect width="0.44" height="5.156" transform="translate(1.348 -0.935)"/><rect width="0.44" height="5.156" transform="translate(2.652 -0.935)"/><rect width="0.44" height="5.156" transform="translate(4.276 -0.935)"/><rect width="0.44" height="5.156" transform="translate(6.069 -0.935)"/><rect width="0.44" height="5.156" transform="translate(8.02 -0.935)"/></g><path d="M525.55,344.393c0,.782,4.167,1.413,9.308,1.413s9.3-.63,9.3-1.413-4.168-1.413-9.3-1.413S525.55,343.61,525.55,344.393Z" transform="translate(-523.387 -330.168)"/><path d="M529.07,344.757c0,.359,3.309.652,7.395.652s7.4-.293,7.4-.652-3.314-.657-7.4-.657S529.07,344.393,529.07,344.757Z" transform="translate(-524.995 -330.679)"/><path d="M543.562,344.948a53.619,53.619,0,0,0-14.127,0c-.207-.06-.315-.125-.315-.19,0-.364,3.309-.657,7.395-.657s7.395.293,7.395.657C543.883,344.823,543.769,344.888,543.562,344.948Z" transform="translate(-525.018 -330.679)"/><path d="M541.36,341v2.249c0,.782-4.167,1.413-9.308,1.413s-9.3-.63-9.3-1.413V341Z" transform="translate(-522.109 -329.264)"/><path d="M541.36,341v2.249c0,.782-4.167,1.413-9.308,1.413s-9.3-.63-9.3-1.413V341Z" transform="translate(-522.109 -329.264)"/><g class="x" transform="translate(0.641 11.736)"><rect width="0.44" height="5.156" transform="translate(17.974 -0.962)"/><rect width="0.44" height="5.156" transform="translate(16.833 -0.962)"/><rect width="0.44" height="5.156" transform="translate(15.529 -0.962)"/><rect width="0.44" height="5.156" transform="translate(13.904 -0.962)"/><rect width="0.44" height="5.156" transform="translate(12.111 -0.962)"/><rect width="0.44" height="5.156" transform="translate(10.166 -0.962)"/><rect width="0.44" height="5.156" transform="translate(0.217 -0.962)"/><rect width="0.44" height="5.156" transform="translate(1.358 -0.962)"/><rect width="0.44" height="5.156" transform="translate(2.662 -0.962)"/><rect width="0.44" height="5.156" transform="translate(4.287 -0.962)"/><rect width="0.44" height="5.156" transform="translate(6.075 -0.962)"/><rect width="0.44" height="5.156" transform="translate(8.025 -0.962)"/></g><path d="M522.77,339.683c0,.782,4.167,1.413,9.3,1.413s9.308-.63,9.308-1.413-4.167-1.413-9.308-1.413S522.77,338.906,522.77,339.683Z" transform="translate(-522.118 -328.017)"/><path d="M526.28,340.047c0,.359,3.314.652,7.395.652s7.4-.293,7.4-.652-3.314-.657-7.4-.657S526.28,339.683,526.28,340.047Z" transform="translate(-523.721 -328.528)"/><path d="M540.778,340.288a53.627,53.627,0,0,0-14.127,0c-.206-.06-.321-.125-.321-.19,0-.364,3.314-.657,7.4-.657s7.4.293,7.4.657A1.077,1.077,0,0,1,540.778,340.288Z" transform="translate(-523.744 -328.551)"/><path d="M540.174,336.18v2.249c0,.782-4.162,1.413-9.3,1.413s-9.3-.63-9.3-1.413V336.18Z" transform="translate(-521.57 -327.063)"/><path d="M540.174,336.18v2.249c0,.782-4.162,1.413-9.3,1.413s-9.3-.63-9.3-1.413V336.18Z" transform="translate(-521.57 -327.063)"/><g class="y" transform="translate(0 9.117)"><rect width="0.44" height="5.156" transform="translate(17.963 -0.935)"/><rect width="0.44" height="5.156" transform="translate(16.817 -0.935)"/><rect width="0.44" height="5.156" transform="translate(15.518 -0.935)"/><rect width="0.44" height="5.156" transform="translate(13.888 -0.935)"/><rect width="0.44" height="5.156" transform="translate(12.1 -0.935)"/><rect width="0.44" height="5.156" transform="translate(10.15 -0.935)"/><rect width="0.44" height="5.156" transform="translate(0.201 -0.935)"/><rect width="0.44" height="5.156" transform="translate(1.342 -0.935)"/><rect width="0.44" height="5.156" transform="translate(2.646 -0.935)"/><rect width="0.44" height="5.156" transform="translate(4.276 -0.935)"/><rect width="0.44" height="5.156" transform="translate(6.064 -0.935)"/><rect width="0.44" height="5.156" transform="translate(8.014 -0.935)"/></g><path d="M521.57,334.913c0,.782,4.162,1.413,9.3,1.413s9.3-.63,9.3-1.413-4.162-1.413-9.3-1.413S521.57,334.136,521.57,334.913Z" transform="translate(-521.57 -325.839)"/><path d="M525.08,335.277c0,.364,3.309.657,7.395.657s7.395-.293,7.395-.657-3.309-.657-7.395-.657S525.08,334.913,525.08,335.277Z" transform="translate(-523.173 -326.35)"/><path d="M539.578,335.468a53.621,53.621,0,0,0-14.127,0c-.212-.06-.321-.125-.321-.19,0-.364,3.309-.657,7.4-.657s7.395.293,7.395.657C539.893,335.37,539.784,335.408,539.578,335.468Z" transform="translate(-523.196 -326.35)"/><path d="M544.26,331.47v2.249c0,.782-4.167,1.413-9.3,1.413s-9.308-.63-9.308-1.413V331.47Z" transform="translate(-523.433 -324.912)"/><path d="M544.26,331.47v2.249c0,.782-4.167,1.413-9.3,1.413s-9.308-.63-9.308-1.413V331.47Z" transform="translate(-523.433 -324.912)"/><g class="z" transform="translate(2.217 6.558)"><rect width="0.44" height="5.156" transform="translate(17.963 -0.935)"/><rect width="0.44" height="5.156" transform="translate(16.822 -0.935)"/><rect width="0.44" height="5.156" transform="translate(15.518 -0.935)"/><rect width="0.44" height="5.156" transform="translate(13.893 -0.935)"/><rect width="0.44" height="5.156" transform="translate(12.106 -0.935)"/><rect width="0.44" height="5.156" transform="translate(10.155 -0.935)"/><rect width="0.44" height="5.156" transform="translate(0.206 -0.935)"/><rect width="0.44" height="5.156" transform="translate(1.347 -0.935)"/><rect width="0.44" height="5.156" transform="translate(2.652 -0.935)"/><rect width="0.44" height="5.156" transform="translate(4.276 -0.935)"/><rect width="0.44" height="5.156" transform="translate(6.069 -0.935)"/><rect width="0.44" height="5.156" transform="translate(8.014 -0.935)"/></g><path d="M525.65,330.213c0,.777,4.167,1.407,9.308,1.407s9.3-.63,9.3-1.407-4.167-1.413-9.3-1.413S525.65,329.452,525.65,330.213Z" transform="translate(-523.433 -323.692)"/><path d="M529.16,330.572c0,.364,3.314.657,7.4.657s7.4-.293,7.4-.657-3.314-.652-7.4-.652S529.16,330.213,529.16,330.572Z" transform="translate(-525.036 -324.204)"/><path d="M543.658,330.762a54.241,54.241,0,0,0-14.127,0c-.207-.06-.321-.125-.321-.19,0-.359,3.314-.652,7.4-.652s7.395.293,7.395.652C543.978,330.637,543.864,330.7,543.658,330.762Z" transform="translate(-525.059 -324.204)"/><path d="M540.954,326.76v2.255c0,.777-4.162,1.407-9.3,1.407s-9.3-.63-9.3-1.407V326.76Z" transform="translate(-521.926 -322.761)"/><path d="M540.954,326.76v2.255c0,.777-4.162,1.407-9.3,1.407s-9.3-.63-9.3-1.407V326.76Z" transform="translate(-521.926 -322.761)"/><g class="aa" transform="translate(0.424 3.999)"><rect width="0.44" height="5.156" transform="translate(17.963 -0.935)"/><rect width="0.44" height="5.156" transform="translate(16.822 -0.935)"/><rect width="0.44" height="5.156" transform="translate(15.518 -0.935)"/><rect width="0.44" height="5.156" transform="translate(13.888 -0.935)"/><rect width="0.44" height="5.156" transform="translate(12.1 -0.935)"/><rect width="0.44" height="5.156" transform="translate(10.15 -0.935)"/><rect width="0.44" height="5.156" transform="translate(0.201 -0.935)"/><rect width="0.44" height="5.156" transform="translate(1.347 -0.935)"/><rect width="0.44" height="5.156" transform="translate(2.652 -0.935)"/><rect width="0.44" height="5.156" transform="translate(4.276 -0.935)"/><rect width="0.44" height="5.156" transform="translate(6.064 -0.935)"/><rect width="0.44" height="5.156" transform="translate(8.014 -0.935)"/></g><path d="M522.35,325.5c0,.777,4.167,1.413,9.3,1.413s9.3-.636,9.3-1.413-4.162-1.413-9.3-1.413S522.35,324.72,522.35,325.5Z" transform="translate(-521.926 -321.542)"/><ellipse cx="7.395" cy="0.657" rx="7.395" ry="0.657" transform="translate(2.331 3.151)"/><path d="M540.358,326.052a54.249,54.249,0,0,0-14.127,0c-.206-.06-.321-.12-.321-.19,0-.359,3.309-.652,7.395-.652s7.4.293,7.4.652C540.673,325.933,540.564,325.992,540.358,326.052Z" transform="translate(-523.552 -322.053)"/><path d="M543.924,322.06v2.249c0,.777-4.167,1.413-9.3,1.413s-9.3-.636-9.3-1.413V322.06Z" transform="translate(-523.282 -320.615)"/><path d="M543.924,322.06v2.249c0,.777-4.167,1.413-9.3,1.413s-9.3-.636-9.3-1.413V322.06Z" transform="translate(-523.282 -320.615)"/><g class="ab" transform="translate(2.038 1.445)"><rect width="0.44" height="5.156" transform="translate(17.958 -0.94)"/><rect width="0.44" height="5.156" transform="translate(16.817 -0.94)"/><rect width="0.44" height="5.156" transform="translate(15.513 -0.94)"/><rect width="0.44" height="5.156" transform="translate(13.888 -0.94)"/><rect width="0.44" height="5.156" transform="translate(12.1 -0.94)"/><rect width="0.44" height="5.156" transform="translate(10.15 -0.94)"/><rect width="0.44" height="5.156" transform="translate(0.201 -0.94)"/><rect width="0.44" height="5.156" transform="translate(1.342 -0.94)"/><rect width="0.44" height="5.156" transform="translate(2.646 -0.94)"/><rect width="0.44" height="5.156" transform="translate(4.276 -0.94)"/><rect width="0.44" height="5.156" transform="translate(6.064 -0.94)"/><rect width="0.44" height="5.156" transform="translate(8.014 -0.94)"/></g><path d="M525.32,320.813c0,.777,4.162,1.413,9.3,1.413s9.3-.636,9.3-1.413-4.167-1.413-9.3-1.413S525.32,320.019,525.32,320.813Z" transform="translate(-523.282 -319.4)"/><path d="M528.83,321.152c0,.364,3.309.657,7.395.657s7.4-.293,7.4-.657-3.309-.652-7.4-.652S528.83,320.772,528.83,321.152Z" transform="translate(-524.885 -319.902)"/><path d="M543.322,321.348a53.62,53.62,0,0,0-14.127,0c-.207-.065-.315-.125-.315-.2,0-.359,3.309-.652,7.395-.652s7.4.293,7.4.652C543.643,321.223,543.529,321.282,543.322,321.348Z" transform="translate(-524.908 -319.902)"/></g><path class="ac" d="M542.55,352.6v2.249c0,.782,4.167,1.413,9.3,1.413s9.308-.63,9.308-1.413V352.6Z" transform="translate(-440.791 -190.539)"/><g class="ad" transform="translate(101.759 162.061)"><rect class="j" width="0.44" height="5.156" transform="translate(0.206 -0.935)"/><rect class="j" width="0.44" height="5.156" transform="translate(1.348 -0.935)"/><rect class="j" width="0.44" height="5.156" transform="translate(2.652 -0.935)"/><rect class="j" width="0.44" height="5.156" transform="translate(4.276 -0.935)"/><rect class="j" width="0.44" height="5.156" transform="translate(6.064 -0.935)"/><rect class="j" width="0.44" height="5.156" transform="translate(8.014 -0.935)"/><rect class="j" width="0.44" height="5.156" transform="translate(17.963 -0.935)"/><rect class="j" width="0.44" height="5.156" transform="translate(16.822 -0.935)"/><rect class="j" width="0.44" height="5.156" transform="translate(15.518 -0.935)"/><rect class="j" width="0.44" height="5.156" transform="translate(13.893 -0.935)"/><rect class="j" width="0.44" height="5.156" transform="translate(12.1 -0.935)"/><rect class="j" width="0.44" height="5.156" transform="translate(10.155 -0.935)"/></g><path class="k" d="M561.16,351.333c0,.782-4.168,1.413-9.308,1.413s-9.3-.63-9.3-1.413,4.167-1.413,9.3-1.413S561.16,350.556,561.16,351.333Z" transform="translate(-440.791 -189.315)"/><ellipse class="h" cx="7.395" cy="0.657" rx="7.395" ry="0.657" transform="translate(103.666 161.214)"/><path class="j" d="M546.358,351.888a54.242,54.242,0,0,1,14.127,0c.207-.06.321-.125.321-.19,0-.364-3.314-.657-7.4-.657s-7.395.293-7.395.657C546.037,351.763,546.151,351.828,546.358,351.888Z" transform="translate(-442.371 -189.826)"/><path class="ac" d="M540.07,347.92v2.255c0,.777,4.167,1.407,9.3,1.407s9.307-.63,9.307-1.407V347.92Z" transform="translate(-439.659 -188.401)"/><g class="ae" transform="translate(100.411 159.519)"><rect class="j" width="0.44" height="5.156" transform="translate(0.206 -0.935)"/><rect class="j" width="0.44" height="5.156" transform="translate(1.347 -0.935)"/><rect class="j" width="0.44" height="5.156" transform="translate(2.652 -0.935)"/><rect class="j" width="0.44" height="5.156" transform="translate(4.276 -0.935)"/><rect class="j" width="0.44" height="5.156" transform="translate(6.064 -0.935)"/><rect class="j" width="0.44" height="5.156" transform="translate(8.014 -0.935)"/><rect class="j" width="0.44" height="5.156" transform="translate(17.963 -0.935)"/><rect class="j" width="0.44" height="5.156" transform="translate(16.822 -0.935)"/><rect class="j" width="0.44" height="5.156" transform="translate(15.518 -0.935)"/><rect class="j" width="0.44" height="5.156" transform="translate(13.893 -0.935)"/><rect class="j" width="0.44" height="5.156" transform="translate(12.1 -0.935)"/><rect class="j" width="0.44" height="5.156" transform="translate(10.155 -0.935)"/></g><path class="k" d="M558.68,346.663c0,.777-4.167,1.413-9.307,1.413s-9.3-.636-9.3-1.413,4.167-1.413,9.3-1.413S558.68,345.88,558.68,346.663Z" transform="translate(-439.659 -187.182)"/><path class="h" d="M558.375,347.022c0,.364-3.314.657-7.4.657s-7.395-.293-7.395-.657,3.314-.652,7.395-.652S558.375,346.663,558.375,347.022Z" transform="translate(-441.262 -187.694)"/><path class="j" d="M543.878,347.212a54.249,54.249,0,0,1,14.127,0c.206-.06.321-.12.321-.19,0-.359-3.314-.652-7.4-.652s-7.4.293-7.4.652C543.557,347.093,543.671,347.152,543.878,347.212Z" transform="translate(-441.239 -187.694)"/><path class="ac" d="M542.85,343.22v2.249c0,.777,4.167,1.413,9.308,1.413s9.3-.636,9.3-1.413V343.22Z" transform="translate(-440.928 -186.255)"/><g class="af" transform="translate(101.922 156.965)"><rect class="j" width="0.44" height="5.156" transform="translate(0.206 -0.935)"/><rect class="j" width="0.44" height="5.156" transform="translate(1.348 -0.935)"/><rect class="j" width="0.44" height="5.156" transform="translate(2.652 -0.935)"/><rect class="j" width="0.44" height="5.156" transform="translate(4.276 -0.935)"/><rect class="j" width="0.44" height="5.156" transform="translate(6.069 -0.935)"/><rect class="j" width="0.44" height="5.156" transform="translate(8.014 -0.935)"/><rect class="j" width="0.44" height="5.156" transform="translate(17.963 -0.935)"/><rect class="j" width="0.44" height="5.156" transform="translate(16.822 -0.935)"/><rect class="j" width="0.44" height="5.156" transform="translate(15.518 -0.935)"/><rect class="j" width="0.44" height="5.156" transform="translate(13.893 -0.935)"/><rect class="j" width="0.44" height="5.156" transform="translate(12.106 -0.935)"/><rect class="j" width="0.44" height="5.156" transform="translate(10.155 -0.935)"/></g><path class="k" d="M561.46,341.953c0,.777-4.167,1.413-9.3,1.413s-9.308-.636-9.308-1.413,4.167-1.413,9.308-1.413S561.46,341.17,561.46,341.953Z" transform="translate(-440.928 -185.031)"/><path class="h" d="M561.155,342.312c0,.364-3.315.657-7.4.657s-7.4-.293-7.4-.657,3.314-.652,7.4-.652S561.155,341.953,561.155,342.312Z" transform="translate(-442.531 -185.543)"/><path class="j" d="M546.708,342.508a53.623,53.623,0,0,1,14.127,0c.207-.065.321-.125.321-.2,0-.359-3.315-.652-7.4-.652s-7.4.293-7.4.652C546.36,342.388,546.474,342.442,546.708,342.508Z" transform="translate(-442.531 -185.543)"/><path class="ac" d="M544.06,338.45v2.25c0,.777,4.162,1.413,9.3,1.413s9.3-.636,9.3-1.413v-2.25Z" transform="translate(-441.481 -184.077)"/><g class="ag" transform="translate(102.579 154.373)"><rect class="j" width="0.44" height="5.156" transform="translate(0.201 -0.935)"/><rect class="j" width="0.44" height="5.156" transform="translate(1.348 -0.935)"/><rect class="j" width="0.44" height="5.156" transform="translate(2.652 -0.935)"/><rect class="j" width="0.44" height="5.156" transform="translate(4.276 -0.935)"/><rect class="j" width="0.44" height="5.156" transform="translate(6.064 -0.935)"/><rect class="j" width="0.44" height="5.156" transform="translate(8.014 -0.935)"/><rect class="j" width="0.44" height="5.156" transform="translate(17.963 -0.935)"/><rect class="j" width="0.44" height="5.156" transform="translate(16.822 -0.935)"/><rect class="j" width="0.44" height="5.156" transform="translate(15.518 -0.935)"/><rect class="j" width="0.44" height="5.156" transform="translate(13.888 -0.935)"/><rect class="j" width="0.44" height="5.156" transform="translate(12.1 -0.935)"/><rect class="j" width="0.44" height="5.156" transform="translate(10.15 -0.935)"/></g><path class="k" d="M562.664,337.183c0,.777-4.162,1.413-9.3,1.413s-9.3-.636-9.3-1.413,4.162-1.413,9.3-1.413S562.664,336.4,562.664,337.183Z" transform="translate(-441.481 -182.853)"/><path class="h" d="M562.36,337.547c0,.359-3.309.652-7.4.652s-7.395-.293-7.395-.652,3.309-.657,7.395-.657S562.36,337.183,562.36,337.547Z" transform="translate(-443.084 -183.365)"/><path class="j" d="M547.868,337.738a53.62,53.62,0,0,1,14.127,0c.206-.06.315-.125.315-.19,0-.364-3.309-.657-7.395-.657s-7.395.293-7.395.657C547.547,337.613,547.661,337.678,547.868,337.738Z" transform="translate(-443.061 -183.365)"/><path class="ac" d="M540,333.74v2.249c0,.782,4.168,1.413,9.3,1.413s9.308-.63,9.308-1.413V333.74Z" transform="translate(-439.627 -181.926)"/><g class="ah" transform="translate(100.373 151.814)"><rect class="j" width="0.44" height="5.156" transform="translate(0.19 -0.935)"/><rect class="j" width="0.44" height="5.156" transform="translate(1.331 -0.935)"/><rect class="j" width="0.44" height="5.156" transform="translate(2.635 -0.935)"/><rect class="j" width="0.44" height="5.156" transform="translate(4.26 -0.935)"/><rect class="j" width="0.44" height="5.156" transform="translate(6.047 -0.935)"/><rect class="j" width="0.44" height="5.156" transform="translate(7.998 -0.935)"/><rect class="j" width="0.44" height="5.156" transform="translate(17.947 -0.935)"/><rect class="j" width="0.44" height="5.156" transform="translate(16.806 -0.935)"/><rect class="j" width="0.44" height="5.156" transform="translate(15.502 -0.935)"/><rect class="j" width="0.44" height="5.156" transform="translate(13.877 -0.935)"/><rect class="j" width="0.44" height="5.156" transform="translate(12.084 -0.935)"/><rect class="j" width="0.44" height="5.156" transform="translate(10.139 -0.935)"/></g><path class="k" d="M558.593,332.473c0,.782-4.167,1.413-9.307,1.413s-9.286-.63-9.286-1.413,4.168-1.413,9.3-1.413S558.593,331.7,558.593,332.473Z" transform="translate(-439.627 -180.702)"/><path class="h" d="M558.275,332.837c0,.364-3.315.657-7.4.657s-7.395-.293-7.395-.657,3.314-.657,7.395-.657S558.275,332.473,558.275,332.837Z" transform="translate(-441.216 -181.214)"/><path class="j" d="M543.778,333.028a53.617,53.617,0,0,1,14.127,0c.206-.06.32-.125.32-.19,0-.364-3.314-.657-7.4-.657s-7.4.293-7.4.657C543.457,332.9,543.571,332.968,543.778,333.028Z" transform="translate(-441.193 -181.214)"/><path class="ac" d="M543.28,329v2.249c0,.782,4.162,1.413,9.3,1.413s9.3-.63,9.3-1.413V329Z" transform="translate(-441.125 -179.762)"/><g class="ai" transform="translate(102.155 149.238)"><rect class="j" width="0.44" height="5.156" transform="translate(0.201 -0.918)"/><rect class="j" width="0.44" height="5.156" transform="translate(1.342 -0.918)"/><rect class="j" width="0.44" height="5.156" transform="translate(2.646 -0.918)"/><rect class="j" width="0.44" height="5.156" transform="translate(4.276 -0.918)"/><rect class="j" width="0.44" height="5.156" transform="translate(6.064 -0.918)"/><rect class="j" width="0.44" height="5.156" transform="translate(8.014 -0.918)"/><rect class="j" width="0.44" height="5.156" transform="translate(17.963 -0.918)"/><rect class="j" width="0.44" height="5.156" transform="translate(16.817 -0.918)"/><rect class="j" width="0.44" height="5.156" transform="translate(15.513 -0.918)"/><rect class="j" width="0.44" height="5.156" transform="translate(13.888 -0.918)"/><rect class="j" width="0.44" height="5.156" transform="translate(12.1 -0.918)"/><rect class="j" width="0.44" height="5.156" transform="translate(10.15 -0.918)"/></g><path class="k" d="M561.884,327.813c0,.782-4.162,1.413-9.3,1.413s-9.3-.63-9.3-1.413,4.162-1.413,9.3-1.413S561.884,327.009,561.884,327.813Z" transform="translate(-441.125 -178.574)"/><ellipse class="h" cx="7.395" cy="0.657" rx="7.395" ry="0.657" transform="translate(104.062 148.407)"/><path class="j" d="M547.082,328.288a53.623,53.623,0,0,1,14.127,0c.206-.06.321-.125.321-.19,0-.364-3.309-.657-7.395-.657s-7.395.293-7.395.657C546.767,328.179,546.881,328.244,547.082,328.288Z" transform="translate(-442.705 -179.049)"/><path class="ac" d="M540.31,324.32v2.249c0,.782,4.168,1.413,9.3,1.413s9.307-.63,9.307-1.413V324.32Z" transform="translate(-439.768 -177.624)"/><g class="aj" transform="translate(100.541 146.696)"><rect class="j" width="0.44" height="5.156" transform="translate(0.206 -0.935)"/><rect class="j" width="0.44" height="5.156" transform="translate(1.348 -0.935)"/><rect class="j" width="0.44" height="5.156" transform="translate(2.652 -0.935)"/><rect class="j" width="0.44" height="5.156" transform="translate(4.276 -0.935)"/><rect class="j" width="0.44" height="5.156" transform="translate(6.064 -0.935)"/><rect class="j" width="0.44" height="5.156" transform="translate(8.014 -0.935)"/><rect class="j" width="0.44" height="5.156" transform="translate(17.963 -0.935)"/><rect class="j" width="0.44" height="5.156" transform="translate(16.822 -0.935)"/><rect class="j" width="0.44" height="5.156" transform="translate(15.518 -0.935)"/><rect class="j" width="0.44" height="5.156" transform="translate(13.888 -0.935)"/><rect class="j" width="0.44" height="5.156" transform="translate(12.1 -0.935)"/><rect class="j" width="0.44" height="5.156" transform="translate(10.15 -0.935)"/></g><path class="k" d="M558.92,323.057c0,.782-4.167,1.413-9.307,1.413s-9.3-.63-9.3-1.413,4.168-1.407,9.3-1.407S558.92,322.28,558.92,323.057Z" transform="translate(-439.768 -176.405)"/><path class="ac" d="M558.57,323.447c0,.364-3.309.657-7.395.657s-7.4-.293-7.4-.657,3.314-.657,7.4-.657S558.57,323.067,558.57,323.447Z" transform="translate(-441.353 -176.926)"/><path class="j" d="M544.118,323.608a54.246,54.246,0,0,1,14.127,0c.206-.06.315-.125.315-.19,0-.364-3.309-.657-7.395-.657s-7.4.293-7.4.657C543.8,323.483,543.9,323.548,544.118,323.608Z" transform="translate(-441.349 -176.912)"/><path class="ak" d="M551.143,345.085a10.693,10.693,0,0,1-1.527-5.14c-.261-6.009,2.614-10.019,7.406-11.122l1.8-.413,3.738,16.235c-1.7.348-1.983,3.8-3.173,3.543S551.143,345.085,551.143,345.085Z" transform="translate(-444.011 -179.492)"/><path class="h" d="M560.6,328.083l1.8-.413,4.553,19.816-1.8.429c-4.787,1.087-9.693-2.445-10.954-7.922S555.8,329.186,560.6,328.083Z" transform="translate(-445.976 -179.154)"/><g class="al" transform="translate(107.927 148.516)"><rect class="j" width="12.106" height="0.505" transform="matrix(0.975, -0.224, 0.224, 0.975, 1.013, 22.352)"/><rect class="j" width="12.106" height="0.505" transform="matrix(0.975, -0.224, 0.224, 0.975, 0.718, 21.081)"/><rect class="j" width="12.106" height="0.505" transform="matrix(0.975, -0.224, 0.224, 0.975, 0.389, 19.611)"/><rect class="j" width="12.106" height="0.505" transform="matrix(0.975, -0.224, 0.224, 0.975, -0.029, 17.806)"/><rect class="j" width="12.106" height="0.505" transform="matrix(0.975, -0.224, 0.224, 0.975, -0.487, 15.798)"/><rect class="j" width="12.106" height="0.505" transform="matrix(0.975, -0.224, 0.224, 0.975, -0.989, 13.629)"/><rect class="j" width="12.106" height="0.505" transform="matrix(0.975, -0.224, 0.224, 0.975, -3.553, 2.51)"/><rect class="j" width="12.106" height="0.505" transform="matrix(0.975, -0.224, 0.224, 0.975, -3.258, 3.786)"/><rect class="j" width="12.106" height="0.505" transform="matrix(0.975, -0.224, 0.224, 0.975, -2.924, 5.238)"/><rect class="j" width="12.106" height="0.505" transform="matrix(0.975, -0.224, 0.224, 0.975, -2.505, 7.06)"/><rect class="j" width="12.106" height="0.505" transform="matrix(0.975, -0.224, 0.224, 0.975, -2.036, 9.046)"/><rect class="j" width="12.106" height="0.505" transform="matrix(0.975, -0.224, 0.224, 0.975, -1.538, 11.232)"/></g><ellipse class="am" cx="8.9" cy="10.171" rx="8.9" ry="10.171" transform="matrix(0.975, -0.224, 0.224, 0.975, 108.135, 150.428)"/><path class="an" d="M576.654,335.658c-1.261-5.472-6.167-9.02-10.954-7.917a8.182,8.182,0,0,0-4.83,3.287,8.248,8.248,0,0,1,5.1-3.684c4.792-1.087,9.693,2.445,10.954,7.917a10.7,10.7,0,0,1-1.57,8.617A10.791,10.791,0,0,0,576.654,335.658Z" transform="translate(-449.157 -178.916)"/><path class="an" d="M570.507,347.265c3.564-.82,5.673-4.95,4.694-9.2s-4.673-7.064-8.242-6.221-5.678,4.944-4.7,9.2S566.937,348.085,570.507,347.265Z" transform="translate(-449.682 -180.993)"/><path class="ac" d="M570.578,346.855c3.57-.82,5.678-4.944,4.7-9.2s-4.678-7.064-8.248-6.221-5.673,4.95-4.7,9.2S567.009,347.681,570.578,346.855Z" transform="translate(-449.716 -180.805)"/><path class="j" d="M574.046,346.758c3.57-.82,5.678-4.95,4.7-9.2a8.286,8.286,0,0,0-4.819-5.95,8.036,8.036,0,0,1,5.6,6.194c.978,4.254-1.13,8.378-4.7,9.2a5.77,5.77,0,0,1-3.429-.272A5.726,5.726,0,0,0,574.046,346.758Z" transform="translate(-453.966 -180.953)"/><path class="j" d="M571.288,337.489a3.706,3.706,0,0,1,.929.065,3.435,3.435,0,0,1,.777.272,2.38,2.38,0,0,1,.581.418,1.276,1.276,0,0,1,.331.5.211.211,0,0,1,0,.179.206.206,0,0,1-.125.109l-1.331.408a.609.609,0,0,1-.245.033.744.744,0,0,1-.212-.071.848.848,0,0,1-.13-.071.878.878,0,0,0-.234-.087,1.086,1.086,0,0,0-.342-.038,1.63,1.63,0,0,0-.467.081,3.6,3.6,0,0,0-.364.136,1.633,1.633,0,0,0-.288.179.543.543,0,0,0-.174.228.375.375,0,0,0,0,.277.37.37,0,0,0,.174.223.855.855,0,0,0,.386.092,4.736,4.736,0,0,0,.657,0l.989-.1a5.919,5.919,0,0,1,1.087,0,2.522,2.522,0,0,1,.831.217,1.75,1.75,0,0,1,.6.484,2.374,2.374,0,0,1,.391.788,1.9,1.9,0,0,1,.076.831,2,2,0,0,1-.261.772,2.635,2.635,0,0,1-.571.674,3.838,3.838,0,0,1-.837.543l.223.717a.255.255,0,0,1-.168.359l-1.331.413a.277.277,0,0,1-.217,0,.272.272,0,0,1-.141-.168l-.228-.755a3.6,3.6,0,0,1-.978-.049,3.187,3.187,0,0,1-.815-.266,2.065,2.065,0,0,1-.609-.44,1.547,1.547,0,0,1-.359-.576.233.233,0,0,1,0-.179.207.207,0,0,1,.125-.109l1.331-.408a.489.489,0,0,1,.234-.033.593.593,0,0,1,.2.054l.163.092a1.486,1.486,0,0,0,.277.125,1.625,1.625,0,0,0,.4.06,1.769,1.769,0,0,0,.543-.087,2.952,2.952,0,0,0,.859-.391.462.462,0,0,0,.234-.543.337.337,0,0,0-.212-.217,1.563,1.563,0,0,0-.451-.065,6.334,6.334,0,0,0-.728.038l-1.032.1a2.972,2.972,0,0,1-1.76-.277,2.092,2.092,0,0,1-.793-2.717,2.569,2.569,0,0,1,.462-.663,3.329,3.329,0,0,1,.717-.543l-.228-.755a.276.276,0,0,1,0-.217.289.289,0,0,1,.169-.141l1.331-.408a.277.277,0,0,1,.217,0,.271.271,0,0,1,.141.168Z" transform="translate(-452.441 -183.213)"/><path class="am" d="M571.651,337.158a3.709,3.709,0,0,1,.929.065,3.192,3.192,0,0,1,.777.277,2.233,2.233,0,0,1,.581.413,1.277,1.277,0,0,1,.331.5.212.212,0,0,1,0,.179.223.223,0,0,1-.125.109l-1.331.408a.543.543,0,0,1-.245.033,1.087,1.087,0,0,1-.217-.065l-.125-.076a.879.879,0,0,0-.234-.087,1.309,1.309,0,0,0-.348-.038,1.629,1.629,0,0,0-.462.081,3.171,3.171,0,0,0-.364.136,1.458,1.458,0,0,0-.288.179.544.544,0,0,0-.174.228.386.386,0,0,0,0,.283.38.38,0,0,0,.174.223.919.919,0,0,0,.386.087,4.639,4.639,0,0,0,.652,0l.994-.1a5.425,5.425,0,0,1,1.087,0,2.281,2.281,0,0,1,.831.217,1.673,1.673,0,0,1,.6.478,2.375,2.375,0,0,1,.391.788,1.9,1.9,0,0,1,.076.831,2,2,0,0,1-.261.772,2.634,2.634,0,0,1-.57.674,3.839,3.839,0,0,1-.837.543l.223.723a.278.278,0,0,1,0,.217.288.288,0,0,1-.168.141l-1.331.408a.277.277,0,0,1-.217,0,.271.271,0,0,1-.141-.168l-.228-.75a3.8,3.8,0,0,1-.978-.054,3.09,3.09,0,0,1-.82-.266,2.107,2.107,0,0,1-.6-.44,1.55,1.55,0,0,1-.359-.576.234.234,0,0,1,0-.179.206.206,0,0,1,.125-.109l1.331-.407a.484.484,0,0,1,.234-.033.592.592,0,0,1,.2.054,1.788,1.788,0,0,1,.163.1,1.359,1.359,0,0,0,.277.12,1.532,1.532,0,0,0,.935-.027,3.021,3.021,0,0,0,.858-.391.462.462,0,0,0,.234-.543.337.337,0,0,0-.212-.217,1.562,1.562,0,0,0-.451-.065,6.513,6.513,0,0,0-.728.043l-1.032.092a2.973,2.973,0,0,1-1.76-.277,2.075,2.075,0,0,1-.913-1.25,1.928,1.928,0,0,1-.081-.728,2.143,2.143,0,0,1,.2-.717,2.526,2.526,0,0,1,.467-.668,3.331,3.331,0,0,1,.717-.543l-.228-.755a.256.256,0,0,1,0-.217.267.267,0,0,1,.168-.136l1.331-.413a.277.277,0,0,1,.217,0,.272.272,0,0,1,.141.168Z" transform="translate(-452.609 -183.067)"/><path class="ao" d="M627.883,292.041c.168-.071,0-.272-.141-.288h-.136a5.507,5.507,0,0,0,.592-.147c.163-.065.038-.255-.114-.288l.245-.071c.206-.081.049-.283-.141-.293l-.315.038.163-.049c.174-.071.065-.261-.1-.272a1.889,1.889,0,0,0-.359.038,3.451,3.451,0,0,0-.576.06c-.185.033-.983.054-1.174-.3-.288-.543.826-.467.935-.94.038-.147-.788-.06-1.233.054a5.578,5.578,0,0,0-.918.293,6.228,6.228,0,0,1-.739.386,3.805,3.805,0,0,1-.636-.027l-.158,1.5a4.846,4.846,0,0,1,1.152.163,3.533,3.533,0,0,0,1.82.5,6.8,6.8,0,0,0,1.239-.168Z" transform="translate(-477.566 -169.926)"/><path class="ap" d="M588.74,351.347a16.9,16.9,0,0,0,1.331,1.668c.418.386,1.771-.815,1.722-1.174a16.161,16.161,0,0,0-1.75-2.342" transform="translate(-461.884 -189.123)"/><path class="aq" d="M591.6,353.655c.407.435,1.087,1.309,1.087,1.309l-1.125,1.472-.37-.1a3.049,3.049,0,0,1-.462,1.087,6.942,6.942,0,0,1-1.223,1.174,3.951,3.951,0,0,1-2.5.945c-.744-.6.875-1.722,1.168-1.994A2.581,2.581,0,0,0,588.9,355c-.147-.44-.282-.462-.054-.543a.586.586,0,0,1,.473,0,1.087,1.087,0,0,0,1.2-.31,1.278,1.278,0,0,0,.282-.728A.761.761,0,0,1,591.6,353.655Z" transform="translate(-461.004 -190.898)"/><path class="ap" d="M546.521,354.963a17.784,17.784,0,0,0-.451,2.087c-.033.57,1.755.853,2,.587a15.531,15.531,0,0,0,.674-2.836" transform="translate(-442.399 -191.543)"/><path class="aq" d="M544.236,359.639c-.082.587-.321,1.679-.321,1.679l-1.837.043-.158-.353a3.092,3.092,0,0,1-1.152.348,6.726,6.726,0,0,1-1.679-.2c-1.424-.424-2.315-1.087-2.32-1.337,0-.956,1.885-.418,2.282-.364a2.586,2.586,0,0,0,2.423-1.054c.25-.391.179-.511.4-.4a.609.609,0,0,1,.315.353,1.054,1.054,0,0,0,1,.733,1.233,1.233,0,0,0,.744-.245A.766.766,0,0,1,544.236,359.639Z" transform="translate(-438.152 -192.986)"/><path class="ar" d="M554.356,295.47s-5.189,13.225-5.83,16.067S545.45,328.7,545.45,328.7s2.277.647,3.113.359c.576-2.353,6.449-20.522,10.28-25.4S554.356,295.47,554.356,295.47Z" transform="translate(-442.116 -164.45)"/><path class="ar" d="M568.422,304.05a20.164,20.164,0,0,0,2.776,12.943,105.107,105.107,0,0,0,8.014,11.41,7.619,7.619,0,0,0,2.353-1.755c-1.206-1.63-6.6-10.981-6.6-14.632a117.28,117.28,0,0,1,1.407-12.3l-5.977-1.434Z" transform="translate(-452.536 -165.733)"/><path class="ap" d="M595.416,267.95s-6.841.326-10.351-.657-9.525-5.271-9.525-5.271l-7.064-5.433c-1.815-2.277-4.113-8.694-4.477-9.878s-1.63-9.193-1.63-9.193l1.5-.147s1.744,5.678,2.635,8.895c.837,3,5.433,7.118,6.575,8.15h0l.185.158c.7.592.141,1.733.141,1.733l1.206.456s1.3-.668,2.108.049a3.213,3.213,0,0,1,.266.272c1.087,1.2,3.8,5.482,9.308,7.661a68.774,68.774,0,0,0,9.487,1.717C595.5,267.515,595.416,267.95,595.416,267.95Z" transform="translate(-449.842 -148.262)"/><path class="ap" d="M585.489,270.872a2.836,2.836,0,0,1-2.939.875,2.283,2.283,0,0,1-.967-3.543l.185.158c.7.592,1.212-.831,1.212-.831l2.5,1.375s-1.087.978-.255,1.7A3.228,3.228,0,0,1,585.489,270.872Z" transform="translate(-458.389 -162.033)"/><path class="as" d="M575.992,275.241a69.785,69.785,0,0,0-3.075,8.579,12.375,12.375,0,0,1-12.03-3.184,9.205,9.205,0,0,1-1.157-1.326s1.663-3.01,2.651-5.243,2.5-5.151,3.6-7.129c.06-.315-.945-1.858-1.967-4.059a15.5,15.5,0,0,0,3.608-2.82l4.2,4.733s-1.271,2.081.364,3.184,2.717.141,3.543-.516A42.311,42.311,0,0,0,582.056,273l-2.766,4.635A17.611,17.611,0,0,1,575.992,275.241Z" transform="translate(-448.637 -156.753)"/><path class="at" d="M585.852,255.707a1.087,1.087,0,0,0-1.228,1.369.587.587,0,0,0-.772.321,1.45,1.45,0,0,0-.033.924,1.369,1.369,0,0,0,.489.94,1.033,1.033,0,0,0,.755.109,1.26,1.26,0,0,0,.543-.207,2.345,2.345,0,0,0,.429-.467l1.342-1.788a.543.543,0,0,0,.158-.413" transform="translate(-459.61 -157.946)"/><path class="ap" d="M588.791,261.881a10.835,10.835,0,0,1-1.136.983,1.663,1.663,0,0,1-1.891.2,10.866,10.866,0,0,1-2.228-1.342,1.543,1.543,0,0,1-.435-2.092c.245-.543.478-1.087.734-1.63a26.977,26.977,0,0,1,1.82-3.32c.163-.245.353-.609.7-.456a19.557,19.557,0,0,1,3.184,1.722,4.1,4.1,0,0,1,1.712,1.837,4.543,4.543,0,0,1-.065,2.537c-.032.136-.092.3-.228.3" transform="translate(-459.202 -156.801)"/><path class="at" d="M590.14,259.184c.207-.206.6,0,.657.3a1.266,1.266,0,0,1-.244.831,1.929,1.929,0,0,1-.864.7c-.326.158-.663.158-.755-.2a.956.956,0,0,0,.136,1.255.875.875,0,0,0,1.043-.049c1.054,1.364,2.717-.348,3.434-1.288a4.809,4.809,0,0,0,.869-2.76,1.967,1.967,0,0,0-.543-1.369,1.885,1.885,0,0,0-.1-1.717,4.893,4.893,0,0,0-1.038-1.3,1.987,1.987,0,0,0-1.592-.337c-.37-.7-1.087-.7-1.587-.935s-1.277-.13-1.347.413a1.309,1.309,0,0,0-2.124.543,1.429,1.429,0,0,0,1.521,1.679,1.63,1.63,0,0,0,.8,1.543,3.189,3.189,0,0,0,1.766.407,1.282,1.282,0,0,0-.647.913c-.054.4-.081.706.44.9,0,0-.494.7-.288.728S590.14,259.184,590.14,259.184Z" transform="translate(-460.659 -155.965)"/><path class="ap" d="M560.443,228.978c.049-.179.266-.06.31.1v.13a2.938,2.938,0,0,1,.06-.609c.043-.168.25-.071.3.076l.033-.255c.054-.217.277-.092.31.1v.31a1.345,1.345,0,0,1,0-.163c.044-.179.25-.1.288.054a2.449,2.449,0,0,1,0,.364v.576c0,.19.087.983.467,1.119.581.212.342-.88.8-1.087.141-.054.174.772.12,1.228a5.005,5.005,0,0,1-.163.951,7.938,7.938,0,0,0-.277.793,4.256,4.256,0,0,0,.119.625l-1.462.364a4.892,4.892,0,0,0-.326-1.119,3.511,3.511,0,0,1-.75-1.728,6.419,6.419,0,0,1,0-1.25S560.426,229.038,560.443,228.978Z" transform="translate(-448.871 -148.159)"/><path class="au" d="M573.89,296.041a12.375,12.375,0,0,1-12.03-3.184c6.417,4.89,10.682,2.668,11.361,2.521.19-1.505,3.135-8.558,3.135-8.558a4.435,4.435,0,0,0,.6.63,69.811,69.811,0,0,0-3.07,8.59Z" transform="translate(-449.609 -168.07)"/><path class="at" d="M572.174,308.9s-.13,1.445-.163,2.38c-.337.587-.581,1.027-.581,1.027A15.615,15.615,0,0,1,572.174,308.9Z" transform="translate(-453.98 -176.713)"/><path class="av" d="M444.078,104.88a3.358,3.358,0,0,0,1.9,1.407c-.641.489-.63.815-.668,1.532a3.912,3.912,0,0,1-1.755-1.413A1.244,1.244,0,0,1,444.078,104.88Z" transform="translate(-395.546 -104.88)"/><path class="av" d="M531.488,106.47a3.358,3.358,0,0,0,1.9,1.407c-.641.489-.63.815-.668,1.532A3.88,3.88,0,0,1,530.967,108a1.245,1.245,0,0,1,.522-1.527Z" transform="translate(-435.462 -105.606)"/><path class="c" d="M386.784,129.24a3.352,3.352,0,0,0,2.3.587,1.577,1.577,0,0,0-.049,1.679,3.934,3.934,0,0,1-2.173-.652A1.255,1.255,0,0,1,386.784,129.24Z" transform="translate(-369.543 -116.004)"/><path class="av" d="M413.4,150.644a3.353,3.353,0,0,0,1.63-1.744c.418.69.744.717,1.456.831a3.907,3.907,0,0,1-1.592,1.592A1.255,1.255,0,0,1,413.4,150.644Z" transform="translate(-381.815 -124.982)"/><path class="c" d="M456.79,135.008a3.347,3.347,0,0,0,2.347-.288c-.125.793.1,1.027.576,1.576a3.939,3.939,0,0,1-2.249.179A1.244,1.244,0,0,1,456.79,135.008Z" transform="translate(-401.608 -118.507)"/><path class="c" d="M528.762,135.65a3.325,3.325,0,0,0,1.826,1.505c-.663.456-.674.782-.75,1.5a3.913,3.913,0,0,1-1.674-1.505,1.244,1.244,0,0,1,.6-1.5Z" transform="translate(-434.192 -118.931)"/><path class="c" d="M613.562,187.38a3.346,3.346,0,0,0,1.831,1.505c-.668.456-.679.782-.755,1.5a3.912,3.912,0,0,1-1.673-1.505,1.244,1.244,0,0,1,.6-1.5Z" transform="translate(-472.916 -133.951)"/><path class="av" d="M600.67,157.39A3.325,3.325,0,0,0,602.5,158.9c-.668.456-.674.782-.75,1.5a3.923,3.923,0,0,1-1.679-1.505A1.255,1.255,0,0,1,600.67,157.39Z" transform="translate(-467.028 -123.384)"/><path class="av" d="M569.287,158.873a3.325,3.325,0,0,0,2.309-.543c-.049.8.2,1.011.723,1.511a3.891,3.891,0,0,1-2.217.4A1.244,1.244,0,0,1,569.287,158.873Z" transform="translate(-452.994 -123.756)"/><path class="av" d="M550.42,219.445A3.348,3.348,0,0,0,552.311,218c.288.755.6.837,1.282,1.087a3.9,3.9,0,0,1-1.853,1.282A1.25,1.25,0,0,1,550.42,219.445Z" transform="translate(-444.385 -144.793)"/><path class="c" d="M575.148,117.69a3.347,3.347,0,0,0,2.369.1,1.52,1.52,0,0,0,.3,1.63,3.961,3.961,0,0,1-2.249-.19A1.255,1.255,0,0,1,575.148,117.69Z" transform="translate(-455.628 -110.73)"/><path class="av" d="M490.446,117.68a3.32,3.32,0,0,0,2.369.109,1.528,1.528,0,0,0,.294,1.63,3.858,3.858,0,0,1-2.244-.2A1.25,1.25,0,0,1,490.446,117.68Z" transform="translate(-416.947 -110.725)"/><path class="av" d="M355.384,195.41a3.341,3.341,0,0,0,2.364.109,1.529,1.529,0,0,0,.3,1.63,3.9,3.9,0,0,1-2.244-.2A1.239,1.239,0,0,1,355.384,195.41Z" transform="translate(-355.269 -136.859)"/><path class="av" d="M385.332,235.19a3.374,3.374,0,0,0,.945,2.173c-.8.1-.956.386-1.348.994a3.907,3.907,0,0,1-.81-2.1A1.244,1.244,0,0,1,385.332,235.19Z" transform="translate(-368.444 -150.783)"/><path class="c" d="M378.23,173.11a3.314,3.314,0,0,0,1.733-1.63c.364.723.685.772,1.386.945a3.864,3.864,0,0,1-1.717,1.456A1.239,1.239,0,0,1,378.23,173.11Z" transform="translate(-365.754 -128.377)"/><path class="c" d="M590.81,228.556a3.369,3.369,0,0,0,2.076-1.146c.174.788.473.918,1.087,1.255a3.9,3.9,0,0,1-2.016,1A1.244,1.244,0,0,1,590.81,228.556Z" transform="translate(-462.829 -148.124)"/><path class="ac" d="M380.262,285.736c-.543,1.13-1.347,1.934-1.788,1.8s-.353-1.168.2-2.3,1.348-1.934,1.788-1.8S380.832,284.606,380.262,285.736Z" transform="translate(-365.738 -167.648)"/><path class="aw" d="M380.262,285.736c-.543,1.13-1.347,1.934-1.788,1.8s-.353-1.168.2-2.3,1.348-1.934,1.788-1.8S380.832,284.606,380.262,285.736Z" transform="translate(-365.738 -167.648)"/><path class="aw" d="M380.262,285.736c-.543,1.13-1.347,1.934-1.788,1.8s-.353-1.168.2-2.3,1.348-1.934,1.788-1.8S380.832,284.606,380.262,285.736Z" transform="translate(-365.738 -167.648)"/><path class="ac" d="M481.947,262.428l.185-32.9-7.346-.038-.168,29.884h0v2.581c-.163,4.26-1.228,12.3-6.917,12.269l21.028.12C483.213,274.322,482.12,266.78,481.947,262.428Z" transform="translate(-406.611 -143.42)"/><path class="ac" d="M411.231,165.993a14.458,14.458,0,0,1,4.292,3.483,11.206,11.206,0,0,1,1.532,12.568A7.238,7.238,0,0,1,410.78,186a8.072,8.072,0,0,1-7.009-3.6,5.857,5.857,0,0,1,.054-6.075,2.731,2.731,0,0,1,4.722,2.744c-.19.331-.136.424-.082.543a2.657,2.657,0,0,0,2.141.924,1.69,1.69,0,0,0,1.587-.994,1.085,1.085,0,0,0,.092-.2,5.6,5.6,0,0,0-.636-5.944c-.12-.158-.223-.3-.337-.429a9.063,9.063,0,0,0-9.1-3.048c-3.521,1.054-5.841,4.89-6.52,10.84-1.293,11.437,6.759,19.224,11.677,22.821a38.29,38.29,0,0,0,14.247,6.683,8.452,8.452,0,0,0,4.162.185,2.717,2.717,0,0,1,3.586,1.407,2.679,2.679,0,0,1-.13,2.472,2.592,2.592,0,0,1-1.261,1.119,6.71,6.71,0,0,1-2.2.543c-5.374.587-14.372-2.63-21.647-8.009-10.117-7.449-15.04-17.333-13.872-27.836,1.261-11.139,7.036-14.486,10.362-15.458A14.018,14.018,0,0,1,411.231,165.993Z" transform="translate(-371.17 -122.572)"/><g class="ax" transform="translate(50.445 93.588)"><path class="ay" d="M455.858,250.6a2.679,2.679,0,0,1-.13,2.472,2.592,2.592,0,0,1-1.261,1.119,6.71,6.71,0,0,1-2.2.543,36.4,36.4,0,0,1-4.157-5.765,8.453,8.453,0,0,0,4.162.185,2.717,2.717,0,0,1,3.586,1.445Z" transform="translate(-448.11 -248.928)"/></g><g class="ax" transform="translate(40.061 41.413)"><path class="ay" d="M429,167.51a14.458,14.458,0,0,1,4.292,3.483,11.206,11.206,0,0,1,1.532,12.568,7.063,7.063,0,0,1-3.847,3.477c-.353-2.119-.663-4.195-.924-6.178a5.6,5.6,0,0,0-.636-5.944C429.141,171.971,429.033,169.439,429,167.51Z" transform="translate(-429 -167.51)"/></g><path class="ac" d="M527.522,166.095a14.411,14.411,0,0,0-4.4,3.352,11.171,11.171,0,0,0-1.9,12.5,7.254,7.254,0,0,0,6.151,4.146,8.072,8.072,0,0,0,7.112-3.391,5.863,5.863,0,0,0,.13-6.075,2.73,2.73,0,0,0-4.8,2.6c.179.337.125.429.065.543a2.651,2.651,0,0,1-2.173.858,1.706,1.706,0,0,1-1.554-1.038.725.725,0,0,1-.087-.2,5.624,5.624,0,0,1,.815-5.923c.125-.147.234-.293.353-.418a9.065,9.065,0,0,1,9.183-2.771c3.483,1.163,5.689,5.086,6.172,11.03.945,11.476-7.335,19.017-12.356,22.478a38.189,38.189,0,0,1-14.442,6.254,8.524,8.524,0,0,1-4.167.06,2.717,2.717,0,0,0-3.575,3.771,2.646,2.646,0,0,0,1.228,1.157,6.612,6.612,0,0,0,2.173.6c5.352.75,14.437-2.173,21.875-7.357,10.324-7.14,15.551-16.871,14.7-27.4-.924-11.177-6.6-14.67-9.889-15.757a14.03,14.03,0,0,0-10.606.989Z" transform="translate(-424.873 -122.726)"/><g class="ax" transform="translate(82.845 92.957)"><path class="ay" d="M508.012,249.524a2.717,2.717,0,0,0,.054,2.472,2.646,2.646,0,0,0,1.228,1.157,6.612,6.612,0,0,0,2.173.6,37.186,37.186,0,0,0,4.347-5.586,8.524,8.524,0,0,1-4.168.06,2.717,2.717,0,0,0-3.635,1.3Z" transform="translate(-507.741 -247.959)"/></g><g class="ax" transform="translate(95.224 41.361)"><path class="ay" d="M537.949,167.44a14.41,14.41,0,0,0-4.4,3.352,11.171,11.171,0,0,0-1.9,12.5,7,7,0,0,0,3.738,3.586c.413-2.108.788-4.173,1.087-6.145a5.624,5.624,0,0,1,.831-5.922C537.64,171.89,537.846,169.374,537.949,167.44Z" transform="translate(-530.524 -167.44)"/></g><path class="am" d="M491.042,156.582s0,1.967-.152,5.194c-.652,12.78-4.173,45.446-22.9,54.726l-.913.777a6.123,6.123,0,0,1-4.151,1.424l-.929-.033a6.085,6.085,0,0,1-3.6-1.348l-1.087-.875c-18.387-9.384-21.68-41.376-22.25-54.5-.152-3.521-.114-5.689-.114-5.689,0-3.146,3.706-3.956,3.706-3.956l48.689.293S491.058,153.436,491.042,156.582Z" transform="translate(-391.652 -117.657)"/><path class="az" d="M485.87,158.177l-50.4-.288a5.618,5.618,0,0,1-5.575-5.635h0a5.624,5.624,0,0,1,5.64-5.575l50.39.288a5.624,5.624,0,0,1,5.58,5.64h0A5.624,5.624,0,0,1,485.87,158.177Z" transform="translate(-389.35 -119.335)"/><g class="ba" transform="translate(43.306 30.988)"><path class="am" d="M491.055,156.586s0,1.967-.152,5.194a5.39,5.39,0,0,1-3.124.967l-50.4-.283a5.662,5.662,0,0,1-2.293-.511c-.152-3.521-.114-5.689-.114-5.689,0-3.146,3.706-3.956,3.706-3.956l48.689.293S491.072,153.44,491.055,156.586Z" transform="translate(-434.972 -152.31)"/></g><path class="ac" d="M485.87,158.177l-50.4-.288a5.618,5.618,0,0,1-5.575-5.635h0a5.624,5.624,0,0,1,5.64-5.575l50.39.288a5.624,5.624,0,0,1,5.58,5.64h0A5.624,5.624,0,0,1,485.87,158.177Z" transform="translate(-389.35 -119.335)"/><path class="ac" d="M485.87,158.177l-50.4-.288a5.618,5.618,0,0,1-5.575-5.635h0a5.624,5.624,0,0,1,5.64-5.575l50.39.288a5.624,5.624,0,0,1,5.58,5.64h0A5.624,5.624,0,0,1,485.87,158.177Z" transform="translate(-389.35 -119.335)"/><path class="ac" d="M490.49,342.26l-47.01-.266.12-21.4a3.613,3.613,0,0,1,3.63-3.592l39.795.228a3.613,3.613,0,0,1,3.591,3.63Z" transform="translate(-395.551 -174.282)"/><rect class="ac" width="4.021" height="53.346" rx="1.06" transform="matrix(0.006, -1, 1, 0.006, 44.781, 167.706)"/><rect class="aw" width="4.021" height="53.346" rx="1.06" transform="matrix(0.006, -1, 1, 0.006, 44.781, 167.706)"/><rect class="am" width="12.008" height="29.379" rx="3.16" transform="matrix(0.006, -1, 1, 0.006, 56.799, 160.182)"/><rect class="ac" width="2.88" height="23.522" rx="0.76" transform="matrix(0.006, -1, 1, 0.006, 59.814, 136.891)"/><rect class="aw" width="2.88" height="23.522" rx="0.76" transform="matrix(0.006, -1, 1, 0.006, 59.814, 136.891)"/><g class="ax" transform="translate(46.717 47.411)"><path class="am" d="M450.036,177.213c-.831,9.78-1.087,31.541,10.867,45.505a.782.782,0,0,1-1.087,1.119c-6.591-5.287-15.491-15.578-18.05-33.726a78.917,78.917,0,0,1-.38-13.643,4.347,4.347,0,0,1,4.048-3.956h0a4.347,4.347,0,0,1,4.6,4.7Z" transform="translate(-441.25 -172.504)"/></g><g class="ba" transform="translate(72.032 47.13)"><path class="am" d="M501.293,176.708c.315,9.78-.576,31.552-13.258,44.87a.782.782,0,0,0,1.021,1.168c6.862-4.923,16.3-14.73,19.816-32.72a79.156,79.156,0,0,0,1.087-13.584,4.347,4.347,0,0,0-3.8-4.167h0a4.347,4.347,0,0,0-4.863,4.434Z" transform="translate(-487.84 -172.243)"/></g><path class="ac" d="M397.373,246.439l2.288.413-1.722,1.559.315,2.3-2.016-1.152-2.092,1.005.473-2.271-1.608-1.679,2.309-.25,1.1-2.048Z" transform="translate(-333.383 -93.278)"/><path class="ac" d="M413.113,246.439l2.288.413-1.722,1.559.315,2.3-2.016-1.152-2.092,1.005.473-2.271-1.608-1.679,2.309-.25,1.1-2.048Z" transform="translate(-340.57 -93.278)"/><path class="ac" d="M428.853,246.439l2.288.413-1.717,1.559.31,2.3-2.016-1.152-2.092,1.005.473-2.271-1.608-1.679,2.309-.25,1.1-2.048Z" transform="translate(-347.758 -93.278)"/><text class="bb" transform="translate(62.953 75.767)"><tspan x="0" y="0">1</tspan></text><path class="b" d="M418.209,371.24c0,.543-7.243.945-16.17.918s-16.165-.489-16.159-1.021,7.237-.945,16.165-.918S418.209,370.708,418.209,371.24Z" transform="translate(-369.248 -198.584)"/><path class="at" d="M407.009,260.569s.342-2.717,1.462-3.678c1.467-1.277,4.6-.935,5.83.283a5.512,5.512,0,0,1,.9,6.113c2.2,1.288,2.081,4.135.234,4.4l.647,3.423a4.059,4.059,0,0,1-3.374,4.635l-4.108.826s-7.015-.657-7.553-4.124a5.035,5.035,0,0,1,2.657-5.075s-1.532-2.912.082-4.961S407.009,260.569,407.009,260.569Z" transform="translate(-376.147 -155.966)"/><path class="ap" d="M430.336,273.809a78.5,78.5,0,0,0,8.042.924c1.342.076,3.553-7.275,3.749-7.726a2.527,2.527,0,0,0,1.32-2.1c0-.511-1.385-.935-1.516-.685.228-.674.277-.88.337-1.087.13-.478-.234-.842-.761.962a20.614,20.614,0,0,0-.592,2.114c-.848,1.63-3.026,5.434-3.179,5.977a50.209,50.209,0,0,1-7.607-1.168Z" transform="translate(-389.455 -159.404)"/><path class="ap" d="M398.513,280.909s-4.934,4.032-6.363,4.89c-1.032.8-7.487-4.059-7.933-4.32a2.36,2.36,0,0,1-2.173-.826c-.337-.413.511-1.511.782-1.38a10.861,10.861,0,0,1-.989-.712c-.413-.315-.353-.81,1.233.359s1.331.94,1.837,1.375c1.728.848,5.928,2.717,6.417,3.081a45.127,45.127,0,0,0,5.379-5.113Z" transform="translate(-367.303 -165.335)"/><path class="ap" d="M426.57,362.835a9.984,9.984,0,0,1,.261,2.119c-.13.647,0,.842,0,.842l2.679-.212s-1.184-.543-1.087-3.086S426.57,362.835,426.57,362.835Z" transform="translate(-387.829 -194.58)"/><path class="at" d="M426.564,368.266a4.537,4.537,0,0,0,2.315.1,11.536,11.536,0,0,0,3.537.945c1.228.147,1.011,1.087-1.087.951a28.419,28.419,0,0,0-4.037,0c-.467.043-1.217.1-1.244-.2S426.178,368.169,426.564,368.266Z" transform="translate(-387.589 -197.691)"/><path class="bc" d="M424.041,302.148s1.722,15.5,1.826,17.512a24.672,24.672,0,0,1,0,3.95c-.1,1.228.782,11.573.782,11.573s-4.015.9-5.037.1c0,0,.168-11.28-.342-13.209s-2.51-11.709-2.51-11.709l2.3-10Z" transform="translate(-384.262 -166.683)"/><path class="bd" d="M411.637,318.623s-.315,3.287-.967,3.9c-.413.989-.413.989.228,1.38.978.6,2.95,1.755,3.439,1.266,1.837-1.826,1.907-2.467,2.342-4.825.147-.543,2.717-16.159,2.717-16.159s-8.15-1.136-8.177,1.087S412.044,316.02,411.637,318.623Z" transform="translate(-380.438 -168.298)"/><path class="ap" d="M392.206,356.607a11.556,11.556,0,0,1-1.668,1.472c-.641.3-.728.543-.728.543l1.809,1.837s-.255-1.2,1.989-2.679S392.206,356.607,392.206,356.607Z" transform="translate(-371.042 -192.356)"/><path class="at" d="M389.179,359.454a3.836,3.836,0,0,0,1.32,1.755,9.6,9.6,0,0,0,1.326,3.168c.625.989-.31,1.4-1.478-.223A24.333,24.333,0,0,0,387.9,361.2c-.321-.321-.826-.831-.581-1.038S389.033,359.117,389.179,359.454Z" transform="translate(-369.874 -193.632)"/><path class="bd" d="M401.98,336.988c-3.559,4.434-9.574,7.77-11.274,10.383-.3.826,3.64,2.923,3.64,2.923s8.194-7.422,9.873-9.052a16.3,16.3,0,0,0,1.809-1.815C404.442,338.906,402.975,335.744,401.98,336.988Z" transform="translate(-371.444 -183.278)"/><path class="be" d="M418.627,280.475c-.245.543,1.587,8.34,1.9,10.133h-.114c-.793-.12-5.662-.761-9.59.88l-.359-11.014v-.408s0-.413.038-1.054h0a12.247,12.247,0,0,1,1.2-4.928,2.4,2.4,0,0,1,1.8-1.337c2.445-.244,2.429.761,4.7,1.32l3.684.913s-.413,2.858,0,3.706h-2.559S418.866,279.9,418.627,280.475Z" transform="translate(-380.472 -161.853)"/><path class="ap" d="M420.519,260s1.549,3.6.375,5.238a3.3,3.3,0,0,1-2.423,1.266v1.771a.826.826,0,0,1-.484.174,6.282,6.282,0,0,1-1.967-.831v-7Z" transform="translate(-383.011 -158.902)"/><path class="bf" d="M412.258,279.709c-.842.837-1.418,1.44-1.8,1.847v-.408s0-3.874,1.239-5.977a1.663,1.663,0,0,1,.576-.065C414.214,275.243,414.1,277.878,412.258,279.709Z" transform="translate(-380.472 -164.425)"/><path class="bf" d="M428.2,281.424s-1.728-.065-1.929-.391a5.459,5.459,0,0,0-1.934-2.293s1.483,1.44,1.3,2.684Z" transform="translate(-386.811 -166.185)"/><path class="bf" d="M420.409,295.872c-.793-.12-5.662-.761-9.59.88l-.359-10.981v-.408s0-.413.038-1.054l.935.288s.033,9.628.505,10.226,4.684.147,5.77.321a21.274,21.274,0,0,1,2.7.728Z" transform="translate(-380.472 -166.787)"/><path class="be" d="M404.37,278.268s3.151-4.1,5.107-3.961,1.842,2.782,0,4.618-2.451,2.548-2.451,2.548A5,5,0,0,1,404.37,278.268Z" transform="translate(-377.691 -164.052)"/><path class="at" d="M416.983,259.19s-.734,3.222-2.418,4.07-.413,2.934-2.021,4.493a1.755,1.755,0,0,1-1.728.223,2.239,2.239,0,0,0-2.217.494,1.361,1.361,0,0,0-.136.174c-2.108-1.38,3.195-9.014,3.195-9.014Z" transform="translate(-379.334 -158.496)"/></svg>