<svg xmlns="http://www.w3.org/2000/svg" width="21.194" height="19.508" viewBox="0 0 21.194 19.508"><defs><style>.a{fill:#fff;}</style></defs><g transform="translate(-1.408 -2.244)"><path class="a" d="M20.307,4.844a8.59,8.59,0,0,0-6.115-2.6H9.5a8.092,8.092,0,1,0,0,16.183h3.1a.566.566,0,0,1,.4.2l3.866,2.883a.825.825,0,0,0,1.409-.583v-3.15a.51.51,0,0,1,.282-.432,7.874,7.874,0,0,0,1.672-1.275A8.009,8.009,0,0,0,22.6,10.563a7.863,7.863,0,0,0-2.293-5.719Zm-.929,10.375A6.694,6.694,0,0,1,17.959,16.3a1.694,1.694,0,0,0-.888,1.475v2.4L13.779,17.72a1.661,1.661,0,0,0-1.179-.49H9.5a6.892,6.892,0,0,1,0-13.783h4.694A7.386,7.386,0,0,1,19.45,5.681a6.672,6.672,0,0,1,1.95,4.85,6.817,6.817,0,0,1-2.022,4.688Zm-10.572-5a1.268,1.268,0,1,1-.371-.894,1.268,1.268,0,0,1,.371.894Zm4.463,0A1.268,1.268,0,1,1,12,8.954a1.268,1.268,0,0,1,1.269,1.265Zm4.463,0a1.27,1.27,0,1,1-.371-.895,1.268,1.268,0,0,1,.371.895Z"/></g></svg>