<svg xmlns="http://www.w3.org/2000/svg" width="20.32" height="20.5" viewBox="0 0 20.32 20.5"><defs><style>.a{fill:#9b9b9b;stroke:#fff;stroke-width:0.5px;}</style></defs><g transform="translate(-67.991 -208.15)"><g transform="translate(68.241 208.4)"><path class="a" d="M-572.743,12.4a6.636,6.636,0,0,1-4.727-1.958,6.69,6.69,0,0,1,0-9.453l7.172-7.172A4.809,4.809,0,0,1-566.873-7.6a4.82,4.82,0,0,1,3.424,1.417,4.846,4.846,0,0,1,0,6.846l-6.52,6.52a2.979,2.979,0,0,1-2.119.878,2.979,2.979,0,0,1-2.119-.878,3,3,0,0,1,0-4.239l5.544-5.541a.692.692,0,0,1,.979,0,.692.692,0,0,1,0,.979l-5.544,5.541a1.612,1.612,0,0,0,0,2.281,1.649,1.649,0,0,0,2.281,0l6.52-6.52a3.465,3.465,0,0,0,0-4.891,3.465,3.465,0,0,0-4.891,0l-7.172,7.172a5.27,5.27,0,0,0-1.553,3.748,5.27,5.27,0,0,0,1.553,3.748,5.27,5.27,0,0,0,3.748,1.553,5.265,5.265,0,0,0,3.748-1.553l8.151-8.148a.692.692,0,0,1,.979,0,.692.692,0,0,1,0,.979l-8.151,8.151A6.631,6.631,0,0,1-572.743,12.4Z" transform="translate(579.425 7.6)"/></g></g></svg>