<svg xmlns="http://www.w3.org/2000/svg" width="20.412" height="20" viewBox="0 0 20.412 20"><defs><style>.a{fill:#9b9b9b;}</style></defs><g transform="translate(-20.75 -21.34)"><path class="a" d="M39.92,41.34H21.991A1.243,1.243,0,0,1,20.75,40.1V22.581a1.243,1.243,0,0,1,1.241-1.241H39.92a1.243,1.243,0,0,1,1.242,1.241V40.1A1.244,1.244,0,0,1,39.92,41.34ZM21.971,22.2c-.01,0-.393.01-.393.02v18.19H40.264l.021-18.21Zm8.948,16.033H25a.611.611,0,0,1-.532-.311,1.229,1.229,0,0,1,0-1.151l4.253-7.759a.765.765,0,0,1,1.376,0l2.887,5.147a.611.611,0,0,1,0,.592l-1.48,2.7a.611.611,0,0,1-.587.782Zm-5.384-.872,0,0Zm5.921-.029h0Zm-.537-.082h0Zm-5.193-.238h4.629c.008-.017.017-.035.026-.051l0,0,1.367-2.5-2.34-4.172Zm3.3-7.408,0,0Zm7.907,8.629H30.919a.611.611,0,0,1-.537-.32,1.039,1.039,0,0,1,0-.953l2.873-5.241a.715.715,0,0,1,1.274-.006l2.938,5.238a1.018,1.018,0,0,1,0,.972A.609.609,0,0,1,36.934,38.236Zm-.533-.685,0,0Zm-4.655-.536H36.1l-2.2-3.926ZM25.6,28.232a2.163,2.163,0,1,1,2.163-2.163A2.165,2.165,0,0,1,25.6,28.232Zm0-3.1a.942.942,0,1,0,.942.942A.942.942,0,0,0,25.6,25.128Z"/></g></svg>