<svg xmlns="http://www.w3.org/2000/svg" width="20" height="20" viewBox="0 0 20 20"><defs><style>.a{fill:#9b9b9b;}</style></defs><g transform="translate(-1 -1)"><path class="a" d="M11,1A10,10,0,1,0,21,11,10,10,0,0,0,11,1Zm0,19.167A9.167,9.167,0,1,1,20.167,11,9.167,9.167,0,0,1,11,20.167Zm4.488-5.7a.417.417,0,0,1-.054.588,6.915,6.915,0,0,1-4.475,1.821,6.667,6.667,0,0,1-4.429-1.854.417.417,0,1,1,.6-.575c.142.146,3.479,3.55,7.762-.033a.417.417,0,0,1,.592.054ZM6.833,8.5a1.25,1.25,0,1,1,1.25,1.25A1.25,1.25,0,0,1,6.833,8.5Zm5.833,0a1.25,1.25,0,1,1,1.25,1.25A1.25,1.25,0,0,1,12.667,8.5Z"/></g></svg>