<svg xmlns="http://www.w3.org/2000/svg" xmlns:xlink="http://www.w3.org/1999/xlink" width="76.143" height="72.489" viewBox="0 0 76.143 72.489"><defs><style>.a{fill:#e0e0e0;}.b,.l,.m,.n,.o{opacity:0.5;}.c{fill:url(#a);}.d{fill:#fafafa;}.e{fill:url(#b);}.f{fill:url(#c);}.g{fill:#6c63ff;}.h{fill:url(#d);}.i{fill:#fff;}.j{fill:url(#f);}.k,.o{fill:#47e6b1;}.l{fill:#4d8af0;}.m{fill:#fdd835;}.n{fill:#f55f44;}</style><linearGradient id="a" x1="0.509" y1="0.997" x2="0.509" y2="-0.003" gradientUnits="objectBoundingBox"><stop offset="0" stop-color="gray" stop-opacity="0.251"/><stop offset="0.54" stop-color="gray" stop-opacity="0.122"/><stop offset="1" stop-color="gray" stop-opacity="0.102"/></linearGradient><linearGradient id="b" x1="0.813" y1="0.841" x2="0.813" y2="-0.159" xlink:href="#a"/><linearGradient id="c" x1="1.78" y1="0.849" x2="1.78" y2="-0.151" xlink:href="#a"/><linearGradient id="d" x1="0.5" y1="1" x2="0.5" y2="0" xlink:href="#a"/><linearGradient id="f" x1="0.5" y1="0.999" x2="0.5" y2="-0.001" xlink:href="#a"/></defs><rect class="a" width="40.572" height="56.057" transform="matrix(0.978, -0.21, 0.21, 0.978, 6.417, 12.579)"/><g class="b" transform="translate(7.287 5.138)"><rect class="c" width="39.201" height="54.163" transform="matrix(0.978, -0.21, 0.21, 0.978, 0, 8.224)"/></g><rect class="d" width="38.203" height="52.966" transform="matrix(0.978, -0.21, 0.21, 0.978, 7.858, 13.647)"/><rect class="e" width="18.952" height="4.591" transform="matrix(0.978, -0.21, 0.21, 0.978, 16.836, 9.372)"/><path class="f" d="M440.571,91.331a2.713,2.713,0,1,0,3.156,2.1A2.681,2.681,0,0,0,440.571,91.331Zm.9,4.187a1.565,1.565,0,1,1,1.166-1.857,1.547,1.547,0,0,1-1.166,1.857Z" transform="translate(-415.411 -88.331)"/><rect class="g" width="18.553" height="4.388" transform="matrix(0.978, -0.21, 0.21, 0.978, 16.99, 9.137)"/><path class="g" d="M440.9,91.331a2.593,2.593,0,1,0,3.079,1.991A2.593,2.593,0,0,0,440.9,91.331Zm.858,4a1.5,1.5,0,1,1,1.149-1.777A1.5,1.5,0,0,1,441.763,95.332Z" transform="translate(-415.745 -88.331)"/><rect class="a" width="40.572" height="56.057" transform="translate(23.942 10.854)"/><g class="b" transform="translate(24.628 11.802)"><rect class="h" width="39.201" height="54.163"/></g><rect class="i" width="38.203" height="52.966" transform="translate(25.127 12.201)"/><rect class="h" width="18.952" height="4.591" transform="translate(34.802 9.904)"/><path class="j" d="M640.97,118a2.713,2.713,0,1,0,2.65,2.713A2.682,2.682,0,0,0,640.97,118Zm0,4.278a1.565,1.565,0,1,1,1.528-1.565,1.547,1.547,0,0,1-1.528,1.558Z" transform="translate(-596.692 -112.577)"/><rect class="g" width="18.553" height="4.388" transform="translate(35.002 9.707)"/><path class="g" d="M641.523,118a2.593,2.593,0,1,0,2.593,2.593A2.593,2.593,0,0,0,641.523,118Zm0,4.09a1.5,1.5,0,1,1,1.5-1.5,1.5,1.5,0,0,1-1.5,1.5Z" transform="translate(-597.245 -112.577)"/><g class="b" transform="translate(0.603 68.426)"><rect class="k" width="0.349" height="1.98" transform="translate(0.815)"/><rect class="k" width="0.349" height="1.98" transform="translate(1.98 0.816) rotate(90)"/></g><g class="b" transform="translate(41.1)"><rect class="k" width="0.349" height="1.98" transform="translate(0.815)"/><rect class="k" width="0.349" height="1.98" transform="translate(1.98 0.815) rotate(90)"/></g><path class="l" d="M947.021,824.413a.428.428,0,0,1-.239-.517.21.21,0,0,0,.009-.047h0a.214.214,0,0,0-.385-.142h0a.2.2,0,0,0-.024.042.428.428,0,0,1-.517.239.2.2,0,0,0-.047-.009h0a.215.215,0,0,0-.142.385h0a.207.207,0,0,0,.042.024.428.428,0,0,1,.239.517.209.209,0,0,0-.009.047h0a.214.214,0,0,0,.385.142h0a.2.2,0,0,0,.024-.042.428.428,0,0,1,.517-.239.216.216,0,0,0,.047.009h0a.214.214,0,0,0,.142-.385h0A.2.2,0,0,0,947.021,824.413Z" transform="translate(-875.436 -752.69)"/><path class="m" d="M312.611,619.353a.428.428,0,0,1-.239-.517.206.206,0,0,0,.009-.047h0a.214.214,0,0,0-.385-.142h0a.209.209,0,0,0-.024.042.428.428,0,0,1-.517.239.2.2,0,0,0-.047-.009h0a.214.214,0,0,0-.142.385h0a.2.2,0,0,0,.042.024.428.428,0,0,1,.239.517.207.207,0,0,0-.009.047h0a.214.214,0,0,0,.385.142h0a.2.2,0,0,0,.024-.042.428.428,0,0,1,.517-.239.206.206,0,0,0,.047.009h0a.214.214,0,0,0,.142-.385h0A.2.2,0,0,0,312.611,619.353Z" transform="translate(-299.923 -566.667)"/><path class="m" d="M841.021,120.033a.428.428,0,0,1-.239-.517.2.2,0,0,0,.009-.047h0a.214.214,0,0,0-.385-.142h0a.2.2,0,0,0-.024.042.428.428,0,0,1-.517.239.2.2,0,0,0-.047-.009h0a.214.214,0,0,0-.142.385h0a.206.206,0,0,0,.042.024.428.428,0,0,1,.239.517.215.215,0,0,0-.009.047h0a.214.214,0,0,0,.385.142h0a.2.2,0,0,0,.024-.042.428.428,0,0,1,.517-.239.208.208,0,0,0,.047.009h0a.214.214,0,0,0,.142-.385h0A.2.2,0,0,0,841.021,120.033Z" transform="translate(-779.277 -113.703)"/><circle class="n" cx="0.699" cy="0.699" r="0.699" transform="translate(74.745 28.496)"/><circle class="n" cx="0.699" cy="0.699" r="0.699" transform="translate(20.721 68.618)"/><circle class="n" cx="0.699" cy="0.699" r="0.699" transform="translate(67.566 43.606)"/><circle class="l" cx="0.699" cy="0.699" r="0.699" transform="translate(7.391 8.246)"/><circle class="o" cx="0.699" cy="0.699" r="0.699" transform="translate(0 27.316)"/></svg>