<svg xmlns="http://www.w3.org/2000/svg" width="12.668" height="12.668" viewBox="0 0 12.668 12.668"><defs><style>.a{fill:#353639;}</style></defs><g transform="translate(-2 -2)"><path class="a" d="M6.452,11A.427.427,0,0,0,6,11.452v7.692a.475.475,0,0,0,.226.407.339.339,0,0,0,.226.045.408.408,0,0,0,.226-.045L11.7,16.837a.466.466,0,0,0-.452-.814L6.9,18.375V11.452A.427.427,0,0,0,6.452,11Z" transform="translate(-2.19 -4.928)"/><path class="a" d="M14.668,10.144V6.524a1.333,1.333,0,0,0-1.357-1.357H10.28L4.488,2.045a.771.771,0,0,0-.452,0,.475.475,0,0,0-.226.407v.724L2.769,2.136a.448.448,0,1,0-.633.633l1.81,1.81h0l6.787,6.787h0L13.9,14.533a.437.437,0,0,0,.633,0,.437.437,0,0,0,0-.633l-2.4-2.4h1.176A1.333,1.333,0,0,0,14.668,10.144ZM4.715,4.081v-.86l5.2,2.805a.408.408,0,0,0,.226.045h3.167a.427.427,0,0,1,.452.452v3.62a.427.427,0,0,1-.452.452H11.23Z"/></g></svg>