<svg xmlns="http://www.w3.org/2000/svg" width="23" height="23" viewBox="0 0 23 23"><defs><style>.a{fill:#ffb029;}.b{fill:#fff;}</style></defs><g transform="translate(0 0.316)"><circle class="a" cx="11.5" cy="11.5" r="11.5" transform="translate(0 -0.316)"/><g transform="translate(-2 -1.066)"><path class="b" d="M11.254,16.783h-2A.252.252,0,0,1,9,16.533V7a.252.252,0,0,1,.254-.251h2A.252.252,0,0,1,11.508,7v9.532A.252.252,0,0,1,11.254,16.783Z"/><path class="b" d="M23.629,16.783h-2a.252.252,0,0,1-.254-.251V7a.252.252,0,0,1,.254-.251h2A.252.252,0,0,1,23.883,7v9.532A.252.252,0,0,1,23.629,16.783Z" transform="translate(-6.857)"/></g></g></svg>