<svg xmlns="http://www.w3.org/2000/svg" width="15.021" height="15.021" viewBox="0 0 15.021 15.021"><defs><style>.a,.b{stroke:none;}.b{fill:#fff;}</style></defs><g transform="translate(0 0)"><path class="a" d="M 1.499850392341614 14.77123069763184 C 1.166020393371582 14.77123069763184 0.8521304130554199 14.64117050170898 0.6159804463386536 14.40502071380615 C 0.3798304200172424 14.168869972229 0.2497804313898087 13.85498046875 0.2497804313898087 13.52115058898926 C 0.2497804313898087 13.18732070922852 0.3798304200172424 12.8734302520752 0.6159804463386536 12.63728046417236 L 5.566060543060303 7.686820507049561 L 5.742820262908936 7.510050296783447 L 5.566060543060303 7.333280563354492 L 0.6168804168701172 2.383730411529541 C 0.3807304203510284 2.147570371627808 0.2506804168224335 1.833680391311646 0.2506804168224335 1.499850392341614 C 0.2506804168224335 1.166020393371582 0.3807304203510284 0.8521304130554199 0.6168804168701172 0.6159804463386536 C 0.8530304431915283 0.3798304200172424 1.16692042350769 0.2497804313898087 1.500750422477722 0.2497804313898087 C 1.834580421447754 0.2497804313898087 2.148470401763916 0.3798304200172424 2.384620428085327 0.6159804463386536 L 7.333720207214355 5.565440654754639 L 7.510500431060791 5.742240428924561 L 7.687280654907227 5.565440654754639 L 12.63638019561768 0.6159704327583313 C 12.87252998352051 0.3798304200172424 13.18658065795898 0.2497804313898087 13.52070045471191 0.2497804313898087 C 13.85482025146484 0.2497804313898087 14.168869972229 0.3798304200172424 14.40502071380615 0.6159804463386536 C 14.89196014404297 1.103660464286804 14.8920202255249 1.896730422973633 14.40502071380615 2.383720397949219 L 9.45521068572998 7.333530426025391 L 9.278440475463867 7.510300636291504 L 9.45521068572998 7.687080383300781 L 14.40502071380615 12.63726997375488 C 14.64117050170898 12.8734302520752 14.77123069763184 13.18732070922852 14.77123069763184 13.52115058898926 C 14.77123069763184 13.85498046875 14.64117050170898 14.168869972229 14.40502071380615 14.40502071380615 C 14.16888046264648 14.64117050170898 13.85498046875 14.77122020721436 13.52115058898926 14.77122020721436 C 13.18732070922852 14.77122020721436 12.87342071533203 14.64117050170898 12.63728046417236 14.40502071380615 L 7.687470436096191 9.454840660095215 L 7.510700225830078 9.278050422668457 L 7.333910465240479 9.454830169677734 L 2.383720397949219 14.40502071380615 C 2.147570371627808 14.64117050170898 1.833680391311646 14.77123069763184 1.499850392341614 14.77123069763184 Z"/><path class="b" d="M 1.499850392341614 14.52123069763184 C 1.766890406608582 14.52123069763184 2.018010377883911 14.41718006134033 2.206950426101685 14.22825050354004 L 7.157140254974365 9.278059959411621 L 7.510700225830078 8.924489974975586 L 7.864260196685791 9.278070449829102 L 12.81405067443848 14.22825050354004 C 13.00298023223877 14.41717052459717 13.25410079956055 14.52122020721436 13.52115058898926 14.52122020721436 C 13.78820037841797 14.52122020721436 14.03931999206543 14.41717052459717 14.22825050354004 14.22825050354004 C 14.61814022064209 13.83835029602051 14.61814022064209 13.20395088195801 14.22823047637939 12.814040184021 L 9.278420448303223 7.863850593566895 L 8.924900054931641 7.510300636291504 L 9.278440475463867 7.156760215759277 L 14.22825050354004 2.206950426101685 C 14.61784076690674 1.817350387573242 14.61772060394287 1.182830452919006 14.22825050354004 0.7927504181861877 C 14.03931999206543 0.6038304567337036 13.78804016113281 0.4997804164886475 13.52070045471191 0.4997804164886475 C 13.25336074829102 0.4997804164886475 13.00207996368408 0.6038304567337036 12.81317043304443 0.7927404046058655 L 7.864070415496826 5.742210388183594 L 7.510500431060791 6.095800399780273 L 7.156930446624756 5.742210388183594 L 2.207850456237793 0.7927504181861877 C 2.018920421600342 0.6038304567337036 1.767800450325012 0.4997804164886475 1.500750422477722 0.4997804164886475 C 1.233700394630432 0.4997804164886475 0.9825804233551025 0.6038304567337036 0.7936504483222961 0.7927504181861877 C 0.4037604331970215 1.182650446891785 0.4037604331970215 1.817050457000732 0.7936704158782959 2.206960439682007 L 5.742850303649902 7.156510353088379 L 6.096360206604004 7.510050296783447 L 5.742850303649902 7.863590240478516 L 0.7927504181861877 12.81405067443848 C 0.4028604328632355 13.20395088195801 0.4028604328632355 13.83835029602051 0.7927504181861877 14.22825050354004 C 0.9816904067993164 14.41718006134033 1.232810378074646 14.52123069763184 1.499850392341614 14.52123069763184 M 1.499850392341614 15.02122497558594 C 1.116000413894653 15.02122497558594 0.7321504354476929 14.8747501373291 0.4392004311084747 14.58180046081543 C -0.1466995626688004 13.99590015411377 -0.1466995626688004 13.04640007019043 0.4392004311084747 12.46050071716309 L 5.389280319213867 7.510050296783447 L 0.4401004314422607 2.560500383377075 C -0.1457995623350143 1.974600434303284 -0.1457995623350143 1.025100469589233 0.4401004314422607 0.4392004311084747 C 0.7330504059791565 0.1462504267692566 1.116900444030762 -0.0002245689393021166 1.500750422477722 -0.0002245689393021166 C 1.884600400924683 -0.0002245689393021166 2.268450498580933 0.1462504267692566 2.561400413513184 0.4392004311084747 L 7.510500431060791 5.388670444488525 L 12.4596004486084 0.4392004311084747 C 12.75255012512207 0.1462504267692566 13.13662528991699 -0.0002245689393021166 13.52070045471191 -0.0002245689393021166 C 13.90477561950684 -0.0002245689393021166 14.28885078430176 0.1462504267692566 14.58180046081543 0.4392004311084747 C 15.1668004989624 1.025100469589233 15.1668004989624 1.975500464439392 14.58180046081543 2.560500383377075 L 9.631990432739258 7.510310649871826 L 14.58180046081543 12.46050071716309 C 15.16770076751709 13.04640007019043 15.16770076751709 13.99590015411377 14.58180046081543 14.58180046081543 C 14.28885078430176 14.8747501373291 13.90500068664551 15.02122020721436 13.52115058898926 15.02122020721436 C 13.13730049133301 15.02122020721436 12.75345039367676 14.8747501373291 12.46050071716309 14.58180046081543 L 7.510690212249756 9.631610870361328 L 2.560500383377075 14.58180046081543 C 2.267550468444824 14.8747501373291 1.883700489997864 15.02122497558594 1.499850392341614 15.02122497558594 Z"/></g></svg>