<svg xmlns="http://www.w3.org/2000/svg" width="32.776" height="22.516" viewBox="0 0 32.776 22.516"><defs><style>.a{fill:#4291e2;}</style></defs><path class="a" d="M7.208,17.354a6.974,6.974,0,0,0,3.937-1.216c-2.443,6.9-7.928,7.707-8.212,7.743l.244,1.971c.1-.012,10.183-1.4,11.051-15.345l-.03,0c0-.054.016-.107.016-.161a7.008,7.008,0,1,0-7.006,7.01Zm0-12.032a5.022,5.022,0,1,1-5.022,5.022A5.026,5.026,0,0,1,7.208,5.322ZM25.952,17.354a6.968,6.968,0,0,0,3.935-1.216c-2.443,6.9-7.926,7.707-8.21,7.743l.244,1.971c.1-.012,10.181-1.4,11.053-15.345l-.03,0c0-.054.016-.107.016-.161a7.008,7.008,0,1,0-7.008,7.01Zm0-12.032a5.022,5.022,0,1,1-5.022,5.022A5.026,5.026,0,0,1,25.952,5.322Z" transform="translate(-0.198 -3.336)"/></svg>