<svg xmlns="http://www.w3.org/2000/svg" width="24.596" height="15.398" viewBox="0 0 24.596 15.398"><defs><style>.a{fill:#4291e2;}</style></defs><g transform="translate(-3.671 -12.435)"><g transform="translate(3.671 12.435)"><g transform="translate(10.363 0)"><path class="a" d="M37.82,24.874l-.193-1.864a7.616,7.616,0,0,1,1.716-5.422,7.564,7.564,0,0,1,5.573-2.275l.024-2.878,6.9,5.031-6.907,5.141v-3c-.1,0-.212-.007-.339-.007-3.963,0-5.489,2.224-6.047,3.55Zm8.063-10.564-.016,1.948-.473,0a6.893,6.893,0,0,0-5.337,1.967,5.916,5.916,0,0,0-1.349,2.828,7.754,7.754,0,0,1,5.885-2.419,7.258,7.258,0,0,1,.882.046l.416.055V20.7l4.33-3.223Z" transform="translate(-37.606 -12.435)"/><path class="a" d="M1.026,9.353s0-.041.059-.366c.061-.446.772-4.111,4.173-4.748,3.762-.705,2.7-.412,2.7-.412l.294-2.293,5.291,3.821-5.585,4V6.884l-3.7.353Z" transform="translate(-0.194 -0.291)"/></g><g transform="translate(0 10.189)"><path class="a" d="M22.82,71.6H6.671v-5.21H7.63v4.251H21.861V66.394h.959Z" transform="translate(-6.671 -66.394)"/></g></g></g></svg>