<svg xmlns="http://www.w3.org/2000/svg" width="9.92" height="11.904" viewBox="0 0 9.92 11.904"><defs><style>.a{fill:#353639;}</style></defs><g transform="translate(-6 -4)"><g transform="translate(6 4)"><path class="a" d="M14.928,6.728v6.944A2.237,2.237,0,0,1,12.7,15.9H9.224a2.237,2.237,0,0,1-2.232-2.232V6.728a.248.248,0,0,1,.5,0v6.944a1.736,1.736,0,0,0,1.736,1.736H12.7a1.736,1.736,0,0,0,1.736-1.736V6.728a.248.248,0,1,1,.5,0ZM9.968,12.68V8.712a.248.248,0,1,0-.5,0V12.68a.248.248,0,1,0,.5,0Zm2.48,0V8.712a.248.248,0,1,0-.5,0V12.68a.248.248,0,1,0,.5,0ZM15.92,5.736a.248.248,0,0,1-.248.248H6.248a.248.248,0,1,1,0-.5H8.48V4.248A.248.248,0,0,1,8.728,4h4.464a.248.248,0,0,1,.248.248v1.24h2.232A.248.248,0,0,1,15.92,5.736ZM12.944,4.5H8.976v.992h3.968Z" transform="translate(-6 -4)"/></g></g></svg>