<svg xmlns="http://www.w3.org/2000/svg" width="24.321" height="20.59" viewBox="0 0 24.321 20.59"><defs><style>.a{fill:#fff;}</style></defs><g transform="matrix(0.839, 0.545, -0.545, 0.839, 5.385, 0)"><path class="a" d="M9.594,6.469a.712.712,0,0,0-.712.712v.494a.791.791,0,0,1-.788.788H2.714A1.292,1.292,0,0,1,1.425,7.174V2.714A1.292,1.292,0,0,1,2.714,1.425H8.09a.791.791,0,0,1,.788.788v.494a.712.712,0,0,0,1.425,0V2.213A2.216,2.216,0,0,0,8.09,0H2.714A2.717,2.717,0,0,0,0,2.714v4.46A2.717,2.717,0,0,0,2.714,9.888H8.09A2.216,2.216,0,0,0,10.3,7.675V7.181a.712.712,0,0,0-.71-.712Z"/><path class="a" d="M7.589,0H2.213A2.216,2.216,0,0,0,0,2.213v.494a.712.712,0,1,0,1.425,0V2.213a.791.791,0,0,1,.788-.788H7.589A1.292,1.292,0,0,1,8.879,2.714v4.46A1.292,1.292,0,0,1,7.589,8.463H2.213a.791.791,0,0,1-.788-.788V7.181A.712.712,0,1,0,0,7.181v.494A2.216,2.216,0,0,0,2.213,9.888H7.589A2.717,2.717,0,0,0,10.3,7.174V2.714A2.717,2.717,0,0,0,7.589,0Z" transform="translate(12.274 0)"/><path class="a" d="M9.755.712A.712.712,0,0,0,9.043,0H.712a.712.712,0,1,0,0,1.425h8.33A.712.712,0,0,0,9.755.712Z" transform="translate(6.412 4.232)"/></g></svg>