<svg xmlns="http://www.w3.org/2000/svg" width="226.3" height="213.288" viewBox="0 0 226.3 213.288"><defs><style>.a{fill:#fff;stroke:#707070;}.b{fill:#c9cacc;}.c{fill:none;}.d{stroke:none;}</style></defs><g transform="translate(13.045 -0.02)"><g transform="translate(-13.045 0.02)"><g transform="translate(0)"><g class="a" transform="translate(0 2.265)"><ellipse class="d" cx="105.547" cy="105.511" rx="105.547" ry="105.511"/><ellipse class="c" cx="105.547" cy="105.511" rx="105.047" ry="105.011"/></g><path class="b" d="M105.868,55.774c0,20.162-16.343,44.442-36.484,44.442S32.9,75.936,32.9,55.774a36.484,36.484,0,0,1,72.968,0Z" transform="translate(36.292 21.124)"/><path class="b" d="M153.663,114.481c0,2.71-35.645,27.139-68.061,27.139-31.829,0-68.061-22.595-68.061-27.139C17.54,84.739,56.372,60.63,85.6,60.63S153.663,84.739,153.663,114.481Z" transform="translate(19.988 66.34)"/><path class="b" d="M105.523,211a105.458,105.458,0,1,1,41.055-8.291A105.485,105.485,0,0,1,105.523,211Zm0-201.75a96.266,96.266,0,1,0,96.266,96.266A96.266,96.266,0,0,0,105.523,9.246Z" transform="translate(0.034 2.289)"/><rect class="c" width="210.969" height="210.969" transform="translate(15.331)"/></g></g></g></svg>