<svg xmlns="http://www.w3.org/2000/svg" width="182.037" height="181.976" viewBox="0 0 182.037 181.976"><defs><style>.a{fill:#7e98b2;}.b{fill:none;}</style></defs><g transform="translate(0.034 0.025)"><g transform="translate(-0.034 -0.024)"><path class="a" d="M95.12,50.4c0,17.192-13.936,37.9-31.11,37.9S32.9,67.593,32.9,50.4a31.11,31.11,0,0,1,62.22,0Z" transform="translate(27.018 15.849)"/><path class="a" d="M135.65,106.549c0,2.311-30.928,23.142-59.055,23.142-27.617,0-59.055-19.267-59.055-23.142,0-25.361,33.694-45.919,59.055-45.919S135.65,81.188,135.65,106.549Z" transform="translate(14.433 49.719)"/><path class="a" d="M90.993,181.951a90.942,90.942,0,1,1,35.4-7.15,90.965,90.965,0,0,1-35.4,7.15Zm0-173.981a83.015,83.015,0,1,0,83.015,83.015A83.015,83.015,0,0,0,90.993,7.97Z" transform="translate(0.034 0.024)"/><rect class="b" width="181.931" height="181.931" transform="translate(0.062 0.044)"/></g></g></svg>