<svg xmlns="http://www.w3.org/2000/svg" width="20.267" height="20.266" viewBox="0 0 20.267 20.266"><defs><style>.a{fill:#fff;}</style></defs><g transform="translate(0)"><g transform="translate(0 0)"><path class="a" d="M19.2,21.266H3.067A2.067,2.067,0,0,1,1,19.2V3.067A2.067,2.067,0,0,1,3.067,1H19.2a2.067,2.067,0,0,1,2.067,2.067V5.56a.676.676,0,0,1-.676.676h0a.676.676,0,0,1-.676-.676V3.067a.716.716,0,0,0-.716-.716H3.067a.716.716,0,0,0-.716.716V19.2a.716.716,0,0,0,.716.716H19.2a.716.716,0,0,0,.716-.716V11.471a.676.676,0,0,1,.676-.676h0a.676.676,0,0,1,.676.676V19.2A2.067,2.067,0,0,1,19.2,21.266Z" transform="translate(-1 -1)"/><circle class="a" cx="1.6" cy="1.6" r="1.6" transform="translate(8.533 3.733)"/><path class="a" d="M15.4,26.383H3.067A2.067,2.067,0,0,1,1,24.316V22.235l3.918-4.729a2.027,2.027,0,0,1,1.567-.736h0a2.027,2.027,0,0,1,1.567.736ZM2.351,22.722v1.594a.716.716,0,0,0,.716.716h9.458L7.012,18.351a.68.68,0,0,0-1.054,0Z" transform="translate(-1 -6.117)"/><path class="a" d="M23.742,26.821H18.189L15,22.97l3.378-4.114a2.027,2.027,0,0,1,1.567-.736h0a2.027,2.027,0,0,1,1.567.736l4.3,5.175v.723A2.067,2.067,0,0,1,23.742,26.821ZM18.824,25.47h4.918a.716.716,0,0,0,.716-.716v-.236l-3.959-4.8a.676.676,0,0,0-.527-.25h0a.676.676,0,0,0-.527.25l-2.7,3.256Z" transform="translate(-5.542 -6.555)"/></g></g></svg>