<svg xmlns="http://www.w3.org/2000/svg" width="13.999" height="13.999" viewBox="0 0 13.999 13.999"><defs><style>.a{fill:#8cb6e2;}</style></defs><path class="a" d="M25.085,54.11l-4.616,4.616a6.956,6.956,0,0,0,4.785,1.742A7.382,7.382,0,0,1,27.1,56.125Z" transform="translate(-18.063 -46.471)"/><path class="a" d="M58.726,20.469,54.11,25.085,56.125,27.1a7.38,7.38,0,0,1,4.344-1.845A6.962,6.962,0,0,0,58.726,20.469Z" transform="translate(-46.471 -18.063)"/><path class="a" d="M56.9,74.686a6.946,6.946,0,0,0,3.563-1.668l-1.981-1.981A6.511,6.511,0,0,0,56.9,74.686Z" transform="translate(-48.824 -60.765)"/><path class="a" d="M73.019,60.462A6.943,6.943,0,0,0,74.687,56.9a6.51,6.51,0,0,0-3.649,1.582Z" transform="translate(-60.766 -48.826)"/><path class="a" d="M24.048,5.792A6.946,6.946,0,0,0,20.484,7.46l1.981,1.981A6.511,6.511,0,0,0,24.048,5.792Z" transform="translate(-18.076 -5.669)"/><path class="a" d="M5.791,24.048A6.508,6.508,0,0,0,9.44,22.465L7.459,20.484A6.941,6.941,0,0,0,5.791,24.048Z" transform="translate(-5.668 -18.076)"/><path class="a" d="M9.636,37.191a7.379,7.379,0,0,1-4.343,1.845,6.956,6.956,0,0,0,1.742,4.785l4.616-4.616Z" transform="translate(-5.246 -32.184)"/><path class="a" d="M39.207,11.65l4.616-4.616a6.955,6.955,0,0,0-4.785-1.742,7.382,7.382,0,0,1-1.845,4.343Z" transform="translate(-32.185 -5.245)"/><rect class="a" width="2.516" height="0.872" transform="translate(1.779 2.396) rotate(-135)"/><rect class="a" width="2.335" height="0.872" transform="translate(12.265 11.649) rotate(45)"/></svg>