<svg xmlns="http://www.w3.org/2000/svg" width="40.204" height="12.189" viewBox="0 0 40.204 12.189"><defs><style>.a{fill:#3c58bf;}.b{fill:#293688;}.c{fill:#ffbc00;}.d{fill:#f7981d;}.e{fill:#ed7c00;}.f{fill:#051244;}</style></defs><g transform="translate(0 -175.6)"><path class="a" d="M184.8,191.887l2.042-11.487h3.191l-1.978,11.487Z" transform="translate(-170.059 -4.417)"/><path class="b" d="M184.8,191.887l2.616-11.487h2.616l-1.978,11.487Z" transform="translate(-170.059 -4.417)"/><path class="a" d="M257.764,176.111a8.094,8.094,0,0,0-2.936-.511c-3.191,0-5.488,1.6-5.488,3.893,0,1.723,1.6,2.616,2.872,3.191s1.659.957,1.659,1.468c0,.766-1.021,1.149-1.914,1.149a6.936,6.936,0,0,1-3.063-.638l-.447-.191L248,187.087a10.347,10.347,0,0,0,3.638.638c3.382,0,5.616-1.6,5.616-4.02,0-1.34-.83-2.361-2.744-3.191-1.149-.574-1.851-.893-1.851-1.468,0-.511.574-1.021,1.851-1.021a5.853,5.853,0,0,1,2.425.447l.319.128.511-2.489Z" transform="translate(-228.217)"/><path class="b" d="M257.764,176.111a8.094,8.094,0,0,0-2.936-.511c-3.191,0-4.914,1.6-4.914,3.893a3.336,3.336,0,0,0,2.3,3.191c1.276.574,1.659.957,1.659,1.468,0,.766-1.021,1.149-1.914,1.149a6.936,6.936,0,0,1-3.063-.638l-.447-.191L248,187.087a10.347,10.347,0,0,0,3.638.638c3.382,0,5.616-1.6,5.616-4.02,0-1.34-.83-2.361-2.744-3.191-1.149-.574-1.851-.893-1.851-1.468,0-.511.574-1.021,1.851-1.021a5.853,5.853,0,0,1,2.425.447l.319.128.511-2.489Z" transform="translate(-228.217)"/><path class="a" d="M364.845,180.4c-.766,0-1.34.064-1.659.83L358.4,191.887h3.446l.638-1.914h4.084l.383,1.914h3.063l-2.68-11.487Zm-1.468,7.658c.191-.574,1.276-3.382,1.276-3.382s.255-.7.447-1.149l.191,1.085s.638,2.872.766,3.51h-2.68Z" transform="translate(-329.811 -4.417)"/><path class="b" d="M365.611,180.4c-.766,0-1.34.064-1.659.83L358.4,191.887h3.446l.638-1.914h4.084l.383,1.914h3.063l-2.68-11.487Zm-2.234,7.658c.255-.638,1.276-3.382,1.276-3.382s.255-.7.447-1.149l.191,1.085s.638,2.872.766,3.51h-2.68Z" transform="translate(-329.811 -4.417)"/><path class="a" d="M55.986,189.177l-.319-1.659a9.251,9.251,0,0,0-4.467-5.041l2.872,10.211h3.446L62.687,181.2H59.241Z" transform="translate(-47.116 -5.153)"/><path class="b" d="M55.986,189.177l-.319-1.659a9.251,9.251,0,0,0-4.467-5.041l2.872,10.211h3.446L62.687,181.2H59.879Z" transform="translate(-47.116 -5.153)"/><path class="c" d="M0,180.4l.574.128c4.084.957,6.892,3.382,7.977,6.254L7.4,181.357c-.191-.766-.766-.957-1.468-.957Z" transform="translate(0 -4.417)"/><path class="d" d="M0,180.4H0c4.084.957,7.466,3.446,8.551,6.318l-1.085-4.531a1.558,1.558,0,0,0-1.532-1.212Z" transform="translate(0 -4.417)"/><path class="e" d="M0,180.4H0c4.084.957,7.466,3.446,8.551,6.318l-.766-2.489a2.251,2.251,0,0,0-1.34-1.851Z" transform="translate(0 -4.417)"/><g transform="translate(4.148 177.259)"><path class="f" d="M59.913,202.782l-2.17-2.17-1.021,2.425-.255-1.6A9.251,9.251,0,0,0,52,196.4l2.872,10.211h3.446Z" transform="translate(-52 -196.4)"/><path class="f" d="M188.055,292.008l-2.744-2.808-.511,2.808Z" transform="translate(-174.207 -281.797)"/><path class="f" d="M253.552,274.8h0c.255.255.383.447.319.7,0,.766-1.021,1.149-1.914,1.149a6.936,6.936,0,0,1-3.063-.638l-.447-.191L248,278.438a10.348,10.348,0,0,0,3.638.638,6.318,6.318,0,0,0,4.659-1.6Z" transform="translate(-232.365 -268.546)"/><path class="f" d="M364,227.96h3l.638-1.914h4.084l.383,1.914h3.063l-1.085-4.659-3.829-3.7.191,1.021s.638,2.872.766,3.51h-2.68c.255-.638,1.276-3.382,1.276-3.382s.255-.7.447-1.149" transform="translate(-339.112 -217.749)"/></g></g></svg>