<svg xmlns="http://www.w3.org/2000/svg" width="38.941" height="40.355" viewBox="0 0 38.941 40.355"><defs><style>.a,.c{fill:#4291e2;}.a{stroke:#e9f4ff;stroke-width:2px;}.b{fill:#d2e8ff;stroke:#d2e8ff;}</style></defs><g transform="translate(-437 -301)"><path class="a" d="M36.247,3H6.694A3.7,3.7,0,0,0,3,6.694V39.941l7.388-7.388H36.247a3.7,3.7,0,0,0,3.694-3.694V6.694A3.7,3.7,0,0,0,36.247,3Zm0,25.859H10.388L6.694,32.553V6.694H36.247Z" transform="translate(435 299)"/><path class="b" d="M-2481.283,2634.526v27.683l4.787-4.791h26.24V2634.1h-31.418" transform="translate(2922 -2329)"/><g transform="translate(2 4)"><rect class="c" width="20" height="2" transform="translate(443 308)"/><rect class="c" width="20" height="2" transform="translate(448 312)"/><rect class="c" width="20" height="2" transform="translate(444 316)"/></g></g></svg>