<svg xmlns="http://www.w3.org/2000/svg" width="36.747" height="20.67" viewBox="0 0 36.747 20.67"><defs><style>.a{fill:#4291e2;}</style></defs><path class="a" d="M2.571,29.346V8.676H39.318v20.67H2.571ZM4.867,10.9V27.05H37.021V10.9H4.867Zm21.819,8.11c0-3.8-2.57-6.89-5.742-6.89H35.873V25.9H20.944c3.172,0,5.742-3.086,5.742-6.89Zm4.593,2.3c.951,0,1.723-1.029,1.723-2.3s-.772-2.3-1.723-2.3-1.723,1.029-1.723,2.3S30.329,21.308,31.279,21.308Zm-7.9-5.193a.293.293,0,0,1-.071.137.176.176,0,0,1-.125.042.6.6,0,0,1-.251-.1c-.115-.068-.256-.139-.423-.217a4.234,4.234,0,0,0-.581-.215,2.579,2.579,0,0,0-.725-.1,1.719,1.719,0,0,0-.539.075,1.112,1.112,0,0,0-.384.207.826.826,0,0,0-.23.318,1.048,1.048,0,0,0-.075.393.867.867,0,0,0,.169.535,1.618,1.618,0,0,0,.452.4,4.659,4.659,0,0,0,.643.33c.238.1.482.212.731.326a7.361,7.361,0,0,1,.731.392,2.912,2.912,0,0,1,.64.524,2.479,2.479,0,0,1,.452.717,2.513,2.513,0,0,1,.171.973,2.871,2.871,0,0,1-.271,1.284,2.658,2.658,0,0,1-.741.921,3.206,3.206,0,0,1-1.09.556c-.053.016-.11.023-.164.036v1.254H20.57V23.8l-.041,0a4.841,4.841,0,0,1-.893-.077,5.33,5.33,0,0,1-.728-.188,3.193,3.193,0,0,1-.527-.231,1.483,1.483,0,0,1-.3-.214.539.539,0,0,1-.133-.269,2.452,2.452,0,0,1-.04-.506c0-.148,0-.272.015-.373a1.113,1.113,0,0,1,.047-.245.261.261,0,0,1,.086-.133.211.211,0,0,1,.125-.039.6.6,0,0,1,.284.118,4.9,4.9,0,0,0,.47.262,4.3,4.3,0,0,0,.686.263,3.275,3.275,0,0,0,.922.118,2.12,2.12,0,0,0,.617-.083,1.37,1.37,0,0,0,.463-.233,1.007,1.007,0,0,0,.291-.373,1.184,1.184,0,0,0,.1-.5.878.878,0,0,0-.172-.542,1.724,1.724,0,0,0-.449-.4,4.683,4.683,0,0,0-.627-.33q-.351-.155-.725-.326a6.5,6.5,0,0,1-.725-.392,2.919,2.919,0,0,1-.627-.522,2.461,2.461,0,0,1-.448-.721,2.6,2.6,0,0,1-.172-1A2.642,2.642,0,0,1,18.31,15.7a2.4,2.4,0,0,1,.667-.838,2.86,2.86,0,0,1,.99-.5,4.024,4.024,0,0,1,.6-.125V13.051H21.7v1.187c.045.006.09,0,.134.01a4.474,4.474,0,0,1,.617.136,3.3,3.3,0,0,1,.51.192,1.178,1.178,0,0,1,.294.178.543.543,0,0,1,.1.121.652.652,0,0,1,.042.133,1.282,1.282,0,0,1,.024.209c0,.083.007.187.007.311s0,.257-.01.354a1.6,1.6,0,0,1-.039.233Zm-8.174,2.9c0,3.8,2.57,6.89,5.742,6.89H6.016V12.121H20.944c-3.172,0-5.742,3.086-5.742,6.89Zm-4.593-2.3c-.952,0-1.723,1.029-1.723,2.3s.771,2.3,1.723,2.3,1.723-1.029,1.723-2.3S11.56,16.715,10.609,16.715Z" transform="translate(-2.571 -8.676)"/></svg>