<svg xmlns="http://www.w3.org/2000/svg" width="36.23" height="44.608" viewBox="0 0 36.23 44.608"><defs><style>.a{fill:#4291e2;}.b,.c{fill:none;stroke:#4291e2;stroke-linecap:round;stroke-width:1.5px;}.c{stroke-linejoin:round;}</style></defs><g transform="translate(14.492 28.304)"><path class="a" d="M195.623,0a3.623,3.623,0,1,0,3.623,3.623A3.623,3.623,0,0,0,195.623,0Zm0,6.038a2.415,2.415,0,1,1,2.415-2.415A2.415,2.415,0,0,1,195.623,6.038Z" transform="translate(-192)"/></g><g transform="translate(12.68 36.154)"><path class="a" d="M175.85,104h-.143l-.127.063a4.813,4.813,0,0,1-4.291,0l-.127-.063h-.143A3.023,3.023,0,0,0,168,107.019v3.623a1.811,1.811,0,0,0,1.811,1.811h7.246a1.811,1.811,0,0,0,1.811-1.811v-3.623A3.023,3.023,0,0,0,175.85,104Zm1.811,6.642a.6.6,0,0,1-.6.6h-7.246a.6.6,0,0,1-.6-.6v-3.623a1.811,1.811,0,0,1,1.683-1.807,6.043,6.043,0,0,0,5.088,0,1.812,1.812,0,0,1,1.683,1.807Z" transform="translate(-168 -104)"/></g><g transform="translate(27.172)"><path class="a" d="M363.623,264a3.623,3.623,0,1,0,3.623,3.623A3.623,3.623,0,0,0,363.623,264Zm0,6.038a2.415,2.415,0,1,1,2.415-2.415A2.415,2.415,0,0,1,363.623,270.038Z" transform="translate(-360 -264)"/></g><g transform="translate(14.522)"><path class="a" d="M363.623,264a3.623,3.623,0,1,0,3.623,3.623A3.623,3.623,0,0,0,363.623,264Zm0,6.038a2.415,2.415,0,1,1,2.415-2.415A2.415,2.415,0,0,1,363.623,270.038Z" transform="translate(-360 -264)"/></g><g transform="translate(25.361 7.85)"><path class="a" d="M343.85,368h-.143l-.127.06a4.814,4.814,0,0,1-4.291,0l-.127-.06h-.142A3.023,3.023,0,0,0,336,371.019v3.623a1.811,1.811,0,0,0,1.811,1.812h7.246a1.811,1.811,0,0,0,1.811-1.812v-3.623A3.023,3.023,0,0,0,343.85,368Zm1.811,6.642a.6.6,0,0,1-.6.6h-7.246a.6.6,0,0,1-.6-.6v-3.623a1.812,1.812,0,0,1,1.683-1.807,6.043,6.043,0,0,0,5.088,0,1.812,1.812,0,0,1,1.683,1.807Z" transform="translate(-336 -368)"/></g><g transform="translate(12.711 7.85)"><path class="a" d="M343.85,368h-.143l-.127.06a4.814,4.814,0,0,1-4.291,0l-.127-.06h-.142A3.023,3.023,0,0,0,336,371.019v3.623a1.811,1.811,0,0,0,1.811,1.812h7.246a1.811,1.811,0,0,0,1.811-1.812v-3.623A3.023,3.023,0,0,0,343.85,368Zm1.811,6.642a.6.6,0,0,1-.6.6h-7.246a.6.6,0,0,1-.6-.6v-3.623a1.812,1.812,0,0,1,1.683-1.807,6.043,6.043,0,0,0,5.088,0,1.812,1.812,0,0,1,1.683,1.807Z" transform="translate(-336 -368)"/></g><g transform="translate(1.811)"><path class="a" d="M27.623,264a3.623,3.623,0,1,0,3.623,3.623A3.623,3.623,0,0,0,27.623,264Zm0,6.038a2.415,2.415,0,1,1,2.415-2.415A2.415,2.415,0,0,1,27.623,270.038Z" transform="translate(-24 -264)"/></g><g transform="translate(0 7.85)"><path class="a" d="M7.85,368H7.707l-.127.06a4.814,4.814,0,0,1-4.291,0L3.162,368H3.019A3.023,3.023,0,0,0,0,371.019v3.623a1.811,1.811,0,0,0,1.811,1.812H9.057a1.811,1.811,0,0,0,1.811-1.812v-3.623A3.023,3.023,0,0,0,7.85,368Zm1.811,6.642a.6.6,0,0,1-.6.6H1.811a.6.6,0,0,1-.6-.6v-3.623a1.812,1.812,0,0,1,1.683-1.807,6.043,6.043,0,0,0,5.088,0,1.812,1.812,0,0,1,1.683,1.807Z" transform="translate(0 -368)"/></g><g transform="translate(3.623 17.511)"><path class="a" d="M57.644,61.625a.562.562,0,0,1-.016.1c0,.005-.007.009-.009.015s0,.01,0,.015a.58.58,0,0,1-.057.083.61.61,0,0,1-.069.1.567.567,0,0,1-.118.08.531.531,0,0,1-.068.049l-2.415,1.1a.6.6,0,0,1-.5-1.1l1.251-.572A14.47,14.47,0,0,1,48,48.738a.6.6,0,1,1,1.208,0,13.264,13.264,0,0,0,6.535,11.439l-.437-.912a.6.6,0,0,1,.282-.8.594.594,0,0,1,.261-.06.6.6,0,0,1,.543.342l1.208,2.52a.027.027,0,0,0,0,.019.58.58,0,0,1,.033.128.625.625,0,0,1,.023.1A.6.6,0,0,1,57.644,61.625Z" transform="translate(-48 -48.134)"/></g><g transform="translate(22.719 17.511)"><path class="a" d="M48.017,61.625a.561.561,0,0,0,.016.1c0,.005.007.009.009.015s0,.01,0,.015a.578.578,0,0,0,.057.083.61.61,0,0,0,.069.1.567.567,0,0,0,.118.08.531.531,0,0,0,.068.049l2.415,1.1a.6.6,0,0,0,.5-1.1l-1.251-.572a14.47,14.47,0,0,0,7.642-12.767.6.6,0,0,0-1.208,0,13.264,13.264,0,0,1-6.535,11.439l.437-.912a.6.6,0,0,0-.282-.8.594.594,0,0,0-.261-.06.6.6,0,0,0-.543.342l-1.208,2.52a.027.027,0,0,1,0,.019.581.581,0,0,0-.033.128.626.626,0,0,0-.023.1A.6.6,0,0,0,48.017,61.625Z" transform="translate(-48 -48.134)"/></g><path class="b" d="M108.832,107.5v6.3" transform="translate(-90.718 -89.604)"/><path class="c" d="M100.164,140.135l1.82,1.82,1.82-1.82" transform="translate(-83.844 -116.82)"/></svg>