<svg xmlns="http://www.w3.org/2000/svg" width="38.379" height="38.379" viewBox="0 0 38.379 38.379"><defs><style>.a{fill:#d2e8ff;}.b{fill:none;stroke:#4291e2;stroke-linecap:round;stroke-linejoin:round;stroke-width:1.5px;}</style></defs><g transform="translate(-436.503 -560.808)"><rect class="a" width="34" height="34" rx="17" transform="translate(437 561)"/><g transform="translate(437.253 561.558)"><path class="b" d="M37.005,20.753A16.253,16.253,0,1,1,20.753,4.5,16.253,16.253,0,0,1,37.005,20.753Z" transform="translate(-4.5 -4.5)"/><path class="b" d="M33.812,33.812l-8.837-8.837" transform="translate(2.756 2.756)"/><g transform="translate(7.999 7.902)"><path class="b" d="M14.493,27.372V25.748A3.248,3.248,0,0,0,11.245,22.5h-6.5A3.248,3.248,0,0,0,1.5,25.748v1.624" transform="translate(-1.5 -12.755)"/><path class="b" d="M14,7.748A3.248,3.248,0,1,1,10.748,4.5,3.248,3.248,0,0,1,14,7.748Z" transform="translate(-4.252 -4.5)"/><path class="b" d="M32.436,27.462V25.838A3.248,3.248,0,0,0,30,22.695" transform="translate(-14.571 -12.845)"/><path class="b" d="M24,4.695a3.248,3.248,0,0,1,0,6.294" transform="translate(-11.819 -4.589)"/></g></g></g></svg>