<svg xmlns="http://www.w3.org/2000/svg" width="15.996" height="22" viewBox="0 0 15.996 22"><defs><style>.a{fill:#fff;}</style></defs><g transform="translate(0)"><path class="a" d="M18.719,980.345A.75.75,0,0,1,18,979.6V961.1a2.76,2.76,0,0,1,2.749-2.749h10.5A2.76,2.76,0,0,1,34,961.1v18.5a.75.75,0,0,1-1.148.64L26,975.987l-6.85,4.249a.748.748,0,0,1-.43.109Zm.781-2.093,6.1-3.788a.75.75,0,0,1,.8,0l6.1,3.788V961.1a1.231,1.231,0,0,0-1.25-1.25h-10.5a1.231,1.231,0,0,0-1.25,1.25Z" transform="translate(-18 -958.35)"/></g></svg>