<svg xmlns="http://www.w3.org/2000/svg" width="22" height="22" viewBox="0 0 22 22"><defs><style>.a{fill:none;}.b{fill:#fff;}</style></defs><g transform="translate(0 0)"><path class="a" d="M22.5,8.385a9.881,9.881,0,0,0-3.592-1.918,10.763,10.763,0,0,0-2.5-.439A5.277,5.277,0,0,0,15.754,6c-.209,0-.389,0-.571.018a14.908,14.908,0,0,0-1.673.18,10.2,10.2,0,0,0-3.219,1.161,8.6,8.6,0,0,0-3.23,3.03A6.727,6.727,0,0,0,6.2,15.7,7.4,7.4,0,0,0,8.625,19.6a10.1,10.1,0,0,0,5.544,2.444,2.318,2.318,0,0,1,2.083,2.464v.2c.459-.281.918-.595,1.374-.922a42.758,42.758,0,0,0,5.03-4.156,10.3,10.3,0,0,0,1.337-1.507A7.1,7.1,0,0,0,25.31,14.1a6.908,6.908,0,0,0-.259-1.878A7.73,7.73,0,0,0,22.5,8.385ZM11.2,15.817a1.262,1.262,0,1,1,1.254-1.244A1.262,1.262,0,0,1,11.2,15.817Zm4.439,0a1.262,1.262,0,1,1,1.273-1.259,1.275,1.275,0,0,1-1.273,1.262Zm4.466,0a1.262,1.262,0,1,1,1.256-1.259A1.262,1.262,0,0,1,20.1,15.817Z" transform="translate(-4.651 -4.66)"/><path class="b" d="M18.718,2.706A11.277,11.277,0,0,0,14.652.526a12.054,12.054,0,0,0-2.809-.5C11.6,0,11.35,0,11.1,0s-.44,0-.66.02a16.266,16.266,0,0,0-1.824.2A11.493,11.493,0,0,0,4.979,1.54a9.966,9.966,0,0,0-3.714,3.5A8.092,8.092,0,0,0,.245,11.354,8.771,8.771,0,0,0,3.08,15.948,11.491,11.491,0,0,0,9.344,18.72a1,1,0,0,1,.942,1.122,8.94,8.94,0,0,1-.125,1.078,2.1,2.1,0,0,0-.044.816.288.288,0,0,0,.268.264h.048a2.708,2.708,0,0,0,.66-.172,14.771,14.771,0,0,0,2.655-1.588,43.962,43.962,0,0,0,5.19-4.3,11.48,11.48,0,0,0,1.522-1.707A8.4,8.4,0,0,0,22,9.447,8.241,8.241,0,0,0,21.69,7.2a9.088,9.088,0,0,0-2.972-4.49Zm.645,10.78A10.325,10.325,0,0,1,18.018,15a42.852,42.852,0,0,1-5.038,4.162c-.464.328-.924.647-1.393.926v-.2A2.323,2.323,0,0,0,9.5,17.413,10.12,10.12,0,0,1,3.96,14.96a7.421,7.421,0,0,1-2.433-3.916A6.747,6.747,0,0,1,2.394,5.72,8.622,8.622,0,0,1,5.628,2.682,10.219,10.219,0,0,1,8.855,1.518a14.931,14.931,0,0,1,1.676-.18c.183-.018.374-.018.572-.018s.44,0,.66.02a10.78,10.78,0,0,1,2.5.44,9.9,9.9,0,0,1,3.6,1.925,7.751,7.751,0,0,1,2.559,3.857,6.93,6.93,0,0,1,.26,1.883,7.124,7.124,0,0,1-1.32,4.035Z" transform="translate(-0.001)"/><path class="b" d="M45.526,39.25a1.284,1.284,0,1,0,1.282,1.284A1.284,1.284,0,0,0,45.526,39.25Z" transform="translate(-34.527 -30.632)"/><path class="b" d="M25.242,39.25a1.28,1.28,0,1,0,.9.387A1.284,1.284,0,0,0,25.242,39.25Z" transform="translate(-18.684 -30.632)"/><path class="b" d="M65.8,39.25a1.284,1.284,0,1,0,1.266,1.284A1.284,1.284,0,0,0,65.8,39.25Z" transform="translate(-50.338 -30.632)"/></g></svg>