<svg xmlns="http://www.w3.org/2000/svg" width="27.5" height="22" viewBox="0 0 27.5 22"><defs><style>.a{fill:#fff;}</style></defs><g transform="translate(0)"><path class="a" d="M23.732,970.362a.739.739,0,0,0-.408.14L10.261,980.814a.711.711,0,0,0-.118.978.722.722,0,0,0,.978.107l12.633-9.969L36.386,981.9a.692.692,0,0,0,.859-1.085L24.183,970.5A.786.786,0,0,0,23.732,970.362Zm-8.572,9.249L13.784,980.7v10.979a.688.688,0,0,0,.688.688h6.188a.688.688,0,0,0,.688-.687v-6.188h4.813v6.188a.688.688,0,0,0,.688.688h6.188a.687.687,0,0,0,.688-.687V980.7l-1.375-1.085v11.376H27.534V984.8a.687.687,0,0,0-.687-.687H20.659a.688.688,0,0,0-.688.687v6.188H15.159V979.611Z" transform="translate(-10 -970.362)"/></g></svg>