<svg xmlns="http://www.w3.org/2000/svg" width="18.392" height="22.599" viewBox="0 0 18.392 22.599"><defs><style>.a,.b{fill:#c7d1d8;}.a,.b,.c{stroke:#c7d1d8;}.a{stroke-width:0.2px;}.b,.c{stroke-linecap:round;stroke-width:0.8px;}.c{fill:none;stroke-linejoin:round;}</style></defs><g transform="translate(0.1 0.1)"><g transform="translate(7.277 14.212)"><path class="a" d="M193.819,0a1.819,1.819,0,1,0,1.819,1.819A1.819,1.819,0,0,0,193.819,0Zm0,3.032a1.213,1.213,0,1,1,1.213-1.213A1.213,1.213,0,0,1,193.819,3.032Z" transform="translate(-192)"/></g><g transform="translate(6.367 18.154)"><path class="a" d="M171.942,104h-.072l-.064.032a2.417,2.417,0,0,1-2.155,0l-.064-.032h-.072A1.518,1.518,0,0,0,168,105.516v1.819a.91.91,0,0,0,.91.91h3.638a.91.91,0,0,0,.91-.91v-1.819A1.518,1.518,0,0,0,171.942,104Zm.91,3.335a.3.3,0,0,1-.3.3H168.91a.3.3,0,0,1-.3-.3v-1.819a.91.91,0,0,1,.845-.907,3.034,3.034,0,0,0,2.555,0,.91.91,0,0,1,.845.907Z" transform="translate(-168 -104)"/></g><g transform="translate(13.644)"><path class="a" d="M361.819,264a1.819,1.819,0,1,0,1.819,1.819A1.819,1.819,0,0,0,361.819,264Zm0,3.032a1.213,1.213,0,1,1,1.213-1.213A1.213,1.213,0,0,1,361.819,267.032Z" transform="translate(-360 -264)"/></g><g transform="translate(7.292)"><path class="a" d="M361.819,264a1.819,1.819,0,1,0,1.819,1.819A1.819,1.819,0,0,0,361.819,264Zm0,3.032a1.213,1.213,0,1,1,1.213-1.213A1.213,1.213,0,0,1,361.819,267.032Z" transform="translate(-360 -264)"/></g><g transform="translate(12.734 3.942)"><path class="a" d="M339.942,368h-.072l-.064.03a2.417,2.417,0,0,1-2.154,0l-.064-.03h-.072A1.518,1.518,0,0,0,336,369.516v1.819a.91.91,0,0,0,.91.91h3.638a.91.91,0,0,0,.91-.91v-1.819A1.518,1.518,0,0,0,339.942,368Zm.91,3.335a.3.3,0,0,1-.3.3H336.91a.3.3,0,0,1-.3-.3v-1.819a.91.91,0,0,1,.845-.907,3.034,3.034,0,0,0,2.555,0,.91.91,0,0,1,.845.907Z" transform="translate(-336 -368)"/></g><g transform="translate(6.382 3.942)"><path class="a" d="M339.942,368h-.072l-.064.03a2.417,2.417,0,0,1-2.154,0l-.064-.03h-.072A1.518,1.518,0,0,0,336,369.516v1.819a.91.91,0,0,0,.91.91h3.638a.91.91,0,0,0,.91-.91v-1.819A1.518,1.518,0,0,0,339.942,368Zm.91,3.335a.3.3,0,0,1-.3.3H336.91a.3.3,0,0,1-.3-.3v-1.819a.91.91,0,0,1,.845-.907,3.034,3.034,0,0,0,2.555,0,.91.91,0,0,1,.845.907Z" transform="translate(-336 -368)"/></g><g transform="translate(0.91)"><path class="a" d="M25.819,264a1.819,1.819,0,1,0,1.819,1.819A1.819,1.819,0,0,0,25.819,264Zm0,3.032a1.213,1.213,0,1,1,1.213-1.213A1.213,1.213,0,0,1,25.819,267.032Z" transform="translate(-24 -264)"/></g><g transform="translate(0 3.942)"><path class="a" d="M3.942,368H3.87l-.064.03a2.417,2.417,0,0,1-2.155,0L1.588,368H1.516A1.518,1.518,0,0,0,0,369.516v1.819a.91.91,0,0,0,.91.91H4.548a.91.91,0,0,0,.91-.91v-1.819A1.518,1.518,0,0,0,3.942,368Zm.91,3.335a.3.3,0,0,1-.3.3H.91a.3.3,0,0,1-.3-.3v-1.819a.91.91,0,0,1,.845-.907,3.034,3.034,0,0,0,2.555,0,.91.91,0,0,1,.845.907Z" transform="translate(0 -368)"/></g><g transform="translate(1.819 8.793)"><path class="a" d="M52.842,54.908a.282.282,0,0,1-.008.052s0,0,0,.008,0,.005,0,.008a.291.291,0,0,1-.029.042.306.306,0,0,1-.035.05.285.285,0,0,1-.059.04.267.267,0,0,1-.034.025l-1.213.554a.3.3,0,0,1-.252-.551l.628-.287A7.266,7.266,0,0,1,48,48.438a.3.3,0,1,1,.606,0,6.66,6.66,0,0,0,3.281,5.744l-.219-.458a.3.3,0,0,1,.142-.4.3.3,0,0,1,.131-.03.3.3,0,0,1,.273.172l.606,1.265a.014.014,0,0,0,0,.009.292.292,0,0,1,.016.064.314.314,0,0,1,.012.05A.3.3,0,0,1,52.842,54.908Z" transform="translate(-48 -48.134)"/></g><g transform="translate(11.408 8.793)"><path class="a" d="M48.009,54.908a.282.282,0,0,0,.008.052s0,0,0,.008,0,.005,0,.008a.291.291,0,0,0,.028.042.306.306,0,0,0,.035.05.285.285,0,0,0,.059.04.267.267,0,0,0,.034.025l1.213.554a.3.3,0,0,0,.252-.551l-.628-.287a7.266,7.266,0,0,0,3.837-6.41.3.3,0,1,0-.606,0,6.66,6.66,0,0,1-3.281,5.744l.219-.458a.3.3,0,0,0-.142-.4.3.3,0,0,0-.131-.03.3.3,0,0,0-.273.172l-.606,1.265a.014.014,0,0,1,0,.009.292.292,0,0,0-.016.064.314.314,0,0,0-.012.05A.3.3,0,0,0,48.009,54.908Z" transform="translate(-48 -48.134)"/></g><path class="b" d="M108.832,107.5v3.165" transform="translate(-99.737 -98.512)"/><path class="c" d="M100.164,140.135l.914.914.914-.914" transform="translate(-91.97 -128.428)"/></g></svg>