<svg xmlns="http://www.w3.org/2000/svg" width="18.881" height="18" viewBox="0 0 18.881 18"><defs><style>.a{fill:#fff;}</style></defs><g transform="translate(1.34)"><g transform="translate(-0.34)"><path class="a" d="M13.4,16.684A7.407,7.407,0,0,1,9.123,18,7.447,7.447,0,0,1,4.8,16.684a3.046,3.046,0,0,1-2.632.423,3.357,3.357,0,0,1-2.4-4.089A3.406,3.406,0,0,1,1.462,10.95,8.076,8.076,0,0,1,2.731,6.11,8.3,8.3,0,0,1,5.786,3.478V3.337a3.337,3.337,0,0,1,6.674,0v.141A8.153,8.153,0,0,1,15.468,6.11a7.76,7.76,0,0,1,1.269,4.277v.564a3.258,3.258,0,0,1,1.692,2.068,3.328,3.328,0,0,1-2.35,4.089A3.148,3.148,0,0,1,13.4,16.684Zm2.162-6.11v-.188A6.5,6.5,0,0,0,12.178,4.7a3.351,3.351,0,0,1-6.11,0,6.333,6.333,0,0,0-2.35,2.115,7.01,7.01,0,0,0-1.081,3.76,3.5,3.5,0,0,1,1.222.094,3.292,3.292,0,0,1,2.35,4.089,2.576,2.576,0,0,1-.517,1.081,6.375,6.375,0,0,0,6.815,0,2.576,2.576,0,0,1-.517-1.081,3.328,3.328,0,0,1,2.35-4.089A3.676,3.676,0,0,1,15.562,10.574Zm.188,5.4a2.118,2.118,0,0,0,1.5-2.632,2.085,2.085,0,0,0-2.585-1.5,2.141,2.141,0,0,0-1.551,2.632A2.194,2.194,0,0,0,15.749,15.979Zm-13.3,0a2.171,2.171,0,0,0,2.632-1.5,2.149,2.149,0,0,0-1.5-2.632,2.113,2.113,0,0,0-2.632,1.5A2.155,2.155,0,0,0,2.449,15.979Zm6.674-14.8A2.187,2.187,0,0,0,6.961,3.337,2.187,2.187,0,0,0,9.123,5.5a2.162,2.162,0,0,0,0-4.324Z" transform="translate(-0.66)"/></g></g></svg>