<svg xmlns="http://www.w3.org/2000/svg" width="62.352" height="44.275" viewBox="0 0 62.352 44.275"><defs><style>.a{fill:#4291e2;stroke:#fff;stroke-width:0.2px;}</style></defs><g transform="translate(-931.9 -885.9)"><path class="a" d="M31.534,33.32a7.847,7.847,0,1,0-7.847-7.847A7.856,7.856,0,0,0,31.534,33.32Zm0-13.207a5.361,5.361,0,1,1-5.361,5.361A5.367,5.367,0,0,1,31.534,20.113Z" transform="translate(931.542 875.03)"/><path class="a" d="M65.909,46.905H62.39V16.448a4.175,4.175,0,0,0-4.165-4.176h-44.3A4.175,4.175,0,0,0,9.76,16.448V46.905H6.243A1.243,1.243,0,0,0,5,48.148a8.207,8.207,0,0,0,8.2,8.2H58.954a8.208,8.208,0,0,0,8.2-8.2A1.243,1.243,0,0,0,65.909,46.905Zm-18.691,0H24.933V44.693a5.106,5.106,0,0,1,5.1-5.1H42.119a5.106,5.106,0,0,1,5.1,5.1V46.9ZM12.246,16.448a1.686,1.686,0,0,1,1.678-1.69h44.3a1.686,1.686,0,0,1,1.679,1.69V46.9H49.7V44.693a7.594,7.594,0,0,0-7.586-7.586H30.032a7.594,7.594,0,0,0-7.586,7.586V46.9h-10.2V16.448ZM58.954,53.86H13.2a5.722,5.722,0,0,1-5.576-4.469H64.53A5.723,5.723,0,0,1,58.954,53.86Z" transform="translate(927 873.729)"/></g></svg>