<svg xmlns="http://www.w3.org/2000/svg" width="72.653" height="72.626" viewBox="0 0 72.653 72.626"><defs><style>.a{fill:#4291e2;stroke:#fff;stroke-width:0.5px;}</style></defs><g transform="translate(-1052.75 -849.75)"><path class="a" d="M21.461,27.485a1.363,1.363,0,0,0-.113.089,1.249,1.249,0,0,0-.1.135,1.083,1.083,0,0,0-.084.112,1.267,1.267,0,0,0-.072.172,1.19,1.19,0,0,0-.046.114,1.165,1.165,0,0,0-.042.311V40.443a1.2,1.2,0,0,0,.583,1.03l12.026,7.215.013.006.013.01a1.17,1.17,0,0,0,.2.081c.028.01.054.025.083.034a1.182,1.182,0,0,0,.625,0c.029-.008.055-.024.083-.034a1.17,1.17,0,0,0,.2-.081l.013-.01.013-.006,12.026-7.215a1.2,1.2,0,0,0,.583-1.031V28.418a1.181,1.181,0,0,0-.042-.313A.931.931,0,0,0,47.37,28a1.272,1.272,0,0,0-.073-.177,1.2,1.2,0,0,0-.083-.111,1.135,1.135,0,0,0-.1-.136A1.345,1.345,0,0,0,47,27.485a1.378,1.378,0,0,0-.12-.1L34.851,20.172a1.2,1.2,0,0,0-1.239,0L21.587,27.387a1.063,1.063,0,0,0-.126.1ZM45.051,39.763l-9.62,5.772V36.314l9.62-5.772ZM43.916,28.418l-9.688,5.813-3.675-2.205,9.688-5.813ZM34.228,22.6,37.9,24.81l-9.688,5.813L24.54,28.418ZM23.405,30.542l9.62,5.772v9.22l-9.62-5.772Z" transform="translate(1054.849 851.619)"/><path class="a" d="M33.972,6.806,35.415,8.73l1.924-1.443-3.608-4.81a1.246,1.246,0,0,0-1.924,0L28.2,7.287,30.124,8.73l1.443-1.924v9.62h2.405Z" transform="translate(1056.307 847.978)"/><path class="a" d="M33.972,59.62V50H31.567v9.62L30.124,57.7,28.2,59.139l3.608,4.81a1.2,1.2,0,0,0,1.924,0l3.608-4.81L35.415,57.7Z" transform="translate(1056.307 857.696)"/><rect class="a" width="2.405" height="2.405" transform="translate(1087.874 866.809)"/><rect class="a" width="2.405" height="2.405" transform="translate(1087.874 902.886)"/><path class="a" d="M16.431,33.972V31.567H6.81l1.924-1.443L7.291,28.2l-4.81,3.608a1.2,1.2,0,0,0,0,1.924l4.81,3.608,1.443-1.924L6.81,33.972Z" transform="translate(1051 853.28)"/><path class="a" d="M59.139,28.2,57.7,30.124l1.924,1.443H50v2.405h9.62L57.7,35.415l1.443,1.924,4.81-3.608a1.2,1.2,0,0,0,0-1.924Z" transform="translate(1060.723 853.28)"/><rect class="a" width="2.405" height="2.405" transform="translate(1069.836 884.847)"/><rect class="a" width="2.405" height="2.405" transform="translate(1105.912 884.847)"/><path class="a" d="M21.9,20.2l-6.8-6.8,2.38.339.34-2.381L11.868,10.5A1.2,1.2,0,0,0,10.5,11.868l.85,5.951,2.381-.34-.339-2.38,6.8,6.8Z" transform="translate(1052.719 849.693)"/><path class="a" d="M52.184,48.445l.339,2.38-6.8-6.8-1.7,1.7,6.8,6.8-2.377-.342-.34,2.381,5.951.85a1.174,1.174,0,0,0,.171.012,1.2,1.2,0,0,0,1.191-1.373l-.85-5.951Z" transform="translate(1059.512 856.485)"/><rect class="a" width="2.405" height="2.405" transform="translate(1074.621 873.296) rotate(-45)"/><rect class="a" width="2.405" height="2.405" transform="translate(1100.132 898.804) rotate(-45)"/><path class="a" d="M20.2,44.021l-6.8,6.8.339-2.38-2.381-.34L10.5,54.054a1.2,1.2,0,0,0,1.191,1.373,1.174,1.174,0,0,0,.171-.012l5.951-.85-.34-2.381-2.38.339,6.8-6.8Z" transform="translate(1052.72 856.485)"/><path class="a" d="M54.565,17.819l.85-5.951a1.2,1.2,0,0,0-.34-1.021,1.191,1.191,0,0,0-1.021-.34l-5.951.85.34,2.381,2.38-.339-6.8,6.8,1.7,1.7,6.8-6.8-.339,2.377Z" transform="translate(1059.512 849.694)"/><rect class="a" width="2.405" height="2.405" transform="translate(1074.623 898.805) rotate(-45)"/><rect class="a" width="2.405" height="2.405" transform="translate(1100.132 873.294) rotate(-45)"/></g></svg>