<svg xmlns="http://www.w3.org/2000/svg" width="57.007" height="49.425" viewBox="0 0 57.007 49.425"><defs><style>.a{fill:#4291e2;stroke:#fff;stroke-width:1.4px;}</style></defs><g transform="translate(-5.3 -963.662)"><path class="a" d="M25.589,964.362a3.2,3.2,0,0,0-3.159,3.159v3.16H13.583A7.608,7.608,0,0,0,6,978.264v26.54a7.608,7.608,0,0,0,7.583,7.583H54.024a7.608,7.608,0,0,0,7.583-7.583v-26.54a7.608,7.608,0,0,0-7.583-7.583H45.178v-3.16a3.2,3.2,0,0,0-3.159-3.159H25.589Zm.632,3.791H41.386v2.528H26.221Zm-12.638,6.319H54.024a3.742,3.742,0,0,1,3.791,3.791v5.845a48.116,48.116,0,0,1-18.76,5.312,5.647,5.647,0,0,0-10.505,0,48.023,48.023,0,0,1-18.76-5.312v-5.845A3.742,3.742,0,0,1,13.583,974.472Zm-3.791,13.9a52.958,52.958,0,0,0,18.582,4.8,5.666,5.666,0,0,0,10.861,0,52.958,52.958,0,0,0,18.582-4.8V1004.8a3.742,3.742,0,0,1-3.791,3.791H13.583a3.742,3.742,0,0,1-3.791-3.791V988.374ZM33.8,989.638a1.9,1.9,0,1,1-1.9,1.9A1.868,1.868,0,0,1,33.8,989.638Z" transform="translate(0 0)"/></g></svg>