<svg xmlns="http://www.w3.org/2000/svg" width="13.897" height="13.897" viewBox="0 0 13.897 13.897"><defs><style>.a{fill:none;stroke:#b9b9b9;stroke-linecap:round;stroke-linejoin:round;}</style></defs><g transform="translate(-0.793 -0.793)"><path class="a" d="M11.112,13.909a5.714,5.714,0,0,1-3.37,1.169c-3.972,0-6.241-4.539-6.241-4.539a10.468,10.468,0,0,1,2.871-3.37M6.55,6.136A5.175,5.175,0,0,1,7.741,6c3.972,0,6.241,4.539,6.241,4.539a10.5,10.5,0,0,1-1.226,1.81m-3.813-.607A1.7,1.7,0,1,1,6.538,9.336" transform="translate(0 -2.798)"/><path class="a" d="M1.5,1.5,13.983,13.983" transform="translate(0 0)"/></g></svg>