<svg xmlns="http://www.w3.org/2000/svg" width="81.513" height="71.296" viewBox="0 0 81.513 71.296"><defs><style>.a{fill:#4291e2;stroke:#4291e2;stroke-width:0.2px;}</style></defs><g transform="translate(-9.637 -15.788)"><path class="a" d="M65.932,62.216c-.009-.027-.016-.053-.028-.078a.871.871,0,0,0-.171-.254v0l-3.811-3.811a.889.889,0,0,0-.625-.259H39.49a.889.889,0,0,0-.625.259l-3.812,3.812a.875.875,0,0,0-.172.256c-.012.025-.018.051-.028.077a.867.867,0,0,0-.048.239c0,.018-.011.034-.011.052v4.414a3.33,3.33,0,0,0,2.261,3.143V83.839A3.148,3.148,0,0,0,40.2,86.984H60.585a3.148,3.148,0,0,0,3.145-3.145V70.064a3.33,3.33,0,0,0,2.261-3.143V62.507c0-.019-.009-.034-.011-.052A.864.864,0,0,0,65.932,62.216ZM39.856,59.581H60.93l2.042,2.042H37.814Zm8.055,25.635H42.227V73.639h5.685Zm14.05-1.376a1.378,1.378,0,0,1-1.376,1.376H49.68V72.755a.885.885,0,0,0-.884-.885H41.342a.886.886,0,0,0-.885.885v12.46H40.2a1.378,1.378,0,0,1-1.376-1.376V70.186a3.3,3.3,0,0,0,.592-.191c.051-.021.1-.047.149-.071a3.316,3.316,0,0,0,.411-.234c.047-.032.1-.061.141-.1a3.337,3.337,0,0,0,.467-.412,3.333,3.333,0,0,0,4.9,0,3.339,3.339,0,0,0,2.452,1.076h0a3.335,3.335,0,0,0,2.452-1.076,3.333,3.333,0,0,0,4.9,0,3.334,3.334,0,0,0,4.9,0,3.338,3.338,0,0,0,.469.414c.044.033.09.061.135.092a3.3,3.3,0,0,0,.417.237c.049.023.1.048.146.069a3.3,3.3,0,0,0,.593.192V83.839Zm2.261-16.917a1.568,1.568,0,0,1-3.136,0,.884.884,0,0,0-1.769,0,1.568,1.568,0,0,1-3.136,0,.884.884,0,0,0-1.769,0,1.568,1.568,0,0,1-3.136,0,.884.884,0,0,0-1.769,0,1.568,1.568,0,1,1-3.136,0,.884.884,0,0,0-1.769,0,1.568,1.568,0,0,1-3.136,0,.884.884,0,0,0-1.769,0,1.568,1.568,0,0,1-3.136,0v-3.53H64.223v3.53Z"/><path class="a" d="M59.444,71.87H51.6a.885.885,0,0,0-.884.885V81.37a.885.885,0,0,0,.884.884h7.841a.885.885,0,0,0,.884-.884V72.755A.885.885,0,0,0,59.444,71.87Zm-.884,8.616H52.487V73.639H58.56Z"/><path class="a" d="M23.737,45.06h11.79a3.148,3.148,0,0,0,3.145-3.145V28.14A3.331,3.331,0,0,0,40.933,25V20.583c0-.018-.009-.033-.01-.051a.871.871,0,0,0-.049-.24c-.009-.026-.016-.052-.028-.077a.88.88,0,0,0-.172-.256l-3.811-3.811a.879.879,0,0,0-.625-.259H14.432a.879.879,0,0,0-.625.259L10,19.958a.877.877,0,0,0-.172.256c-.012.025-.018.051-.027.077a.868.868,0,0,0-.049.241c0,.018-.01.033-.01.051V25A3.331,3.331,0,0,0,12,28.14V41.915a3.148,3.148,0,0,0,3.145,3.145h8.6Zm-.884-1.769H17.168V31.715h5.685ZM14.8,17.657H35.871L37.914,19.7H12.756ZM11.505,25V21.468H39.164V25a1.568,1.568,0,1,1-3.136,0,.885.885,0,0,0-.884-.884h0a.885.885,0,0,0-.884.884,1.568,1.568,0,1,1-3.136,0,.884.884,0,1,0-1.769,0,1.568,1.568,0,1,1-3.136,0,.884.884,0,0,0-1.769,0,1.568,1.568,0,1,1-3.136,0,.884.884,0,1,0-1.769,0,1.568,1.568,0,1,1-3.136,0,.884.884,0,1,0-1.769,0,1.568,1.568,0,1,1-3.136,0ZM15.4,30.831V43.292h-.257a1.378,1.378,0,0,1-1.376-1.376V28.262a3.3,3.3,0,0,0,.593-.192c.05-.021.1-.046.146-.069a3.315,3.315,0,0,0,.414-.236c.046-.031.093-.06.138-.094a3.331,3.331,0,0,0,.468-.413,3.334,3.334,0,0,0,2.452,1.076h0a3.334,3.334,0,0,0,2.452-1.076,3.333,3.333,0,0,0,4.9,0,3.333,3.333,0,0,0,4.9,0,3.333,3.333,0,0,0,4.9,0,3.33,3.33,0,0,0,.468.413c.045.033.091.062.137.093a3.31,3.31,0,0,0,.415.237c.049.023.1.048.145.069a3.3,3.3,0,0,0,.593.192V41.915a1.378,1.378,0,0,1-1.376,1.376h-10.9V30.831a.885.885,0,0,0-.885-.884H16.284A.885.885,0,0,0,15.4,30.831Z"/><path class="a" d="M26.545,40.331h7.841a.885.885,0,0,0,.884-.884V30.831a.885.885,0,0,0-.884-.884H26.545a.885.885,0,0,0-.885.884v8.616A.885.885,0,0,0,26.545,40.331Zm.884-8.616H33.5v6.847H27.429Z"/><path class="a" d="M91.039,20.532a.871.871,0,0,0-.049-.24c-.009-.026-.016-.052-.028-.077a.88.88,0,0,0-.172-.256l-3.811-3.811a.879.879,0,0,0-.625-.259H64.549a.879.879,0,0,0-.625.259l-3.812,3.812a.879.879,0,0,0-.172.255c-.012.026-.019.052-.028.079a.868.868,0,0,0-.048.238c0,.018-.011.034-.011.052V25a3.331,3.331,0,0,0,2.261,3.143V41.915a3.148,3.148,0,0,0,3.145,3.145H85.644a3.148,3.148,0,0,0,3.145-3.145V28.14A3.331,3.331,0,0,0,91.049,25V20.583C91.049,20.565,91.04,20.55,91.039,20.532ZM64.915,17.657H85.988L88.03,19.7H62.873ZM72.97,43.292H67.285V31.715H72.97V43.292Zm14.05-1.376a1.378,1.378,0,0,1-1.376,1.376H74.738V30.831a.885.885,0,0,0-.884-.884H66.4a.885.885,0,0,0-.884.884V43.292h-.257a1.378,1.378,0,0,1-1.376-1.376V28.262a3.3,3.3,0,0,0,.593-.192c.05-.021.1-.046.146-.069a3.315,3.315,0,0,0,.414-.236c.046-.031.093-.06.138-.094a3.331,3.331,0,0,0,.468-.413,3.334,3.334,0,0,0,2.452,1.076h0a3.334,3.334,0,0,0,2.452-1.076,3.333,3.333,0,0,0,4.9,0,3.333,3.333,0,0,0,4.9,0,3.333,3.333,0,0,0,4.9,0,3.33,3.33,0,0,0,.468.413c.045.033.091.062.137.093a3.31,3.31,0,0,0,.415.237c.049.023.1.048.145.069a3.3,3.3,0,0,0,.593.192V41.915ZM89.281,25a1.568,1.568,0,1,1-3.136,0,.885.885,0,0,0-1.769,0,1.568,1.568,0,1,1-3.136,0,.884.884,0,0,0-1.769,0,1.568,1.568,0,1,1-3.136,0,.884.884,0,0,0-1.769,0,1.568,1.568,0,1,1-3.136,0,.884.884,0,0,0-1.769,0,1.568,1.568,0,1,1-3.136,0,.884.884,0,0,0-1.769,0,1.568,1.568,0,1,1-3.136,0V21.468H89.281V25Z"/><path class="a" d="M84.5,29.946H76.662a.885.885,0,0,0-.885.884v8.616a.885.885,0,0,0,.885.884H84.5a.885.885,0,0,0,.884-.884V30.831A.885.885,0,0,0,84.5,29.946Zm-.884,8.616H77.546V31.715h6.072Z"/><path class="a" d="M20.368,56.614l-.488-.873a1,1,0,1,0-1.746.976l.488.873a1,1,0,0,0,1.746-.976Z"/><path class="a" d="M22.318,60.107l-.487-.873a1,1,0,1,0-1.746.975l.487.873a1,1,0,1,0,1.746-.975Z"/><path class="a" d="M18.417,53.122l-.488-.873a1,1,0,1,0-1.746.976l.488.873a1,1,0,0,0,1.746-.976Z"/><path class="a" d="M24.269,63.6l-.488-.873a1,1,0,1,0-1.746.976l.488.873a1,1,0,0,0,1.746-.976Z"/><path class="a" d="M28.169,70.584l-.487-.873a1,1,0,1,0-1.746.975l.487.873a1,1,0,1,0,1.746-.975Z"/><path class="a" d="M29.632,73.2a1,1,0,1,0-1.746.976l.488.873a1,1,0,0,0,1.746-.976Z"/><path class="a" d="M26.219,67.092l-.487-.873a1,1,0,1,0-1.746.975l.487.873a1,1,0,0,0,1.746-.975Z"/><path class="a" d="M76.415,65.833a1,1,0,0,0-1.36.386l-.487.873a1,1,0,1,0,1.746.975l.487-.873A1,1,0,0,0,76.415,65.833Z"/><path class="a" d="M84.217,51.864a1,1,0,0,0-1.361.385l-.488.873a1,1,0,0,0,1.746.976l.488-.873A1,1,0,0,0,84.217,51.864Z"/><path class="a" d="M78.366,62.341a1,1,0,0,0-1.361.385l-.488.873a1,1,0,0,0,1.746.976l.488-.873A1,1,0,0,0,78.366,62.341Z"/><path class="a" d="M72.515,72.817a1,1,0,0,0-1.361.385l-.488.873a1,1,0,0,0,1.746.976l.488-.873A1,1,0,0,0,72.515,72.817Z"/><path class="a" d="M82.267,55.356a1,1,0,0,0-1.361.385l-.488.873a1,1,0,0,0,1.746.976l.488-.873A1,1,0,0,0,82.267,55.356Z"/><path class="a" d="M80.316,58.848a1,1,0,0,0-1.36.386l-.487.873a1,1,0,1,0,1.746.975l.487-.873A1,1,0,0,0,80.316,58.848Z"/><path class="a" d="M74.465,69.325a1,1,0,0,0-1.36.386l-.487.873a1,1,0,1,0,1.746.975l.487-.873A1,1,0,0,0,74.465,69.325Z"/><path class="a" d="M50.545,37.907h1a1,1,0,0,0,0-2h-1a1,1,0,0,0,0,2Z"/><path class="a" d="M42.545,37.907h1a1,1,0,0,0,0-2h-1a1,1,0,0,0,0,2Z"/><path class="a" d="M54.545,37.907h1a1,1,0,0,0,0-2h-1a1,1,0,0,0,0,2Z"/><path class="a" d="M46.545,37.907h1a1,1,0,0,0,0-2h-1a1,1,0,0,0,0,2Z"/></g></svg>