<svg xmlns="http://www.w3.org/2000/svg" width="46.11" height="51.877" viewBox="0 0 46.11 51.877"><defs><style>.a{fill:#4291e2;stroke:#4291e2;stroke-width:0.5px;}</style></defs><g transform="translate(-28.48 0.25)"><g transform="translate(28.73 0)"><path class="a" d="M107.589,137.8h-24.6a.756.756,0,0,0,0,1.511h24.6a.756.756,0,1,0,0-1.511Z" transform="translate(-76.865 -123.978)"/><path class="a" d="M82.989,87.068h12.3a.756.756,0,1,0,0-1.511h-12.3a.756.756,0,1,0,0,1.511Z" transform="translate(-76.865 -76.973)"/><path class="a" d="M107.589,184.1h-24.6a.756.756,0,1,0,0,1.511h24.6a.756.756,0,1,0,0-1.511Z" transform="translate(-76.865 -165.625)"/><path class="a" d="M40.458,46.12H32.585a2.346,2.346,0,0,1-2.344-2.343V3.855a2.346,2.346,0,0,1,2.344-2.344H55.266a1.617,1.617,0,0,1,.217.016V6.241A3.859,3.859,0,0,0,59.337,10.1H64.05a1.6,1.6,0,0,1,.016.217V23.181a.756.756,0,1,0,1.511,0V10.313a3.084,3.084,0,0,0-.909-2.195L57.46.909A3.083,3.083,0,0,0,55.266,0H32.585A3.859,3.859,0,0,0,28.73,3.855V43.776a3.859,3.859,0,0,0,3.855,3.855h7.873a.756.756,0,1,0,0-1.511ZM63,8.584H59.338a2.346,2.346,0,0,1-2.344-2.344V2.58Z" transform="translate(-28.73 0)"/><path class="a" d="M126.793,264.523l-6.4-10.808a1.656,1.656,0,0,0-2.271-.581l-1.557.923a2.959,2.959,0,0,0-1.3,3.45,2.317,2.317,0,0,1-1.63-.018c-1.23-.387-2.165-1.165-3.709-.775-2.622.668-2.542.634-2.779.715-1.535-.874-2.458-1.134-4.087-.5l-1.453.562a2.324,2.324,0,0,1-2.035-.17l-.4-.234a2.952,2.952,0,0,0-1.409-3.027h0l-1.557-.923a1.659,1.659,0,0,0-2.271.581l-6.4,10.808a1.657,1.657,0,0,0,.581,2.271l1.557.923a2.936,2.936,0,0,0,1.5.412,2.975,2.975,0,0,0,1.614-.477l.325.192-.685.954a2.532,2.532,0,0,0,2.451,3.979,2.53,2.53,0,0,0,2.889,2.075,2.532,2.532,0,0,0,3.5,1.9,2.531,2.531,0,0,0,4.3.712l1.821,1.079a2.537,2.537,0,0,0,3.81-1.878l0,0a2.534,2.534,0,0,0,3.819-1.993,2.534,2.534,0,0,0,3.14-2.192,2.535,2.535,0,0,0,2.865-3.992l1-.586a2.948,2.948,0,0,0,2.63-.188l1.557-.923A1.656,1.656,0,0,0,126.793,264.523Zm-36.357,1.893-1.557-.923a.146.146,0,0,1-.051-.2l6.4-10.808a.146.146,0,0,1,.2-.051l1.557.923a1.443,1.443,0,0,1,.506,1.977l-5.081,8.576a1.445,1.445,0,0,1-1.977.506Zm3.446,4.69a1.022,1.022,0,0,1-.234-1.427l1.007-1.4a1.023,1.023,0,0,1,1.661,1.193l-1.007,1.4A1.024,1.024,0,0,1,93.883,271.106Zm2.889,2.074a1.024,1.024,0,0,1-.234-1.427l1.007-1.4h0l1.112-1.548a1.015,1.015,0,0,1,.665-.413,1.033,1.033,0,0,1,.168-.014,1.023,1.023,0,0,1,.828,1.619L98.2,272.946A1.022,1.022,0,0,1,96.772,273.18Zm2.889,2.074a1.024,1.024,0,0,1-.235-1.426h0l2.119-2.951a1.022,1.022,0,1,1,1.661,1.193l-.941,1.311h0l-1.177,1.64A1.023,1.023,0,0,1,99.661,275.254Zm3.362,1.415a1.024,1.024,0,0,1-.235-1.426l.705-.982a1.023,1.023,0,0,1,1.661,1.193l-.7.981A1.023,1.023,0,0,1,103.022,276.67Zm16.938-6.025a1.024,1.024,0,0,1-1.4.359l-6.689-3.963a.756.756,0,0,0-.77,1.3l5.057,3h0a1.023,1.023,0,0,1-1.043,1.76l-5.06-3a.756.756,0,0,0-.77,1.3l3.726,2.208h0a1.023,1.023,0,0,1-1.044,1.76l-2-1.185h0l-1.459-.865a.756.756,0,1,0-.77,1.3l1.46.865h0a1.023,1.023,0,1,1-1.043,1.76l-1.7-1.009a2.532,2.532,0,0,0-1.7-3.874,2.532,2.532,0,0,0-2.765-3.39,2.533,2.533,0,0,0-4.3-1.354,2.531,2.531,0,0,0-3.523-.9l-.346-.2,4.753-8.023.226.133a3.826,3.826,0,0,0,3.349.278l1.453-.562a2.23,2.23,0,0,1,2.112.046,3.383,3.383,0,0,0-.857,2.253v3.351a1.617,1.617,0,0,0,1.613,1.615h0a3.347,3.347,0,0,0,3.164-2.262l9.972,5.905a1.022,1.022,0,0,1,.359,1.4Zm5.481-5.151-1.557.923a1.445,1.445,0,0,1-1.977-.506l-2.382-4.02a.756.756,0,0,0-1.3.77l2.381,4.02c.045.076.094.148.144.218l-.662.387a3.826,3.826,0,0,0-.386.261l-10.266-6.08a.756.756,0,0,0-1.141.65,1.93,1.93,0,0,1-.536,1.436,1.818,1.818,0,0,1-1.293.535h0a.1.1,0,0,1-.1-.1v-3.351a1.88,1.88,0,0,1,1.417-1.82l2.51-.635c.911-.23,1.426.256,2.789.718a3.82,3.82,0,0,0,2.89-.047l.456.77a.756.756,0,1,0,1.3-.77l-.9-1.516a1.442,1.442,0,0,1,.506-1.977l1.557-.923a.146.146,0,0,1,.2.051l6.4,10.808A.146.146,0,0,1,125.442,265.494Z" transform="translate(-81.42 -227.528)"/></g></g></svg>