<svg xmlns="http://www.w3.org/2000/svg" width="62.953" height="62.972" viewBox="0 0 62.953 62.972"><defs><style>.a{fill:#4291e2;}</style></defs><g transform="translate(-0.501)"><path class="a" d="M220.824,332.294a1.23,1.23,0,1,0-1.74,0A1.232,1.232,0,0,0,220.824,332.294Zm0,0" transform="translate(-191.383 -289.582)"/><path class="a" d="M188.449,13.525A13.525,13.525,0,1,0,201.975,0,13.541,13.541,0,0,0,188.449,13.525Zm24.592,0A11.067,11.067,0,1,1,201.974,2.459,11.079,11.079,0,0,1,213.041,13.525Zm0,0" transform="translate(-164.831 0)"/><path class="a" d="M14.664,248.814a1.229,1.229,0,0,0,1.735.01l5.961-5.873a3.716,3.716,0,0,0,.875-3.816l1.282-1.237a3.667,3.667,0,0,1,2.56-1.034H43.425a11.009,11.009,0,0,0,7.719-3.136c.086-.083-.649.782,11.152-13.322a4.919,4.919,0,0,0-7.484-6.384l-7.256,7.457a4.941,4.941,0,0,0-3.823-1.83H30.021a15.863,15.863,0,0,0-6.157-1.229c-5.921,0-11.091,2.735-13.866,7.862A3.673,3.673,0,0,0,6.709,227.3L.86,233.168a1.23,1.23,0,0,0,0,1.734Zm9.2-27.934a13.423,13.423,0,0,1,5.413,1.127,1.228,1.228,0,0,0,.493.1H43.732a2.459,2.459,0,1,1,0,4.918H33.7a1.229,1.229,0,1,0,0,2.459H43.732a4.911,4.911,0,0,0,4.875-5.561c7.019-7.215,8.009-8.229,8.051-8.279a2.46,2.46,0,1,1,3.755,3.178L49.385,232.009a8.562,8.562,0,0,1-5.96,2.4H27.079a6.113,6.113,0,0,0-4.268,1.724l-1.045,1.008-9.633-9.632c2.251-4.224,6.476-6.626,11.731-6.626ZM8.45,229.039a1.227,1.227,0,0,1,1.523-.173c.213.13-.4-.427,10.65,10.606a1.232,1.232,0,0,1,.007,1.733l-5.082,5.007L3.465,234.038Zm0,0" transform="translate(0 -186.205)"/><path class="a" d="M268.325,41.218v1.441a3.689,3.689,0,0,0,1.229,7.166,1.229,1.229,0,1,1,0,2.459,2.224,2.224,0,0,1-1.6-.93,1.23,1.23,0,0,0-1.882,1.583,5.1,5.1,0,0,0,2.249,1.6v1.435a1.229,1.229,0,0,0,2.459,0V54.532a3.689,3.689,0,0,0-1.229-7.166,1.23,1.23,0,0,1,0-2.459,1.974,1.974,0,0,1,1.33.643,1.23,1.23,0,1,0,1.71-1.767,4.75,4.75,0,0,0-1.811-1.132V41.218a1.229,1.229,0,1,0-2.459,0Zm0,0" transform="translate(-232.657 -35.07)"/></g></svg>