<svg xmlns="http://www.w3.org/2000/svg" width="333.432" height="231.041" viewBox="0 0 333.432 231.041"><defs><style>.a{fill:#e6e6e6;}.b{fill:#2f2e41;}.c{fill:#3f3d56;}.d{fill:#fff;}.e{fill:#4291e2;}.f{fill:#ffb8b8;}.g{fill:#575a88;}</style></defs><path class="a" d="M870.626,290.26a143.552,143.552,0,0,1-18.606,35.686c-.181.255-.364.5-.549.758l-23.808-7.71c.108-.246.225-.521.35-.822,7.5-17.735,52.621-125.843,47.829-148.381C876.3,171.642,891.25,232.872,870.626,290.26Z" transform="translate(-567.09 -169.791)"/><path class="a" d="M871.151,445.548c-.291.219-.59.436-.892.646L852.4,440.41c.214-.2.462-.43.748-.693,4.675-4.37,18.564-17.463,32.016-31.343,14.456-14.916,28.411-30.738,29.9-37.619C914.78,372.326,905.972,420.09,871.151,445.548Z" transform="translate(-581.628 -287.905)"/><path class="b" d="M512.039,701.783H205.877a10.266,10.266,0,0,1-10.266-10.266h0q166.476-19.348,326.694,0h0a10.266,10.266,0,0,1-10.266,10.266Z" transform="translate(-195.611 -470.742)"/><path class="c" d="M522.3,395.992l-326.694-.6,37.862-63.708.181-.3V190.971a12.976,12.976,0,0,1,12.978-12.977H469.472a12.976,12.976,0,0,1,12.977,12.978V332.344Z" transform="translate(-195.611 -174.612)"/><path class="d" d="M312.625,199.966a4.232,4.232,0,0,0-4.227,4.227v128.02a4.232,4.232,0,0,0,4.227,4.227H537.868a4.232,4.232,0,0,0,4.227-4.227V204.193a4.232,4.232,0,0,0-4.227-4.227Z" transform="translate(-261.9 -187.526)"/><path class="b" d="M303.026,572.015a1.817,1.817,0,0,0-1.646,1.054l-11.667,25.363A1.812,1.812,0,0,0,291.359,601H536.7a1.811,1.811,0,0,0,1.62-2.622l-12.681-25.362a1.8,1.8,0,0,0-1.62-1Z" transform="translate(-250.821 -406.192)"/><circle class="d" cx="2.717" cy="2.717" r="2.717" transform="translate(159.724 4.892)"/><path class="b" d="M524.382,654.042a1.815,1.815,0,0,0-1.749,1.34l-2.926,10.87a1.811,1.811,0,0,0,1.749,2.283h55.655a1.811,1.811,0,0,0,1.711-2.4l-3.762-10.87a1.813,1.813,0,0,0-1.712-1.219Z" transform="translate(-386.057 -454.402)"/><path class="b" d="M340.816,375.126v2.415H91.84l.188-.3v-2.114Z" transform="translate(-53.978 -220.474)"/><path class="a" d="M559.817,254.83H501.073V255.9h58.744a10.9,10.9,0,1,1,0,21.81H470.927a10.9,10.9,0,0,1,0-21.81h3.322V254.83h-3.322a11.978,11.978,0,1,0,0,23.955h88.889a11.978,11.978,0,1,0,0-23.955Z" transform="translate(-350.384 -219.771)"/><path class="a" d="M559.817,344.619H501.073v1.073h58.744a10.9,10.9,0,0,1,0,21.81H470.927a10.9,10.9,0,0,1,0-21.81h3.322v-1.073h-3.322a11.978,11.978,0,1,0,0,23.955h88.889a11.978,11.978,0,0,0,0-23.955Z" transform="translate(-350.384 -272.543)"/><path class="a" d="M559.817,434.407H501.073v1.073h58.744a10.9,10.9,0,1,1,0,21.81H470.927a10.9,10.9,0,0,1,0-21.81h3.322v-1.073h-3.322a11.978,11.978,0,1,0,0,23.955h88.889a11.978,11.978,0,0,0,0-23.955Z" transform="translate(-350.384 -325.315)"/><path class="c" d="M507.6,247.953a3.19,3.19,0,1,0,0,6.38H521.59a3.19,3.19,0,0,0,.1-6.38H507.6Z" transform="translate(-377.1 -215.729)"/><path class="c" d="M507.6,339.043a3.19,3.19,0,1,0,0,6.38H521.59a3.19,3.19,0,0,0,.1-6.38H507.6Z" transform="translate(-377.1 -269.266)"/><path class="c" d="M507.6,427.531a3.19,3.19,0,1,0,0,6.38H521.59a3.19,3.19,0,1,0,.1-6.38H507.6Z" transform="translate(-377.1 -321.274)"/><path class="e" d="M494.132,276.145a3.19,3.19,0,1,0,0,6.38h79.981a3.19,3.19,0,0,0,.1-6.38H494.132Z" transform="translate(-369.187 -232.299)"/><path class="e" d="M494.132,365.934a3.19,3.19,0,1,0,0,6.38h79.981a3.19,3.19,0,0,0,.1-6.38H494.132Z" transform="translate(-369.187 -285.071)"/><path class="a" d="M494.132,455.722a3.19,3.19,0,1,0,0,6.38h79.981a3.19,3.19,0,0,0,.1-6.38H494.132Z" transform="translate(-369.187 -337.842)"/><circle class="e" cx="6.388" cy="6.388" r="6.388" transform="translate(88.851 40.397)"/><path class="d" d="M226.924,112.373l-1.861-2.393,1.082-.842.881,1.133L230,107.129l1,.943Z" transform="translate(-132.277 -62.963)"/><circle class="e" cx="6.388" cy="6.388" r="6.388" transform="translate(88.851 77.414)"/><path class="d" d="M226.924,202.162l-1.861-2.393,1.082-.842.881,1.133L230,196.918l1,.943Z" transform="translate(-132.277 -115.735)"/><circle class="a" cx="6.388" cy="6.388" r="6.388" transform="translate(88.851 114.43)"/><circle class="a" cx="6.388" cy="6.388" r="6.388" transform="translate(228.871 40.397)"/><circle class="a" cx="6.388" cy="6.388" r="6.388" transform="translate(228.871 77.414)"/><circle class="a" cx="6.388" cy="6.388" r="6.388" transform="translate(228.871 114.43)"/><path class="d" d="M226.924,291.951l-1.861-2.393,1.082-.842.881,1.133L230,286.707l1,.943Z" transform="translate(-132.277 -168.508)"/><rect class="d" width="0.752" height="5.052" transform="translate(233.115 45.264) rotate(-45)"/><rect class="d" width="5.052" height="0.752" transform="translate(233.303 48.305) rotate(-45)"/><rect class="d" width="0.752" height="5.052" transform="translate(233.115 82.281) rotate(-45)"/><rect class="d" width="5.052" height="0.752" transform="translate(233.303 85.322) rotate(-45)"/><rect class="d" width="0.752" height="5.052" transform="translate(233.115 119.298) rotate(-45)"/><rect class="d" width="5.052" height="0.752" transform="translate(233.303 122.339) rotate(-45)"/><path class="f" d="M413.683,437.184h0a4.613,4.613,0,0,0,.854-6.966l-6.133-6.685-5.89,2.982,4.508,8.9a4.613,4.613,0,0,0,6.66,1.763Z" transform="translate(-317.215 -318.924)"/><path class="f" d="M229.981,484.038h0a4.613,4.613,0,0,0,3.908-5.829l-2.452-8.734h-6.6v9.981a4.613,4.613,0,0,0,5.145,4.582Z" transform="translate(-212.788 -345.926)"/><path class="f" d="M134.211,484.37l12.471-1.956-5.135-5.38h-7.336Z" transform="translate(-78.88 -280.369)"/><path class="f" d="M232.547,652.21l12.96,3.423c-2.387-4.952-3.857-9.333-2.934-12.227l-6.113-.734Z" transform="translate(-217.32 -447.72)"/><path class="g" d="M43.46,343.028l7.581,1.467,20.785-67,8.8,66.757H88.7l-.734-94.389h-31.3Z" transform="translate(-25.543 -146.852)"/><path class="g" d="M331.112,658.648l12.336-4.058a2.4,2.4,0,0,0,1.4-3.352h0a2.4,2.4,0,0,0-2.308-1.321l-2.8.189-1.1-.617a.638.638,0,0,0-.9.8l1.011,2.456-10.27-.734-.507,4.054a2.406,2.406,0,0,0,3.139,2.584Z" transform="translate(-273.394 -451.678)"/><path class="g" d="M231.16,665.814l13.41.869A2.483,2.483,0,0,0,247.2,664h0a2.483,2.483,0,0,0-1.705-2.159l-2.759-.9-.814-1.016a.66.66,0,0,0-1.175.418l.022,2.748-9.576-4.671-2.052,3.7a2.489,2.489,0,0,0,2.015,3.693Z" transform="translate(-215.136 -456.978)"/><circle class="f" cx="9.048" cy="9.048" r="9.048" transform="translate(35.523 32.095)"/><path class="f" d="M289.488,292.838h12.471V280.856H289.488A25.152,25.152,0,0,1,289.488,292.838Z" transform="translate(-250.786 -235.068)"/><path class="e" d="M260.309,348.336l34.235.489,3.423-36.168a11.3,11.3,0,0,0-7.663-10.695l-5.3-1.8-2.934-3.423a29.459,29.459,0,0,0-11.982.245l-3.179,4.646-3.423,1.093a11.26,11.26,0,0,0-7.832,11.043C258.2,326.923,260.185,339.151,260.309,348.336Z" transform="translate(-230.899 -244.105)"/><path class="e" d="M221.87,378.489l8.559.978,9.781-39.37.978-25.431-.289.14a16.2,16.2,0,0,0-8.843,11.479Z" transform="translate(-211.044 -254.939)"/><path class="e" d="M366.768,361.376l6.6-3.179L354,322.062a25.318,25.318,0,0,0-12.913-11.548h0L344.76,333.5Z" transform="translate(-281.115 -252.498)"/><path class="b" d="M283.8,259.466s8.872-.526,9.064-2.061,1.487-5.035,3.022-4.843,5.788-4.924,4.877-6.986-5.21-9.655-13.986-6.156a11.389,11.389,0,0,0-6.86,14.338A36.847,36.847,0,0,0,283.8,259.466Z" transform="translate(-244.817 -210.181)"/><path class="e" d="M815.185,558.338a.442.442,0,0,0-.426.326l-.713,2.647a.441.441,0,0,0,.426.556h13.553a.441.441,0,0,0,.417-.586l-.916-2.647a.441.441,0,0,0-.417-.3Z" transform="translate(-559.078 -398.153)"/><path class="e" d="M767.185,558.338a.442.442,0,0,0-.426.326l-.713,2.647a.441.441,0,0,0,.426.556h13.553a.441.441,0,0,0,.417-.586l-.916-2.647a.441.441,0,0,0-.417-.3Z" transform="translate(-530.867 -398.153)"/></svg>