<svg xmlns="http://www.w3.org/2000/svg" width="238.623" height="223.172" viewBox="0 0 238.623 223.172"><defs><style>.a{fill:#ffb8b8;}.b{fill:#e6e6e6;}.c{opacity:0.1;}.d{fill:#2f2e41;}.e{fill:#3f3d56;}.f{fill:#4291e2;}.g{fill:#fff;}</style></defs><g transform="translate(0 0)"><path class="a" d="M827.288,604.414s29.521,1.526,22.645,10.819-24.944-5.451-24.944-5.451Z" transform="translate(-637.233 -445.853)"/><path class="b" d="M631.957,313.448l6.009,1.5s3.505,10.515,6.009,20.029,7.511,38.056,7.511,38.056l38.82,27.207-4.63,10.358L633.96,390.217l-11.517-45.223Z" transform="translate(-496.304 -243.403)"/><path class="c" d="M438.756,291.607l-2.24,46.9,4.673,13.944L427.5,342.41Z" transform="translate(-297.45 -202.897)"/><path class="d" d="M539.916,633.522s6.51,17.526,7.511,29.543,2,21.532,2,21.532H518.886l-6.009-9.013V684.6H477.324s-10.015-32.548-6.009-36.554,42.062-21.031,42.062-21.031Z" transform="translate(-390.493 -461.577)"/><rect class="e" width="176.747" height="0.608" transform="translate(30.877 222.564)"/><circle class="a" cx="19.028" cy="19.028" r="19.028" transform="translate(92.089 12.961)"/><path class="a" d="M521.892,214.688l-1.5,22.032,19.028,25.538,9.514-24.035s-8.512-5.508-3.505-17.025Z" transform="translate(-425.297 -174.687)"/><path class="b" d="M508.757,380.884c0,4.508-12.518,11.517-12.518,11.517v2.5l-5.007,2.5-11.016-22.031-3,24.033s-22.034,3.508-29.043,0-10.517-2-20.531-5.506,4.007-50.575,4.007-50.575l-10.015-72.606,21.879-10.939,1.153-.578,3.009-.554,4.612-.852L467.7,268.219l1.241,6.51.764,4.006,4-4.508,3.024-9.945,21.514,11.949L492.235,324.3S508.757,376.379,508.757,380.884Z" transform="translate(-356.582 -204.684)"/><path class="a" d="M454.619,713.428s23.034,18.527,12.018,22.032-17.025-19.028-17.025-19.028Z" transform="translate(-376.05 -521.704)"/><path class="b" d="M392.279,301.281l-5.007-1s-7.511,4.006-8.012,12.018-7.01,64.094-7.01,64.094l21.031,56.583,17.025-6.51-16.524-53.078L406.3,327.32Z" transform="translate(-322.223 -234.241)"/><circle class="d" cx="1.825" cy="1.825" r="1.825" transform="translate(111.494 78.671)"/><circle class="d" cx="1.825" cy="1.825" r="1.825" transform="translate(111.494 90.536)"/><circle class="d" cx="1.825" cy="1.825" r="1.825" transform="translate(121.837 168.718)"/><path class="d" d="M508.864,95.693l-3.517-1.408s7.354-8.1,17.587-7.393l-2.878-3.168s7.035-2.816,13.43,4.577c3.362,3.886,7.252,8.454,9.676,13.6h3.767l-1.572,3.462,5.5,3.462-5.648-.622a19.343,19.343,0,0,1,.153,5.742,7.429,7.429,0,0,1-2.721,4.86h0s-4.362-9.029-4.362-10.438v3.52s-3.517-3.168-3.517-5.281l-1.919,2.464H520.055l1.919-3.168-7.354,1.056,2.878-3.873L506.11,119.077S499.59,100.973,508.864,95.693Z" transform="translate(-413.812 -83.197)"/><circle class="f" cx="30.421" cy="30.421" r="30.421" transform="translate(177.781 86.258)"/><circle class="c" cx="26.162" cy="26.162" r="26.162" transform="translate(182.04 90.517)"/><path class="g" d="M876.464,446.695v-3.808a8.842,8.842,0,0,1-5.078-1.659l.8-2.526a8.117,8.117,0,0,0,4.779,1.621,3.66,3.66,0,0,0,3.949-3.695c0-2.074-1.294-3.355-3.75-4.487-3.385-1.508-5.476-3.242-5.476-6.522a5.928,5.928,0,0,1,5.011-6.07v-3.808h2.057V419.4a8.074,8.074,0,0,1,4.314,1.319l-.83,2.488a7.334,7.334,0,0,0-4.181-1.282,3.186,3.186,0,0,0-3.518,3.242c0,1.96,1.228,2.941,4.115,4.3,3.418,1.583,5.144,3.544,5.144,6.9a6.309,6.309,0,0,1-5.244,6.409v3.921Z" transform="translate(-669.516 -314.578)"/><path class="c" d="M250,501.344l12.167,38.006L252.437,499.8Z" transform="translate(-173.951 -347.757)"/><path class="e" d="M233.327,312.8H225.6a1.271,1.271,0,0,1-1.27-1.27v-11.1a1.271,1.271,0,0,1,1.27-1.27h7.723a1.271,1.271,0,0,1,1.27,1.27v11.1A1.271,1.271,0,0,1,233.327,312.8ZM225.6,299.768a.662.662,0,0,0-.661.661v11.1a.662.662,0,0,0,.661.661h7.723a.662.662,0,0,0,.661-.661v-11.1a.662.662,0,0,0-.661-.661Z" transform="translate(-219.305 -233.461)"/><path class="e" d="M280.552,285.2h-6.974a1.646,1.646,0,0,1-1.644-1.644v-22.42a1.646,1.646,0,0,1,1.644-1.644h6.974a1.646,1.646,0,0,1,1.644,1.644v22.42A1.646,1.646,0,0,1,280.552,285.2Zm-6.974-25.1a1.037,1.037,0,0,0-1.036,1.035v22.42a1.037,1.037,0,0,0,1.035,1.035h6.974a1.037,1.037,0,0,0,1.035-1.035v-22.42a1.037,1.037,0,0,0-1.035-1.035Z" transform="translate(-252.424 -205.862)"/><path class="e" d="M327.884,259.81h-6.436a1.915,1.915,0,0,1-1.913-1.913V224.913A1.915,1.915,0,0,1,321.448,223h6.436a1.915,1.915,0,0,1,1.913,1.913V257.9A1.915,1.915,0,0,1,327.884,259.81Zm-6.436-36.2a1.306,1.306,0,0,0-1.3,1.3V257.9a1.306,1.306,0,0,0,1.3,1.3h6.436a1.306,1.306,0,0,0,1.3-1.3V224.913a1.306,1.306,0,0,0-1.3-1.3Z" transform="translate(-285.544 -180.47)"/><rect class="f" width="5.792" height="9.412" transform="translate(7.264 67.813)"/><rect class="f" width="5.792" height="21.359" transform="translate(21.745 55.866)"/><rect class="f" width="5.792" height="32.46" transform="translate(36.225 44.765)"/><path class="e" d="M837.565,133.677h-40.46a.3.3,0,0,1-.3-.3V92.3a.3.3,0,0,1,.608,0v40.764h40.156a.3.3,0,1,1,0,.608Z" transform="translate(-617.62 -89.322)"/><path class="e" d="M256.171,247.37H208.105a.3.3,0,0,1-.3-.3V199.3a.3.3,0,0,1,.608,0v47.457h47.761a.3.3,0,0,1,0,.608Z" transform="translate(-207.801 -163.771)"/><path class="e" d="M823.132,185.268h-7.723a1.271,1.271,0,0,1-1.27-1.27V172.9a1.271,1.271,0,0,1,1.27-1.27h7.723a1.271,1.271,0,0,1,1.27,1.27V184A1.271,1.271,0,0,1,823.132,185.268Zm-7.723-13.032a.662.662,0,0,0-.661.661V184a.662.662,0,0,0,.661.661h7.723a.662.662,0,0,0,.661-.661V172.9a.662.662,0,0,0-.661-.661Z" transform="translate(-629.684 -144.726)"/><path class="e" d="M875.824,163.262h-7.108a1.579,1.579,0,0,1-1.577-1.577V141.577A1.579,1.579,0,0,1,868.716,140h7.108a1.579,1.579,0,0,1,1.577,1.577v20.108A1.579,1.579,0,0,1,875.824,163.262Zm-7.108-22.654a.969.969,0,0,0-.968.968v20.108a.97.97,0,0,0,.968.969h7.108a.969.969,0,0,0,.968-.969V141.577a.969.969,0,0,0-.969-.969Z" transform="translate(-666.561 -122.72)"/><rect class="f" width="5.792" height="9.412" transform="translate(186.551 29.121)"/><rect class="f" width="5.792" height="18.211" transform="translate(202.813 19.806)"/><circle class="f" cx="2.738" cy="2.738" r="2.738" transform="translate(186.786 18.193)"/><circle class="f" cx="2.738" cy="2.738" r="2.738" transform="translate(202.909 7.85)"/></g></svg>