<svg xmlns="http://www.w3.org/2000/svg" width="299.418" height="223.189" viewBox="0 0 299.418 223.189"><defs><style>.a{fill:#e6e6e6;}.b{fill:#4291e2;}.c{fill:#efb7b9;}.d{fill:#2f2e41;}.e{opacity:0.1;}.f{fill:#fff;}</style></defs><g transform="translate(0 0)"><ellipse class="a" cx="25.624" cy="1.954" rx="25.624" ry="1.954" transform="translate(0 215.62)"/><ellipse class="a" cx="25.624" cy="1.954" rx="25.624" ry="1.954" transform="translate(55.274 219.28)"/><path class="a" d="M715.441,145.142h-129.3a2.847,2.847,0,0,0-2.844,2.844V364.5a2.845,2.845,0,0,0,2.844,2.844h129.3a2.837,2.837,0,0,0,2.806-2.4,2.44,2.44,0,0,0,.038-.444V147.986A2.847,2.847,0,0,0,715.441,145.142ZM717.147,364.5a1.706,1.706,0,0,1-1.706,1.706h-129.3a1.706,1.706,0,0,1-1.706-1.706V147.986a1.709,1.709,0,0,1,1.706-1.706h129.3a1.709,1.709,0,0,1,1.706,1.706Z" transform="translate(-439.702 -145.142)"/><path class="a" d="M617.064,188.772a1.139,1.139,0,0,0-1.138,1.138v47.018a1.139,1.139,0,0,0,1.138,1.138H725.888a1.139,1.139,0,0,0,1.138-1.138V189.91a1.139,1.139,0,0,0-1.137-1.138Z" transform="translate(-460.387 -172.801)"/><path class="b" d="M492.957,289.272a1.1,1.1,0,0,0-1.1,1.1v45.391a1.1,1.1,0,0,0,1.1,1.1H598.015a1.1,1.1,0,0,0,1.1-1.1V290.37a1.1,1.1,0,0,0-1.1-1.1Z" transform="translate(-381.735 -236.512)"/><path class="c" d="M272.4,570.207c.138,3.4-2.033,6.413-4.067,9.121-.927,1.269-9.544,9.866-12.147,13.623-.63.911-16.1,18.771-16.9,20.427a7.852,7.852,0,0,0-.46,1.216,16.417,16.417,0,0,0-.443,4.986v1.183a37.011,37.011,0,0,0,.813,7.678c.089.366.191.736.244,1.106a3.547,3.547,0,0,1-.464-.362l-8.41-6.242-.525-.39c-.537-1.553-1.045-3.123-1.618-4.656a2.888,2.888,0,0,1,.626-2.712,15.347,15.347,0,0,1,2.147-1.96,12.609,12.609,0,0,0,1.586-2.017c5.8-8.446,22.147-38.754,23.338-44.854a13.949,13.949,0,0,1,4.758-.061l8.389,1.114a3.793,3.793,0,0,1,2.489.984A3.065,3.065,0,0,1,272.4,570.207Z" transform="translate(-214.649 -412.017)"/><path class="c" d="M402.8,573.38a8.972,8.972,0,0,1-1.314,3.562c-.862,1.314-10.764,26.783-13.843,37.3a15.519,15.519,0,0,0-.329,4.445c-.049.537-.094,1.074-.134,1.606-.057.663-.1,1.326-.15,1.984a10.438,10.438,0,0,0,.5,5.165,15.55,15.55,0,0,1,.915,1.793,3.551,3.551,0,0,1-.789-.553l-8.41-6.242a38.6,38.6,0,0,1-1.582-5.966,4.154,4.154,0,0,1,.407-3.355,1.589,1.589,0,0,1,.134-.154,3.7,3.7,0,0,1,.781-.561,6.486,6.486,0,0,0,.748-.48,2.815,2.815,0,0,0,.48-.48,7.055,7.055,0,0,0,1.147-3.18c.813-4.612,7.7-32.907,7.572-33.606s-4.054-7.279-6.738-8.743a30.72,30.72,0,0,1,9.382-5.376,3.712,3.712,0,0,1,1.932-.329,3.2,3.2,0,0,1,1,.407,17.274,17.274,0,0,1,4.6,4.286C401.129,567.349,403.142,570.228,402.8,573.38Z" transform="translate(-309.246 -408.26)"/><path class="d" d="M346.093,483.1c-.26,2.459-7.17,4.636-15.908,5.99-2.257.35-7.8-13.308-10.218-13.077-2.907.277-2.7,14.414-5.579,14.49-9.787.259-16.111-.745-18.156-3.646-1.106-.268-2.44-.9-2.387-2.033.037-.647.549-1.22.545-1.854,0-1.106,3.209-13.216,5.1-18.963.472-1.427.813-2.891,1.346-4.3,2.3-6.36,3.29-11.24,7.495-16.535a9.889,9.889,0,0,0,1.57-2.477,10.8,10.8,0,0,0,.557-3.347l.232-3.981a70.345,70.345,0,0,1,18.389,1.143,1.248,1.248,0,0,1,1.285,1.211v.009q.354,2.184.5,4.388a3.623,3.623,0,0,0,.138.96,3.982,3.982,0,0,0,.659,1.086c3.53,4.628,5.693,10.166,7.4,15.713s3.066,11.248,5.213,16.673a23.536,23.536,0,0,1,1.9,5.978A1.793,1.793,0,0,1,346.093,483.1Z" transform="translate(-256.204 -327.774)"/><path class="c" d="M435.454,352.4c1.074-.907,2.147-1.818,3.131-2.818a42.931,42.931,0,0,0,3.839-4.693,24.561,24.561,0,0,0,3.253-5.392c.874-2.245,1.143-4.8,2.664-6.661a1.525,1.525,0,0,1,.687-.537c.866-.272,1.513.813,1.68,1.712.813,4.4-1.126,8.792-3.013,12.85a11.677,11.677,0,0,1-2.35,3.725,22.035,22.035,0,0,1-1.85,1.419,19.371,19.371,0,0,0-2.619,2.578q-2.033,2.31-3.867,4.786a52.417,52.417,0,0,1-4.738,5.958,11.927,11.927,0,0,1-6.563,3.607c.72-.1.484-4.323.407-4.856a24.707,24.707,0,0,1-.655-2.44c-.02-.927.358-1.061,1.122-1.712Z" transform="translate(-339.64 -263.763)"/><path class="c" d="M360.637,314.588s-2.44,12.2-5.287,14.233,15.453,4.473,15.453,4.473.407-9.76,5.287-14.233S360.637,314.588,360.637,314.588Z" transform="translate(-295.005 -252.561)"/><path class="a" d="M369.54,385.5a5.449,5.449,0,0,0,1.867.244,14.64,14.64,0,0,0,6.165-1.436,1.134,1.134,0,0,0,.464-.333,1.244,1.244,0,0,0,.02-1c-1.147-4.636,1.065-9.894-1.131-14.131-2.387.777-5.006,1.627-7.393,2.383a2.7,2.7,0,0,1-1.155.2,2.44,2.44,0,0,1-1.244-.679c-2.586-2.237-4.217-5.352-5.693-8.43s-2.924-6.254-5.25-8.759-4.5-3.831-7.9-3.469a5.1,5.1,0,0,0-3.123,1.667c-1.919,2.066-2.3,5.209-1.627,7.95a23.136,23.136,0,0,0,3.835,7.483,35.892,35.892,0,0,0,7.271,8.231,54.8,54.8,0,0,0,4.9,3.168" transform="translate(-287.512 -275.031)"/><circle class="c" cx="12.2" cy="12.2" r="12.2" transform="translate(62.988 46.777)"/><path class="a" d="M361.434,365.528c-3.668,4.325-4.443,9.85-5.193,15.3-3.684-1.248-7.767.846-11.582.081a14.661,14.661,0,0,0-5.953-.691c-1.411-.135-2.81-1.021-4.156-.57-2.238,1.417-.059-7.363-.192-9.915C333.185,326.691,368.1,347.632,361.434,365.528Z" transform="translate(-281.366 -271.44)"/><path class="c" d="M448.785,356.845c1.074-.907,2.147-1.818,3.131-2.818a42.924,42.924,0,0,0,3.839-4.693,24.565,24.565,0,0,0,3.253-5.392c.874-2.245,1.143-4.8,2.664-6.661a1.525,1.525,0,0,1,.687-.537c.866-.272,1.513.813,1.68,1.712.813,4.4-1.126,8.792-3.013,12.85a11.677,11.677,0,0,1-2.35,3.725,22.046,22.046,0,0,1-1.85,1.419,19.369,19.369,0,0,0-2.619,2.578q-2.033,2.31-3.867,4.786a52.418,52.418,0,0,1-4.738,5.958,11.927,11.927,0,0,1-6.563,3.607c.72-.1.484-4.323.407-4.855a24.71,24.71,0,0,1-.655-2.44c-.02-.927.358-1.061,1.122-1.712Z" transform="translate(-348.091 -266.58)"/><path class="e" d="M371.29,375.152l-.028.053c-.7,1.305-1.757,2.4-2.481,3.7a16.369,16.369,0,0,0-1.517,4.807q-.338,1.667-.622,3.339a44.845,44.845,0,0,1-4.229-2.753,35.827,35.827,0,0,1-7.271-8.235,22.607,22.607,0,0,1-3.835-7.478c-.663-2.737-.277-5.884,1.627-7.95a5.108,5.108,0,0,1,3.123-1.671c3.4-.362,5.547.952,7.873,3.453s3.766,5.693,5.25,8.759C369.838,372.508,370.513,373.871,371.29,375.152Z" transform="translate(-292.442 -280.658)"/><path class="a" d="M361.619,354.535A5.1,5.1,0,0,0,358.5,356.2c-1.919,2.066-2.3,5.209-1.627,7.95a23.135,23.135,0,0,0,3.835,7.483,35.892,35.892,0,0,0,7.271,8.231,54.811,54.811,0,0,0,4.9,3.168c2.808,1.73,5.507,1.191,8.08,3.253a6.792,6.792,0,0,0,1.911,1.22,5.449,5.449,0,0,0,1.867.244c2.135-.023,4.239-1.326,6.165-2.249a1.135,1.135,0,0,0,.464-.333,1.245,1.245,0,0,0,.02-1c-1.147-4.636,1.065-6.641-1.131-10.878-2.387.777-5.006,1.627-7.393,2.383a2.7,2.7,0,0,1-1.155.2,2.44,2.44,0,0,1-1.244-.679c-2.586-2.237-4.217-5.352-5.693-8.43s-2.924-6.254-5.25-8.759S365.018,354.173,361.619,354.535Z" transform="translate(-295.963 -277.848)"/><path class="d" d="M385.766,718.1a3.614,3.614,0,0,1-4.254.667,3.548,3.548,0,0,1-.789-.553l-8.41-6.242-3.335-2.477a3.53,3.53,0,0,1-.053-5.12l2.212-1.724.915-.716,1.228-.96,1.074-.838L381.244,704l.118.228,5.213,10.053A3.624,3.624,0,0,1,385.766,718.1Z" transform="translate(-303.122 -496.979)"/><path class="d" d="M238.013,709.213a3.614,3.614,0,0,1-4.254.667c-.11-.057-.22-.122-.325-.191a3.555,3.555,0,0,1-.464-.362l-8.41-6.242-.525-.39-2.81-2.086a3.53,3.53,0,0,1-.053-5.12l2.212-1.724.915-.716,1.228-.96,1.074-.838.175.1,6.043,3.387.671.378.118.228,5.213,10.052a3.624,3.624,0,0,1-.809,3.819Z" transform="translate(-209.454 -491.345)"/><path class="d" d="M368.157,266.7c-4.724-5.352-10.05-7.912-16.437-5.562C341.474,257.7,328,281.333,336.3,289.9l14.046,1.171,4.3-7.744-1.522,8.022,11.235,1.121C358.627,283.563,360.465,275,368.157,266.7Z" transform="translate(-281.482 -218.121)"/><circle class="f" cx="10.66" cy="10.66" r="10.66" transform="translate(128.929 65.893)"/><path class="f" d="M635.92,350.4a1.246,1.246,0,1,0,0,2.493h33.657a1.247,1.247,0,0,0,.041-2.493h-33.7Z" transform="translate(-472.272 -275.262)"/><path class="f" d="M635.92,330.67a1.246,1.246,0,1,0,0,2.493h16.807a1.247,1.247,0,0,0,.041-2.493H635.92Z" transform="translate(-472.272 -262.756)"/><path class="f" d="M635.92,371.064a1.246,1.246,0,1,0,0,2.493h33.657a1.247,1.247,0,0,0,.041-2.493h-33.7Z" transform="translate(-472.272 -288.364)"/><circle class="a" cx="2.654" cy="2.654" r="2.654" transform="translate(171.197 112.662)"/><path class="a" d="M693.455,456.411a1.374,1.374,0,1,0,0,2.749h64.793a1.375,1.375,0,1,0,.045-2.749H693.455Z" transform="translate(-508.665 -342.469)"/><circle class="a" cx="2.654" cy="2.654" r="2.654" transform="translate(171.197 125.554)"/><path class="a" d="M693.455,491.63a1.374,1.374,0,1,0,0,2.749h64.793a1.375,1.375,0,1,0,.045-2.749H693.455Z" transform="translate(-508.665 -364.796)"/><circle class="a" cx="2.654" cy="2.654" r="2.654" transform="translate(171.197 138.446)"/><path class="a" d="M693.455,526.849a1.374,1.374,0,1,0,0,2.749h64.793a1.375,1.375,0,1,0,.045-2.749H693.455Z" transform="translate(-508.665 -387.123)"/><circle class="a" cx="2.654" cy="2.654" r="2.654" transform="translate(171.197 151.338)"/><path class="a" d="M693.455,562.068a1.374,1.374,0,1,0,0,2.749h64.793a1.375,1.375,0,1,0,.045-2.749H693.455Z" transform="translate(-508.665 -409.45)"/><circle class="a" cx="2.654" cy="2.654" r="2.654" transform="translate(171.197 164.23)"/><path class="a" d="M693.455,597.287a1.374,1.374,0,1,0,0,2.749h64.793a1.375,1.375,0,1,0,.045-2.749H693.455Z" transform="translate(-508.665 -431.777)"/><circle class="a" cx="2.654" cy="2.654" r="2.654" transform="translate(171.197 177.122)"/><path class="a" d="M693.455,632.506a1.374,1.374,0,1,0,0,2.749h64.793a1.375,1.375,0,1,0,.045-2.749H693.455Z" transform="translate(-508.665 -454.104)"/><circle class="a" cx="2.654" cy="2.654" r="2.654" transform="translate(171.197 190.014)"/><path class="a" d="M693.455,667.725a1.374,1.374,0,1,0,0,2.749h64.793a1.375,1.375,0,0,0,.045-2.749H693.455Z" transform="translate(-508.665 -476.431)"/><path class="a" d="M967.307,545.87c-.057,1.4-1.471,30.281-20.874,46.062q-1.217.99-2.529,1.907l-.66-.645h.383a1.706,1.706,0,0,0,1.706-1.706v-56.93c.406-2.184.789-4.33,1.138-6.419,1.892-11.356,2.768-20.95,1.35-24.935.614,1.539,12.945,33.026,6.249,65.109C960.7,559.232,967,549.7,967.307,545.87Z" transform="translate(-667.889 -372.134)"/></g></svg>