<svg xmlns="http://www.w3.org/2000/svg" width="379.063" height="262.062" viewBox="0 0 379.063 262.062"><defs><style>.a{fill:#e6e6e6;}.b{fill:#fff;}.c{fill:#3f3d56;}.d{fill:#4291e2;}.e{fill:#f2f2f2;}.f{fill:#a0616a;}.g{fill:#2f2e41;}</style></defs><path class="a" d="M262.373,546.97l-4.875-7.877a116.59,116.59,0,0,1,5.4-11.979l3.2,2.693-2.5-4.033c2.552-4.783,4.545-7.789,4.545-7.789s9.77,16.1,12.8,33.006L274.3,560.84l7.263-5.629a47.173,47.173,0,0,1,.273,5.922c-.4,19.938-7.238,35.97-15.271,35.808s-14.219-16.456-13.818-36.394a62.1,62.1,0,0,1,3.7-18.563Z" transform="translate(-211.437 -357.934)"/><path class="a" d="M210.124,569.159l-8.244-4.223a116.6,116.6,0,0,1-1.565-13.048l4.132.651-4.221-2.162c-.288-5.414-.135-9.017-.135-9.017s16.688,8.735,28.02,21.637l-.608,11.871,3.308-8.573a47.184,47.184,0,0,1,3.295,4.928c9.963,17.275,12.4,34.534,5.437,38.547s-20.678-6.737-30.641-24.013a62.1,62.1,0,0,1-6.426-17.8Z" transform="translate(-181.246 -371.329)"/><path class="a" d="M279.19,722c-9.5.608-19.851-.035-30.862,0V696.79a111.235,111.235,0,0,0,30.862,0Z" transform="translate(-208.916 -460.411)"/><path class="a" d="M553.261,146.275,452.445,162.509l-.427-98.01L552.834,0Z" transform="translate(-259.064)"/><path class="b" d="M550.172,160.253l-87.146,18.8V97.029l87.146-47.3Z" transform="translate(-265.373 -28.502)"/><path class="c" d="M548.511,112.456l-73.476,32.9V133.815l73.476-36.3Z" transform="translate(-272.256 -55.89)"/><path class="d" d="M548.511,184.776l-73.476,25.915V199.3l73.476-29.265Z" transform="translate(-272.256 -97.452)"/><path class="a" d="M694.088,313.895a.275.275,0,0,1,.53-.017l1.19,3.749,1.425,4.492a.275.275,0,0,1-.156.337l-2.754,1.148-2.421,1.009a.275.275,0,0,1-.373-.32l1.324-5.377Z" transform="translate(-462.922 -240.843)"/><path class="a" d="M684.048,379.2a.454.454,0,0,1,.874-.029l1,3.143,1.376,4.335a.454.454,0,0,1-.258.557l-2.6,1.085-2.093.872a.454.454,0,0,1-.616-.528l1.239-5.033Z" transform="translate(-457.3 -278.195)"/><path class="e" d="M548.511,255.611l-73.476,18.927V262.446l73.476-22.482Z" transform="translate(-272.256 -137.53)"/><path class="c" d="M792.331,290.1c0,2.573-1.153,5.131-2.563,5.709s-2.523-1.019-2.523-3.551,1.125-5.078,2.523-5.692S792.331,287.529,792.331,290.1Z" transform="translate(-517.784 -225.224)"/><path class="b" d="M792.868,295.074a2.18,2.18,0,0,1-.854,1.911c-.47.2-.85-.335-.85-1.188a2.189,2.189,0,0,1,.85-1.909C792.485,293.686,792.868,294.216,792.868,295.074Z" transform="translate(-520.03 -229.472)"/><path class="d" d="M792.331,360.152c0,2.573-1.153,5.131-2.563,5.709s-2.523-1.019-2.523-3.551,1.125-5.078,2.523-5.692S792.331,357.58,792.331,360.152Z" transform="translate(-517.784 -265.373)"/><path class="b" d="M792.868,365.126a2.18,2.18,0,0,1-.854,1.911c-.47.2-.85-.335-.85-1.188a2.189,2.189,0,0,1,.85-1.909C792.485,363.737,792.868,364.268,792.868,365.126Z" transform="translate(-520.03 -269.621)"/><path class="e" d="M792.331,430.2c0,2.573-1.153,5.131-2.563,5.709s-2.523-1.019-2.523-3.551,1.125-5.078,2.523-5.692S792.331,427.631,792.331,430.2Z" transform="translate(-517.784 -305.521)"/><path class="b" d="M792.868,435.177a2.18,2.18,0,0,1-.854,1.911c-.47.2-.85-.335-.85-1.188a2.189,2.189,0,0,1,.85-1.909C792.485,433.789,792.868,434.319,792.868,435.177Z" transform="translate(-520.03 -309.769)"/><path class="a" d="M700.048,437.249a.454.454,0,0,1,.874-.029l1,3.143L703.3,444.7a.454.454,0,0,1-.258.557l-2.6,1.085-2.093.872a.454.454,0,0,1-.616-.528l1.239-5.033Z" transform="translate(-466.47 -311.463)"/><path class="f" d="M657.754,406.441l3.975-3.666s9-6.2,5.855-9.6-9.477,4.538-9.477,4.538l-3.931,2.575Z" transform="translate(-441.518 -285.912)"/><path class="g" d="M535.993,415.847l-2.315,3.187s-3.236,12.443,13.138,13.1c0,0,20.912,10.138,26.088,3.786s19.46-21.629,19.46-21.629l-8.4-8.539-17.123,17.9-16.612-8.324S541.671,410.61,535.993,415.847Z" transform="translate(-372.309 -293.611)"/><path class="a" d="M328.815,424.679l-21.68,79.875,2.731.546,22.772-80.421Z" transform="translate(-176.028 -243.395)"/><path class="a" d="M414.36,424.679l21.68,79.875-2.731.546-22.772-80.421Z" transform="translate(-235.29 -243.395)"/><path class="a" d="M384.8,419.373l3.636,81.647,3.157.14-4.061-82.881Z" transform="translate(-220.537 -239.728)"/><path class="a" d="M526.859,556.755c0,2.071-5.669,4.294-13.11,5.008-7.986.767-14.9-.478-14.9-2.832s6.917-4.673,14.9-5.148C521.189,553.342,526.859,554.684,526.859,556.755Z" transform="translate(-352.495 -378.402)"/><path class="g" d="M579.357,528.053l5.463,3.824s23.489,16.934,21.3,23.489-14.2,32.775-14.2,32.775l-15.295-4.916,17.48-27.859-9.286-8.74L579.9,534.608Z" transform="translate(-397.072 -363.703)"/><path class="g" d="M524.439,502.343s-10.925,16.934-4.37,21.85S545.2,548.228,545.2,548.228l3.824,8.74,13.656,44.246,16.934-8.74L564.314,558.06s-1.639-12.564-7.1-19.665-7.647-17.48-7.647-17.48L551.2,516l-9.781-15.65Z" transform="translate(-363.457 -347.826)"/><path class="g" d="M576,657.45l-9.818-2.988s-10.6-.437-10.056,3.387,9.286,28.951,12.017,27.312.546-9.286.546-9.286Z" transform="translate(-385.31 -436.143)"/><path class="f" d="M388.338,237.21l-5.462,6.009,8.74,14.2L395.44,246.5Z" transform="translate(-219.437 -135.952)"/><path class="d" d="M544.76,407.949l-9.7-16.067-3.408.772v5.462L530.558,444l18.026-2.731S549.677,411.773,544.76,407.949Z" transform="translate(-370.67 -285.66)"/><path class="g" d="M504.641,408.438l-8.194-14.749-7.1,3.277-12.564,51.347-7.647,14.749s25.127,12.564,31.136,0,6.555-40.422,6.555-40.422Z" transform="translate(-335.466 -286.696)"/><path class="g" d="M496.08,403.323l-3.277-2.185s-12.564-2.731-12.564,13.656c0,0-9.286,21.3-2.731,26.22s22.4,18.572,22.4,18.572l8.194-8.74-18.572-16.387,7.647-16.934S501.542,408.786,496.08,403.323Z" transform="translate(-338.923 -290.867)"/><path class="f" d="M533.118,524.2l3.824,3.824s6.555,8.74,9.832,5.463-4.916-9.286-4.916-9.286l-2.731-3.824Z" transform="translate(-372.137 -359.303)"/><path class="g" d="M561.286,417.907l9.373,22.983s3.824,11.471,3.824,15.841v12.018L564.1,455.093S558.468,419.5,561.286,417.907Z" transform="translate(-387.829 -300.576)"/><path class="g" d="M630.934,718.912s-2.706,10.655.846,11.557,33.351,1.665,33.37-3.371-19.34-9.2-19.34-9.2l-7.152-4.589Z" transform="translate(-427.632 -469.88)"/><circle class="f" cx="9.832" cy="9.832" r="9.832" transform="translate(165.897 91.699)"/><path class="g" d="M562.373,357.089s1.921-8.322,0-10.243v1.28s-1.28-4.481-3.841-3.2c0,0-3.2-2.561-3.841-1.28-3.767-3.406-20.47-.213-12.362,17.668,0,0,1.478-5.5,1.478-3.583,0,0,3.841-3.841,4.481-5.122S559.813,359.65,562.373,357.089Z" transform="translate(-376.159 -257.324)"/><rect class="c" width="379.063" height="0.957" transform="translate(0 261.106)"/></svg>