<svg xmlns="http://www.w3.org/2000/svg" width="273.812" height="210.283" viewBox="0 0 273.812 210.283"><defs><style>.a,.c{fill:#f2f2f2;}.b{fill:#3f3d56;}.c{opacity:0.61;}.d{fill:#ff6584;}.e{fill:#4291e2;}.f{fill:#ffb9b9;}.g{fill:#2f2e41;}.h{fill:#d0cde1;}.i{opacity:0.1;}.j{fill:none;stroke:#3f3d56;stroke-miterlimit:10;stroke-width:2px;}</style></defs><rect class="a" width="0.626" height="52.208" transform="translate(235.168 28.78)"/><rect class="a" width="0.626" height="52.208" transform="translate(214.208 28.78)"/><path class="b" d="M848,138" transform="translate(-788.676 -130.839)"/><path class="c" d="M615.632,222.463c-7.519,43.176-2.935,85.64,31.63,100.118s76.445-6.872,93.541-47.687-16.654-62.477-31.63-100.118C678.762,98.338,638.98,88.38,615.632,222.463Z" transform="translate(-612.536 -117.806)"/><ellipse class="d" cx="2.044" cy="2.044" rx="2.044" ry="2.044" transform="translate(29.711 173.444)"/><line class="b" y1="23.278" transform="translate(21.739 186.143)"/><rect class="b" width="0.626" height="23.278" transform="translate(21.426 186.144)"/><ellipse class="b" cx="3.292" cy="3.292" rx="3.292" ry="3.292" transform="translate(18.447 182.852)"/><path class="b" d="M935.825,736.159s.47-10.114,10.111-8.939" transform="translate(-914.086 -535.669)"/><rect class="a" width="94.475" height="0.626" transform="translate(167.762 28.468)"/><rect class="a" width="94.475" height="0.626" transform="translate(167.762 57.561)"/><rect class="a" width="94.475" height="0.626" transform="translate(167.762 80.71)"/><rect class="b" width="84.151" height="0.626" transform="translate(171.673 109.021)"/><path class="b" d="M192.681,457.745a5.318,5.318,0,1,0-5.318-5.318,5.318,5.318,0,0,0,5.318,5.318Zm0-10.011a4.692,4.692,0,1,1-4.692,4.692A4.692,4.692,0,0,1,192.681,447.735Z" transform="translate(67.992 -343.25)"/><rect class="b" width="0.626" height="28.155" transform="translate(235.159 81.023)"/><rect class="b" width="0.626" height="51.304" transform="translate(214.199 57.873)"/><rect class="b" width="0.626" height="80.397" transform="translate(192.927 28.78)"/><ellipse class="e" cx="4.564" cy="4.564" rx="4.564" ry="4.564" transform="translate(230.917 104.614)"/><ellipse class="e" cx="4.564" cy="4.564" rx="4.564" ry="4.564" transform="translate(209.81 104.614)"/><ellipse class="e" cx="4.564" cy="4.564" rx="4.564" ry="4.564" transform="translate(188.703 104.614)"/><ellipse class="e" cx="4.38" cy="4.38" rx="4.38" ry="4.38" transform="translate(188.722 24.401)"/><ellipse class="e" cx="4.38" cy="4.38" rx="4.38" ry="4.38" transform="translate(188.835 53.459)"/><ellipse class="e" cx="4.38" cy="4.38" rx="4.38" ry="4.38" transform="translate(209.994 53.494)"/><ellipse class="e" cx="4.38" cy="4.38" rx="4.38" ry="4.38" transform="translate(210.108 76.609)"/><ellipse class="e" cx="4.38" cy="4.38" rx="4.38" ry="4.38" transform="translate(230.954 76.643)"/><ellipse class="a" cx="4.067" cy="4.067" rx="4.067" ry="4.067" transform="translate(265.678 24.714)"/><ellipse class="a" cx="4.067" cy="4.067" rx="4.067" ry="4.067" transform="translate(265.678 53.494)"/><ellipse class="a" cx="4.067" cy="4.067" rx="4.067" ry="4.067" transform="translate(265.678 76.956)"/><rect class="b" width="21.898" height="2.048" transform="translate(247.847)"/><rect class="b" width="21.898" height="2.048" transform="translate(247.847 4.607)"/><rect class="b" width="21.898" height="2.048" transform="translate(247.847 9.214)"/><path class="f" d="M817.3,195.2s-5.914,7.577-5.174,12.936-12.2-7.392-12.2-7.392,4.435-9.24,2.033-13.675S817.3,195.2,817.3,195.2Z" transform="translate(-742.934 -163.905)"/><path class="g" d="M797.908,705.452s-7.762,8.5-6.468,10.349,24.024,8.87,26.611,8.5,3.881-2.218,2.957-2.772-6.838-3.7-6.838-3.7l-4.99-5.729s-3.7-2.033-3.7-3.142S797.908,705.452,797.908,705.452Z" transform="translate(-744.242 -520.775)"/><path class="f" d="M824,735.579s2.957,4.8,3.511,4.99-2.772,6.837-2.772,6.837l-7.762-2.4-4.25-3.511.924-4.8Z" transform="translate(-757.209 -541.478)"/><path class="h" d="M786.668,442.574l3.7,16.447s12.751,28.644,3.881,33.634l-19.4,37.145-10.349-4.62,17.371-38.069-7.946-43.8Z" transform="translate(-711.935 -340.133)"/><path class="i" d="M786.668,442.574l3.7,16.447s12.751,28.644,3.881,33.634l-19.4,37.145-10.349-4.62,17.371-38.069-7.946-43.8Z" transform="translate(-711.935 -340.133)"/><path class="h" d="M823.1,448.408h1.875a104.489,104.489,0,0,1-.951,17c-1.294,9.425-4.62,31.046-4.62,31.046s.369,4.066-.739,5.359-1.293-.37-1.478,2.587-1.94,23.514-1.94,23.514-1.2,4.205.092,5.13,3.881,5.914,2.033,6.653-14.6,1.663-15.154,1.109,0-35.3,0-35.3.37-7.022.739-7.392,2.033-5.359,1.478-6.468-.185-4.435-.185-4.99,1.663,0,.185-2.4-1.663-21.622-1.663-21.622-7.946-12.2-5.544-15.338Z" transform="translate(-749.66 -343.381)"/><ellipse class="f" cx="12.197" cy="12.197" rx="12.197" ry="12.197" transform="translate(56.992 9.671)"/><path class="g" d="M802.08,226.365s7.392,1.848,10.349,6.283l2.587.554v2.587s4.8,15.338,3.7,21.991,0,19.589,1.848,23.1,2.4,4.25,1.478,5.729-2.218,6.468-1.294,8.686,0,4.435-8.5,4.99-20.513.554-20.513-2.4.739-11.273,0-13.49a10.519,10.519,0,0,1-.739-5.729c.37-2.033-.739-24.763-.739-24.763S790.068,231.17,802.08,226.365Z" transform="translate(-745.088 -191.561)"/><path class="f" d="M751,408.9l10.164,15.154s10.719,9.794,6.838,14.23-14.045-12.936-14.045-12.936l-11.088-12.566Z" transform="translate(-676.64 -316.995)"/><path class="g" d="M770.715,749.206s.37-2.4,1.663-2.4,9.979,5.914,9.979,5.914,11.923,5.13,6.889,5.444c-5.005.313-31.468,1.024-31.652.1s-.554-10.036.739-10.008,11.642,2.061,11.642,2.061Z" transform="translate(-702.82 -549.191)"/><path class="g" d="M793.675,135.573a3.059,3.059,0,0,0,1.394.315c.5.028,1.093,0,1.359-.426a1.946,1.946,0,0,0,.17-.887,2.924,2.924,0,0,1,3.417-2.49,4.209,4.209,0,0,1-.544,1.734,3.708,3.708,0,0,0,3.26-.434l.188,2.489a2.031,2.031,0,0,0,2.09-.071,1.158,1.158,0,0,0-.03-1.853c.808-.168,1.8-.53,1.855-1.353.054-.751-.743-1.3-.89-2.039-.12-.6.211-1.257-.023-1.825-.307-.746-1.421-.937-1.645-1.713a6.709,6.709,0,0,1,.011-1.226c-.1-1.071-1.449-1.515-2.523-1.454s-2.246.346-3.158-.224a9.137,9.137,0,0,1-1.14-1.066,3.386,3.386,0,0,0-3.932-.342,6.68,6.68,0,0,1-1.29.8c-.986.334-2.014-.3-3.045-.444a2.53,2.53,0,0,0-2.121.614,1.736,1.736,0,0,0-.316,2.092,3.4,3.4,0,0,0-1.815.026,1.172,1.172,0,0,0-.742,1.462,1.893,1.893,0,0,1,.23.47c.054.322-.257.6-.57.69s-.653.075-.96.187c-1.267.464-.963,2.489-1.96,3.4a7.954,7.954,0,0,1-1.081.661,2.63,2.63,0,0,0-.927,3.177,2.911,2.911,0,0,1,.494,1.349c-.057.679-.784,1.05-1.294,1.5a3.011,3.011,0,0,0-.7,3.457c.469.979,1.485,1.72,1.588,2.8.045.47-.1.938-.088,1.41a2.9,2.9,0,0,0,1.249,2.193,6.5,6.5,0,0,0,2.4,1c.4.1.884.247.981.65.116.477-.417.912-.362,1.4a.812.812,0,0,0,.326.528,1.658,1.658,0,0,0,2.3-.722,4.8,4.8,0,0,0,.316-2.687L785.9,145.4c-.077-1.033-.07-2.259.772-2.862.931-.667,2.286-.127,3.338-.577a3.059,3.059,0,0,0,1.446-3.035,17.762,17.762,0,0,1-.189-3.563c.243-1.458,1.54-2.438,2.85-1.493C792.965,133.717,792.766,135.038,793.675,135.573Z" transform="translate(-725.354 -120.006)"/><path class="i" d="M806.646,254.5s7.392,2.957,7.392,9.24-.37,14.6.924,17.371,2.4,3.7,1.663,5.914-2.033,1.848,0,3.511,1.848-1.109,2.033,1.663-1.848,3.142,0,4.435,6.653,6.468,4.62,8.131-7.392,7.022-9.24,4.99-2.772-7.207-5.359-6.838-2.957.554-2.587-1.294,2.033-1.848-.185-2.4-3.142.739-2.4-1.109,1.294-2.587-.185-4.62-2.218-2.587-2.033-4.62-4.066-20.328-4.066-20.328S795.927,253.023,806.646,254.5Z" transform="translate(-748.545 -210.828)"/><path class="i" d="M800.147,253.32s7.392,2.957,7.392,9.24-.37,14.6.924,17.371,2.4,3.7,1.663,5.914-2.033,1.848,0,3.511,1.848-1.109,2.033,1.663-1.848,3.142,0,4.435,6.653,6.468,4.62,8.131-7.392,7.022-9.24,4.99-2.772-7.207-5.359-6.838-2.957.554-2.587-1.294,2.033-1.848-.185-2.4-3.142.739-2.4-1.109,1.294-2.587-.185-4.62-2.218-2.587-2.033-4.62-4.066-20.328-4.066-20.328S789.429,251.842,800.147,253.32Z" transform="translate(-740.014 -210.015)"/><path class="g" d="M803.1,251.548s7.392,2.957,7.392,9.24-.37,14.6.924,17.371,2.4,3.7,1.663,5.914-2.033,1.848,0,3.511,1.848-1.109,2.033,1.663-1.848,3.142,0,4.435,6.653,6.468,4.62,8.131-7.392,7.022-9.24,4.99-2.772-7.207-5.359-6.838-2.957.554-2.587-1.294,2.033-1.848-.185-2.4-3.142.739-2.4-1.109,1.294-2.587-.185-4.62-2.218-2.587-2.033-4.62-4.066-20.328-4.066-20.328S792.382,250.069,803.1,251.548Z" transform="translate(-743.891 -208.798)"/><line class="j" x2="168.928" transform="translate(18.543 209.283)"/><rect class="b" width="21.898" height="2.048" transform="translate(159.003 149.533)"/><rect class="b" width="21.898" height="2.048" transform="translate(159.003 154.14)"/><rect class="b" width="21.898" height="2.048" transform="translate(159.003 158.747)"/><path class="g" d="M515.2,652a30.3,30.3,0,0,0,26.093-15.01l.158-.271-26.016-15V591.644h-.314A30.177,30.177,0,0,0,515.2,652Zm25.393-15.054a29.553,29.553,0,1,1-25.783-44.672v29.807l.156.09Z" transform="translate(-368.562 -442.57)"/><ellipse class="e" cx="11.355" cy="11.355" rx="11.355" ry="11.355" transform="translate(135.281 167.897)"/><circle class="g" cx="5.663" cy="5.663" r="5.663" transform="translate(140.973 173.589)"/><rect class="e" width="7.508" height="7.508" transform="translate(164.122 24.992)"/><rect class="e" width="7.508" height="7.508" transform="translate(164.122 53.772)"/><rect class="e" width="7.508" height="7.508" transform="translate(164.122 77.235)"/><path class="b" d="M488,459.134h8.134V451H488Zm7.508-.626h-6.882v-6.882h6.882Z" transform="translate(-324.191 -345.924)"/></svg>