<svg xmlns="http://www.w3.org/2000/svg" width="379.063" height="213.254" viewBox="0 0 379.063 213.254"><defs><style>.a{fill:#e6e6e6;}.b{opacity:0.1;}.c{fill:#3f3d56;}.d{fill:#f2f2f2;}.e{fill:#2f2e41;}.f{fill:#ffb8b8;}.g{fill:#4291e2;}.h{fill:#444053;}</style></defs><g transform="translate(116.999 0.028)"><path class="a" d="M516.326,380.018v58.907l9.853,16.058.75,1.221h38.879l.786-76.187Z" transform="translate(-351.913 -259.029)"/><path class="b" d="M516.326,380.018v58.907l9.853,16.058.6-74.966Z" transform="translate(-351.913 -259.029)"/><path class="a" d="M113.971,375.084v58.908l-9.853,16.058-.75,1.221H64.489L63.7,375.084Z" transform="translate(-43.418 -255.666)"/><path class="b" d="M199.181,375.084v58.908l-9.853,16.058-.6-74.966Z" transform="translate(-128.628 -255.666)"/><path class="a" d="M258.952,346.167V349.7H47.67V344.6l19.636-10.211H241.673Z" transform="translate(-32.49 -227.927)"/><path class="b" d="M258.952,368.022v3.534H47.67v-5.105Z" transform="translate(-32.49 -249.782)"/><path class="c" d="M114.055,421h-9.425L100.7,418.25h17.672Z" transform="translate(-68.635 -285.087)"/><path class="c" d="M114.055,456.765h-9.425l-3.927-2.749h17.672Z" transform="translate(-68.635 -309.464)"/><path class="c" d="M114.055,507.33h-9.425l-3.927-2.749h17.672Z" transform="translate(-68.635 -343.928)"/><path class="c" d="M114.055,557.9h-9.425l-3.927-2.749h17.672Z" transform="translate(-68.635 -378.392)"/><path class="c" d="M586.011,425.932h9.425l3.927-2.749H581.691Z" transform="translate(-396.464 -288.449)"/><path class="c" d="M586.011,461.7h9.425l3.927-2.749H581.691Z" transform="translate(-396.464 -312.827)"/><path class="c" d="M586.011,512.264h9.425l3.927-2.749H581.691Z" transform="translate(-396.464 -347.291)"/><path class="c" d="M586.011,562.829h9.425l3.927-2.749H581.691Z" transform="translate(-396.464 -381.755)"/><path class="c" d="M683.558,235.615H604.211a3,3,0,0,0-3,3v53.45a3,3,0,0,0,3,3h30.121l-1.128,7.2s-6.449,3.426-1.915,3.527,25.9,0,25.9,0,4.131,0-2.418-3.628l-1.062-7.1h29.852a3,3,0,0,0,3-3v-53.45a3,3,0,0,0-3-3Z" transform="translate(-487.594 -197.278)"/><rect class="d" width="79.606" height="44.539" transform="translate(116.488 41.511)"/><circle class="d" cx="0.504" cy="0.504" r="0.504" transform="translate(155.787 39.597)"/><circle class="d" cx="1.915" cy="1.915" r="1.915" transform="translate(154.377 91.794)"/><path class="c" d="M365.414,350.188V351.2H311.2v-.806l.075-.2,1.336-3.628h51.693Z" transform="translate(-212.106 -236.225)"/><path class="c" d="M758.8,462.586c-.1.422-.472.868-1.314,1.289-3.023,1.512-9.17-.4-9.17-.4s-4.736-.806-4.736-2.922a3.783,3.783,0,0,1,.415-.247c1.271-.672,5.485-2.332,12.957.07a3.116,3.116,0,0,1,1.42.931,1.486,1.486,0,0,1,.427,1.282Z" transform="translate(-584.629 -349.611)"/><path class="b" d="M759.688,462.586c-3.7,1.418-7,1.524-10.383-.827a7.433,7.433,0,0,0-4.422-1.456c1.271-.672,5.485-2.332,12.957.07a3.115,3.115,0,0,1,1.42.931,1.486,1.486,0,0,1,.427,1.282Z" transform="translate(-585.517 -349.611)"/><ellipse class="d" cx="1.31" cy="0.403" rx="1.31" ry="0.403" transform="translate(168.221 111.342)"/><path class="b" d="M365.414,357.952v1.008H311.2v-.806l.075-.2Z" transform="translate(-212.106 -243.99)"/><path class="e" d="M317.376,115.139a2.724,2.724,0,0,0-1.58.353,4.122,4.122,0,0,0-1.069,1.41,16.871,16.871,0,0,1-4.6,5.192c-1.366,1-3.1,2.248-2.868,4.093a5.532,5.532,0,0,0,.666,1.728c1.26,2.543,4.7,4.509,4.36,7.411,1.252-2.1-.423-3.132.829-5.227.6-1,1.632-2.124,2.532-1.5.3.21.5.586.813.77.749.439,1.545-.4,2.208-1,2.285-2.051,5.535-1.514,8.379-.875,1.343.3,2.817.7,3.611,1.981,1.044,1.687-.991,3.509-1.506,5.417a1.039,1.039,0,0,0,1.115,1.294c.853-.084,1.864-.153,1.915-.528,1.074.038,2.389-.083,2.849-1.2a4.7,4.7,0,0,0,.221-1.367,28.117,28.117,0,0,1,1.494-5.378c.528-1.787.758-3.882-.133-5.466a6.325,6.325,0,0,0-1.167-1.419C330.391,115.939,323.743,115.132,317.376,115.139Z" transform="translate(-287.233 -115.159)"/><path class="f" d="M317.766,186.326s1.1,9.164-2.932,9.9,3.666,13.2,3.666,13.2l18.328,2.2-4.4-14.662s-2.932-1.1-1.1-8.431S317.766,186.326,317.766,186.326Z" transform="translate(-291.611 -162.494)"/><path class="f" d="M47.028,569.318l1.466,20.161h7.7l-2.2-20.161Z" transform="translate(-32.053 -388.051)"/><path class="f" d="M224.3,448.031l1.1,16.861,8.431-3.665-3.3-13.929Z" transform="translate(-152.878 -304.885)"/><path class="e" d="M274.167,409.189s.367,21.26,2.566,28.225,1.833,7.331,1.466,8.431-.733.367-.733,2.2-.733,30.79,0,33.356-2.2,6.965,0,7.331,12.463,0,12.829-2.2-2.932-2.932-1.466-4.4,3.666-31.524,3.666-31.524l5.132-20.894,9.53-11h20.16l6.231,24.193s-2.566,6.965-.733,6.965,12.829,2.2,12.829-5.865-3.666-31.89-4.4-32.623.367-3.3-.733-4.4-13.929-8.8-18.694-10.263-11.45-3.211-11.45-3.211Z" transform="translate(-264.69 -304.898)"/><path class="e" d="M477.738,596.363a6.592,6.592,0,0,0-8.064,3.666c-2.566,5.5-1.466,6.964-1.466,6.964s8.431,2.932,9.9,1.466c.638-.638,2.664-.859,4.749-.906,3.176-.071,4.021-4.564,1.021-5.61q-.134-.047-.272-.081C480.671,601.128,477.738,596.363,477.738,596.363Z" transform="translate(-396.783 -442.954)"/><circle class="f" cx="10.997" cy="10.997" r="10.997" transform="translate(23.406 7.887)"/><path class="g" d="M287.935,228.728s17.961,3.666,22.36-2.2,6.231,16.495,6.231,16.495l2.2,23.459-3.3,12.829S298.2,293.241,292.7,294.341s-13.929,1.833-13.929,1.833,2.566-40.687,2.566-41.42S287.935,228.728,287.935,228.728Z" transform="translate(-267.828 -190.416)"/><path class="e" d="M276.621,211.709s-4-2.289-5.1-.09-11.363,7.7-12.463,7.7,2.2,30.424.733,34.09-8.431,30.424-4.4,32.623,1.1-2.2,5.132,3.3,23.826,5.5,24.926,3.3-8.8-18.694-6.965-34.09,4.765-36.655,2.2-39.588A25.5,25.5,0,0,1,276.621,211.709Z" transform="translate(-251.052 -180.272)"/><path class="e" d="M366.258,217.959l.511-1.757s15.251,5.056,15.984,8.355.367,26.392-2.2,28.225-6.231,4.765-3.666,9.164,5.5,9.164,7.7,9.53,6.231,2.932,5.132,5.5-14.3-2.2-14.3-2.2-8.8-6.6-8.431-16.861S366.258,217.959,366.258,217.959Z" transform="translate(-327.457 -184.046)"/><path class="f" d="M371.106,357.554l-8.8,16.495s-12.829,13.2-5.5,14.662,11.363-12.1,11.363-12.1l9.53-13.562Z" transform="translate(-319.475 -280.388)"/><path class="e" d="M323.092,124.18a2.5,2.5,0,0,0-1.286.249,3,3,0,0,0-.87,1,12.665,12.665,0,0,1-3.742,3.67c-1.112.707-2.525,1.589-2.335,2.893a3.618,3.618,0,0,0,.542,1.221,9.6,9.6,0,0,1,1.167,5.987l3.057-4.443c.485-.705,1.328-1.5,2.061-1.059.245.148.406.414.662.544.609.311,1.258-.283,1.8-.7,1.86-1.45,4.506-1.07,6.821-.618a4.469,4.469,0,0,1,2.939,1.4c1.074,1.507-.047,3.685.579,5.426a1.6,1.6,0,0,0,.662-1.056c.874.027,1.945-.059,2.319-.849a2.926,2.926,0,0,0,.18-.966,17.874,17.874,0,0,1,1.216-3.8,4.513,4.513,0,0,0-.109-3.864,4.674,4.674,0,0,0-.95-1C333.687,124.746,328.275,124.175,323.092,124.18Z" transform="translate(-292.413 -121.322)"/><path class="e" d="M400.271,237.836l3.415.907s7.948,20.354,6.115,34.283-2.932,11-2.932,11-2.932-6.6-9.53-5.132Z" transform="translate(-348.641 -198.792)"/><path class="e" d="M280.141,737.129c-.884,1.2-.707,2.918-1.49,4.188-.679,1.1-1.958,1.677-2.807,2.652a7.114,7.114,0,0,0-.722,1.038c-.788,1.319-1.428,3.01-.652,4.336a4.655,4.655,0,0,0,3.138,1.768,11.515,11.515,0,0,0,4.637.372,4.618,4.618,0,0,0,3.589-2.679,10.342,10.342,0,0,1,.384-1.083c.833-1.641,3.448-1.659,4.3-3.289.6-1.141.048-2.521-.5-3.686l-1.675-3.559c-.556-1.181-2.81-.5-3.985-.785C282.827,736.032,281.243,735.626,280.141,737.129Z" transform="translate(-264.658 -538.366)"/><path class="f" d="M254.6,375.085l15.4,23.826s9.53,12.1,12.463,6.6-10.263-14.662-10.263-14.662l-9.9-18.328Z" transform="translate(-251.352 -290.588)"/><path class="e" d="M255.349,238.569l-2.932-.733s-5.865,1.833-7.331,9.53-.367,38.488,1.466,38.854,9.052-5.361,10.208-4.147-2.51-5.017-1.41-8.316S255.349,238.569,255.349,238.569Z" transform="translate(-244.406 -198.792)"/><g transform="translate(127.352 56.139)"><rect class="g" width="9.474" height="2.281" transform="translate(11.93)"/><rect class="g" width="3.333" height="2.281" transform="translate(50.879)"/><rect class="g" width="3.333" height="2.281" transform="translate(57.546)"/><rect class="g" width="22.632" height="2.281" transform="translate(24.738)"/><rect class="g" width="9.474" height="2.281" transform="translate(0 14.737)"/><rect class="g" width="3.333" height="2.281" transform="translate(38.948 14.737)"/><rect class="g" width="3.333" height="2.281" transform="translate(45.615 14.737)"/><rect class="g" width="22.632" height="2.281" transform="translate(12.807 14.737)"/><rect class="g" width="9.474" height="2.281" transform="translate(39.124 5.088)"/><rect class="g" width="9.474" height="2.281" transform="translate(51.931 5.088)"/><rect class="g" width="3.333" height="2.281" transform="translate(0 5.088)"/><rect class="g" width="3.333" height="2.281" transform="translate(6.667 5.088)"/><rect class="g" width="22.632" height="2.281" transform="translate(13.334 5.088)"/><rect class="g" width="9.474" height="2.281" transform="translate(19.474 10)"/><rect class="g" width="9.474" height="2.281" transform="translate(6.667 10)"/><rect class="g" width="3.333" height="2.281" transform="translate(0 10)"/><rect class="g" width="3.333" height="2.281" transform="translate(58.072 10)"/><rect class="g" width="22.632" height="2.281" transform="translate(32.106 10)"/></g><path class="a" d="M262.373,546.97l-4.875-7.877a116.59,116.59,0,0,1,5.4-11.979l3.2,2.693-2.5-4.033c2.552-4.783,4.545-7.789,4.545-7.789s9.77,16.1,12.8,33.006L274.3,560.84l7.263-5.629a47.173,47.173,0,0,1,.273,5.922c-.4,19.938-7.238,35.97-15.271,35.808s-14.219-16.456-13.818-36.394a62.1,62.1,0,0,1,3.7-18.563Z" transform="translate(-328.436 -406.962)"/><path class="a" d="M210.124,569.159l-8.244-4.223a116.6,116.6,0,0,1-1.565-13.048l4.132.651-4.221-2.162c-.288-5.414-.135-9.017-.135-9.017s16.688,8.735,28.02,21.637l-.608,11.871,3.308-8.573a47.184,47.184,0,0,1,3.295,4.928c9.963,17.275,12.4,34.534,5.437,38.547s-20.678-6.737-30.641-24.013a62.1,62.1,0,0,1-6.426-17.8Z" transform="translate(-298.245 -420.358)"/><path class="h" d="M279.19,722c-9.5.608-19.851-.035-30.862,0V696.79a111.235,111.235,0,0,0,30.862,0Z" transform="translate(-325.915 -509.439)"/><rect class="c" width="379.063" height="0.957" transform="translate(-116.999 212.077)"/></g></svg>