<svg xmlns="http://www.w3.org/2000/svg" width="378.23" height="193.868" viewBox="0 0 378.23 193.868"><defs><style>.a{fill:#4291e2;}.b{opacity:0.2;}.c{fill:#3f3d56;}.d{fill:#ccc;}.e{fill:#9f616a;}.f{fill:#2f2e41;}.g{fill:#e6e6e6;}.h{fill:#ffb9b9;}.i{fill:#fff;}.j{fill:#f2f2f2;}</style></defs><g transform="translate(0 0)"><path class="a" d="M439.26,115.616l-.01.066-.027.191-2.782,19.96-17.032,6.249-.267-.128-9.536-4.529-4.931-18.919-.338-1.3.1-.039,21.095-7.925,13.711,6.364Z" transform="translate(-250.84 -67.772)"/><path class="a" d="M419.143,154.905l-9.536-4.529-5.269-20.217.1-.039,13.743,5.8Z" transform="translate(-250.84 -80.723)"/><path class="b" d="M425.855,157.2,418.6,143.3l.932-3.941-4.387-5.166-.374.317L419,139.492l-3.157,13.358.477.113,2.11-8.929,6.991,13.4Z" transform="translate(-257.312 -83.252)"/><path class="c" d="M439.26,115.861l-.037.012-21.038,7.34-13.508-4.705-.338-1.3.1-.039,21.095-7.925,13.711,6.364,0,.074Z" transform="translate(-250.84 -67.772)"/><path class="a" d="M434.771,128.385l-4.289-3.308.98-3.676,12.253-4.411,8.332.49,3.308,2.818.245.735Z" transform="translate(-267.058 -72.577)"/><path class="a" d="M404.984,117.294l9.68-.368,5.244-1.78,8.176-2.876,1.529-2.205-3.815-.683Z" transform="translate(-251.24 -67.858)"/><rect class="d" width="5.349" height="0.49" transform="translate(167.981 47.265) rotate(-19.337)"/><path class="e" d="M276.8,44.344l-2.366,11.83,11.042,8.282,5.127-15.38Z" transform="translate(-170.251 -27.51)"/><circle class="e" cx="10.648" cy="10.648" r="10.648" transform="translate(104.776 6.384)"/><path class="f" d="M340.605,449.586c.049,3.435,15.01,41.667,12.933,46.646-3.275,3.347-10.318,21.163-13.327,25.916-.394,0-2.366,5.915-2.366,5.915s4.732,7.493,9.859,4.338c6.446-15.161,22.59-23.617,22.875-43.378.779,6.242,3.079,46.311,3.079,46.311s-.441.187,9.491,1.139c1.542-23.255,7.843-62.819-6.264-87.675C372.548,446.826,340.605,449.586,340.605,449.586Z" transform="translate(-248.252 -351.88)"/><path class="f" d="M428.9,675.852c-.461.887-3.767,9.07-.759,9.891a12.089,12.089,0,0,0,6.833-.38s6.074,1.9,9.791-.514c1.735-1.735,1.341-3.312.513-4.456a4.83,4.83,0,0,0-3.583-1.931c-1.886-.135-2.485-.484-2.7-1.348C438.676,675.852,428.9,675.852,428.9,675.852Z" transform="translate(-303.492 -493.178)"/><path class="f" d="M335.37,657.027s-8.476,2.677-6.691,5.8a11.735,11.735,0,0,0,4.874,4.494s1.768,7.287,6.675,7.287c2.454,0,3.29-1.394,3.513-2.788a4.83,4.83,0,0,0-1.168-3.9c-1.239-1.429-1.415-2.1-.957-2.864C342.284,663.942,335.37,657.027,335.37,657.027Z" transform="translate(-242.412 -481.5)"/><path class="g" d="M378.342,334.548s-1.579,3.155-7.889,1.97-31.152,0-31.152,0,1.378-28.2-1.777-45.153a28.209,28.209,0,0,1,9.267-26.62l3.944-3.944c3.944-.391,12.273,11.848,12.273,11.848,2.741.459,5.3,12.11,7.482,23.135.129.63.251,1.253.372,1.875,1.006,5.14,2.407,10.861,3.246,16,.061.364.118.725.171,1.086a187.749,187.749,0,0,0,4.062,19.805Z" transform="translate(-247.735 -235.687)"/><path class="f" d="M372.078,205.063s-1.991-4.38,3.185-6.37c0,0,4.38-7.167,13.139-2.389,0,0,5.972,2.389,5.972,8.759s1.991,7.565,1.991,7.565-2.965-3.041-3.761-5.43-6.989-2.931-9.378-.542-8.361,1.991-8.361,1.991l.4,8.759s-1.991-5.176-2.787-5.176S370.883,205.063,372.078,205.063Z" transform="translate(-269.111 -194.662)"/><path class="b" d="M381.955,338.956c-9.407-5.114-24.646-16.328-29.562-22.394-6.48-7.991.588-14.065.588-14.065,8.014-5.057,17.6,12.292,17.6,12.292l7.76,6.294c.129.63.251,1.253.372,1.875C379.716,328.1,381.116,333.82,381.955,338.956Z" transform="translate(-255.58 -260.986)"/><path class="e" d="M508.706,373.121s13.986,5.678,16.287-.7-11.042-6.273-11.042-6.273l-5.239.742Z" transform="translate(-354.249 -301.044)"/><path class="g" d="M348.262,295.5s-7.065,6.078-.59,14.066,36.236,25.057,36.236,25.057l19.385-5.241,5.486,1,1.034-10.3-8.082.789-20.516-4.368L368.134,305.9S356.273,290.451,348.262,295.5Z" transform="translate(-252.653 -256.592)"/><path class="b" d="M316.544,295.362l1.236,28.883-3.134-28.883Z" transform="translate(-195.197 -183.234)"/><path class="h" d="M747.832,428.4,736.611,431a3.423,3.423,0,0,1-4.084-2.468h0a3.423,3.423,0,0,1,3.232-4.29l10.839-.252Z" transform="translate(-493.031 -336.928)"/><path class="c" d="M765.815,362.317l-2.492-7.476,14.941-5.1L774.3,314.816h0c7.139,1.3,10.537,6.912,10.219,14.162l1.933,23.829Z" transform="translate(-512.205 -269.202)"/><path class="f" d="M797.079,254.441h24.409V242.3a12.452,12.452,0,0,0-3.575-8.765,12.03,12.03,0,0,0-8.63-3.631,12.224,12.224,0,0,0-12.2,12.072c0,.111,0,.217,0,.324Z" transform="translate(-533.147 -216.527)"/><path class="f" d="M814.893,500.978l-7.8-.9-9.338-63.062-19.315,63.318-8.442.256,9.594-77.9-1.407-17.78,23.92-7.547C819.043,409.194,818.692,450.966,814.893,500.978Z" transform="translate(-516.344 -320.415)"/><circle class="h" cx="9.21" cy="9.21" r="9.21" transform="translate(264.779 17.089)"/><path class="h" d="M822.327,288.509,806.722,292.6c2.629-5.056,3.471-9.776,2.047-14.071l11-1.791a16.05,16.05,0,0,0,2.558,11.768Z" transform="translate(-539.129 -245.582)"/><path class="c" d="M809.989,340.621c-8.753,5.566-18.949,11.961-26.478,5.756l-3.582-17.4c-2.847-2.535-1.584-10.359,2.264-21.511a4.933,4.933,0,0,1,3.058-3.055l5.934-2.04c2.63,2.212,6.941.893,12.024-2.047l5.884,1.535,2.558,19.187C807.959,326.583,808.6,333.95,809.989,340.621Z" transform="translate(-521.546 -260.214)"/><path class="h" d="M817.242,418.961l-11.221,2.6a3.423,3.423,0,0,1-4.084-2.468h0a3.423,3.423,0,0,1,3.232-4.29l10.839-.252Z" transform="translate(-536.091 -331.075)"/><path class="f" d="M859.582,679.182c-1.31.6-2.408-3.109-3.514-2.023-3.092,3.039-10.51,2.358-10.51,2.358A1.933,1.933,0,0,1,844.341,677h0a1.933,1.933,0,0,1,1.341-1.2l3.288-.822,5.163-9.08,5.627-.712.142.232a14.509,14.509,0,0,1,1.555,11.863C860.989,678.783,860.352,678.831,859.582,679.182Z" transform="translate(-562.39 -486.562)"/><path class="f" d="M761.868,679.182c-1.311.6-2.408-3.109-3.514-2.023-3.092,3.039-10.51,2.358-10.51,2.358A1.933,1.933,0,0,1,746.627,677h0a1.933,1.933,0,0,1,1.341-1.2l3.288-.822,5.163-9.08,5.627-.712.142.232a14.508,14.508,0,0,1,1.555,11.863C763.275,678.783,762.638,678.831,761.868,679.182Z" transform="translate(-501.771 -486.562)"/><path class="f" d="M815.447,235.458l-2.319,7.38-20.054-.356a12.4,12.4,0,0,1,22.374-7.023Z" transform="translate(-530.661 -216.841)"/><path class="c" d="M835.226,351.645l-2.492-7.476,14.941-5.1-5.652-35.677h0a14.516,14.516,0,0,1,11.905,14.918l1.933,23.829Z" transform="translate(-555.266 -262.113)"/><path class="d" d="M612.873,148.753l-15.539,3.342-3.175-15.289,5.848-7.853,5.263-1,5.848,5.932Z" transform="translate(-368.598 -79.377)"/><path class="g" d="M604.87,158.02h-9.358l-1.276-6.3-1.4-6.9,2.088-3.007,4.013,1.253,4.343,6.017,1.09,6.131.076.437Z" transform="translate(-367.779 -87.977)"/><path class="d" d="M648.29,148.066l-10.777,1.253,1.922-13.7,4.344-3.927,3.76.919,2.507,5.765Z" transform="translate(-395.494 -81.697)"/><path class="g" d="M624.247,148.97l-1,5.516-3.257,18.8-12.532,4.013-.433-.235-6.754-3.694-3.8-18.921.019.008,10.049,4.043.087-.55.061-.4.771-4.9,3.424-3.679,11.446-2.756Z" transform="translate(-370.031 -90.707)"/><circle class="g" cx="2.673" cy="2.673" r="2.673" transform="translate(243.607 52.333)"/><rect class="i" width="6.195" height="0.167" transform="translate(233.608 57.471) rotate(-10.097)"/><path class="j" d="M604.771,174.329l-6.754-3.694-3.8-18.921.019.008-1.4-6.9,2.088-3.007,4.013,1.253,4.343,6.017,1.09,6.131.061-.4.015.835.042,2.369Z" transform="translate(-367.779 -87.977)"/><path class="d" d="M605.642,188.928l-.162-.043,3.331-12.492L605,171.364l.133-.1,3.864,5.094Z" transform="translate(-375.322 -106.247)"/><rect class="d" width="0.167" height="12.21" transform="matrix(0.901, -0.434, 0.434, 0.901, 232.051, 75.624)"/><path class="b" d="M725,352.209l-.627,3.466-.032,0-2.809,16.2L709,375.893l-.075.036-.05-.1-7.06-3.858-.081-.022.043-.164-3.764-18.738.019.008-.417-2.057.312-.449.963-1.387,4.01,1.253,4.344,6.015.063.358.456,2.567.183,1.031.387,2.178.368-2.34.132-.842.332-2.115,3.425-3.676,1.523-.367,1.06-.256,1.459-.351a2.673,2.673,0,1,1,3.665-.883l3.739-.9.922,1.323Z" transform="translate(-471.444 -289.575)"/><path class="g" d="M605.661,175.362H596.3l-2.673-13.2,2.089-3.008,4.01,1.253,4.344,6.015Z" transform="translate(-368.271 -98.735)"/><path class="g" d="M620.78,190.625l-12.532,4.01-7.185-3.927-3.8-18.923,10.067,4.052.919-5.848,3.425-3.676,11.446-2.757,1.922,2.757-1,5.514Z" transform="translate(-370.523 -101.465)"/><circle class="g" cx="2.673" cy="2.673" r="2.673" transform="translate(243.908 58.916)"/><path class="j" d="M605.581,191.329l-6.754-3.694-3.8-18.921.019.008-1.4-6.9,2.088-3.007,4.013,1.253,4.343,6.017,1.089,6.131.061-.4.015.835.042,2.369Z" transform="translate(-368.282 -98.524)"/><path class="d" d="M606.434,206.267l-.161-.043,3.331-12.493-3.815-5.029.133-.1,3.864,5.094Z" transform="translate(-375.813 -117.003)"/><rect class="d" width="0.167" height="12.21" transform="matrix(0.901, -0.434, 0.434, 0.901, 232.352, 82.207)"/><path class="d" d="M870.873,431.1l-15.539,3.342-3.175-15.289,5.848-7.853,5.263-1,5.848,5.932Z" transform="translate(-528.654 -254.535)"/><path class="g" d="M862.87,440.366h-9.358l-1.276-6.3-1.4-6.9,2.088-3.007,4.013,1.253,4.343,6.017,1.089,6.131.076.437Z" transform="translate(-527.835 -263.136)"/><path class="d" d="M906.29,430.413l-10.777,1.254,1.922-13.7,4.344-3.927,3.76.919,2.507,5.765Z" transform="translate(-555.549 -256.857)"/><path class="g" d="M882.247,431.316l-1,5.516-3.257,18.8-12.532,4.013-.433-.235-6.754-3.694-3.8-18.921.019.008,10.049,4.043.087-.55.061-.4.771-4.9,3.424-3.679,11.446-2.756Z" transform="translate(-530.086 -265.866)"/><circle class="g" cx="2.673" cy="2.673" r="2.673" transform="translate(341.552 159.52)"/><rect class="i" width="6.195" height="0.167" transform="translate(331.553 164.658) rotate(-10.097)"/><path class="j" d="M862.771,456.675l-6.754-3.694-3.8-18.921.019.008-1.4-6.9,2.088-3.007,4.013,1.253,4.343,6.017,1.089,6.131.061-.4.015.835.042,2.369Z" transform="translate(-527.835 -263.136)"/><path class="d" d="M863.642,471.274l-.162-.043,3.331-12.492L863,453.71l.133-.1,3.864,5.094Z" transform="translate(-535.377 -281.406)"/><rect class="d" width="0.167" height="12.21" transform="matrix(0.901, -0.434, 0.434, 0.901, 329.996, 182.812)"/><path class="g" d="M963.108,474.331h-10.25l-1.519-19.741h13.287Z" transform="translate(-590.182 -282.014)"/><rect class="j" width="13.667" height="3.037" transform="translate(360.967 180.548)"/><path class="d" d="M970.043,451.29l-2.185-.644-.028-.8-9.711-2.861-.458.657L955.477,447l-1.372,1.97,16.023,4.72Z" transform="translate(-591.898 -277.297)"/><path class="a" d="M92.26,430.547l-.01.066-.027.191-2.782,19.96L72.41,457.014l-.267-.128-9.536-4.529-4.931-18.919-.338-1.3.1-.039,21.095-7.925,13.711,6.364Z" transform="translate(-35.571 -263.146)"/><path class="a" d="M72.143,469.837l-9.536-4.529-5.269-20.218.1-.039,13.743,5.8Z" transform="translate(-35.571 -276.097)"/><path class="b" d="M78.855,472.135l-7.253-13.9.932-3.94-4.387-5.167-.374.317L72,454.423l-3.157,13.358.477.113,2.11-8.929,6.991,13.4Z" transform="translate(-42.044 -278.626)"/><path class="c" d="M92.26,430.793l-.037.012-21.038,7.339-13.508-4.705-.338-1.3.1-.039,21.095-7.925,13.711,6.364,0,.073Z" transform="translate(-35.571 -263.146)"/><path class="a" d="M87.771,443.317l-4.289-3.309.98-3.676,12.253-4.411,8.332.49,3.308,2.818.245.735Z" transform="translate(-51.79 -267.952)"/><path class="a" d="M57.984,432.226l9.68-.367,5.244-1.78,8.176-2.876L82.613,425l-3.815-.683Z" transform="translate(-35.972 -263.232)"/><rect class="d" width="5.349" height="0.49" transform="translate(36.25 166.821) rotate(-19.337)"/><path class="a" d="M16.769,475.527H6.519L5,455.786H18.287Z" transform="translate(-3.102 -282.756)"/><rect class="g" width="13.667" height="3.037" transform="translate(1.708 181.002)"/><path class="c" d="M15.944,451.545H13.667l-.253-.759H3.29l-.253.759H.759L0,453.823H16.7Z" transform="translate(0 -279.654)"/><rect class="c" width="230.093" height="0.759" transform="translate(76.778 192.538)"/></g></svg>