<svg xmlns="http://www.w3.org/2000/svg" width="332.856" height="242.401" viewBox="0 0 332.856 242.401"><defs><style>.a{fill:#e6e6e6;}.b{fill:#ffb8b8;}.c{fill:#2f2e41;}.d{fill:#3f3d56;}.e{fill:#4291e2;}.f{fill:#fff;}</style></defs><g transform="translate(0 0)"><path class="a" d="M892.545,485.523a144.212,144.212,0,0,1-6.737,39.865c-.094.3-.192.595-.291.894h-25.14c.027-.268.054-.568.08-.894,1.676-19.271,11.341-136.559-.214-156.617C861.253,370.4,894.493,424.291,892.545,485.523Z" transform="translate(-577.482 -283.882)"/><path class="a" d="M904.145,613.893c-.21.3-.429.6-.653.894h-18.86c.143-.255.308-.554.5-.894,3.116-5.624,12.338-22.436,20.9-39.865,9.2-18.73,17.639-38.171,16.929-45.207C923.179,530.408,929.544,578.784,904.145,613.893Z" transform="translate(-590.969 -372.387)"/><path class="a" d="M282.995,605.014a70.808,70.808,0,0,0,3.307,19.573c.046.147.094.292.143.439h12.343c-.013-.132-.026-.279-.04-.439-.823-9.462-5.568-67.047.105-76.9C298.358,548.49,282.038,574.95,282.995,605.014Z" transform="translate(-258.251 -382.822)"/><path class="a" d="M273.164,668.04c.1.147.211.294.32.439h9.26c-.07-.125-.151-.272-.246-.439-1.53-2.761-6.057-11.015-10.26-19.573-4.517-9.2-8.66-18.741-8.311-22.2C263.819,627.05,260.693,650.8,273.164,668.04Z" transform="translate(-247.494 -426.275)"/><path class="a" d="M648.92,675.607H520.06a2.389,2.389,0,0,1-2.386-2.386V641.255a2.389,2.389,0,0,1,2.386-2.386H648.92a2.389,2.389,0,0,1,2.386,2.386V673.22A2.389,2.389,0,0,1,648.92,675.607ZM520.06,639.823a1.433,1.433,0,0,0-1.432,1.432V673.22a1.433,1.433,0,0,0,1.432,1.432H648.92a1.433,1.433,0,0,0,1.432-1.432V641.255a1.433,1.433,0,0,0-1.432-1.432Z" transform="translate(-388.047 -433.241)"/><circle class="a" cx="9.721" cy="9.721" r="9.721" transform="translate(142.315 213.05)"/><path class="a" d="M616.02,662.72a1.62,1.62,0,1,0,0,3.24H692.4a1.62,1.62,0,1,0,0-3.24Z" transform="translate(-441.535 -446.43)"/><path class="a" d="M616.02,684.466a1.62,1.62,0,1,0,0,3.24h32.865a1.62,1.62,0,0,0,0-3.24Z" transform="translate(-441.535 -458.456)"/><path class="a" d="M720.921,569.607H592.06a2.389,2.389,0,0,1-2.386-2.386V535.255a2.389,2.389,0,0,1,2.386-2.386h128.86a2.389,2.389,0,0,1,2.386,2.386V567.22A2.389,2.389,0,0,1,720.921,569.607ZM592.06,533.823a1.433,1.433,0,0,0-1.432,1.432V567.22a1.433,1.433,0,0,0,1.432,1.432h128.86a1.433,1.433,0,0,0,1.432-1.432V535.255a1.433,1.433,0,0,0-1.432-1.432Z" transform="translate(-427.862 -374.625)"/><circle class="a" cx="9.721" cy="9.721" r="9.721" transform="translate(174.5 165.666)"/><path class="a" d="M688.02,556.72a1.62,1.62,0,1,0,0,3.24H764.4a1.62,1.62,0,1,0,0-3.24Z" transform="translate(-481.35 -387.814)"/><path class="a" d="M688.02,578.466a1.62,1.62,0,1,0,0,3.24h32.865a1.62,1.62,0,0,0,0-3.24Z" transform="translate(-481.35 -399.839)"/><path class="a" d="M664.921,293.835H536.06a2.389,2.389,0,0,1-2.386-2.386V181.255a2.389,2.389,0,0,1,2.386-2.386h128.86a2.389,2.389,0,0,1,2.386,2.386V291.448a2.389,2.389,0,0,1-2.386,2.387ZM536.06,179.823a1.433,1.433,0,0,0-1.432,1.432V291.448a1.433,1.433,0,0,0,1.432,1.432h128.86a1.433,1.433,0,0,0,1.432-1.432V181.255a1.433,1.433,0,0,0-1.432-1.432Z" transform="translate(-396.895 -178.869)"/><circle class="a" cx="9.721" cy="9.721" r="9.721" transform="translate(149.467 85.65)"/><path class="a" d="M632.02,377.72a1.62,1.62,0,1,0,0,3.24H708.4a1.62,1.62,0,0,0,0-3.24Z" transform="translate(-450.383 -288.83)"/><path class="a" d="M632.02,399.466a1.62,1.62,0,1,0,0,3.24h32.865a1.62,1.62,0,0,0,0-3.24Z" transform="translate(-450.383 -300.855)"/><path class="b" d="M345.106,399.985l1.42,11.31a5.946,5.946,0,0,0,8.316,4.691h0a5.946,5.946,0,0,0,2.793-8.3l-5.974-10.862-1.953-46.7-12.632,2.946Z" transform="translate(-288.18 -273.572)"/><path class="c" d="M176.509,396.772l-9.834.894-5.811-80.91-.223,20.786L139.183,394.76l-8.493-6.705,14.081-56.995-6.705-31.738h43.808Z" transform="translate(-72.269 -165.52)"/><path class="c" d="M453.506,702.16l-18.282-.446a4.954,4.954,0,0,1-5.255-5.719l.749-4.707a4.028,4.028,0,0,1,3.691-3.385h0c3.12,3.229,6.348,2.752,9.661-.691l7.536,7.645,1.125-.151a3.749,3.749,0,0,1,4.1,2.672h0a3.749,3.749,0,0,1-3.327,4.782Z" transform="translate(-339.514 -459.973)"/><path class="c" d="M362.625,693.372l-18.334-6.917a5.3,5.3,0,0,1-2.525-7.909l2.843-4.229a4.306,4.306,0,0,1,5.1-1.624h0c1.574,4.535,4.919,5.523,9.68,3.673l4.676,9.069,1.159.359A4.008,4.008,0,0,1,368,690.23h0a4.008,4.008,0,0,1-5.376,3.143Z" transform="translate(-290.275 -451.791)"/><circle class="b" cx="11.622" cy="11.622" r="11.622" transform="translate(76.972 9.531)"/><path class="b" d="M404,249.86l-20.116-.447c5.527-6.115,8.885-12.495,9.387-19.222H404Z" transform="translate(-314.063 -207.249)"/><path class="d" d="M407.031,365.005c-18.988-4.872-36.8-8.156-47.831-2.235,1.931-20.3-.3-46.212-6.928-73.3-2.152-8.8-.692-16.723,7.152-21.249l10.5-6.035,16.093.447,8.4,4.645a21.081,21.081,0,0,1,11.289,22.788C401.2,313.811,403.633,339.433,407.031,365.005Z" transform="translate(-296.086 -224.945)"/><path class="b" d="M463.317,401.575l1.575,11.289a5.946,5.946,0,0,1-6.806,6.7h0a5.946,5.946,0,0,1-4.858-7.283l2.937-12.043-10.281-45.6,12.964-.447Z" transform="translate(-348.348 -275.819)"/><path class="d" d="M352.893,319.294l-21.01-1.341c1.642-20.668,6.313-31.967,13.411-35.761l7.6,8.94Z" transform="translate(-285.308 -236.005)"/><path class="c" d="M418,202.006c-4.095-1.31-6.22,7.086-12.293,12.293-1.381,1.184-4.825-3.431-6.035-2.012l-1.956-5.953a12.607,12.607,0,0,1,9.131-16.314q.289-.062.584-.111h0a13.034,13.034,0,0,1,14.695,9.347,1.725,1.725,0,0,1-1.308,2.125Z" transform="translate(-321.356 -184.876)"/><path class="d" d="M231.753,143.037l-19.669,4.47-.894-32.185,11.175.447Z" transform="translate(-116.784 -63.771)"/><rect class="d" width="329.997" height="0.894" transform="translate(0 241.506)"/><path class="e" d="M733.41,274.214H604.549a2.389,2.389,0,0,1-2.386-2.386V215.277a2.389,2.389,0,0,1,2.386-2.386H733.41a2.389,2.389,0,0,1,2.386,2.386v56.551A2.389,2.389,0,0,1,733.41,274.214Z" transform="translate(-434.768 -197.683)"/><path class="f" d="M664.2,256.985a1.62,1.62,0,1,0,0,3.24h76.376a1.62,1.62,0,0,0,0-3.24Z" transform="translate(-468.179 -222.066)"/><path class="f" d="M664.2,277.985a1.62,1.62,0,1,0,0,3.24h76.376a1.62,1.62,0,0,0,0-3.24Z" transform="translate(-468.179 -233.679)"/><path class="f" d="M664.2,298.731a1.62,1.62,0,1,0,0,3.24h32.865a1.62,1.62,0,1,0,0-3.24Z" transform="translate(-468.179 -245.151)"/></g></svg>