<svg xmlns="http://www.w3.org/2000/svg" width="17.635" height="20.472" viewBox="0 0 17.635 20.472"><defs><style>.a,.b{stroke:#fff;}.a{stroke-width:0.2px;}.b{stroke-width:0.3px;}</style></defs><g transform="translate(0.1 0.15)"><g transform="translate(0 11.925)"><path class="a" d="M23.159,39.9a.727.727,0,0,1-.727-.727c0-3.372-2.144-6.115-4.778-6.115H12.684c-2.635,0-4.778,2.743-4.778,6.115a.727.727,0,1,1-1.455,0c0-4.174,2.8-7.569,6.233-7.569h4.97c3.437,0,6.233,3.4,6.233,7.569A.728.728,0,0,1,23.159,39.9Z" transform="translate(-6.451 -31.604)"/></g><g transform="translate(3.365)"><path class="b" d="M19.793,14a5.353,5.353,0,1,1,5.353-5.353A5.359,5.359,0,0,1,19.793,14Zm0-9.251a3.9,3.9,0,1,0,3.9,3.9A3.9,3.9,0,0,0,19.793,4.746Z" transform="translate(-14.44 -3.292)"/></g></g></svg>